<?xml version="1.0" encoding="UTF-8"?>
<svg id="Layer_2" data-name="Layer 2" xmlns="http://www.w3.org/2000/svg" viewBox="0 0 151.59 151.46">
  <defs>
    <style>
      .cls-1 {
        fill: #606060;
      }

      .cls-2 {
        fill: #eb2426;
      }
    </style>
  </defs>
  <g id="Layer_1-2" data-name="Layer 1">
    <g>
      <g>
        <g>
          <path class="cls-1" d="M112.27,10.99s-.13-.08-.38-.23c-.25-.14-.61-.4-1.13-.62-1.02-.49-2.51-1.21-4.41-2.13-.47-.23-.97-.47-1.5-.72-.54-.22-1.12-.42-1.71-.64-1.19-.44-2.48-.91-3.86-1.42-1.36-.57-2.89-.88-4.49-1.31-.8-.2-1.62-.41-2.45-.63-.84-.21-1.69-.46-2.59-.56-7.09-1.4-15.62-1.75-24.56-.52-8.94,1.24-18.25,4.33-26.58,9.18-8.35,4.81-15.67,11.32-21.25,18.41-.68.9-1.35,1.8-2.01,2.69-.66.89-1.34,1.75-1.87,2.7-1.11,1.87-2.27,3.66-3.27,5.47-.9,1.87-1.77,3.68-2.62,5.43-.81,1.77-1.36,3.58-2.01,5.27-.3.85-.64,1.67-.89,2.5-.22.84-.43,1.66-.63,2.45-.41,1.6-.79,3.11-1.15,4.53-.44,2.9-.86,5.43-1.13,7.52-.21,4.21-.33,6.61-.33,6.61-.02.42-.36.77-.77.77s-.71-.35-.69-.78c0,0,.12-2.45.34-6.74.28-2.13.7-4.71,1.15-7.66.37-1.45.76-3,1.17-4.62.21-.81.43-1.65.65-2.5.26-.84.6-1.68.9-2.55.66-1.72,1.22-3.56,2.05-5.37.86-1.79,1.75-3.64,2.67-5.54,1.02-1.84,2.19-3.67,3.34-5.57.54-.97,1.24-1.85,1.91-2.76.68-.91,1.36-1.82,2.05-2.74,5.68-7.23,13.14-13.87,21.66-18.77C46.39,5.18,55.88,2.02,65,.76c9.12-1.25,17.8-.89,25.03.53.92.11,1.79.35,2.64.57.86.22,1.69.43,2.5.64,1.62.43,3.19.76,4.57,1.33,1.41.52,2.72,1,3.94,1.45.6.22,1.19.42,1.74.65.54.26,1.05.5,1.53.73,1.94.94,3.46,1.67,4.5,2.17.53.23.89.49,1.15.64.26.15.39.23.39.23.37.23.51.69.31,1.04-.2.35-.66.45-1.03.23Z"/>
          <path class="cls-1" d="M108.77,17.18s-.12-.07-.34-.21c-.23-.13-.54-.36-1.02-.57-.92-.44-2.27-1.09-3.99-1.92-.43-.21-.88-.42-1.35-.66-.48-.2-1.01-.37-1.55-.57-1.08-.4-2.24-.82-3.49-1.28-1.23-.52-2.62-.79-4.05-1.18-.72-.18-1.46-.38-2.21-.57-.76-.2-1.53-.42-2.34-.51-6.41-1.27-14.13-1.57-22.22-.47-8.08,1.12-16.49,3.91-24.02,8.29-7.55,4.35-14.17,10.24-19.22,16.65-.61.82-1.22,1.63-1.82,2.44-.6.81-1.23,1.58-1.7,2.44-1,1.69-2.05,3.31-2.96,4.94-.81,1.68-1.6,3.33-2.36,4.91-.73,1.6-1.22,3.24-1.81,4.76-.27.77-.58,1.51-.81,2.26-.19.76-.38,1.49-.56,2.21-.37,1.44-.72,2.81-1.05,4.09-.39,2.62-.73,4.91-1.02,6.8-.19,3.81-.3,5.99-.3,5.99-.01.19-.18.34-.38.34s-.36-.16-.35-.35c0,0,.11-2.2.31-6.05.25-1.91.64-4.22,1.03-6.87.33-1.3.69-2.68,1.06-4.14.19-.73.38-1.48.57-2.24.23-.76.54-1.5.82-2.28.6-1.53,1.09-3.19,1.83-4.81.77-1.6,1.57-3.26,2.39-4.97.92-1.65,1.98-3.28,2.99-4.99.48-.88,1.11-1.66,1.72-2.47.61-.81,1.22-1.63,1.84-2.46,5.1-6.49,11.79-12.44,19.43-16.83,7.61-4.43,16.11-7.25,24.28-8.38,8.17-1.12,15.98-.81,22.46.47.82.09,1.6.32,2.36.52.77.2,1.51.39,2.24.58,1.45.39,2.86.66,4.1,1.19,1.26.46,2.44.89,3.53,1.29.54.21,1.07.38,1.56.59.48.23.94.45,1.37.66,1.74.83,3.1,1.49,4.03,1.94.48.21.79.44,1.03.58.23.14.35.21.35.21.16.1.22.32.12.5-.1.18-.31.24-.48.14Z"/>
          <path class="cls-1" d="M5.69,68.07c-.03.2-.22.35-.42.33l-4.17-.43c-.2-.02-.34-.21-.31-.43.03-.21.22-.37.42-.34l4.17.47c.2.02.34.2.31.4Z"/>
          <path class="cls-1" d="M32.96,19.78c-.16.12-.39.09-.52-.07l-2.57-3.32c-.12-.16-.08-.39.09-.52.17-.13.41-.1.53.05l2.54,3.35c.12.16.09.39-.07.51Z"/>
          <path class="cls-1" d="M67.39,5.75c-.2.03-.38-.11-.41-.31l-.52-4.16c-.03-.2.13-.39.34-.42.21-.03.4.1.43.3l.47,4.17c.02.2-.12.39-.32.42Z"/>
          <path class="cls-1" d="M74.87,5.25c-.2,0-.37-.15-.37-.35l-.08-4.2c0-.2.17-.37.39-.38.22-.01.39.14.39.35l.03,4.2c0,.2-.16.37-.36.38Z"/>
          <path class="cls-1" d="M100.28,9.67c-.19-.07-.29-.28-.22-.47l1.44-3.94c.07-.19.29-.29.49-.21.2.07.31.29.24.48l-1.48,3.93c-.07.19-.28.29-.47.22Z"/>
          <path class="cls-1" d="M13.32,43.04c-.09.18-.3.25-.48.16l-3.73-1.93c-.18-.09-.25-.33-.16-.52.09-.19.32-.27.49-.18l3.71,1.97c.18.09.25.32.16.5Z"/>
          <path class="cls-1" d="M17.64,35.84c-.12.17-.35.2-.52.09l-3.47-2.36c-.17-.11-.2-.34-.07-.52.13-.17.37-.22.53-.1l3.45,2.39c.16.12.2.34.08.5Z"/>
        </g>
        <g>
          <path class="cls-1" d="M113.59,139.67s.51-.31,1.48-.9c.96-.59,2.41-1.4,4.06-2.72,1.66-1.29,3.82-2.69,5.92-4.75,1.08-1,2.25-2.02,3.44-3.16,1.11-1.22,2.27-2.5,3.48-3.83,4.69-5.47,9.43-12.57,12.79-20.97,3.4-8.37,5.35-17.98,5.36-27.62,0-9.64-1.96-19.25-5.36-27.62-3.36-8.4-8.1-15.5-12.79-20.97-1.21-1.33-2.38-2.62-3.48-3.83-1.19-1.14-2.36-2.17-3.44-3.16-2.1-2.06-4.27-3.46-5.92-4.75-1.65-1.31-3.1-2.13-4.06-2.71-.96-.59-1.48-.9-1.48-.9-.37-.22-.5-.68-.29-1.03.2-.35.67-.45,1.04-.23,0,0,.52.32,1.51.92.98.6,2.46,1.43,4.14,2.77,1.69,1.32,3.9,2.75,6.04,4.84,1.1,1.01,2.3,2.06,3.51,3.22,1.13,1.24,2.32,2.55,3.56,3.91,4.78,5.58,9.61,12.82,13.04,21.38,3.46,8.53,5.46,18.34,5.46,28.16,0,9.83-2,19.63-5.46,28.16-3.43,8.57-8.26,15.8-13.04,21.38-1.24,1.36-2.43,2.67-3.56,3.91-1.21,1.16-2.41,2.21-3.51,3.22-2.14,2.1-4.35,3.52-6.04,4.84-1.68,1.34-3.16,2.17-4.14,2.77-.98.59-1.51.92-1.51.92-.37.22-.84.13-1.04-.22-.2-.35-.07-.81.29-1.03Z"/>
          <path class="cls-1" d="M109.96,133.55s.47-.28,1.34-.81c.87-.53,2.19-1.26,3.67-2.46,1.5-1.18,3.47-2.42,5.36-4.3.98-.9,2.04-1.83,3.12-2.85,1-1.1,2.05-2.26,3.15-3.47,4.24-4.96,8.52-11.37,11.57-18.96,3.07-7.56,4.84-16.24,4.85-24.97,0-8.73-1.77-17.41-4.85-24.97-3.04-7.59-7.33-14-11.57-18.96-1.1-1.21-2.15-2.37-3.15-3.47-1.08-1.03-2.15-1.95-3.12-2.86-1.89-1.87-3.86-3.12-5.36-4.3-1.49-1.2-2.8-1.92-3.67-2.46-.87-.53-1.34-.81-1.34-.81-.16-.1-.21-.32-.11-.5.1-.17.32-.23.48-.13,0,0,.47.29,1.35.82.88.54,2.21,1.27,3.71,2.49,1.51,1.19,3.5,2.45,5.42,4.34.99.91,2.06,1.85,3.15,2.88,1.01,1.12,2.08,2.29,3.19,3.51,4.29,5.01,8.62,11.5,11.69,19.17,3.1,7.64,4.89,16.42,4.9,25.24,0,8.83-1.79,17.6-4.9,25.25-3.08,7.67-7.41,14.15-11.69,19.16-1.11,1.22-2.17,2.4-3.19,3.51-1.09,1.04-2.17,1.97-3.15,2.89-1.91,1.89-3.9,3.15-5.42,4.34-1.5,1.21-2.83,1.95-3.71,2.48-.88.54-1.35.82-1.35.82-.16.1-.38.04-.48-.13-.1-.18-.05-.4.11-.5Z"/>
          <path class="cls-1" d="M117.42,18.91c-.16-.12-.2-.35-.08-.52l2.47-3.4c.12-.16.35-.19.53-.06.17.13.22.36.09.53l-2.5,3.37c-.12.16-.35.2-.51.08Z"/>
          <path class="cls-1" d="M145.64,66.62c-.03-.2.11-.38.31-.41l4.16-.56c.2-.02.39.12.42.34.03.21-.1.4-.31.43l-4.16.52c-.2.03-.39-.11-.42-.32Z"/>
          <path class="cls-1" d="M140.62,103.48c.09-.18.31-.27.49-.19l3.87,1.63c.19.08.26.3.17.5-.09.19-.32.29-.5.21l-3.85-1.67c-.18-.08-.26-.29-.18-.47Z"/>
          <path class="cls-1" d="M137.28,110.18c.1-.17.33-.23.51-.14l3.67,2.04c.18.09.23.33.12.51-.11.18-.34.25-.52.16l-3.65-2.07c-.18-.1-.23-.32-.13-.49Z"/>
          <path class="cls-1" d="M120.78,130.02c.15-.14.37-.12.5.03l2.7,3.22c.13.15.1.39-.06.54-.16.15-.41.12-.53-.03l-2.66-3.25c-.13-.16-.09-.37.05-.51Z"/>
          <path class="cls-1" d="M135.29,38c-.11-.17-.05-.4.12-.51l3.53-2.27c.17-.11.4-.05.51.14.11.18.06.42-.11.53l-3.55,2.23c-.17.1-.39.05-.5-.12Z"/>
          <path class="cls-1" d="M139.35,45.35c-.09-.18-.01-.4.17-.49l3.78-1.83c.18-.09.4,0,.5.19.09.19.02.42-.16.51l-3.79,1.79c-.18.09-.4,0-.49-.17Z"/>
        </g>
        <g>
          <path class="cls-1" d="M1.46,76.5s.12,2.4.33,6.61c.27,2.09.69,4.62,1.13,7.52.36,1.42.75,2.94,1.15,4.53.21.8.42,1.62.63,2.45.25.83.59,1.65.89,2.5.65,1.68,1.2,3.49,2.01,5.26.85,1.76,1.72,3.57,2.62,5.43,1.01,1.81,2.16,3.6,3.27,5.46.53.95,1.22,1.81,1.87,2.7.67.89,1.34,1.78,2.01,2.69,5.58,7.1,12.89,13.6,21.25,18.41,8.33,4.85,17.64,7.94,26.58,9.18,8.94,1.22,17.46.88,24.56-.52.9-.1,1.75-.35,2.59-.56.84-.21,1.65-.43,2.45-.63,1.59-.42,3.13-.74,4.49-1.3,1.38-.51,2.67-.98,3.86-1.41.59-.22,1.17-.42,1.71-.65.52-.25,1.03-.49,1.5-.72,1.9-.92,3.39-1.63,4.41-2.13.52-.23.87-.48,1.13-.62.25-.15.38-.23.38-.23.36-.22.82-.12,1.03.23.2.35.07.81-.31,1.04,0,0-.13.08-.39.23-.26.15-.62.4-1.15.64-1.04.5-2.56,1.23-4.5,2.17-.48.23-.99.48-1.53.73-.55.23-1.14.43-1.74.66-1.22.45-2.53.93-3.94,1.44-1.39.58-2.95.9-4.57,1.34-.82.21-1.65.42-2.5.64-.85.22-1.72.47-2.64.57-7.23,1.43-15.91,1.79-25.03.53-9.11-1.26-18.61-4.41-27.1-9.35-8.52-4.91-15.98-11.54-21.66-18.77-.69-.92-1.37-1.84-2.05-2.74-.68-.91-1.37-1.79-1.91-2.76-1.14-1.9-2.31-3.73-3.34-5.57-.92-1.9-1.81-3.75-2.67-5.54-.82-1.8-1.39-3.65-2.05-5.37-.31-.87-.65-1.7-.9-2.55-.22-.85-.44-1.69-.65-2.5-.41-1.63-.81-3.17-1.17-4.62-.45-2.96-.87-5.54-1.15-7.66C.12,78.96,0,76.51,0,76.51c-.02-.43.29-.78.69-.78s.75.35.77.77Z"/>
          <path class="cls-1" d="M8.58,76.43s.11,2.18.3,5.98c.28,1.89.63,4.17,1.02,6.8.33,1.29.68,2.65,1.05,4.1.18.72.37,1.46.56,2.22.23.75.54,1.49.81,2.26.59,1.52,1.08,3.16,1.81,4.76.76,1.59,1.55,3.23,2.36,4.92.91,1.63,1.96,3.25,2.96,4.93.47.87,1.1,1.64,1.7,2.45.6.8,1.21,1.61,1.82,2.43,5.05,6.42,11.67,12.31,19.22,16.66,7.53,4.38,15.94,7.18,24.02,8.29,8.08,1.1,15.81.8,22.22-.47.81-.09,1.58-.31,2.34-.51.76-.19,1.49-.38,2.21-.57,1.44-.39,2.83-.66,4.05-1.18,1.24-.46,2.41-.89,3.49-1.28.54-.2,1.07-.37,1.55-.58.48-.23.93-.45,1.35-.66,1.72-.83,3.07-1.47,3.99-1.92.47-.2.79-.43,1.02-.56.23-.14.34-.21.34-.21.16-.1.38-.04.48.14.1.17.05.4-.12.5,0,0-.12.07-.35.21-.23.13-.55.37-1.03.57-.93.45-2.29,1.1-4.03,1.94-.43.21-.89.43-1.37.66-.49.21-1.02.38-1.56.58-1.09.4-2.27.83-3.53,1.29-1.24.52-2.65.8-4.1,1.19-.73.19-1.47.38-2.24.58-.76.2-1.54.43-2.36.51-6.48,1.29-14.28,1.59-22.46.48-8.17-1.13-16.67-3.95-24.28-8.38-7.63-4.39-14.33-10.34-19.43-16.83-.62-.83-1.23-1.65-1.84-2.46-.61-.81-1.24-1.6-1.72-2.47-1.01-1.71-2.07-3.34-2.99-5-.82-1.7-1.62-3.36-2.39-4.96-.74-1.61-1.23-3.27-1.83-4.81-.27-.78-.58-1.53-.82-2.28-.2-.76-.39-1.51-.57-2.24-.37-1.46-.73-2.84-1.06-4.14-.39-2.66-.77-4.96-1.03-6.87-.19-3.85-.31-6.05-.31-6.05,0-.19.15-.35.35-.35.2,0,.37.16.38.35Z"/>
          <path class="cls-1" d="M104.18,140.25c.18-.09.39-.01.48.17l1.71,3.83c.08.18,0,.41-.2.5-.19.09-.42.02-.5-.16l-1.67-3.85c-.08-.18,0-.41.18-.49Z"/>
          <path class="cls-1" d="M48.7,140.85c.19.07.28.28.21.46l-1.59,3.89c-.08.18-.3.28-.51.2-.2-.07-.3-.29-.22-.47l1.63-3.87c.08-.19.3-.28.48-.21Z"/>
          <path class="cls-1" d="M19.39,117.96c.12.16.09.39-.07.51l-3.34,2.54c-.16.12-.39.08-.52-.09-.13-.17-.1-.41.06-.54l3.37-2.5c.16-.12.39-.08.51.08Z"/>
          <path class="cls-1" d="M15.22,111.74c.1.17.05.4-.12.5l-3.59,2.17c-.17.11-.4.04-.52-.14s-.06-.42.11-.52l3.62-2.13c.17-.1.4-.04.5.13Z"/>
          <path class="cls-1" d="M6.32,87.55c.03.2-.1.39-.31.42l-4.13.72c-.2.03-.39-.11-.42-.33-.03-.21.1-.41.3-.45l4.14-.68c.2-.03.39.1.41.3Z"/>
          <path class="cls-1" d="M78.7,146.1c.2,0,.37.14.38.35l.2,4.19c0,.2-.16.38-.37.38-.22.01-.4-.14-.4-.34l-.15-4.19c0-.2.15-.37.35-.38Z"/>
          <path class="cls-1" d="M70.3,145.97c.2.01.35.18.34.38l-.3,4.19c-.01.2-.2.35-.41.34-.22-.01-.38-.18-.36-.38l.35-4.18c.02-.2.19-.36.39-.35Z"/>
        </g>
      </g>
      <path class="cls-2" d="M113.07,72.42H45.37l61.91-27.94c2.08-.94,3-3.39,2.07-5.46l-3.46-7.66c-.94-2.08-3.38-3-5.46-2.07l-63.39,28.62c-2.08.93-3,3.38-2.07,5.46l3.46,7.65c.45,1.01,1.26,1.74,2.2,2.13-.99.7-1.64,1.86-1.64,3.17v37.02c0,3.98,3.23,7.2,7.21,7.2h63.57c3.98,0,7.21-3.22,7.21-7.2v-37.02c0-2.15-1.75-3.9-3.91-3.9ZM89.44,38.05l11.75-5.31-4.59,12.77-12.04,5.43,4.88-12.89ZM68.71,47.4l12.1-5.46-5.13,13-11.84,5.34,4.87-12.88ZM47.99,56.75l11.84-5.34-4.87,12.88-11.84,5.34,4.87-12.88Z"/>
    </g>
  </g>
</svg>