<?xml version="1.0" encoding="UTF-8"?>
<svg id="Layer_2" data-name="Layer 2" xmlns="http://www.w3.org/2000/svg" viewBox="0 0 67.79 63.41">
  <g id="Layer_1-2" data-name="Layer 1">
    <path d="M67.55,53.95l-8.02-8.02c-.33-.33-.86-.33-1.19,0l-7.77,7.77h-3.98l-4.77-4.77c-.33-.33-.86-.33-1.19,0-.33.33-.33.86,0,1.19l3.58,3.58H15.32c-5.83,0-10.58-4.74-10.58-10.58s4.74-10.58,10.58-10.58h10.21l7.77,7.77c.16.16.37.25.6.25s.44-.09.6-.25l7.77-7.77h3.98l4.83,4.83c.16.16.38.25.6.25s.43-.08.6-.25c.33-.33.33-.86,0-1.19l-3.64-3.64h3.84c6.76,0,12.26-5.5,12.26-12.26s-5.5-12.26-12.26-12.26H17.23L9.46.25c-.16-.16-.37-.25-.6-.25s-.44.09-.6.25L.25,8.27c-.16.16-.25.37-.25.6s.09.44.25.6l8.02,8.02c.16.16.38.25.6.25s.43-.08.6-.25l7.77-7.77h35.25c5.83,0,10.58,4.74,10.58,10.58s-4.74,10.58-10.57,10.58h-3.84l3.58-3.58c.33-.33.33-.86,0-1.19-.33-.33-.86-.33-1.19,0l-4.77,4.77h-3.98l-7.77-7.77c-.16-.16-.37-.25-.6-.25s-.44.09-.6.25l-7.77,7.77h-10.21c-6.76,0-12.26,5.5-12.26,12.26s5.5,12.26,12.26,12.26h28.88l-3.64,3.64c-.33.33-.33.86,0,1.19.16.16.38.25.6.25s.43-.08.6-.25l4.83-4.83h3.98l7.77,7.77c.16.16.37.25.6.25s.44-.09.6-.25l8.02-8.02c.16-.16.25-.37.25-.6s-.09-.44-.24-.6h0ZM8.86,15.69l-6.82-6.83,6.82-6.83,6.82,6.83-6.82,6.83ZM33.9,24.88l6.82,6.82-6.82,6.82-6.82-6.82,6.82-6.82ZM58.93,61.37l-6.82-6.82,6.82-6.82,6.82,6.82-6.82,6.82Z"/>
  </g>
</svg>