<?xml version="1.0" encoding="UTF-8"?>
<svg id="Layer_2" data-name="Layer 2" xmlns="http://www.w3.org/2000/svg" viewBox="0 0 37.44 37.36">
  <g id="Layer_1-2" data-name="Layer 1">
    <g>
      <path d="M36.47,17.89h-7.98v-7.32c0-.43.07-1.12-.78-1.12h-8.73v-1.1h0V1.1c0-.5-.41-.91-.91-.91H.99C.55.19.19.55.19.99v17.13c0,.47.38.86.86.86h8.16v8.61c0,.46.37.83.83.83h7.94v7.98c0,.43.35.79.79.79h17.71c.43,0,.79-.35.79-.79v-17.71c0-.43-.35-.79-.79-.79ZM1.19,1.19h16.78l-.04,16.78h-8.72s0,0,0,0H1.19V1.19ZM18.47,27.41h-8.26v-8.4h7.8c.53,0,.96-.43.96-.96v-7.46h0v-.13h8.51v16.95h-9.02ZM36.25,36.17h-17.28v-7.76h8.73c.43,0,.79-.35.79-.79v-8.65s7.76,0,7.76,0v17.2Z"/>
      <path d="M36.47,37.36h-17.71c-.54,0-.98-.44-.98-.98v-7.79h-7.75c-.56,0-1.02-.46-1.02-1.01v-8.42H1.05c-.58,0-1.05-.47-1.05-1.05V.99C0,.44.44,0,.99,0h17.07c.61,0,1.1.49,1.1,1.1v7.22s0,.02,0,.04v.91h8.54c.31,0,.55.08.72.25.26.27.26.67.25.96v.09s0,7.13,0,7.13h7.79c.54,0,.98.44.98.98v17.71c0,.54-.44.98-.98.98ZM.99.38C.65.38.38.65.38.99v17.13c0,.37.3.67.67.67h8.16c.1,0,.19.08.19.19v8.61c0,.35.29.64.64.64h7.94c.1,0,.19.08.19.19v7.98c0,.33.27.6.6.6h17.71c.33,0,.6-.27.6-.6v-17.71c0-.33-.27-.6-.6-.6h-7.98c-.1,0-.19-.08-.19-.19v-7.42c0-.25,0-.54-.15-.69-.09-.09-.24-.14-.45-.14h-8.73c-.1,0-.19-.08-.19-.19v-1.06s0-.03,0-.04V1.1c0-.4-.32-.72-.72-.72H.99ZM36.25,36.36h-17.28c-.1,0-.19-.08-.19-.19v-7.76c0-.1.08-.19.19-.19h8.73c.33,0,.6-.27.6-.6v-8.65c0-.1.08-.19.19-.19h7.76c.1,0,.19.08.19.19v17.2c0,.1-.08.19-.19.19ZM19.16,35.98h16.91v-16.82h-7.39v8.46c0,.54-.44.98-.98.98h-8.54v7.39ZM27.49,27.59H10.21c-.1,0-.19-.08-.19-.19v-8.4c0-.1.08-.19.19-.19h7.8c.43,0,.77-.35.77-.77v-7.46s0-.03,0-.04v-.09c0-.1.08-.19.19-.19h8.51c.1,0,.19.08.19.19v16.95c0,.1-.08.19-.19.19ZM10.39,27.22h16.91V10.64h-8.14v7.4c0,.63-.52,1.15-1.15,1.15h-7.62v8.02ZM17.93,18.16H1.19c-.1,0-.19-.08-.19-.19V1.19c0-.1.08-.19.19-.19h16.78s.1.02.13.06.05.08.05.13l-.04,16.78c0,.1-.08.19-.19.19ZM1.38,17.78h16.36s.04-16.4.04-16.4H1.38v16.4Z"/>
    </g>
  </g>
</svg>