<?xml version="1.0" encoding="UTF-8"?>
<svg id="Layer_1" data-name="Layer 1" xmlns="http://www.w3.org/2000/svg" viewBox="0 0 144 144">
  <defs>
    <style>
      .cls-1 {
        fill: #00c93d;
      }

      .cls-2 {
        fill: #606060;
      }
    </style>
  </defs>
  <g id="Layer_1-2" data-name="Layer 1-2">
    <g>
      <g>
        <path class="cls-2" d="M106.45,10.42s-.14-.07-.34-.21c-.24-.14-.58-.38-1.06-.58-.96-.48-2.36-1.13-4.18-2.02-.45-.21-.92-.45-1.4-.68-.51-.21-1.06-.41-1.61-.62-1.13-.41-2.36-.86-3.66-1.34-1.3-.55-2.74-.82-4.25-1.23-.75-.21-1.54-.38-2.33-.58s-1.61-.45-2.47-.55c-6.71-1.34-14.79-1.64-23.28-.48-8.46,1.16-17.29,4.11-25.2,8.7-7.91,4.55-14.86,10.72-20.13,17.46-.65.86-1.27,1.71-1.92,2.53-.62.86-1.27,1.68-1.78,2.57-1.06,1.78-2.16,3.46-3.12,5.17-.86,1.78-1.68,3.49-2.47,5.14-.75,1.68-1.3,3.39-1.92,5-.27.82-.62,1.58-.86,2.36-.21.79-.41,1.58-.62,2.33-.38,1.51-.75,2.94-1.1,4.28-.41,2.74-.82,5.14-1.06,7.12-.21,3.97-.31,6.27-.31,6.27,0,.41-.34.72-.72.72S0,71.44.03,71.02c0,0,.1-2.33.31-6.4.27-2.02.65-4.45,1.1-7.26.34-1.37.72-2.84,1.13-4.38.21-.79.41-1.58.62-2.36.24-.79.58-1.58.86-2.43.62-1.64,1.16-3.39,1.95-5.1.82-1.71,1.68-3.46,2.53-5.24.96-1.75,2.09-3.49,3.15-5.27.51-.92,1.16-1.75,1.81-2.6s1.3-1.71,1.95-2.6c5.38-6.85,12.46-13.15,20.54-17.81C43.96,4.91,52.97,1.93,61.63.73c8.63-1.2,16.88-.86,23.73.51.86.1,1.71.34,2.5.55.82.21,1.61.41,2.36.62,1.54.41,3.01.72,4.35,1.27,1.34.48,2.57.96,3.73,1.37.58.21,1.13.41,1.64.62.51.24.99.48,1.44.68,1.85.89,3.29,1.58,4.25,2.05.51.21.86.48,1.1.62s.38.21.38.21c.34.21.48.65.31.99-.21.34-.62.41-.96.21Z"/>
        <path class="cls-2" d="M103.13,16.31s-.1-.07-.31-.21-.51-.34-.96-.55c-.86-.41-2.16-1.03-3.77-1.81-.41-.21-.82-.41-1.27-.62-.45-.21-.96-.34-1.47-.55-1.03-.38-2.12-.79-3.32-1.2-1.16-.48-2.47-.75-3.83-1.13-.68-.17-1.37-.34-2.09-.55-.72-.17-1.44-.41-2.23-.48-6.06-1.2-13.39-1.51-21.06-.45-7.67,1.06-15.61,3.7-22.77,7.88-7.16,4.11-13.42,9.72-18.22,15.78-.58.79-1.16,1.54-1.71,2.29-.58.75-1.16,1.51-1.61,2.33-.96,1.61-1.95,3.15-2.81,4.69-.75,1.61-1.51,3.15-2.23,4.66-.68,1.51-1.16,3.08-1.71,4.52-.27.72-.55,1.44-.75,2.16-.17.72-.38,1.4-.55,2.09-.34,1.37-.68,2.67-.99,3.87-.38,2.5-.68,4.66-.96,6.44-.17,3.63-.27,5.68-.27,5.68,0,.17-.17.34-.38.34s-.34-.14-.34-.34c0,0,.1-2.09.27-5.75.24-1.81.62-4.01.96-6.51.31-1.23.65-2.53.99-3.94.17-.68.34-1.4.55-2.12.21-.72.51-1.44.79-2.16.58-1.44,1.03-3.01,1.75-4.55.72-1.51,1.51-3.08,2.26-4.73.86-1.58,1.88-3.12,2.84-4.73.45-.82,1.06-1.58,1.64-2.33s1.16-1.54,1.75-2.33c4.83-6.16,11.2-11.78,18.42-15.96,7.22-4.21,15.27-6.88,23.01-7.94,7.74-1.06,15.17-.75,21.3.45.79.1,1.51.31,2.23.48.72.17,1.44.38,2.12.55,1.37.38,2.7.62,3.87,1.13,1.2.45,2.29.86,3.36,1.23.51.21,1.03.38,1.47.55.45.21.89.41,1.3.62,1.64.79,2.94,1.4,3.83,1.85.45.21.75.41.96.55.21.14.34.21.34.21.17.1.21.31.1.48-.1.17-.31.24-.45.14h-.07v-.03Z"/>
        <path class="cls-2" d="M5.41,64.55c0,.21-.21.34-.41.31l-3.97-.41c-.21,0-.31-.21-.27-.41,0-.21.21-.34.41-.34l3.94.45c.21,0,.31.21.31.38h0v.03Z"/>
        <path class="cls-2" d="M31.26,18.77s-.38.07-.48-.07l-2.43-3.15s-.07-.38.07-.48c.17-.14.38-.1.51.07l2.4,3.18s.07.38-.07.48h0v-.03Z"/>
        <path class="cls-2" d="M63.89,5.45s-.38-.1-.38-.31l-.48-3.94c0-.21.14-.38.31-.41.21,0,.38.1.41.27l.45,3.94c0,.21-.1.38-.31.41h0v.03Z"/>
        <path class="cls-2" d="M70.98,5.01c-.21,0-.34-.14-.34-.34l-.07-3.97c0-.21.17-.34.38-.38.21,0,.38.14.38.34v3.97c0,.21-.14.34-.31.38h-.03Z"/>
        <path class="cls-2" d="M95.09,9.19s-.27-.27-.21-.45l1.37-3.73s.27-.27.48-.21c.21.07.31.27.24.45l-1.4,3.73s-.27.27-.45.21h-.03Z"/>
        <path class="cls-2" d="M12.63,40.82c-.07.17-.27.24-.45.17l-3.53-1.81s-.24-.31-.14-.48.31-.27.48-.17l3.53,1.85s.24.31.17.48h-.07v-.03Z"/>
        <path class="cls-2" d="M16.71,33.98s-.34.21-.48.1l-3.29-2.23s-.17-.31-.07-.48c.14-.17.34-.21.51-.1l3.25,2.26s.21.31.07.48h0v-.03Z"/>
      </g>
      <g>
        <path class="cls-2" d="M107.69,132.42s.48-.31,1.4-.86,2.29-1.34,3.87-2.57c1.58-1.23,3.63-2.53,5.62-4.49,1.03-.96,2.12-1.92,3.25-3.01,1.06-1.16,2.16-2.36,3.29-3.63,4.45-5.17,8.94-11.92,12.12-19.89,3.22-7.94,5.07-17.05,5.07-26.19s-1.85-18.25-5.07-26.19c-3.18-7.98-7.67-14.69-12.12-19.89-1.16-1.27-2.26-2.47-3.29-3.63-1.13-1.06-2.23-2.05-3.25-2.98-1.99-1.95-4.04-3.29-5.62-4.52s-2.94-2.02-3.87-2.57c-.92-.55-1.4-.86-1.4-.86-.34-.21-.48-.65-.27-.99s.62-.41.99-.21c0,0,.51.31,1.44.86.92.58,2.33,1.37,3.94,2.64,1.61,1.23,3.7,2.6,5.72,4.59,1.06.96,2.19,1.95,3.32,3.05,1.06,1.16,2.19,2.43,3.36,3.7,4.52,5.27,9.11,12.16,12.36,20.27,3.29,8.08,5.17,17.39,5.17,26.71s-1.88,18.63-5.17,26.71c-3.25,8.11-7.84,14.96-12.36,20.27-1.16,1.3-2.29,2.53-3.36,3.7-1.13,1.1-2.29,2.09-3.32,3.05-2.02,1.99-4.11,3.36-5.72,4.59-1.61,1.27-2.98,2.05-3.94,2.64-.92.55-1.44.86-1.44.86-.34.21-.79.1-.99-.21-.21-.34-.07-.75.27-.99v.07Z"/>
        <path class="cls-2" d="M104.26,126.63s.45-.27,1.27-.75c.82-.51,2.09-1.2,3.49-2.33,1.44-1.13,3.29-2.29,5.07-4.07.92-.86,1.95-1.75,2.94-2.7.96-1.06,1.95-2.16,2.98-3.29,4.01-4.69,8.08-10.79,10.96-17.98,2.91-7.16,4.59-15.41,4.59-23.66s-1.68-16.5-4.59-23.66c-2.88-7.19-6.95-13.29-10.96-17.98-1.03-1.16-2.05-2.26-2.98-3.29-1.03-.96-2.02-1.85-2.94-2.7-1.78-1.78-3.66-2.94-5.07-4.07s-2.67-1.81-3.49-2.33c-.82-.51-1.27-.75-1.27-.75-.17-.1-.21-.31-.1-.48.1-.17.31-.21.45-.14,0,0,.45.27,1.27.79.82.51,2.09,1.2,3.53,2.36,1.44,1.13,3.32,2.33,5.14,4.11.92.86,1.95,1.75,2.98,2.74.96,1.06,1.95,2.16,3.01,3.32,4.07,4.76,8.18,10.89,11.09,18.18,2.94,7.26,4.62,15.58,4.66,23.93,0,8.35-1.71,16.68-4.66,23.93-2.91,7.26-7.02,13.42-11.09,18.18-1.06,1.16-2.05,2.26-3.01,3.32-1.03.99-2.05,1.88-2.98,2.74-1.81,1.78-3.7,2.98-5.14,4.11-1.44,1.13-2.67,1.85-3.53,2.36-.82.51-1.27.79-1.27.79-.17.1-.38,0-.45-.14-.1-.17-.03-.38.1-.48,0,0,0-.07,0-.07Z"/>
        <path class="cls-2" d="M111.32,17.95s-.21-.34-.07-.48l2.33-3.22s.34-.17.51-.07c.17.14.21.34.1.51l-2.36,3.18s-.34.17-.48.07h-.03Z"/>
        <path class="cls-2" d="M138.09,63.18s.1-.38.31-.38l3.94-.55s.38.1.41.31c0,.21-.1.38-.27.41l-3.94.48c-.21,0-.38-.1-.41-.31h0l-.03.03Z"/>
        <path class="cls-2" d="M133.33,98.11s.31-.24.48-.17l3.66,1.54s.24.27.17.48c-.1.17-.31.27-.48.21l-3.66-1.58s-.24-.27-.17-.45h0v-.03Z"/>
        <path class="cls-2" d="M130.15,104.48s.31-.21.48-.14l3.49,1.92s.21.31.1.48c-.1.17-.31.24-.48.14l-3.46-1.95s-.21-.31-.14-.48h0v.03Z"/>
        <path class="cls-2" d="M114.5,123.28s.34-.1.48,0l2.57,3.05s.1.38-.07.51c-.14.14-.38.1-.51,0l-2.53-3.08s-.1-.34,0-.48h.07Z"/>
        <path class="cls-2" d="M128.26,36.03s0-.38.1-.48l3.36-2.16s.38-.03.48.14.07.41-.1.51l-3.36,2.12s-.38.03-.48-.1h0v-.03Z"/>
        <path class="cls-2" d="M132.1,43.02c-.07-.17,0-.38.17-.45l3.6-1.75s.38,0,.48.17,0,.41-.14.48l-3.6,1.71s-.38,0-.48-.17h-.03Z"/>
      </g>
      <g>
        <path class="cls-2" d="M1.37,72.53s.1,2.29.31,6.27c.24,1.99.65,4.38,1.06,7.12.34,1.34.72,2.77,1.1,4.31.21.75.41,1.54.62,2.33.24.79.55,1.58.86,2.36.62,1.61,1.13,3.32,1.92,5,.79,1.68,1.64,3.39,2.47,5.14.96,1.71,2.05,3.42,3.12,5.17.51.89,1.16,1.71,1.78,2.57.62.86,1.27,1.68,1.92,2.53,5.27,6.71,12.22,12.91,20.13,17.46,7.91,4.59,16.71,7.53,25.2,8.7,8.49,1.16,16.57.82,23.28-.48.86-.1,1.64-.34,2.47-.55.79-.21,1.58-.41,2.33-.58,1.51-.41,2.98-.68,4.25-1.23,1.3-.48,2.53-.92,3.66-1.34.55-.21,1.13-.41,1.61-.62.51-.24.96-.48,1.4-.68,1.81-.86,3.22-1.54,4.18-2.02.48-.21.82-.45,1.06-.58.24-.14.34-.21.34-.21.34-.21.79-.1.96.21.21.34.07.79-.31.99,0,0-.14.07-.38.21s-.58.38-1.1.62c-.99.48-2.43,1.16-4.25,2.05-.45.21-.96.45-1.44.68-.51.21-1.06.41-1.64.62-1.16.41-2.4.89-3.73,1.37-1.3.55-2.81.86-4.35,1.27-.79.21-1.58.41-2.36.62-.82.21-1.64.45-2.5.55-6.85,1.37-15.1,1.68-23.73.51-8.63-1.2-17.63-4.18-25.68-8.87-8.08-4.66-15.13-10.96-20.54-17.81-.65-.89-1.3-1.75-1.95-2.6-.65-.86-1.3-1.68-1.81-2.6-1.1-1.81-2.19-3.53-3.15-5.27-.86-1.81-1.71-3.56-2.53-5.24-.79-1.71-1.3-3.46-1.95-5.1-.31-.82-.62-1.61-.86-2.43-.21-.82-.41-1.61-.62-2.36-.38-1.54-.75-3.01-1.13-4.38-.41-2.81-.82-5.24-1.1-7.26C.1,74.86,0,72.57,0,72.57c0-.41.27-.75.65-.75s.72.34.72.72Z"/>
        <path class="cls-2" d="M8.15,72.46s.1,2.05.27,5.68c.27,1.78.58,3.97.96,6.44.31,1.23.65,2.5.99,3.87.17.68.34,1.4.55,2.09.21.72.51,1.4.75,2.16.55,1.44,1.03,3.01,1.71,4.52.72,1.51,1.47,3.05,2.23,4.66.86,1.54,1.85,3.08,2.81,4.69.45.82,1.03,1.54,1.61,2.33.58.75,1.13,1.54,1.71,2.29,4.79,6.09,11.06,11.68,18.22,15.78,7.16,4.14,15.1,6.81,22.77,7.88,7.67,1.06,15,.75,21.06-.45.79-.07,1.51-.31,2.23-.48s1.4-.38,2.09-.55c1.37-.38,2.67-.62,3.83-1.13,1.16-.45,2.29-.86,3.32-1.2.51-.21,1.03-.34,1.47-.55.45-.21.89-.45,1.27-.62,1.64-.79,2.91-1.4,3.77-1.81.45-.21.75-.41.96-.55.21-.14.31-.21.31-.21.17-.1.34,0,.45.14.1.17.03.38-.1.48,0,0-.1.07-.34.21-.21.14-.51.34-.96.55-.89.41-2.16,1.06-3.83,1.85-.41.21-.86.41-1.3.62-.48.21-.96.38-1.47.55-1.03.38-2.16.79-3.36,1.23-1.16.51-2.5.75-3.87,1.13-.68.17-1.4.38-2.12.55-.72.21-1.47.41-2.23.48-6.13,1.23-13.56,1.51-21.3.45-7.74-1.06-15.78-3.73-23.01-7.94-7.22-4.18-13.59-9.79-18.42-15.96-.58-.79-1.16-1.58-1.75-2.33-.58-.79-1.16-1.51-1.64-2.33-.96-1.61-1.95-3.18-2.84-4.73-.79-1.61-1.54-3.18-2.26-4.69-.68-1.54-1.16-3.12-1.75-4.55-.27-.75-.55-1.44-.79-2.16-.17-.72-.38-1.44-.55-2.12-.34-1.37-.68-2.7-.99-3.94-.38-2.53-.72-4.69-.96-6.51-.17-3.66-.27-5.75-.27-5.75,0-.17.14-.34.34-.34s.34.14.38.34l.07-.07Z"/>
        <path class="cls-2" d="M98.78,133s.38,0,.45.17l1.61,3.63s0,.38-.21.48c-.17.1-.41,0-.48-.17l-1.58-3.66s0-.38.17-.48h.03v.03Z"/>
        <path class="cls-2" d="M46.19,133.55c.17.07.27.27.21.45l-1.51,3.7s-.27.27-.48.21-.27-.27-.21-.45l1.54-3.66s.27-.27.45-.21h0v-.03Z"/>
        <path class="cls-2" d="M18.39,111.84s.07.38-.07.48l-3.18,2.4s-.38.07-.51-.07c-.14-.17-.1-.38.07-.51l3.18-2.36s.38-.07.48.07h.03Z"/>
        <path class="cls-2" d="M14.45,105.95s.03.38-.1.48l-3.42,2.05s-.38.03-.48-.14-.07-.41.1-.48l3.42-2.02s.38-.03.48.14h0v-.03Z"/>
        <path class="cls-2" d="M5.99,83.01s-.1.38-.27.41l-3.9.68c-.17,0-.38-.1-.41-.31,0-.21.1-.38.27-.41l3.94-.65c.21,0,.38.1.38.27Z"/>
        <path class="cls-2" d="M74.61,138.55c.21,0,.34.14.38.34l.17,3.97c0,.21-.14.34-.34.38-.21,0-.38-.14-.38-.34l-.14-3.97c0-.21.14-.34.34-.38h-.03Z"/>
        <path class="cls-2" d="M66.67,138.41c.21,0,.34.17.31.38l-.27,3.97c0,.21-.21.34-.38.31-.21,0-.34-.17-.34-.38l.34-3.97c0-.21.17-.34.38-.34h-.03v.03Z"/>
      </g>
    </g>
  </g>
  <g id="Layer_1-2-2" data-name="Layer 1-2-2">
    <g>
      <path class="cls-1" d="M96.46,91.91c-.58,4.49-.89,9.01-.92,13.52,0,10-8.18,11.74-16.85,11.78-10.31-.17-23.97-3.36-27.12-14.65-2.19-8.01,1.81-17.15,6.13-24.28,2.29-3.83,5.07-7.5,6.81-11.64,1.1-2.67,1.61-5.41.96-8.15-1.37-6.09-8.29-9.66-10.37-15.48-2.7-6.68,1.54-12.02,7.77-14.52,7.4-3.08,16.85-3.08,23.35,2.02,4.73,3.83,6.2,9.83,7.88,15.89.99,3.73,2.05,7.43,3.42,11.03,1.27,3.42,2.74,6.81,4.38,10.07,1.16,2.5,2.74,4.86,2.33,7.57-.51,2.81-3.56,3.08-5.24,4.83-2.36,2.47-1.78,6.88-2.23,10.03-.1.65-.17,1.3-.27,1.99h-.03ZM87.48,60.68c2.91-2.77,1.68-8.01-2.33-8.87-4.21-.99-8.08,3.73-5.99,7.64,1.51,3.05,5.89,3.73,8.25,1.27l.07-.07h0v.03Z"/>
      <path class="cls-1" d="M43.86,51.78c7.09-.92,8.11,9.72,1.27,10.41-6.85.65-7.81-9.55-1.27-10.41Z"/>
    </g>
  </g>
</svg>