<?xml version="1.0" encoding="UTF-8"?>
<svg id="Layer_1" data-name="Layer 1" xmlns="http://www.w3.org/2000/svg" viewBox="0 0 144 144">
  <defs>
    <style>
      .cls-1 {
        fill: #00c93d;
      }

      .cls-2 {
        fill: #606060;
      }
    </style>
  </defs>
  <g id="Layer_1-2" data-name="Layer 1-2">
    <g>
      <g>
        <path class="cls-2" d="M106.64,10.43s-.12-.07-.35-.22c-.24-.14-.58-.38-1.06-.59-.97-.46-2.39-1.15-4.19-2.02-.44-.22-.93-.44-1.42-.68-.51-.22-1.06-.39-1.63-.61-1.13-.41-2.36-.87-3.67-1.34-1.29-.54-2.75-.84-4.26-1.24-.76-.2-1.54-.39-2.33-.59-.8-.21-1.61-.43-2.46-.53-6.74-1.33-14.83-1.66-23.33-.49-8.49,1.17-17.33,4.11-25.24,8.72-7.93,4.57-14.88,10.75-20.18,17.49-.64.86-1.28,1.71-1.91,2.55s-1.27,1.67-1.78,2.57c-1.06,1.78-2.15,3.47-3.11,5.19-.86,1.78-1.69,3.49-2.49,5.16-.77,1.69-1.29,3.4-1.9,5-.29.81-.6,1.59-.85,2.37-.21.8-.41,1.57-.6,2.33-.38,1.52-.75,2.96-1.1,4.3-.41,2.76-.81,5.16-1.06,7.14-.21,4-.31,6.28-.31,6.28-.02.41-.34.73-.73.73s-.68-.34-.66-.75c0,0,.12-2.33.33-6.4.27-2.02.66-4.47,1.09-7.28.35-1.38.72-2.85,1.11-4.39.2-.77.41-1.57.61-2.38.25-.8.56-1.6.86-2.42.63-1.63,1.16-3.38,1.94-5.1.82-1.7,1.67-3.45,2.53-5.26.97-1.75,2.08-3.49,3.17-5.29.51-.92,1.17-1.75,1.81-2.62.64-.86,1.29-1.73,1.94-2.6,5.4-6.88,12.49-13.18,20.58-17.83C44.06,4.91,53.09,1.92,61.74.72c8.66-1.18,16.91-.85,23.78.5.87.1,1.7.34,2.5.54s1.61.41,2.38.61c1.54.41,3.03.72,4.34,1.26,1.34.49,2.58.95,3.74,1.37.57.22,1.13.39,1.66.62.51.25,1,.48,1.45.69,1.83.89,3.29,1.59,4.27,2.06.5.22.85.46,1.09.61.25.15.37.22.37.22.35.22.48.65.3.99-.2.33-.63.42-.98.22h.02s0,.02,0,.02h0Z"/>
        <path class="cls-2" d="M103.31,16.31s-.11-.07-.33-.2c-.22-.12-.51-.34-.97-.54-.87-.41-2.15-1.03-3.79-1.81-.41-.2-.84-.41-1.28-.62-.45-.2-.96-.35-1.47-.54-1.03-.38-2.13-.78-3.32-1.21-1.16-.49-2.49-.75-3.86-1.13-.68-.18-1.38-.35-2.1-.54-.72-.19-1.45-.41-2.22-.48-6.09-1.2-13.42-1.49-21.1-.44-7.67,1.06-15.66,3.72-22.81,7.87-7.17,4.13-13.46,9.73-18.26,15.82-.58.78-1.15,1.55-1.73,2.32s-1.16,1.5-1.62,2.32c-.96,1.61-1.94,3.15-2.81,4.69-.77,1.6-1.52,3.16-2.25,4.66-.7,1.52-1.16,3.08-1.72,4.52-.26.73-.55,1.43-.77,2.14-.19.72-.37,1.42-.53,2.1-.35,1.37-.68,2.67-1,3.89-.38,2.5-.7,4.66-.97,6.46-.18,3.62-.29,5.69-.29,5.69,0,.19-.17.33-.37.33s-.34-.15-.34-.34c0,0,.11-2.09.29-5.75.24-1.81.61-4.01.98-6.52.31-1.23.65-2.54,1.01-3.94.18-.69.35-1.4.54-2.13.22-.72.51-1.43.78-2.17.57-1.46,1.03-3.03,1.74-4.57.74-1.52,1.49-3.1,2.28-4.72.87-1.57,1.88-3.12,2.84-4.73.45-.83,1.06-1.58,1.63-2.35.58-.77,1.15-1.55,1.75-2.34,4.84-6.16,11.2-11.82,18.46-15.99,7.23-4.21,15.31-6.89,23.06-7.96,7.76-1.06,15.18-.77,21.33.44.78.09,1.52.31,2.25.49s1.44.37,2.13.55c1.38.37,2.71.63,3.9,1.13,1.19.43,2.32.85,3.35,1.22.51.2,1.02.37,1.49.56.45.22.89.42,1.3.63,1.65.79,2.94,1.41,3.83,1.85.45.2.76.41.98.54s.33.2.33.2c.16.09.21.31.11.47s-.3.23-.45.13v-.02s0,0,0,0h0Z"/>
        <path class="cls-2" d="M5.4,64.65c-.03.19-.21.33-.39.31l-3.97-.41c-.19-.02-.31-.2-.29-.41.03-.21.21-.35.39-.33l3.97.45c.19.02.31.19.3.38h0s0,0,0,0Z"/>
        <path class="cls-2" d="M31.31,18.79c-.16.12-.38.09-.49-.07l-2.44-3.16c-.12-.15-.08-.38.09-.49s.39-.1.5.05l2.41,3.18c.12.15.09.37-.07.48h0Z"/>
        <path class="cls-2" d="M64.01,5.46c-.19.03-.37-.11-.38-.3l-.49-3.95c-.02-.2.12-.38.33-.41s.38.1.41.29l.44,3.95c.02.2-.12.37-.31.41h0s0,0,0,0Z"/>
        <path class="cls-2" d="M71.11,4.99c-.19,0-.35-.14-.35-.33l-.07-3.98c0-.19.16-.35.37-.37.21,0,.38.14.38.33l.03,3.98c0,.19-.15.35-.34.37h0Z"/>
        <path class="cls-2" d="M95.25,9.18c-.18-.07-.28-.27-.21-.44l1.37-3.74c.07-.18.28-.28.46-.2.19.07.3.28.23.45l-1.41,3.73c-.07.18-.27.27-.44.21h0Z"/>
        <path class="cls-2" d="M12.65,40.88c-.08.18-.29.25-.45.16l-3.54-1.83c-.17-.09-.24-.31-.15-.49s.31-.26.46-.17l3.52,1.86c.17.09.24.31.16.47h0Z"/>
        <path class="cls-2" d="M16.76,34.04c-.12.16-.34.19-.49.09l-3.29-2.24c-.16-.11-.19-.33-.07-.49.12-.17.35-.21.5-.1l3.28,2.27c.16.11.19.33.08.47Z"/>
      </g>
      <g>
        <path class="cls-2" d="M107.89,132.67s.48-.3,1.4-.85c.92-.56,2.29-1.33,3.86-2.58,1.58-1.23,3.63-2.55,5.63-4.51,1.03-.95,2.14-1.92,3.28-3.01,1.06-1.15,2.16-2.37,3.32-3.64,4.46-5.2,8.96-11.95,12.15-19.91,3.22-7.95,5.08-17.08,5.09-26.24,0-9.15-1.86-18.29-5.09-26.24-3.19-7.98-7.69-14.72-12.15-19.91-1.15-1.26-2.26-2.49-3.32-3.64-1.13-1.07-2.25-2.06-3.28-3-1.99-1.95-4.05-3.29-5.63-4.51-1.57-1.25-2.94-2.02-3.86-2.57-.92-.56-1.4-.86-1.4-.86-.34-.21-.47-.65-.28-.98.19-.34.63-.42.99-.22,0,0,.49.31,1.43.88s2.34,1.36,3.94,2.63c1.61,1.25,3.7,2.6,5.74,4.59,1.05.96,2.19,1.96,3.33,3.06,1.07,1.18,2.2,2.42,3.38,3.72,4.54,5.3,9.13,12.17,12.39,20.31,3.29,8.11,5.19,17.42,5.19,26.75s-1.89,18.64-5.19,26.75c-3.26,8.14-7.85,15.01-12.39,20.31-1.17,1.29-2.31,2.53-3.38,3.71-1.14,1.1-2.29,2.1-3.33,3.06-2.03,1.99-4.13,3.34-5.74,4.59-1.6,1.27-3,2.06-3.94,2.63-.94.56-1.43.87-1.43.87-.35.21-.79.12-.99-.22-.19-.34-.07-.77.28-.99h0s0,0,0,0Z"/>
        <path class="cls-2" d="M104.44,126.85s.44-.27,1.27-.77,2.08-1.19,3.49-2.33c1.43-1.11,3.29-2.3,5.09-4.08.93-.85,1.94-1.74,2.97-2.71.95-1.05,1.95-2.15,2.99-3.29,4.02-4.7,8.1-10.8,10.99-18.01,2.92-7.18,4.59-15.43,4.61-23.72,0-8.29-1.69-16.53-4.61-23.72-2.89-7.21-6.96-13.31-10.99-18.01-1.05-1.15-2.04-2.25-2.99-3.3-1.03-.98-2.04-1.85-2.97-2.71-1.79-1.78-3.67-2.96-5.09-4.08-1.41-1.13-2.66-1.82-3.49-2.34-.83-.5-1.27-.77-1.27-.77-.16-.09-.21-.31-.11-.47s.31-.22.46-.13c0,0,.44.27,1.28.78.84.51,2.1,1.21,3.53,2.37,1.44,1.13,3.33,2.33,5.15,4.12.94.87,1.96,1.75,3,2.74.97,1.06,1.97,2.17,3.03,3.33,4.07,4.76,8.19,10.92,11.1,18.21,2.95,7.26,4.65,15.59,4.66,23.98,0,8.39-1.71,16.72-4.66,23.98-2.92,7.29-7.03,13.44-11.1,18.2-1.06,1.16-2.06,2.28-3.03,3.33-1.03.99-2.06,1.88-3,2.74-1.81,1.79-3.71,3-5.15,4.12-1.43,1.15-2.69,1.85-3.53,2.36-.84.51-1.28.78-1.28.78-.16.1-.37.04-.46-.13s-.05-.38.11-.47v.02h0Z"/>
        <path class="cls-2" d="M111.53,17.96c-.16-.12-.19-.34-.07-.49l2.34-3.22c.11-.16.34-.18.5-.06.17.12.21.34.09.5l-2.38,3.19c-.12.16-.34.19-.48.07h0s0,.01,0,.01Z"/>
        <path class="cls-2" d="M138.34,63.28c-.03-.19.1-.37.3-.38l3.95-.53c.19-.02.37.12.39.33.03.21-.1.38-.29.41l-3.95.49c-.19.03-.37-.11-.39-.31h0Z"/>
        <path class="cls-2" d="M133.56,98.28c.08-.17.3-.26.46-.18l3.67,1.55c.18.08.25.29.16.47s-.31.27-.48.2l-3.66-1.59c-.18-.08-.25-.28-.17-.45h.02Z"/>
        <path class="cls-2" d="M130.4,104.65c.1-.17.31-.22.48-.13l3.48,1.93c.17.09.22.31.11.48s-.33.24-.49.15l-3.46-1.97c-.17-.1-.22-.31-.12-.46h0Z"/>
        <path class="cls-2" d="M114.72,123.5c.14-.13.35-.12.48.03l2.57,3.06c.12.15.1.38-.06.51-.15.15-.38.12-.5-.03l-2.53-3.09c-.12-.15-.09-.35.05-.48h0Z"/>
        <path class="cls-2" d="M128.51,36.09c-.1-.17-.05-.38.11-.48l3.35-2.15c.16-.11.38-.05.48.13.11.18.06.39-.1.5l-3.37,2.12c-.16.1-.38.05-.47-.12h0Z"/>
        <path class="cls-2" d="M132.36,43.07c-.08-.17,0-.38.16-.46l3.59-1.75c.17-.08.38,0,.47.19.09.18.02.39-.16.48l-3.6,1.71c-.18.08-.38,0-.46-.17h0Z"/>
      </g>
      <g>
        <path class="cls-2" d="M1.39,72.66s.12,2.29.31,6.28c.26,1.98.65,4.38,1.06,7.14.34,1.35.71,2.79,1.1,4.31.2.76.39,1.54.6,2.33.24.79.56,1.57.85,2.38.61,1.6,1.13,3.32,1.9,5,.81,1.67,1.64,3.39,2.49,5.16.96,1.72,2.05,3.42,3.11,5.19.5.91,1.15,1.73,1.78,2.57.63.84,1.27,1.7,1.91,2.55,5.3,6.74,12.25,12.92,20.18,17.49,7.91,4.61,16.76,7.54,25.24,8.72,8.49,1.16,16.59.84,23.33-.49.86-.1,1.67-.33,2.46-.53.79-.21,1.57-.41,2.33-.6,1.51-.41,2.97-.7,4.26-1.24,1.31-.48,2.53-.93,3.67-1.34.56-.22,1.11-.39,1.63-.61.49-.24.98-.46,1.42-.68,1.81-.87,3.22-1.55,4.19-2.02.49-.22.83-.45,1.06-.59s.35-.22.35-.22c.34-.21.78-.11.98.22.19.33.06.77-.3.99,0,0-.12.08-.37.22s-.59.38-1.09.61c-.99.47-2.44,1.17-4.27,2.06-.46.22-.95.45-1.45.7-.52.22-1.09.41-1.66.62-1.15.42-2.41.88-3.74,1.36-1.31.55-2.8.86-4.34,1.27-.78.2-1.57.41-2.38.61-.81.21-1.64.44-2.5.54-6.86,1.36-15.12,1.7-23.78.5-8.66-1.19-17.67-4.19-25.74-8.89-8.09-4.66-15.17-10.96-20.58-17.83-.66-.88-1.3-1.75-1.94-2.6-.64-.87-1.3-1.7-1.81-2.62-1.09-1.81-2.2-3.54-3.17-5.29-.87-1.81-1.72-3.56-2.53-5.27-.78-1.72-1.32-3.46-1.94-5.1-.3-.82-.61-1.62-.86-2.42-.21-.81-.41-1.6-.61-2.38-.39-1.55-.77-3.01-1.11-4.39-.42-2.81-.83-5.26-1.09-7.28C.12,75,0,72.67,0,72.67c-.02-.41.28-.75.66-.75s.71.34.73.73h0s0,.01,0,.01Z"/>
        <path class="cls-2" d="M8.15,72.59s.11,2.07.29,5.68c.27,1.79.59,3.97.97,6.46.31,1.22.64,2.51,1,3.89.17.68.35,1.39.53,2.1.22.71.51,1.41.77,2.14.56,1.44,1.03,3,1.72,4.52.73,1.51,1.48,3.07,2.25,4.66.87,1.55,1.86,3.09,2.81,4.69.44.83,1.05,1.56,1.62,2.33.57.76,1.14,1.53,1.73,2.31,4.79,6.1,11.09,11.69,18.26,15.82,7.16,4.16,15.14,6.82,22.81,7.87,7.68,1.05,15.02.76,21.1-.44.77-.08,1.51-.3,2.22-.48.72-.19,1.42-.37,2.1-.54,1.36-.37,2.68-.63,3.86-1.11,1.18-.43,2.29-.84,3.32-1.21.51-.2,1.02-.35,1.47-.54.45-.22.88-.43,1.28-.62,1.64-.79,2.91-1.4,3.79-1.82.44-.19.75-.41.97-.53.22-.13.33-.2.33-.2.16-.1.35-.04.45.13s.04.38-.11.47c0,0-.11.07-.33.2-.22.13-.52.34-.98.54-.89.42-2.18,1.05-3.83,1.85-.41.2-.85.41-1.3.63-.46.2-.97.37-1.49.55-1.03.38-2.16.79-3.35,1.23-1.17.49-2.51.76-3.9,1.13-.69.18-1.4.37-2.13.54-.73.19-1.46.41-2.25.48-6.16,1.22-13.57,1.51-21.33.45-7.76-1.07-15.83-3.76-23.06-7.96-7.25-4.17-13.61-9.83-18.46-15.99-.59-.79-1.16-1.57-1.75-2.34-.58-.77-1.17-1.52-1.63-2.35-.97-1.63-1.97-3.18-2.84-4.74-.78-1.62-1.54-3.19-2.28-4.72-.7-1.53-1.17-3.11-1.74-4.57-.26-.74-.55-1.45-.78-2.17-.19-.72-.37-1.44-.54-2.13-.35-1.38-.69-2.7-1.01-3.94-.37-2.53-.74-4.72-.98-6.53-.19-3.66-.29-5.75-.29-5.75,0-.19.14-.34.34-.34s.35.15.37.34h0s0,0,0,0h0Z"/>
        <path class="cls-2" d="M98.96,133.22c.17-.08.38,0,.45.17l1.63,3.64c.08.18,0,.38-.2.47-.19.09-.39.02-.47-.16l-1.59-3.66c-.07-.18,0-.38.18-.46h0Z"/>
        <path class="cls-2" d="M46.25,133.78c.18.07.27.27.2.43l-1.51,3.69c-.07.18-.29.27-.48.19-.19-.07-.29-.27-.22-.44l1.55-3.67c.07-.18.29-.27.46-.2h0Z"/>
        <path class="cls-2" d="M18.42,112.04c.12.16.09.38-.07.48l-3.18,2.41c-.16.12-.38.08-.49-.09s-.1-.39.06-.51l3.21-2.38c.16-.11.38-.08.48.07v.02h-.01Z"/>
        <path class="cls-2" d="M14.46,106.13c.1.17.05.38-.12.47l-3.41,2.06c-.16.1-.38.04-.49-.14s-.06-.39.11-.49l3.43-2.02c.17-.1.38-.04.48.12h0Z"/>
        <path class="cls-2" d="M6.01,83.15c.03.19-.1.37-.29.41l-3.93.69c-.19.03-.37-.11-.39-.31-.03-.21.1-.39.29-.42l3.94-.64c.19-.03.37.1.39.29h0s0-.01,0-.01Z"/>
        <path class="cls-2" d="M74.75,138.77c.19,0,.35.14.37.33l.19,3.98c0,.19-.15.35-.35.37-.21,0-.38-.14-.38-.33l-.14-3.98c0-.2.14-.35.34-.37h-.01Z"/>
        <path class="cls-2" d="M66.77,138.65c.19,0,.34.17.33.37l-.29,3.97c0,.19-.19.34-.39.33s-.35-.17-.34-.37l.33-3.97c.02-.19.19-.34.38-.34h0s0,0,0,0h0Z"/>
      </g>
    </g>
  </g>
  <g>
    <path class="cls-1" d="M55.97,42.8c0-.95.59-1.79,1.48-2.12l12.38-4.55c.86-.32.64-1.6-.28-1.6h-30.77c-1.7,0-3.08,1.38-3.08,3.08v63.93c0,1.7,1.38,3.08,3.08,3.08h16.38c.45,0,.82-.37.82-.82v-61.01h0Z"/>
    <path class="cls-1" d="M107.15,45.06h-44.22c-1.35,0-2.44,1.09-2.44,2.44v61.88c0,1.25,1.01,2.27,2.27,2.27h44.39c1.25,0,2.27-1.01,2.27-2.27v-62.06c0-1.25-1.01-2.26-2.26-2.26h0ZM68.66,55.77h11.13c1.22,0,2.27.94,2.33,2.16.06,1.29-.97,2.36-2.26,2.36h-11.13c-1.22,0-2.27-.94-2.33-2.16-.06-1.29.97-2.36,2.26-2.36h0ZM68.66,65.94h11.13c1.22,0,2.27.94,2.33,2.16.06,1.29-.97,2.36-2.26,2.36h-11.13c-1.22,0-2.27-.94-2.33-2.16-.06-1.29.97-2.36,2.26-2.36h0ZM101.23,100.94h-32.5c-1.22,0-2.27-.94-2.33-2.16-.06-1.29.97-2.36,2.26-2.36h32.5c1.22,0,2.27.94,2.33,2.16.06,1.29-.97,2.36-2.26,2.36ZM101.23,90.78h-32.5c-1.22,0-2.27-.94-2.33-2.16-.06-1.29.97-2.36,2.26-2.36h32.5c1.22,0,2.27.94,2.33,2.16.06,1.29-.97,2.36-2.26,2.36ZM101.23,80.62h-32.5c-1.22,0-2.27-.94-2.33-2.16-.06-1.29.97-2.36,2.26-2.36h32.5c1.22,0,2.27.94,2.33,2.16.06,1.29-.97,2.36-2.26,2.36ZM103.49,68.19c0,1.25-1.01,2.27-2.27,2.27h-11.19c-1.25,0-2.27-1.01-2.27-2.27v-10.15c0-1.25,1.01-2.27,2.27-2.27h11.19c1.25,0,2.27,1.01,2.27,2.27v10.15h0Z"/>
    <path class="cls-1" d="M69.97,37.89l-8,2.94c-1.32.48-.97,2.44.44,2.44h8c.7,0,1.26-.56,1.26-1.26v-2.94c0-.88-.87-1.49-1.69-1.18Z"/>
    <path class="cls-1" d="M92.29,60.29h6.67s0,0,0,0v5.63s0,0,0,0h-6.67s0,0,0,0v-5.63s0,0,0,0Z"/>
  </g>
</svg>