<?xml version="1.0" encoding="UTF-8"?>
<svg id="Layer_2" data-name="Layer 2" xmlns="http://www.w3.org/2000/svg" viewBox="0 0 31.09 34.97">
  <defs>
    <style>
      .cls-1 {
        fill-rule: evenodd;
      }
    </style>
  </defs>
  <g id="Layer_1-2" data-name="Layer 1">
    <g>
      <path class="cls-1" d="M15.54,5.44C7.82,5.44,1.55,11.7,1.55,19.43s6.26,13.99,13.99,13.99,13.99-6.26,13.99-13.99-6.26-13.99-13.99-13.99ZM0,19.43C0,10.85,6.96,3.89,15.54,3.89s15.54,6.96,15.54,15.54-6.96,15.54-15.54,15.54S0,28.02,0,19.43Z"/>
      <rect x="14.77" y=".78" width="1.55" height="3.89"/>
      <rect x="10.88" width="9.33" height="1.55"/>
      <rect x="25.32" y="6.6" width="4.56" height="1.55" transform="translate(2.87 21.68) rotate(-45)"/>
      <rect x="14.77" y="8.55" width="1.55" height="8.55"/>
      <path class="cls-1" d="M15.54,17.88c-.86,0-1.55.7-1.55,1.55s.7,1.55,1.55,1.55,1.55-.7,1.55-1.55-.7-1.55-1.55-1.55ZM12.44,19.43c0-1.72,1.39-3.11,3.11-3.11s3.11,1.39,3.11,3.11-1.39,3.11-3.11,3.11-3.11-1.39-3.11-3.11Z"/>
    </g>
  </g>
</svg>