<?xml version="1.0" encoding="UTF-8"?>
<svg id="Layer_1" data-name="Layer 1" xmlns="http://www.w3.org/2000/svg" viewBox="0 0 144 144">
  <defs>
    <style>
      .cls-1 {
        fill: #00c93d;
      }

      .cls-2 {
        fill: #606060;
      }
    </style>
  </defs>
  <g id="Layer_1-2" data-name="Layer 1-2">
    <g>
      <path class="cls-1" d="M108.1,66.85c-1.27.34-2.22,1.4-2.22,2.74v25.63c0,1.98,2.02,3.32,3.83,2.57,6.09-2.5,9.72-5.61,9.72-9.03v-29.53s-4.07,5.61-11.33,7.6h0v.03Z"/>
      <path class="cls-1" d="M35.52,66.85c-7.29-2.02-11.33-7.6-11.33-7.6v29.53c0,3.39,3.63,6.5,9.72,9.03,1.85.75,3.83-.58,3.83-2.57v-25.63c0-1.33-.96-2.4-2.22-2.74h0v-.03Z"/>
      <path class="cls-1" d="M77,69.82h-10.37c-3.22,0-5.85,2.6-5.85,5.85v7.43c0,1.03.82,1.85,1.85,1.85h2.57l2.46,20.7c.14.92.92,1.61,1.85,1.61h4.52c.92,0,1.71-.68,1.85-1.61l2.46-20.7h2.57c1.03,0,1.85-.82,1.85-1.85v-7.43c0-3.22-2.6-5.85-5.85-5.85h.1Z"/>
      <circle class="cls-1" cx="71.83" cy="60.14" r="4.11"/>
      <path class="cls-1" d="M119.43,51.79c0-8.56-21.32-15.54-47.6-15.54s-47.6,6.95-47.6,15.54c.89,1.61,4.45,5.99,15.26,10.03,2.26.86,3.87,2.87,3.87,5.3v10.27c3.56-1.03,7.6-1.85,11.87-2.43.31-4.83,3.59-8.86,8.04-10.23-.75-1.37-1.16-2.94-1.16-4.62,0-5.34,4.35-9.68,9.68-9.68s9.68,4.35,9.68,9.68c0,1.68-.41,3.25-1.16,4.62,4.45,1.37,7.77,5.41,8.04,10.23,4.31.58,8.32,1.4,11.87,2.43v-10.27c0-2.43,1.61-4.45,3.87-5.3,10.81-4.07,14.41-8.42,15.26-10.03h.07Z"/>
    </g>
    <g>
      <g>
        <path class="cls-2" d="M106.39,10.42s-.14-.07-.34-.21c-.24-.14-.58-.38-1.06-.58-.96-.48-2.36-1.13-4.17-2.02-.44-.21-.92-.44-1.4-.68-.51-.21-1.06-.41-1.61-.62-1.13-.41-2.36-.86-3.66-1.33-1.3-.55-2.74-.82-4.24-1.23-.75-.21-1.54-.38-2.33-.58s-1.61-.44-2.46-.55c-6.71-1.33-14.78-1.64-23.27-.48-8.45,1.16-17.28,4.11-25.19,8.69-7.9,4.55-14.85,10.71-20.12,17.45-.65.86-1.27,1.71-1.92,2.53-.62.86-1.27,1.68-1.78,2.57-1.06,1.78-2.16,3.46-3.11,5.17-.86,1.78-1.68,3.49-2.46,5.13-.75,1.68-1.3,3.39-1.92,5-.27.82-.62,1.57-.86,2.36-.21.79-.41,1.57-.62,2.33-.38,1.51-.75,2.94-1.1,4.28-.41,2.74-.82,5.13-1.06,7.12-.21,3.97-.31,6.26-.31,6.26,0,.41-.34.72-.72.72S0,71.4.03,70.99c0,0,.1-2.33.31-6.4.27-2.02.65-4.45,1.1-7.25.34-1.37.72-2.84,1.13-4.38.21-.79.41-1.57.62-2.36.24-.79.58-1.57.86-2.43.62-1.64,1.16-3.39,1.95-5.1.82-1.71,1.68-3.46,2.53-5.24.96-1.75,2.09-3.49,3.15-5.27.51-.92,1.16-1.75,1.81-2.6s1.3-1.71,1.95-2.6c5.37-6.84,12.46-13.14,20.53-17.79C43.94,4.91,52.94,1.93,61.6.73c8.62-1.2,16.87-.86,23.71.51.86.1,1.71.34,2.5.55.82.21,1.61.41,2.36.62,1.54.41,3.01.72,4.35,1.27,1.33.48,2.57.96,3.73,1.37.58.21,1.13.41,1.64.62.51.24.99.48,1.44.68,1.85.89,3.29,1.57,4.24,2.05.51.21.86.48,1.1.62s.38.21.38.21c.34.21.48.65.31.99-.21.34-.62.41-.96.21Z"/>
        <path class="cls-2" d="M103.07,16.3s-.1-.07-.31-.21-.51-.34-.96-.55c-.86-.41-2.16-1.03-3.76-1.81-.41-.21-.82-.41-1.27-.62-.44-.21-.96-.34-1.47-.55-1.03-.38-2.12-.79-3.32-1.2-1.16-.48-2.46-.75-3.83-1.13-.68-.17-1.37-.34-2.09-.55-.72-.17-1.44-.41-2.22-.48-6.06-1.2-13.38-1.51-21.05-.44s-15.6,3.7-22.76,7.87c-7.15,4.11-13.41,9.72-18.21,15.78-.58.79-1.16,1.54-1.71,2.29-.58.75-1.16,1.51-1.61,2.33-.96,1.61-1.95,3.15-2.81,4.69-.75,1.61-1.51,3.15-2.22,4.65-.68,1.51-1.16,3.08-1.71,4.52-.27.72-.55,1.44-.75,2.16-.17.72-.38,1.4-.55,2.09-.34,1.37-.68,2.67-.99,3.87-.38,2.5-.68,4.65-.96,6.43-.17,3.63-.27,5.68-.27,5.68,0,.17-.17.34-.38.34s-.34-.14-.34-.34c0,0,.1-2.09.27-5.75.24-1.81.62-4,.96-6.5.31-1.23.65-2.53.99-3.94.17-.68.34-1.4.55-2.12.21-.72.51-1.44.79-2.16.58-1.44,1.03-3.01,1.75-4.55.72-1.51,1.51-3.08,2.26-4.72.86-1.57,1.88-3.11,2.84-4.72.44-.82,1.06-1.57,1.64-2.33s1.16-1.54,1.75-2.33c4.83-6.16,11.19-11.77,18.41-15.95,7.22-4.21,15.26-6.88,23-7.94,7.73-1.06,15.16-.75,21.29.44.79.1,1.51.31,2.22.48.72.17,1.44.38,2.12.55,1.37.38,2.7.62,3.87,1.13,1.2.44,2.29.86,3.35,1.23.51.21,1.03.38,1.47.55.44.21.89.41,1.3.62,1.64.79,2.94,1.4,3.83,1.85.44.21.75.41.96.55.21.14.34.21.34.21.17.1.21.31.1.48-.1.17-.31.24-.44.14h-.07v-.03Z"/>
        <path class="cls-2" d="M5.41,64.52c0,.21-.21.34-.41.31l-3.97-.41c-.21,0-.31-.21-.27-.41,0-.21.21-.34.41-.34l3.94.44c.21,0,.31.21.31.38h0v.03Z"/>
        <path class="cls-2" d="M31.24,18.77s-.38.07-.48-.07l-2.43-3.15s-.07-.38.07-.48c.17-.14.38-.1.51.07l2.4,3.18s.07.38-.07.48h0v-.03Z"/>
        <path class="cls-2" d="M63.86,5.45s-.38-.1-.38-.31l-.48-3.94c0-.21.14-.38.31-.41.21,0,.38.1.41.27l.44,3.94c0,.21-.1.38-.31.41h0v.03Z"/>
        <path class="cls-2" d="M70.94,5.01c-.21,0-.34-.14-.34-.34l-.07-3.97c0-.21.17-.34.38-.38.21,0,.38.14.38.34v3.97c0,.21-.14.34-.31.38h-.03Z"/>
        <path class="cls-2" d="M95.03,9.18s-.27-.27-.21-.44l1.37-3.73s.27-.27.48-.21c.21.07.31.27.24.44l-1.4,3.73s-.27.27-.44.21h-.03Z"/>
        <path class="cls-2" d="M12.63,40.8c-.07.17-.27.24-.44.17l-3.52-1.81s-.24-.31-.14-.48.31-.27.48-.17l3.52,1.85s.24.31.17.48h-.07v-.03Z"/>
        <path class="cls-2" d="M16.7,33.96s-.34.21-.48.1l-3.29-2.22s-.17-.31-.07-.48c.14-.17.34-.21.51-.1l3.25,2.26s.21.31.07.48h0v-.03Z"/>
      </g>
      <g>
        <path class="cls-2" d="M107.62,132.34s.48-.31,1.4-.86,2.29-1.33,3.87-2.57c1.57-1.23,3.63-2.53,5.61-4.48,1.03-.96,2.12-1.92,3.25-3.01,1.06-1.16,2.16-2.36,3.29-3.63,4.45-5.17,8.93-11.91,12.11-19.88,3.22-7.94,5.06-17.04,5.06-26.18s-1.85-18.24-5.06-26.18c-3.18-7.97-7.67-14.68-12.11-19.88-1.16-1.27-2.26-2.46-3.29-3.63-1.13-1.06-2.22-2.05-3.25-2.98-1.98-1.95-4.04-3.29-5.61-4.52s-2.94-2.02-3.87-2.57c-.92-.55-1.4-.86-1.4-.86-.34-.21-.48-.65-.27-.99s.62-.41.99-.21c0,0,.51.31,1.44.86.92.58,2.33,1.37,3.94,2.63,1.61,1.23,3.7,2.6,5.71,4.59,1.06.96,2.19,1.95,3.32,3.05,1.06,1.16,2.19,2.43,3.35,3.7,4.52,5.27,9.1,12.15,12.35,20.26,3.29,8.08,5.17,17.38,5.17,26.69s-1.88,18.62-5.17,26.69c-3.25,8.11-7.84,14.95-12.35,20.26-1.16,1.3-2.29,2.53-3.35,3.7-1.13,1.1-2.29,2.09-3.32,3.05-2.02,1.98-4.11,3.35-5.71,4.59-1.61,1.27-2.98,2.05-3.94,2.63-.92.55-1.44.86-1.44.86-.34.21-.79.1-.99-.21-.21-.34-.07-.75.27-.99v.07Z"/>
        <path class="cls-2" d="M104.2,126.56s.44-.27,1.27-.75c.82-.51,2.09-1.2,3.49-2.33,1.44-1.13,3.29-2.29,5.06-4.07.92-.86,1.95-1.75,2.94-2.7.96-1.06,1.95-2.16,2.98-3.29,4-4.69,8.08-10.78,10.95-17.97,2.91-7.15,4.59-15.4,4.59-23.65s-1.68-16.49-4.59-23.65c-2.87-7.19-6.95-13.28-10.95-17.97-1.03-1.16-2.05-2.26-2.98-3.29-1.03-.96-2.02-1.85-2.94-2.7-1.78-1.78-3.66-2.94-5.06-4.07s-2.67-1.81-3.49-2.33c-.82-.51-1.27-.75-1.27-.75-.17-.1-.21-.31-.1-.48.1-.17.31-.21.44-.14,0,0,.44.27,1.27.79.82.51,2.09,1.2,3.52,2.36,1.44,1.13,3.32,2.33,5.13,4.11.92.86,1.95,1.75,2.98,2.74.96,1.06,1.95,2.16,3.01,3.32,4.07,4.76,8.18,10.88,11.09,18.17,2.94,7.25,4.62,15.57,4.65,23.92,0,8.35-1.71,16.67-4.65,23.92-2.91,7.25-7.02,13.41-11.09,18.17-1.06,1.16-2.05,2.26-3.01,3.32-1.03.99-2.05,1.88-2.98,2.74-1.81,1.78-3.7,2.98-5.13,4.11-1.44,1.13-2.67,1.85-3.52,2.36-.82.51-1.27.79-1.27.79-.17.1-.38,0-.44-.14-.1-.17-.03-.38.1-.48,0,0,0-.07,0-.07Z"/>
        <path class="cls-2" d="M111.25,17.95s-.21-.34-.07-.48l2.33-3.22s.34-.17.51-.07c.17.14.21.34.1.51l-2.36,3.18s-.34.17-.48.07h-.03Z"/>
        <path class="cls-2" d="M138.01,63.15s.1-.38.31-.38l3.94-.55s.38.1.41.31c0,.21-.1.38-.27.41l-3.94.48c-.21,0-.38-.1-.41-.31h0l-.03.03Z"/>
        <path class="cls-2" d="M133.25,98.06s.31-.24.48-.17l3.66,1.54s.24.27.17.48c-.1.17-.31.27-.48.21l-3.66-1.57s-.24-.27-.17-.44h0v-.03Z"/>
        <path class="cls-2" d="M130.07,104.42s.31-.21.48-.14l3.49,1.92s.21.31.1.48c-.1.17-.31.24-.48.14l-3.46-1.95s-.21-.31-.14-.48h0v.03Z"/>
        <path class="cls-2" d="M114.43,123.21s.34-.1.48,0l2.57,3.05s.1.38-.07.51c-.14.14-.38.1-.51,0l-2.53-3.08s-.1-.34,0-.48h.07Z"/>
        <path class="cls-2" d="M128.19,36.01s0-.38.1-.48l3.35-2.16s.38-.03.48.14.07.41-.1.51l-3.35,2.12s-.38.03-.48-.1h0v-.03Z"/>
        <path class="cls-2" d="M132.02,42.99c-.07-.17,0-.38.17-.44l3.59-1.75s.38,0,.48.17,0,.41-.14.48l-3.59,1.71s-.38,0-.48-.17h-.03Z"/>
      </g>
      <g>
        <path class="cls-2" d="M1.37,72.49s.1,2.29.31,6.26c.24,1.98.65,4.38,1.06,7.12.34,1.33.72,2.77,1.1,4.31.21.75.41,1.54.62,2.33.24.79.55,1.57.86,2.36.62,1.61,1.13,3.32,1.92,5,.79,1.68,1.64,3.39,2.46,5.13.96,1.71,2.05,3.42,3.11,5.17.51.89,1.16,1.71,1.78,2.57.62.86,1.27,1.68,1.92,2.53,5.27,6.71,12.22,12.9,20.12,17.45,7.9,4.59,16.7,7.53,25.19,8.69,8.49,1.16,16.56.82,23.27-.48.86-.1,1.64-.34,2.46-.55.79-.21,1.57-.41,2.33-.58,1.51-.41,2.98-.68,4.24-1.23,1.3-.48,2.53-.92,3.66-1.33.55-.21,1.13-.41,1.61-.62.51-.24.96-.48,1.4-.68,1.81-.86,3.22-1.54,4.17-2.02.48-.21.82-.44,1.06-.58.24-.14.34-.21.34-.21.34-.21.79-.1.96.21.21.34.07.79-.31.99,0,0-.14.07-.38.21s-.58.38-1.1.62c-.99.48-2.43,1.16-4.24,2.05-.44.21-.96.44-1.44.68-.51.21-1.06.41-1.64.62-1.16.41-2.4.89-3.73,1.37-1.3.55-2.81.86-4.35,1.27-.79.21-1.57.41-2.36.62-.82.21-1.64.44-2.5.55-6.84,1.37-15.09,1.68-23.71.51-8.62-1.2-17.62-4.17-25.67-8.86-8.08-4.65-15.13-10.95-20.53-17.79-.65-.89-1.3-1.75-1.95-2.6-.65-.86-1.3-1.68-1.81-2.6-1.1-1.81-2.19-3.52-3.15-5.27-.86-1.81-1.71-3.56-2.53-5.24-.79-1.71-1.3-3.46-1.95-5.1-.31-.82-.62-1.61-.86-2.43-.21-.82-.41-1.61-.62-2.36-.38-1.54-.75-3.01-1.13-4.38-.41-2.81-.82-5.24-1.1-7.25-.17-4.11-.27-6.4-.27-6.4,0-.41.27-.75.65-.75s.72.34.72.72Z"/>
        <path class="cls-2" d="M8.14,72.42s.1,2.05.27,5.68c.27,1.78.58,3.97.96,6.43.31,1.23.65,2.5.99,3.87.17.68.34,1.4.55,2.09.21.72.51,1.4.75,2.16.55,1.44,1.03,3.01,1.71,4.52.72,1.51,1.47,3.05,2.22,4.65.86,1.54,1.85,3.08,2.81,4.69.44.82,1.03,1.54,1.61,2.33.58.75,1.13,1.54,1.71,2.29,4.79,6.09,11.05,11.67,18.21,15.78,7.15,4.14,15.09,6.81,22.76,7.87,7.67,1.06,14.99.75,21.05-.44.79-.07,1.51-.31,2.22-.48s1.4-.38,2.09-.55c1.37-.38,2.67-.62,3.83-1.13,1.16-.44,2.29-.86,3.32-1.2.51-.21,1.03-.34,1.47-.55.44-.21.89-.44,1.27-.62,1.64-.79,2.91-1.4,3.76-1.81.44-.21.75-.41.96-.55.21-.14.31-.21.31-.21.17-.1.34,0,.44.14.1.17.03.38-.1.48,0,0-.1.07-.34.21-.21.14-.51.34-.96.55-.89.41-2.16,1.06-3.83,1.85-.41.21-.86.41-1.3.62-.48.21-.96.38-1.47.55-1.03.38-2.16.79-3.35,1.23-1.16.51-2.5.75-3.87,1.13-.68.17-1.4.38-2.12.55-.72.21-1.47.41-2.22.48-6.13,1.23-13.55,1.51-21.29.44-7.73-1.06-15.78-3.73-23-7.94-7.22-4.17-13.59-9.79-18.41-15.95-.58-.79-1.16-1.57-1.75-2.33-.58-.79-1.16-1.51-1.64-2.33-.96-1.61-1.95-3.18-2.84-4.72-.79-1.61-1.54-3.18-2.26-4.69-.68-1.54-1.16-3.11-1.75-4.55-.27-.75-.55-1.44-.79-2.16-.17-.72-.38-1.44-.55-2.12-.34-1.37-.68-2.7-.99-3.94-.38-2.53-.72-4.69-.96-6.5-.17-3.66-.27-5.75-.27-5.75,0-.17.14-.34.34-.34s.34.14.38.34c0,0,.07-.07.07-.07Z"/>
        <path class="cls-2" d="M98.73,132.93s.38,0,.44.17l1.61,3.63s0,.38-.21.48c-.17.1-.41,0-.48-.17l-1.57-3.66s0-.38.17-.48h.03v.03Z"/>
        <path class="cls-2" d="M46.16,133.47c.17.07.27.27.21.44l-1.51,3.7s-.27.27-.48.21-.27-.27-.21-.44l1.54-3.66s.27-.27.44-.21h0v-.03Z"/>
        <path class="cls-2" d="M18.38,111.78s.07.38-.07.48l-3.18,2.4s-.38.07-.51-.07c-.14-.17-.1-.38.07-.51l3.18-2.36s.38-.07.48.07h.03Z"/>
        <path class="cls-2" d="M14.44,105.89s.03.38-.1.48l-3.42,2.05s-.38.03-.48-.14-.07-.41.1-.48l3.42-2.02s.38-.03.48.14h0v-.03Z"/>
        <path class="cls-2" d="M5.99,82.96s-.1.38-.27.41l-3.9.68c-.17,0-.38-.1-.41-.31,0-.21.1-.38.27-.41l3.94-.65c.21,0,.38.1.38.27Z"/>
        <path class="cls-2" d="M74.57,138.47c.21,0,.34.14.38.34l.17,3.97c0,.21-.14.34-.34.38-.21,0-.38-.14-.38-.34l-.14-3.97c0-.21.14-.34.34-.38h-.03Z"/>
        <path class="cls-2" d="M66.63,138.33c.21,0,.34.17.31.38l-.27,3.97c0,.21-.21.34-.38.31-.21,0-.34-.17-.34-.38l.34-3.97c0-.21.17-.34.38-.34h-.03v.03Z"/>
      </g>
    </g>
  </g>
</svg>