<?xml version="1.0" encoding="UTF-8"?>
<svg id="Layer_2" data-name="Layer 2" xmlns="http://www.w3.org/2000/svg" viewBox="0 0 81.91 81.86">
  <defs>
    <style>
      .cls-1 {
        fill: #606060;
      }

      .cls-2 {
        fill: #ea2224;
      }
    </style>
  </defs>
  <g id="Layer_1-2" data-name="Layer 1">
    <g id="AI">
      <path class="cls-2" d="M33.39,23.31l1.65,4.59c1.84,5.09,5.84,9.1,10.94,10.94l4.59,1.65c.41.15.41.74,0,.88l-4.59,1.65c-5.09,1.84-9.1,5.84-10.94,10.94l-1.65,4.59c-.15.41-.74.41-.88,0l-1.65-4.59c-1.84-5.09-5.84-9.1-10.94-10.94l-4.59-1.65c-.41-.15-.41-.74,0-.88l4.59-1.65c5.09-1.84,9.1-5.84,10.94-10.94l1.65-4.59c.15-.42.73-.42.88,0Z"/>
      <path class="cls-2" d="M54.04,12.29l.84,2.32c.93,2.58,2.96,4.61,5.54,5.54l2.32.84c.21.08.21.37,0,.45l-2.32.84c-2.58.93-4.61,2.96-5.54,5.54l-.84,2.32c-.08.21-.37.21-.45,0l-.84-2.32c-.93-2.58-2.96-4.61-5.54-5.54l-2.32-.84c-.21-.08-.21-.37,0-.45l2.32-.84c2.58-.93,4.61-2.96,5.54-5.54l.84-2.32c.08-.21.37-.21.45,0Z"/>
      <path class="cls-2" d="M54.04,51.73l.84,2.32c.93,2.58,2.96,4.61,5.54,5.54l2.32.84c.21.08.21.37,0,.45l-2.32.84c-2.58.93-4.61,2.96-5.54,5.54l-.84,2.32c-.08.21-.37.21-.45,0l-.84-2.32c-.93-2.58-2.96-4.61-5.54-5.54l-2.32-.84c-.21-.08-.21-.37,0-.45l2.32-.84c2.58-.93,4.61-2.96,5.54-5.54l.84-2.32c.08-.21.37-.21.45,0Z"/>
    </g>
    <g>
      <g>
        <path class="cls-1" d="M60.68,5.94s-.08-.04-.2-.12c-.14-.08-.33-.21-.61-.33-.55-.27-1.35-.64-2.38-1.15-.25-.12-.53-.25-.8-.39-.29-.12-.61-.23-.92-.35-.64-.23-1.35-.49-2.09-.76-.74-.31-1.56-.47-2.42-.7-.43-.12-.88-.21-1.33-.33s-.92-.25-1.41-.31c-3.83-.76-8.43-.94-13.27-.27-4.82.66-9.86,2.34-14.36,4.96-4.51,2.6-8.47,6.11-11.48,9.95-.37.49-.72.98-1.09,1.44-.35.49-.72.96-1.01,1.46-.61,1.01-1.23,1.97-1.78,2.95-.49,1.01-.96,1.99-1.41,2.93-.43.96-.74,1.93-1.09,2.85-.16.47-.35.9-.49,1.35-.12.45-.23.9-.35,1.33-.21.86-.43,1.68-.62,2.44-.23,1.56-.47,2.93-.61,4.06-.12,2.26-.18,3.57-.18,3.57,0,.23-.2.41-.41.41S0,40.72.02,40.49c0,0,.06-1.33.18-3.65.16-1.15.37-2.54.62-4.14.2-.78.41-1.62.64-2.5.12-.45.23-.9.35-1.35.14-.45.33-.9.49-1.39.35-.94.66-1.93,1.11-2.91.47-.98.96-1.97,1.44-2.99.55-1,1.19-1.99,1.8-3.01.29-.53.66-1,1.03-1.48.37-.49.74-.98,1.11-1.48,3.06-3.9,7.1-7.49,11.71-10.15C25.06,2.8,30.19,1.1,35.13.42c4.92-.68,9.62-.49,13.53.29.49.06.98.2,1.42.31.47.12.92.23,1.35.35.88.23,1.72.41,2.48.72.76.27,1.46.55,2.13.78.33.12.64.23.94.35.29.14.57.27.82.39,1.05.51,1.87.9,2.42,1.17.29.12.49.27.62.35s.21.12.21.12c.2.12.27.37.18.57-.12.2-.35.23-.55.12Z"/>
        <path class="cls-1" d="M58.78,9.3s-.06-.04-.18-.12-.29-.2-.55-.31c-.49-.23-1.23-.59-2.15-1.03-.23-.12-.47-.23-.72-.35-.25-.12-.55-.2-.84-.31-.59-.21-1.21-.45-1.89-.68-.66-.27-1.41-.43-2.19-.64-.39-.1-.78-.2-1.19-.31-.41-.1-.82-.23-1.27-.27-3.45-.68-7.63-.86-12-.25s-8.9,2.11-12.98,4.49c-4.08,2.34-7.65,5.54-10.38,9-.33.45-.66.88-.98,1.31-.33.43-.66.86-.92,1.33-.55.92-1.11,1.8-1.6,2.67-.43.92-.86,1.8-1.27,2.65-.39.86-.66,1.76-.98,2.58-.16.41-.31.82-.43,1.23-.1.41-.21.8-.31,1.19-.2.78-.39,1.52-.57,2.21-.21,1.42-.39,2.65-.55,3.67-.1,2.07-.16,3.24-.16,3.24,0,.1-.1.2-.21.2s-.2-.08-.2-.2c0,0,.06-1.19.16-3.28.14-1.03.35-2.28.55-3.71.18-.7.37-1.44.57-2.24.1-.39.2-.8.31-1.21.12-.41.29-.82.45-1.23.33-.82.59-1.72,1-2.6.41-.86.86-1.76,1.29-2.69.49-.9,1.07-1.78,1.62-2.69.25-.47.61-.9.94-1.33s.66-.88,1-1.33c2.75-3.51,6.38-6.71,10.5-9.09,4.12-2.4,8.7-3.92,13.12-4.53,4.41-.61,8.65-.43,12.14.25.45.06.86.18,1.27.27.41.1.82.21,1.21.31.78.21,1.54.35,2.21.64.68.25,1.31.49,1.91.7.29.12.59.21.84.31.25.12.51.23.74.35.94.45,1.68.8,2.19,1.05.25.12.43.23.55.31.12.08.2.12.2.12.1.06.12.18.06.27-.06.1-.18.14-.25.08l-.04-.02Z"/>
        <path class="cls-1" d="M3.08,36.8c0,.12-.12.2-.23.18l-2.26-.23c-.12,0-.18-.12-.16-.23,0-.12.12-.2.23-.2l2.24.25c.12,0,.18.12.18.21v.02Z"/>
        <path class="cls-1" d="M17.82,10.7s-.21.04-.27-.04l-1.39-1.8s-.04-.21.04-.27c.1-.08.21-.06.29.04l1.37,1.82s.04.21-.04.27v-.02Z"/>
        <path class="cls-1" d="M36.42,3.11c-.1,0-.21-.06-.21-.18l-.27-2.24c0-.12.08-.21.18-.23.12,0,.21.06.23.16l.25,2.24c0,.12-.06.21-.18.23v.02Z"/>
        <path class="cls-1" d="M40.46,2.86c-.12,0-.2-.08-.2-.2l-.04-2.26c0-.12.1-.2.21-.21.12,0,.21.08.21.2v2.26c0,.12-.08.2-.18.21h-.02Z"/>
        <path class="cls-1" d="M54.2,5.24c-.1-.04-.16-.16-.12-.25l.78-2.13c.04-.1.16-.16.27-.12.12.04.18.16.14.25l-.8,2.13c-.04.1-.16.16-.25.12h-.02Z"/>
        <path class="cls-1" d="M7.2,23.27c-.04.1-.16.14-.25.1l-2.01-1.03c-.1-.06-.14-.18-.08-.27s.18-.16.27-.1l2.01,1.05s.14.18.1.27l-.04-.02Z"/>
        <path class="cls-1" d="M9.52,19.37s-.2.12-.27.06l-1.87-1.27s-.1-.18-.04-.27c.08-.1.2-.12.29-.06l1.85,1.29s.12.18.04.27v-.02Z"/>
      </g>
      <g>
        <path class="cls-1" d="M61.38,75.48s.27-.18.8-.49,1.31-.76,2.21-1.46c.9-.7,2.07-1.44,3.2-2.56.59-.55,1.21-1.09,1.85-1.72.61-.66,1.23-1.35,1.87-2.07,2.54-2.95,5.09-6.79,6.91-11.34,1.83-4.53,2.89-9.72,2.89-14.93s-1.05-10.4-2.89-14.93c-1.82-4.55-4.37-8.37-6.91-11.34-.66-.72-1.29-1.41-1.87-2.07-.64-.61-1.27-1.17-1.85-1.7-1.13-1.11-2.3-1.87-3.2-2.58s-1.68-1.15-2.21-1.46c-.53-.31-.8-.49-.8-.49-.2-.12-.27-.37-.16-.57s.35-.23.57-.12c0,0,.29.18.82.49.53.33,1.33.78,2.24,1.5.92.7,2.11,1.48,3.26,2.62.61.55,1.25,1.11,1.89,1.74.61.66,1.25,1.39,1.91,2.11,2.58,3.01,5.19,6.93,7.05,11.55,1.87,4.61,2.95,9.91,2.95,15.22s-1.07,10.62-2.95,15.22c-1.85,4.63-4.47,8.53-7.05,11.55-.66.74-1.31,1.44-1.91,2.11-.64.62-1.31,1.19-1.89,1.74-1.15,1.13-2.34,1.91-3.26,2.62-.92.72-1.7,1.17-2.24,1.5-.53.31-.82.49-.82.49-.2.12-.45.06-.57-.12-.12-.2-.04-.43.16-.57v.04Z"/>
        <path class="cls-1" d="M59.43,72.18s.25-.16.72-.43c.47-.29,1.19-.68,1.99-1.33.82-.64,1.87-1.31,2.89-2.32.53-.49,1.11-1,1.68-1.54.55-.61,1.11-1.23,1.7-1.87,2.28-2.67,4.61-6.15,6.25-10.25,1.66-4.08,2.62-8.78,2.62-13.49s-.96-9.41-2.62-13.49c-1.64-4.1-3.96-7.57-6.25-10.25-.59-.66-1.17-1.29-1.7-1.87-.59-.55-1.15-1.05-1.68-1.54-1.01-1.01-2.09-1.68-2.89-2.32s-1.52-1.03-1.99-1.33c-.47-.29-.72-.43-.72-.43-.1-.06-.12-.18-.06-.27.06-.1.18-.12.25-.08,0,0,.25.16.72.45.47.29,1.19.68,2.01,1.35.82.64,1.89,1.33,2.93,2.34.53.49,1.11,1,1.7,1.56.55.61,1.11,1.23,1.72,1.89,2.32,2.71,4.66,6.21,6.32,10.36,1.68,4.14,2.63,8.88,2.65,13.64,0,4.76-.98,9.5-2.65,13.64-1.66,4.14-4,7.65-6.32,10.36-.61.66-1.17,1.29-1.72,1.89-.59.57-1.17,1.07-1.7,1.56-1.03,1.01-2.11,1.7-2.93,2.34-.82.64-1.52,1.05-2.01,1.35-.47.29-.72.45-.72.45-.1.06-.21.02-.25-.08-.06-.1-.02-.21.06-.27v-.04Z"/>
        <path class="cls-1" d="M63.45,10.23s-.12-.2-.04-.27l1.33-1.83s.2-.1.29-.04c.1.08.12.2.06.29l-1.35,1.82s-.2.1-.27.04h-.02Z"/>
        <path class="cls-1" d="M78.71,36.02c0-.1.06-.21.18-.21l2.24-.31c.1,0,.21.06.23.18,0,.12-.06.21-.16.23l-2.24.27c-.12,0-.21-.06-.23-.18l-.02.02Z"/>
        <path class="cls-1" d="M76,55.92c.04-.1.18-.14.27-.1l2.09.88c.1.04.14.16.1.27-.06.1-.18.16-.27.12l-2.09-.9c-.1-.04-.14-.16-.1-.25v-.02Z"/>
        <path class="cls-1" d="M74.18,59.55s.18-.12.27-.08l1.99,1.09s.12.18.06.27c-.06.1-.18.14-.27.08l-1.97-1.11s-.12-.18-.08-.27v.02Z"/>
        <path class="cls-1" d="M65.26,70.27s.2-.06.27,0l1.46,1.74s.06.21-.04.29c-.08.08-.21.06-.29,0l-1.44-1.76s-.06-.2.02-.27h.02Z"/>
        <path class="cls-1" d="M73.11,20.54s-.02-.21.06-.27l1.91-1.23s.21-.02.27.08.04.23-.06.29l-1.91,1.21s-.21.02-.27-.06v-.02Z"/>
        <path class="cls-1" d="M75.3,24.52c-.04-.1,0-.21.1-.25l2.05-1c.1-.04.21,0,.27.1s0,.23-.08.27l-2.05.98c-.1.04-.21,0-.27-.1h-.02Z"/>
      </g>
      <g>
        <path class="cls-1" d="M.78,41.34s.06,1.31.18,3.57c.14,1.13.37,2.5.61,4.06.2.76.41,1.58.62,2.46.12.43.23.88.35,1.33.14.45.31.9.49,1.35.35.92.64,1.89,1.09,2.85.45.96.94,1.93,1.41,2.93.55.98,1.17,1.95,1.78,2.95.29.51.66.98,1.01,1.46.35.49.72.96,1.09,1.44,3.01,3.83,6.97,7.36,11.48,9.95,4.51,2.62,9.52,4.29,14.36,4.96,4.84.66,9.45.47,13.27-.27.49-.06.94-.2,1.41-.31.45-.12.9-.23,1.33-.33.86-.23,1.7-.39,2.42-.7.74-.27,1.44-.53,2.09-.76.31-.12.64-.23.92-.35.29-.14.55-.27.8-.39,1.03-.49,1.83-.88,2.38-1.15.27-.12.47-.25.61-.33.14-.08.2-.12.2-.12.2-.12.45-.06.55.12.12.2.04.45-.18.57,0,0-.08.04-.21.12s-.33.21-.62.35c-.57.27-1.39.66-2.42,1.17-.25.12-.55.25-.82.39-.29.12-.61.23-.94.35-.66.23-1.37.51-2.13.78-.74.31-1.6.49-2.48.72-.45.12-.9.23-1.35.35-.47.12-.94.25-1.42.31-3.9.78-8.61.96-13.53.29-4.92-.68-10.05-2.38-14.64-5.05-4.61-2.65-8.63-6.25-11.71-10.15-.37-.51-.74-1-1.11-1.48-.37-.49-.74-.96-1.03-1.48-.62-1.03-1.25-2.01-1.8-3.01-.49-1.03-.98-2.03-1.44-2.99-.45-.98-.74-1.97-1.11-2.91-.18-.47-.35-.92-.49-1.39-.12-.47-.23-.92-.35-1.35-.21-.88-.43-1.72-.64-2.5-.23-1.6-.47-2.99-.62-4.14-.1-2.34-.16-3.65-.16-3.65,0-.23.16-.43.37-.43s.41.2.41.41Z"/>
        <path class="cls-1" d="M4.64,41.3s.06,1.17.16,3.24c.16,1.01.33,2.26.55,3.67.18.7.37,1.42.57,2.21.1.39.2.8.31,1.19.12.41.29.8.43,1.23.31.82.59,1.72.98,2.58.41.86.84,1.74,1.27,2.65.49.88,1.05,1.76,1.6,2.67.25.47.59.88.92,1.33.33.43.64.88.98,1.31,2.73,3.47,6.3,6.66,10.38,9,4.08,2.36,8.61,3.88,12.98,4.49,4.37.61,8.55.43,12-.25.45-.04.86-.18,1.27-.27s.8-.21,1.19-.31c.78-.21,1.52-.35,2.19-.64.66-.25,1.31-.49,1.89-.68.29-.12.59-.2.84-.31.25-.12.51-.25.72-.35.94-.45,1.66-.8,2.15-1.03.25-.12.43-.23.55-.31.12-.08.18-.12.18-.12.1-.06.2-.02.25.08.06.1.02.21-.06.27,0,0-.06.04-.2.12-.12.08-.29.2-.55.31-.51.23-1.23.61-2.19,1.05-.23.12-.49.23-.74.35-.27.12-.55.21-.84.31-.59.21-1.23.45-1.91.7-.66.29-1.42.43-2.21.64-.39.1-.8.21-1.21.31-.41.12-.84.23-1.27.27-3.49.7-7.73.86-12.14.25-4.41-.61-9-2.13-13.12-4.53-4.12-2.38-7.75-5.58-10.5-9.09-.33-.45-.66-.9-1-1.33-.33-.45-.66-.86-.94-1.33-.55-.92-1.11-1.82-1.62-2.69-.45-.92-.88-1.82-1.29-2.67-.39-.88-.66-1.78-1-2.6-.16-.43-.31-.82-.45-1.23-.1-.41-.21-.82-.31-1.21-.2-.78-.39-1.54-.57-2.24-.21-1.44-.41-2.67-.55-3.71-.1-2.09-.16-3.28-.16-3.28,0-.1.08-.2.2-.2s.2.08.21.2l.04-.04Z"/>
        <path class="cls-1" d="M56.31,75.81c.1-.04.21,0,.25.1l.92,2.07c.04.1,0,.21-.12.27-.1.06-.23,0-.27-.1l-.9-2.09c-.04-.1,0-.21.1-.27l.02.02Z"/>
        <path class="cls-1" d="M26.33,76.12c.1.04.16.16.12.25l-.86,2.11c-.04.1-.16.16-.27.12s-.16-.16-.12-.25l.88-2.09c.04-.1.16-.16.25-.12v-.02Z"/>
        <path class="cls-1" d="M10.48,63.75s.04.21-.04.27l-1.82,1.37s-.21.04-.29-.04c-.08-.1-.06-.21.04-.29l1.82-1.35s.21-.04.27.04h.02Z"/>
        <path class="cls-1" d="M8.24,60.39s.02.21-.06.27l-1.95,1.17s-.21.02-.27-.08-.04-.23.06-.27l1.95-1.15s.21-.02.27.08v-.02Z"/>
        <path class="cls-1" d="M3.42,47.32c0,.1-.06.21-.16.23l-2.22.39c-.1,0-.21-.06-.23-.18,0-.12.06-.21.16-.23l2.24-.37c.12,0,.21.06.21.16Z"/>
        <path class="cls-1" d="M42.53,78.97c.12,0,.2.08.21.2l.1,2.26c0,.12-.08.2-.2.21-.12,0-.21-.08-.21-.2l-.08-2.26c0-.12.08-.2.2-.21h-.02Z"/>
        <path class="cls-1" d="M38,78.89c.12,0,.2.1.18.21l-.16,2.26c0,.12-.12.2-.21.18-.12,0-.2-.1-.2-.21l.2-2.26c0-.12.1-.2.21-.2l-.02.02Z"/>
      </g>
    </g>
  </g>
</svg>