<?xml version="1.0" encoding="UTF-8"?>
<svg xmlns="http://www.w3.org/2000/svg" xmlns:xlink="http://www.w3.org/1999/xlink" width="60px" height="60px" viewBox="0 0 60 60" version="1.1">
<g id="surface1">
<path style=" stroke:none;fill-rule:nonzero;fill:rgb(29.411766%,29.411766%,29.019609%);fill-opacity:1;" d="M 30.007812 60 L 29.992188 60 C 26.054688 59.996094 22.160156 59.21875 18.519531 57.722656 C 16.703125 56.96875 14.964844 56.039062 13.328125 54.945312 C 10.058594 52.753906 7.246094 49.941406 5.054688 46.671875 C 3.960938 45.035156 3.03125 43.296875 2.277344 41.480469 C -0.757812 34.128906 -0.757812 25.871094 2.277344 18.519531 C 3.03125 16.699219 3.960938 14.964844 5.054688 13.328125 C 6.148438 11.699219 7.398438 10.175781 8.785156 8.785156 C 10.175781 7.398438 11.699219 6.148438 13.332031 5.054688 C 14.964844 3.960938 16.703125 3.03125 18.519531 2.277344 C 22.160156 0.78125 26.058594 0.0078125 29.992188 0 L 30.007812 0 C 33.941406 0.0078125 37.839844 0.78125 41.480469 2.277344 C 43.300781 3.03125 45.035156 3.960938 46.671875 5.054688 C 49.941406 7.246094 52.753906 10.058594 54.945312 13.328125 C 56.039062 14.964844 56.96875 16.699219 57.722656 18.519531 C 60.757812 25.871094 60.757812 34.128906 57.722656 41.480469 C 56.96875 43.300781 56.039062 45.035156 54.945312 46.671875 C 52.753906 49.941406 49.941406 52.753906 46.671875 54.945312 C 45.035156 56.039062 43.296875 56.96875 41.480469 57.722656 C 37.839844 59.21875 33.945312 59.996094 30.007812 60 M 30 59.625 L 30.007812 59.625 C 33.894531 59.617188 37.742188 58.855469 41.339844 57.375 C 43.132812 56.632812 44.847656 55.714844 46.460938 54.632812 C 49.691406 52.46875 52.46875 49.691406 54.636719 46.460938 C 55.714844 44.847656 56.632812 43.132812 57.375 41.339844 C 60.375 34.078125 60.375 25.921875 57.375 18.660156 C 56.632812 16.867188 55.714844 15.152344 54.636719 13.539062 C 52.46875 10.308594 49.691406 7.53125 46.460938 5.367188 C 44.847656 4.285156 43.132812 3.367188 41.339844 2.625 C 37.742188 1.144531 33.894531 0.378906 30.003906 0.375 L 29.992188 0.375 C 26.105469 0.382812 22.257812 1.144531 18.660156 2.625 C 16.867188 3.367188 15.152344 4.285156 13.539062 5.367188 C 10.304688 7.53125 7.53125 10.308594 5.363281 13.539062 C 4.285156 15.152344 3.367188 16.867188 2.625 18.660156 C -0.375 25.921875 -0.375 34.078125 2.625 41.339844 C 3.367188 43.132812 4.285156 44.847656 5.363281 46.460938 C 7.53125 49.691406 10.304688 52.46875 13.539062 54.632812 C 15.152344 55.714844 16.867188 56.632812 18.660156 57.375 C 22.257812 58.855469 26.105469 59.617188 29.992188 59.625 Z M 30 59.625 "/>
<path style=" stroke:none;fill-rule:nonzero;fill:rgb(29.411766%,29.411766%,29.019609%);fill-opacity:1;" d="M 30 58.78125 C 26.292969 58.785156 22.621094 58.074219 19.1875 56.683594 C 17.460938 55.984375 15.804688 55.117188 14.25 54.097656 L 14.152344 54.035156 L 14.164062 53.921875 C 14.242188 53.132812 14.347656 52.34375 14.480469 51.5625 C 12.449219 50.097656 10.632812 48.351562 9.085938 46.378906 C 5.925781 42.355469 4.003906 37.503906 3.546875 32.410156 C 3.320312 29.914062 3.445312 27.398438 3.921875 24.941406 C 3.621094 24.714844 3.324219 24.480469 3.035156 24.246094 C 2.710938 23.984375 2.390625 23.714844 2.074219 23.441406 L 1.988281 23.367188 L 2.015625 23.253906 C 3.25 18.097656 5.894531 13.386719 9.648438 9.644531 C 10.496094 8.804688 11.390625 8.011719 12.332031 7.273438 C 15.167969 5.0625 18.390625 3.40625 21.839844 2.390625 L 21.949219 2.359375 L 22.027344 2.441406 C 22.582031 3.011719 23.113281 3.601562 23.621094 4.207031 C 28.550781 2.996094 33.722656 3.214844 38.53125 4.835938 C 40.941406 5.648438 43.222656 6.808594 45.296875 8.273438 C 47.347656 9.71875 49.179688 11.445312 50.746094 13.402344 C 51.519531 13.230469 52.300781 13.085938 53.085938 12.964844 L 53.199219 12.949219 L 53.265625 13.039062 C 55.464844 16.058594 57.058594 19.472656 57.953125 23.097656 C 58.839844 26.726562 59.019531 30.488281 58.484375 34.183594 L 58.46875 34.292969 L 58.359375 34.332031 C 57.964844 34.46875 57.5625 34.601562 57.171875 34.722656 C 56.832031 34.828125 56.476562 34.933594 56.089844 35.039062 C 55.132812 40.023438 52.761719 44.625 49.261719 48.300781 C 47.507812 50.144531 45.5 51.730469 43.296875 53.007812 C 41.128906 54.261719 38.796875 55.199219 36.363281 55.796875 C 36.28125 56.160156 36.195312 56.527344 36.105469 56.890625 C 36.003906 57.28125 35.890625 57.6875 35.773438 58.101562 L 35.738281 58.210938 L 35.628906 58.230469 C 33.773438 58.597656 31.886719 58.78125 29.996094 58.78125 M 14.546875 53.84375 C 17.605469 55.832031 21.019531 57.207031 24.601562 57.894531 C 28.183594 58.578125 31.863281 58.574219 35.441406 57.886719 C 35.550781 57.515625 35.648438 57.148438 35.742188 56.800781 C 35.839844 56.402344 35.933594 56.003906 36.023438 55.601562 L 36.046875 55.488281 L 36.160156 55.460938 C 38.597656 54.875 40.941406 53.9375 43.109375 52.679688 C 47.472656 50.152344 51.015625 46.421875 53.320312 41.9375 C 54.464844 39.707031 55.28125 37.320312 55.742188 34.855469 L 55.761719 34.738281 L 55.875 34.707031 C 56.273438 34.601562 56.667969 34.488281 57.058594 34.367188 C 57.417969 34.253906 57.773438 34.136719 58.128906 34.015625 C 58.636719 30.40625 58.453125 26.730469 57.585938 23.1875 C 56.710938 19.648438 55.164062 16.308594 53.027344 13.351562 C 52.6875 13.40625 52.324219 13.46875 51.917969 13.542969 C 51.546875 13.613281 51.152344 13.695312 50.714844 13.792969 L 50.597656 13.820312 L 50.527344 13.726562 C 48.964844 11.761719 47.132812 10.027344 45.082031 8.582031 C 40.960938 5.675781 36.085938 4.027344 31.046875 3.832031 C 28.542969 3.730469 26.03125 3.988281 23.597656 4.601562 L 23.484375 4.628906 L 23.410156 4.539062 C 22.90625 3.9375 22.382812 3.351562 21.835938 2.785156 C 18.476562 3.789062 15.328125 5.414062 12.5625 7.570312 C 11.632812 8.296875 10.75 9.078125 9.914062 9.910156 C 6.234375 13.578125 3.640625 18.1875 2.40625 23.230469 C 2.691406 23.476562 2.980469 23.71875 3.269531 23.957031 C 3.589844 24.210938 3.914062 24.464844 4.238281 24.710938 L 4.332031 24.78125 L 4.308594 24.898438 C 3.332031 29.84375 3.796875 34.96875 5.652344 39.660156 C 6.574219 41.992188 7.828125 44.175781 9.378906 46.148438 C 10.929688 48.125 12.75 49.867188 14.792969 51.328125 L 14.890625 51.394531 L 14.871094 51.511719 C 14.734375 52.285156 14.628906 53.0625 14.546875 53.84375 "/>
<path style=" stroke:none;fill-rule:nonzero;fill:rgb(29.411766%,29.411766%,29.019609%);fill-opacity:1;" d="M 41.679688 7.953125 L 41.445312 7.828125 L 40.515625 9.601562 L 40.75 9.726562 Z M 43.445312 8.984375 L 43.222656 8.84375 L 42.152344 10.535156 L 42.375 10.675781 Z M 45.128906 10.15625 L 44.917969 9.996094 L 43.714844 11.597656 L 43.921875 11.757812 Z M 46.703125 11.460938 L 46.507812 11.285156 L 45.179688 12.78125 L 45.375 12.957031 Z M 48.175781 12.882812 L 47.992188 12.695312 L 46.546875 14.082031 L 46.730469 14.269531 Z M 49.523438 14.421875 L 49.359375 14.21875 L 47.804688 15.484375 L 47.972656 15.691406 Z M 50.742188 16.066406 L 50.59375 15.851562 L 48.945312 16.988281 L 49.09375 17.203125 Z M 51.828125 17.800781 L 51.695312 17.574219 L 49.960938 18.574219 L 50.09375 18.804688 Z M 52.773438 19.621094 L 52.660156 19.382812 L 50.851562 20.238281 L 50.960938 20.476562 Z M 53.5625 21.507812 L 53.46875 21.257812 L 51.597656 21.972656 L 51.691406 22.21875 Z M 54.199219 23.453125 L 54.128906 23.199219 L 52.203125 23.753906 L 52.277344 24.007812 Z M 54.679688 25.441406 L 54.628906 25.183594 L 52.664062 25.585938 L 52.71875 25.84375 Z M 55 27.464844 L 54.96875 27.203125 L 52.980469 27.441406 L 53.011719 27.703125 Z M 55.152344 29.507812 L 55.144531 29.242188 L 53.140625 29.320312 L 53.152344 29.585938 Z M 53.140625 31.472656 L 53.148438 31.207031 L 55.152344 31.289062 L 55.140625 31.550781 Z M 54.96875 33.589844 L 55 33.328125 L 53.011719 33.089844 L 52.980469 33.347656 Z M 54.628906 35.609375 L 54.683594 35.351562 L 52.722656 34.949219 L 52.667969 35.207031 Z M 54.128906 37.59375 L 54.203125 37.339844 L 52.277344 36.785156 L 52.203125 37.039062 Z M 53.472656 39.535156 L 53.566406 39.285156 L 51.691406 38.574219 L 51.597656 38.824219 Z M 52.65625 41.410156 L 52.769531 41.171875 L 50.960938 40.316406 L 50.847656 40.554688 Z M 51.699219 43.21875 L 51.832031 42.992188 L 50.097656 41.988281 L 49.964844 42.21875 Z M 50.59375 44.941406 L 50.746094 44.726562 L 49.09375 43.589844 L 48.945312 43.804688 Z M 49.355469 46.574219 L 49.523438 46.371094 L 47.96875 45.101562 L 47.804688 45.308594 Z M 47.992188 48.097656 L 48.175781 47.910156 L 46.730469 46.519531 L 46.550781 46.710938 Z M 47.992188 48.097656 "/>
<path style=" stroke:none;fill-rule:nonzero;fill:rgb(29.411766%,29.411766%,29.019609%);fill-opacity:1;" d="M 29.75 6.296875 C 26.78125 6.296875 23.835938 6.84375 21.066406 7.917969 L 21.117188 8.121094 C 31.726562 4.003906 43.765625 7.941406 49.894531 17.53125 C 56.023438 27.121094 54.542969 39.699219 46.351562 47.601562 C 38.164062 55.503906 25.539062 56.535156 16.175781 50.066406 C 6.8125 43.597656 3.308594 31.425781 7.800781 20.96875 L 7.597656 20.910156 C 3.410156 30.691406 6.132812 42.0625 14.296875 48.886719 C 22.460938 55.710938 34.136719 56.371094 43.019531 50.511719 C 51.902344 44.652344 55.890625 33.660156 52.828125 23.46875 C 49.769531 13.277344 40.390625 6.296875 29.75 6.296875 "/>
<path style=" stroke:none;fill-rule:nonzero;fill:rgb(29.411766%,29.411766%,29.019609%);fill-opacity:1;" d="M 29.777344 7.972656 C 29.726562 7.972656 29.726562 5.496094 29.726562 5.496094 C 29.777344 5.496094 29.777344 7.972656 29.777344 7.972656 M 30.679688 7.992188 C 30.625 7.988281 30.726562 5.515625 30.726562 5.515625 C 30.777344 5.515625 30.679688 7.992188 30.679688 7.992188 M 31.582031 8.046875 C 31.53125 8.042969 31.730469 5.574219 31.730469 5.574219 C 31.78125 5.578125 31.582031 8.046875 31.582031 8.046875 M 32.476562 8.140625 C 32.425781 8.132812 32.726562 5.671875 32.726562 5.671875 C 32.777344 5.679688 32.476562 8.140625 32.476562 8.140625 M 33.375 8.265625 C 33.324219 8.257812 33.71875 5.8125 33.71875 5.8125 C 33.773438 5.820312 33.375 8.265625 33.375 8.265625 M 34.261719 8.429688 C 34.210938 8.421875 34.707031 5.992188 34.707031 5.992188 C 34.757812 6.003906 34.261719 8.429688 34.261719 8.429688 M 35.144531 8.628906 C 35.09375 8.617188 35.6875 6.210938 35.6875 6.210938 C 35.738281 6.226562 35.144531 8.628906 35.144531 8.628906 M 36.015625 8.867188 C 35.964844 8.851562 36.652344 6.472656 36.652344 6.472656 C 36.703125 6.484375 36.015625 8.867188 36.015625 8.867188 M 36.878906 9.136719 C 36.828125 9.117188 37.613281 6.769531 37.613281 6.769531 C 37.660156 6.785156 36.878906 9.136719 36.878906 9.136719 M 37.726562 9.441406 C 37.679688 9.421875 38.558594 7.105469 38.558594 7.105469 C 38.605469 7.121094 37.726562 9.441406 37.726562 9.441406 M 38.5625 9.777344 C 38.515625 9.757812 39.488281 7.476562 39.488281 7.476562 C 39.535156 7.496094 38.5625 9.777344 38.5625 9.777344 M 39.386719 10.148438 C 39.339844 10.128906 40.402344 7.886719 40.402344 7.886719 C 40.449219 7.910156 39.386719 10.148438 39.386719 10.148438 M 40.195312 10.554688 C 40.148438 10.53125 41.300781 8.335938 41.300781 8.335938 C 41.347656 8.359375 40.195312 10.554688 40.195312 10.554688 M 40.984375 10.992188 C 40.941406 10.964844 42.179688 8.820312 42.179688 8.820312 C 42.222656 8.84375 40.984375 10.988281 40.984375 10.988281 M 41.757812 11.457031 C 41.714844 11.429688 43.039062 9.335938 43.039062 9.335938 C 43.082031 9.363281 41.757812 11.457031 41.757812 11.457031 M 42.507812 11.957031 C 42.46875 11.925781 43.875 9.886719 43.875 9.886719 C 43.917969 9.917969 42.507812 11.957031 42.507812 11.957031 M 43.242188 12.484375 C 43.199219 12.453125 44.6875 10.472656 44.6875 10.472656 C 44.730469 10.503906 43.242188 12.484375 43.242188 12.484375 M 43.953125 13.042969 C 43.914062 13.011719 45.480469 11.089844 45.480469 11.089844 C 45.519531 11.125 43.953125 13.042969 43.953125 13.042969 M 44.640625 13.628906 C 44.601562 13.59375 46.246094 11.738281 46.246094 11.738281 C 46.285156 11.773438 44.640625 13.628906 44.640625 13.628906 M 45.300781 14.242188 C 45.261719 14.207031 46.980469 12.417969 46.980469 12.417969 C 47.015625 12.457031 45.300781 14.242188 45.300781 14.242188 M 45.941406 14.882812 C 45.90625 14.84375 47.695312 13.128906 47.695312 13.128906 C 47.730469 13.164062 45.941406 14.882812 45.941406 14.882812 M 46.554688 15.546875 C 46.519531 15.507812 48.375 13.863281 48.375 13.863281 C 48.410156 13.902344 46.554688 15.546875 46.554688 15.546875 M 47.136719 16.234375 C 47.105469 16.195312 49.023438 14.628906 49.023438 14.628906 C 49.054688 14.667969 47.136719 16.234375 47.136719 16.234375 M 47.695312 16.945312 C 47.664062 16.90625 49.644531 15.417969 49.644531 15.417969 C 49.675781 15.457031 47.695312 16.945312 47.695312 16.945312 M 48.21875 17.679688 C 48.1875 17.636719 50.226562 16.230469 50.226562 16.230469 C 50.257812 16.273438 48.21875 17.679688 48.21875 17.679688 M 48.714844 18.433594 C 48.6875 18.390625 50.78125 17.066406 50.78125 17.066406 C 50.808594 17.109375 48.714844 18.433594 48.714844 18.433594 M 49.183594 19.207031 C 49.15625 19.164062 51.304688 17.921875 51.304688 17.921875 C 51.328125 17.96875 49.183594 19.207031 49.183594 19.207031 M 49.617188 20 C 49.59375 19.953125 51.789062 18.800781 51.789062 18.800781 C 51.8125 18.847656 49.617188 20 49.617188 20 M 50.019531 20.808594 C 49.996094 20.761719 52.234375 19.699219 52.234375 19.699219 C 52.257812 19.746094 50.019531 20.808594 50.019531 20.808594 M 50.390625 21.632812 C 50.371094 21.582031 52.648438 20.613281 52.648438 20.613281 C 52.671875 20.660156 50.390625 21.632812 50.390625 21.632812 M 50.726562 22.46875 C 50.707031 22.421875 53.023438 21.542969 53.023438 21.542969 C 53.042969 21.589844 50.726562 22.46875 50.726562 22.46875 M 51.027344 23.320312 C 51.011719 23.273438 53.359375 22.488281 53.359375 22.488281 C 53.375 22.535156 51.027344 23.320312 51.027344 23.320312 M 51.296875 24.183594 C 51.28125 24.132812 53.664062 23.445312 53.664062 23.445312 C 53.675781 23.492188 51.296875 24.183594 51.296875 24.183594 M 51.53125 25.054688 C 51.519531 25.003906 53.925781 24.410156 53.925781 24.410156 C 53.9375 24.460938 51.53125 25.054688 51.53125 25.054688 M 51.726562 25.9375 C 51.714844 25.886719 54.144531 25.390625 54.144531 25.390625 C 54.15625 25.441406 51.726562 25.9375 51.726562 25.9375 M 51.890625 26.824219 C 51.882812 26.773438 54.328125 26.375 54.328125 26.375 C 54.335938 26.425781 51.890625 26.824219 51.890625 26.824219 M 52.015625 27.71875 C 52.007812 27.667969 54.46875 27.371094 54.46875 27.371094 C 54.472656 27.421875 52.015625 27.71875 52.015625 27.71875 M 52.105469 28.617188 C 52.101562 28.566406 54.570312 28.367188 54.570312 28.367188 C 54.574219 28.417969 52.105469 28.617188 52.105469 28.617188 M 52.15625 29.519531 C 52.152344 29.46875 54.628906 29.367188 54.628906 29.367188 C 54.632812 29.421875 52.15625 29.519531 52.15625 29.519531 M 54.652344 30.421875 L 52.175781 30.421875 C 52.175781 30.371094 54.652344 30.371094 54.652344 30.371094 Z M 54.632812 31.425781 L 52.15625 31.324219 C 52.15625 31.273438 54.632812 31.371094 54.632812 31.371094 Z M 54.570312 32.425781 L 52.101562 32.226562 C 52.105469 32.175781 54.574219 32.375 54.574219 32.375 Z M 54.46875 33.421875 L 52.007812 33.125 C 52.015625 33.074219 54.472656 33.371094 54.472656 33.371094 Z M 54.324219 34.417969 L 51.878906 34.019531 C 51.886719 33.96875 54.332031 34.367188 54.332031 34.367188 Z M 54.140625 35.402344 L 51.714844 34.90625 C 51.726562 34.855469 54.152344 35.351562 54.152344 35.351562 Z M 53.921875 36.382812 L 51.515625 35.789062 C 51.527344 35.738281 53.933594 36.332031 53.933594 36.332031 Z M 53.660156 37.351562 L 51.28125 36.660156 C 51.296875 36.609375 53.675781 37.300781 53.675781 37.300781 Z M 53.363281 38.308594 L 51.011719 37.523438 C 51.027344 37.472656 53.378906 38.257812 53.378906 38.257812 Z M 53.023438 39.25 L 50.707031 38.371094 C 50.726562 38.324219 53.042969 39.203125 53.042969 39.203125 Z M 52.652344 40.179688 L 50.371094 39.210938 C 50.390625 39.160156 52.671875 40.132812 52.671875 40.132812 Z M 52.238281 41.09375 L 50 40.03125 C 50.023438 39.984375 52.261719 41.046875 52.261719 41.046875 Z M 51.785156 41.992188 L 49.59375 40.839844 C 49.617188 40.792969 51.8125 41.945312 51.8125 41.945312 Z M 51.300781 42.871094 L 49.15625 41.628906 C 49.179688 41.585938 51.328125 42.824219 51.328125 42.824219 Z M 50.785156 43.726562 L 48.691406 42.402344 C 48.71875 42.359375 50.8125 43.683594 50.8125 43.683594 Z M 50.230469 44.5625 L 48.191406 43.15625 C 48.21875 43.113281 50.257812 44.519531 50.257812 44.519531 Z M 49.644531 45.375 L 47.664062 43.886719 C 47.695312 43.847656 49.675781 45.335938 49.675781 45.335938 Z M 49.023438 46.164062 L 47.105469 44.597656 C 47.136719 44.558594 49.058594 46.125 49.058594 46.125 Z M 48.371094 46.929688 L 46.515625 45.285156 C 46.550781 45.246094 48.40625 46.890625 48.40625 46.890625 Z M 47.691406 47.664062 L 45.90625 45.949219 C 45.941406 45.910156 47.730469 47.628906 47.730469 47.628906 Z M 46.984375 48.375 L 45.265625 46.585938 C 45.304688 46.550781 47.019531 48.335938 47.019531 48.335938 Z M 46.246094 49.054688 L 44.601562 47.199219 C 44.640625 47.164062 46.285156 49.019531 46.285156 49.019531 Z M 45.480469 49.703125 L 43.914062 47.78125 C 43.953125 47.75 45.523438 49.667969 45.523438 49.667969 Z M 44.691406 50.320312 L 43.203125 48.339844 C 43.246094 48.308594 44.734375 50.289062 44.734375 50.289062 Z M 43.875 50.90625 L 42.46875 48.867188 C 42.511719 48.835938 43.917969 50.875 43.917969 50.875 Z M 43.039062 51.457031 L 41.714844 49.363281 C 41.757812 49.335938 43.082031 51.429688 43.082031 51.429688 Z M 42.179688 51.976562 L 40.941406 49.828125 C 40.988281 49.800781 42.226562 51.949219 42.226562 51.949219 Z M 41.300781 52.457031 L 40.148438 50.265625 C 40.195312 50.238281 41.34375 52.433594 41.34375 52.433594 Z M 40.402344 52.90625 L 39.339844 50.667969 C 39.386719 50.644531 40.449219 52.882812 40.449219 52.882812 Z M 39.488281 53.316406 L 38.515625 51.035156 C 38.5625 51.015625 39.535156 53.296875 39.535156 53.296875 Z M 38.554688 53.6875 L 37.675781 51.371094 C 37.722656 51.355469 38.601562 53.671875 38.601562 53.671875 Z M 37.613281 54.023438 L 36.828125 51.675781 C 36.878906 51.65625 37.664062 54.007812 37.664062 54.007812 Z M 36.652344 54.324219 L 35.964844 51.941406 C 36.015625 51.925781 36.703125 54.308594 36.703125 54.308594 Z M 35.683594 54.582031 L 35.089844 52.175781 C 35.140625 52.164062 35.730469 54.566406 35.730469 54.566406 Z M 34.707031 54.800781 L 34.210938 52.371094 C 34.261719 52.363281 34.757812 54.789062 34.757812 54.789062 Z M 33.722656 54.980469 L 33.324219 52.535156 C 33.375 52.527344 33.773438 54.972656 33.773438 54.972656 Z M 32.730469 55.121094 L 32.429688 52.660156 C 32.480469 52.652344 32.78125 55.113281 32.78125 55.113281 Z M 31.730469 55.21875 L 31.53125 52.75 C 31.582031 52.746094 31.78125 55.214844 31.78125 55.214844 Z M 30.730469 55.277344 L 30.628906 52.804688 C 30.679688 52.800781 30.78125 55.277344 30.78125 55.277344 Z M 29.777344 55.296875 C 29.726562 55.296875 29.726562 52.820312 29.726562 52.820312 C 29.777344 52.820312 29.777344 55.296875 29.777344 55.296875 M 28.773438 55.277344 C 28.722656 55.277344 28.820312 52.800781 28.820312 52.800781 C 28.875 52.804688 28.773438 55.277344 28.773438 55.277344 M 27.773438 55.21875 C 27.722656 55.214844 27.921875 52.746094 27.921875 52.746094 C 27.972656 52.75 27.773438 55.21875 27.773438 55.21875 M 26.777344 55.121094 C 26.722656 55.113281 27.023438 52.652344 27.023438 52.652344 C 27.074219 52.660156 26.777344 55.121094 26.777344 55.121094 M 25.78125 54.980469 C 25.730469 54.972656 26.128906 52.527344 26.128906 52.527344 C 26.179688 52.535156 25.78125 54.980469 25.78125 54.980469 M 24.796875 54.800781 C 24.746094 54.789062 25.242188 52.363281 25.242188 52.363281 C 25.292969 52.371094 24.796875 54.800781 24.796875 54.800781 M 23.820312 54.582031 C 23.769531 54.566406 24.359375 52.164062 24.359375 52.164062 C 24.410156 52.175781 23.820312 54.582031 23.820312 54.582031 M 22.847656 54.324219 C 22.796875 54.308594 23.488281 51.929688 23.488281 51.929688 C 23.535156 51.941406 22.847656 54.324219 22.847656 54.324219 M 21.886719 54.023438 C 21.839844 54.007812 22.621094 51.65625 22.621094 51.65625 C 22.671875 51.675781 21.886719 54.023438 21.886719 54.023438 M 20.949219 53.6875 C 20.898438 53.671875 21.777344 51.355469 21.777344 51.355469 C 21.828125 51.371094 20.949219 53.6875 20.949219 53.6875 M 20.015625 53.316406 C 19.964844 53.296875 20.9375 51.015625 20.9375 51.015625 C 20.984375 51.035156 20.015625 53.316406 20.015625 53.316406 M 19.101562 52.90625 C 19.054688 52.882812 20.113281 50.644531 20.113281 50.644531 C 20.164062 50.667969 19.101562 52.90625 19.101562 52.90625 M 18.199219 52.457031 C 18.152344 52.433594 19.304688 50.238281 19.304688 50.238281 C 19.351562 50.265625 18.199219 52.457031 18.199219 52.457031 M 17.320312 51.976562 C 17.277344 51.949219 18.515625 49.800781 18.515625 49.800781 C 18.558594 49.828125 17.320312 51.976562 17.320312 51.976562 M 16.464844 51.457031 C 16.421875 51.429688 17.746094 49.335938 17.746094 49.335938 C 17.789062 49.363281 16.464844 51.457031 16.464844 51.457031 M 15.625 50.90625 C 15.582031 50.875 16.992188 48.835938 16.992188 48.835938 C 17.035156 48.867188 15.625 50.90625 15.625 50.90625 M 14.8125 50.320312 C 14.769531 50.289062 16.261719 48.308594 16.261719 48.308594 C 16.300781 48.339844 14.8125 50.320312 14.8125 50.320312 M 14.023438 49.703125 C 13.984375 49.667969 15.550781 47.75 15.550781 47.75 C 15.589844 47.78125 14.023438 49.703125 14.023438 49.703125 M 13.257812 49.054688 C 13.21875 49.019531 14.863281 47.164062 14.863281 47.164062 C 14.902344 47.199219 13.257812 49.054688 13.257812 49.054688 M 12.519531 48.375 C 12.480469 48.335938 14.199219 46.550781 14.199219 46.550781 C 14.234375 46.585938 12.519531 48.375 12.519531 48.375 M 11.808594 47.664062 C 11.773438 47.628906 13.5625 45.910156 13.5625 45.910156 C 13.597656 45.949219 11.808594 47.664062 11.808594 47.664062 M 11.128906 46.929688 C 11.09375 46.890625 12.949219 45.246094 12.949219 45.246094 C 12.984375 45.285156 11.128906 46.929688 11.128906 46.929688 M 10.476562 46.164062 C 10.445312 46.125 12.363281 44.558594 12.363281 44.558594 C 12.398438 44.597656 10.476562 46.164062 10.476562 46.164062 M 9.859375 45.375 C 9.828125 45.335938 11.808594 43.847656 11.808594 43.847656 C 11.839844 43.886719 9.859375 45.375 9.859375 45.375 M 9.269531 44.5625 C 9.238281 44.519531 11.28125 43.113281 11.28125 43.113281 C 11.308594 43.15625 9.269531 44.5625 9.269531 44.5625 M 8.71875 43.726562 C 8.691406 43.683594 10.785156 42.359375 10.785156 42.359375 C 10.8125 42.402344 8.71875 43.726562 8.71875 43.726562 M 8.199219 42.871094 C 8.171875 42.824219 10.320312 41.585938 10.320312 41.585938 C 10.34375 41.628906 8.199219 42.871094 8.199219 42.871094 M 7.714844 41.992188 C 7.691406 41.945312 9.886719 40.792969 9.886719 40.792969 C 9.910156 40.839844 7.714844 41.992188 7.714844 41.992188 M 7.265625 41.09375 C 7.242188 41.046875 9.480469 39.984375 9.480469 39.984375 C 9.503906 40.03125 7.265625 41.09375 7.265625 41.09375 M 6.851562 40.179688 C 6.832031 40.132812 9.113281 39.164062 9.113281 39.164062 C 9.132812 39.210938 6.851562 40.179688 6.851562 40.179688 M 6.476562 39.25 C 6.457031 39.203125 8.773438 38.324219 8.773438 38.324219 C 8.792969 38.371094 6.476562 39.25 6.476562 39.25 M 6.140625 38.308594 C 6.125 38.257812 8.472656 37.472656 8.472656 37.472656 C 8.492188 37.523438 6.140625 38.308594 6.140625 38.308594 M 5.839844 37.351562 C 5.828125 37.300781 8.207031 36.609375 8.207031 36.609375 C 8.21875 36.660156 5.839844 37.351562 5.839844 37.351562 M 5.578125 36.382812 C 5.566406 36.332031 7.972656 35.738281 7.972656 35.738281 C 7.984375 35.789062 5.578125 36.382812 5.578125 36.382812 M 5.359375 35.402344 C 5.347656 35.351562 7.777344 34.855469 7.777344 34.855469 C 7.789062 34.90625 5.359375 35.402344 5.359375 35.402344 M 5.175781 34.417969 C 5.167969 34.367188 7.613281 33.96875 7.613281 33.96875 C 7.621094 34.019531 5.175781 34.417969 5.175781 34.417969 M 5.035156 33.421875 C 5.03125 33.371094 7.488281 33.074219 7.488281 33.074219 C 7.496094 33.125 5.035156 33.421875 5.035156 33.421875 M 4.933594 32.425781 C 4.929688 32.375 7.398438 32.175781 7.398438 32.175781 C 7.40625 32.226562 4.933594 32.425781 4.933594 32.425781 M 4.871094 31.425781 C 4.871094 31.371094 7.34375 31.273438 7.34375 31.273438 C 7.347656 31.324219 4.871094 31.425781 4.871094 31.425781 M 7.324219 30.421875 L 4.847656 30.421875 C 4.847656 30.371094 7.324219 30.371094 7.324219 30.371094 Z M 7.34375 29.519531 L 4.867188 29.421875 C 4.867188 29.367188 7.34375 29.46875 7.34375 29.46875 Z M 7.398438 28.617188 L 4.929688 28.417969 C 4.933594 28.367188 7.40625 28.566406 7.40625 28.566406 Z M 7.488281 27.71875 L 5.027344 27.421875 C 5.03125 27.371094 7.492188 27.667969 7.492188 27.667969 Z M 7.613281 26.824219 L 5.167969 26.425781 C 5.175781 26.375 7.625 26.773438 7.625 26.773438 Z M 7.777344 25.9375 L 5.347656 25.441406 C 5.359375 25.390625 7.785156 25.886719 7.785156 25.886719 Z M 7.972656 25.054688 L 5.566406 24.460938 C 5.578125 24.410156 7.984375 25.003906 7.984375 25.003906 Z M 8.203125 24.183594 L 5.824219 23.492188 C 5.835938 23.445312 8.21875 24.132812 8.21875 24.132812 Z M 8.472656 23.320312 L 6.121094 22.535156 C 6.136719 22.488281 8.488281 23.269531 8.488281 23.269531 Z M 8.773438 22.46875 L 6.457031 21.589844 C 6.476562 21.542969 8.792969 22.421875 8.792969 22.421875 Z M 9.113281 21.632812 L 6.832031 20.660156 C 6.851562 20.613281 9.132812 21.582031 9.132812 21.582031 Z M 21.773438 9.4375 L 20.894531 7.121094 C 20.945312 7.105469 21.824219 9.421875 21.824219 9.421875 Z M 22.625 9.136719 L 21.839844 6.785156 C 21.886719 6.769531 22.671875 9.117188 22.671875 9.117188 Z M 23.488281 8.863281 L 22.796875 6.484375 C 22.847656 6.46875 23.539062 8.851562 23.539062 8.851562 Z M 24.359375 8.628906 L 23.765625 6.226562 C 23.816406 6.210938 24.410156 8.617188 24.410156 8.617188 Z M 25.242188 8.429688 L 24.746094 6.003906 C 24.796875 5.992188 25.292969 8.421875 25.292969 8.421875 Z M 26.128906 8.265625 L 25.730469 5.820312 C 25.78125 5.8125 26.179688 8.257812 26.179688 8.257812 Z M 27.023438 8.140625 L 26.722656 5.679688 C 26.773438 5.671875 27.074219 8.132812 27.074219 8.132812 Z M 27.921875 8.046875 L 27.722656 5.578125 C 27.773438 5.574219 27.972656 8.042969 27.972656 8.042969 Z M 28.820312 7.992188 L 28.722656 5.515625 C 28.773438 5.515625 28.875 7.992188 28.875 7.992188 Z M 28.820312 7.992188 "/>
<path style=" stroke:none;fill-rule:nonzero;fill:rgb(92.941177%,13.333334%,14.117648%);fill-opacity:1;" d="M 39.621094 22.566406 C 41.578125 22.566406 43.167969 20.976562 43.167969 19.015625 C 43.167969 17.054688 41.578125 15.46875 39.621094 15.46875 C 37.660156 15.46875 36.070312 17.054688 36.070312 19.015625 C 36.070312 20.976562 37.660156 22.566406 39.621094 22.566406 M 19.707031 25.8125 C 21.664062 25.8125 23.253906 24.222656 23.253906 22.261719 C 23.253906 20.304688 21.664062 18.714844 19.707031 18.714844 C 17.746094 18.714844 16.15625 20.304688 16.15625 22.261719 C 16.15625 24.222656 17.746094 25.8125 19.707031 25.8125 M 18.699219 44.371094 C 20.308594 44.386719 21.808594 43.539062 22.621094 42.144531 C 23.433594 40.75 23.433594 39.027344 22.621094 37.632812 C 21.808594 36.238281 20.308594 35.386719 18.699219 35.40625 C 16.242188 35.433594 14.265625 37.429688 14.265625 39.886719 C 14.265625 42.34375 16.242188 44.34375 18.699219 44.371094 M 33.722656 44.371094 C 35.175781 44.371094 36.351562 43.191406 36.351562 41.742188 C 36.351562 40.289062 35.175781 39.109375 33.722656 39.109375 C 32.269531 39.109375 31.09375 40.289062 31.09375 41.742188 C 31.09375 43.191406 32.269531 44.371094 33.722656 44.371094 M 40.539062 37.070312 C 41.992188 37.070312 43.167969 35.894531 43.167969 34.441406 C 43.167969 32.988281 41.992188 31.8125 40.539062 31.8125 C 39.085938 31.8125 37.910156 32.988281 37.910156 34.441406 C 37.910156 35.894531 39.085938 37.070312 40.539062 37.070312 M 28.730469 35.3125 C 31.699219 35.3125 34.109375 32.902344 34.109375 29.933594 C 34.109375 26.960938 31.699219 24.554688 28.730469 24.554688 C 25.757812 24.554688 23.351562 26.960938 23.351562 29.933594 C 23.351562 32.902344 25.757812 35.3125 28.730469 35.3125 "/>
</g>
</svg>
