<?xml version="1.0" encoding="UTF-8"?>
<svg id="Layer_2" data-name="Layer 2" xmlns="http://www.w3.org/2000/svg" viewBox="0 0 55.76 44.14">
  <g id="Layer_1-2" data-name="Layer 1">
    <g>
      <path d="M42.98,39.49c-.14,0-.28-.03-.42-.08l-30.2-11.62c-.45-.17-.74-.6-.74-1.08v-13.94c0-.48.3-.91.74-1.08L42.56.08c.36-.14.76-.09,1.08.13.32.22.5.57.5.96v37.17c0,.38-.19.74-.5.96-.2.13-.43.2-.66.2ZM13.94,25.92l27.88,10.72V2.85L13.94,13.58v12.34Z"/>
      <path d="M12.78,27.88H4.65c-2.56,0-4.65-2.08-4.65-4.65v-6.97c0-2.56,2.08-4.65,4.65-4.65h8.13c.64,0,1.16.52,1.16,1.16v13.94c0,.64-.52,1.16-1.16,1.16ZM4.65,13.94c-1.28,0-2.32,1.04-2.32,2.32v6.97c0,1.28,1.04,2.32,2.32,2.32h6.97v-11.62h-6.97Z"/>
      <path d="M17.42,44.14h-6.97c-.58,0-1.07-.43-1.15-1l-2.32-16.26c-.09-.63.35-1.22.99-1.31.62-.08,1.22.35,1.31.99l2.18,15.26h4.66l-1.55-13.83c-.07-.64.39-1.21,1.02-1.28.62-.07,1.21.39,1.28,1.02l1.7,15.12c.04.33-.07.66-.29.9-.22.25-.53.39-.86.39Z"/>
      <path d="M47.62,13.94c-.37,0-.74-.18-.97-.52-.36-.53-.21-1.25.32-1.61l6.97-4.65c.53-.35,1.25-.21,1.61.32.36.53.21,1.25-.32,1.61l-6.97,4.65c-.2.13-.42.2-.64.2Z"/>
      <path d="M54.59,34.85c-.22,0-.45-.06-.64-.2l-6.97-4.65c-.53-.36-.68-1.08-.32-1.61.36-.53,1.08-.68,1.61-.32l6.97,4.65c.53.36.68,1.08.32,1.61-.23.34-.59.52-.97.52Z"/>
      <path d="M54.59,22.07h-6.97c-.64,0-1.16-.52-1.16-1.16s.52-1.16,1.16-1.16h6.97c.64,0,1.16.52,1.16,1.16s-.52,1.16-1.16,1.16Z"/>
    </g>
  </g>
</svg>