<?xml version="1.0" encoding="UTF-8"?>
<svg id="Layer_1" data-name="Layer 1" xmlns="http://www.w3.org/2000/svg" viewBox="0 0 144 144">
  <defs>
    <style>
      .cls-1 {
        fill: #00c93d;
      }

      .cls-2 {
        fill: #606060;
      }
    </style>
  </defs>
  <g>
    <path class="cls-1" d="M58.6,52.62c8.64.41,18.02-.68,26.58-.04,3.23.24,5.71,2.31,6.22,5.55v27.69c-.3,3.05-2.76,5.41-5.81,5.68h-27.16c-3.04-.27-5.51-2.63-5.82-5.68l.02-27.81c.56-3.09,2.88-5.1,5.98-5.39ZM71.17,66.12c-2.31.28-4.37,2.18-4.96,4.4-1.46,5.53,5.06,9.8,9.54,6.19,4.72-3.8,1.44-11.33-4.58-10.6Z"/>
    <path class="cls-1" d="M28.62,45.14c.65,0,1.31.2,1.91.42,4.57,1.62,9.19,4.43,13.78,6.15,1.31.72,2.13,2.12,2.27,3.61v33.32c-.12,1.62-.91,3.03-2.32,3.83-4.32,2.45-9.92,4.02-14.38,6.36-2.96.77-5.52-1.2-5.78-4.18v-44.95c.07-2.49,1.96-4.53,4.5-4.56Z"/>
    <path class="cls-1" d="M115.29,45.14c2.57-.03,4.52,2.04,4.6,4.56v44.95c-.27,2.98-2.83,4.94-5.79,4.18-4.46-2.33-10.06-3.91-14.38-6.36-1.42-.8-2.2-2.21-2.32-3.83v-33.32c.14-1.49.96-2.89,2.28-3.61,4.59-1.71,9.21-4.53,13.78-6.15.58-.21,1.2-.41,1.83-.42Z"/>
    <path class="cls-1" d="M48.83,24.26l46.11-.03c4.04.96,4.6,3.78,3.17,7.31-1.85,4.56-4.06,9.06-6.18,13.48-.92,1.1-2.24,1.63-3.67,1.68h-32.78c-1.56-.14-2.98-.86-3.79-2.24l-6.35-14.25c-.91-2.68.72-5.45,3.48-5.95Z"/>
    <path class="cls-1" d="M54.71,97.55l34.08-.04c1.71.13,2.94,1.08,3.74,2.55,2.32,4.3,3.9,9.52,6.15,13.92.87,2.64-.75,5.39-3.47,5.88h-46.29c-2.75-.37-4.44-3.14-3.63-5.78,2.31-4.39,3.86-9.95,6.27-14.19.69-1.22,1.78-2.03,3.15-2.33Z"/>
  </g>
  <g id="Layer_1-2" data-name="Layer 1-2">
    <g>
      <g>
        <path class="cls-2" d="M106.62,10.58s-.14-.07-.34-.21c-.24-.14-.58-.38-1.06-.58-.96-.48-2.36-1.13-4.18-2.02-.45-.21-.93-.45-1.4-.69-.51-.21-1.06-.41-1.61-.62-1.13-.41-2.36-.86-3.67-1.34-1.3-.55-2.74-.82-4.25-1.23-.75-.21-1.54-.38-2.33-.58s-1.61-.45-2.47-.55c-6.72-1.34-14.8-1.64-23.3-.48-8.46,1.16-17.3,4.11-25.22,8.7-7.91,4.56-14.87,10.72-20.15,17.47-.65.86-1.27,1.71-1.92,2.54-.62.86-1.27,1.68-1.78,2.57-1.06,1.78-2.16,3.46-3.12,5.17-.86,1.78-1.68,3.49-2.47,5.14-.75,1.68-1.3,3.39-1.92,5-.27.82-.62,1.58-.86,2.36-.21.79-.41,1.58-.62,2.33-.38,1.51-.75,2.95-1.1,4.28-.41,2.74-.82,5.14-1.06,7.13-.21,3.97-.31,6.27-.31,6.27,0,.41-.34.72-.72.72s-.69-.34-.65-.75c0,0,.1-2.33.31-6.41.27-2.02.65-4.45,1.1-7.26.34-1.37.72-2.84,1.13-4.39.21-.79.41-1.58.62-2.36.24-.79.58-1.58.86-2.43.62-1.64,1.16-3.39,1.95-5.1.82-1.71,1.68-3.46,2.54-5.24.96-1.75,2.09-3.49,3.15-5.28.51-.93,1.16-1.75,1.82-2.6s1.3-1.71,1.95-2.6c5.38-6.85,12.47-13.16,20.56-17.82,7.98-4.66,16.99-7.64,25.66-8.84,8.63-1.2,16.89-.86,23.74.51.86.1,1.71.34,2.5.55.82.21,1.61.41,2.36.62,1.54.41,3.01.72,4.35,1.27,1.34.48,2.57.96,3.73,1.37.58.21,1.13.41,1.64.62.51.24.99.48,1.44.69,1.85.89,3.29,1.58,4.25,2.06.51.21.86.48,1.1.62s.38.21.38.21c.34.21.48.65.31.99-.21.34-.62.41-.96.21Z"/>
        <path class="cls-2" d="M103.3,16.47s-.1-.07-.31-.21-.51-.34-.96-.55c-.86-.41-2.16-1.03-3.77-1.82-.41-.21-.82-.41-1.27-.62-.45-.21-.96-.34-1.47-.55-1.03-.38-2.12-.79-3.32-1.2-1.16-.48-2.47-.75-3.84-1.13-.69-.17-1.37-.34-2.09-.55-.72-.17-1.44-.41-2.23-.48-6.06-1.2-13.4-1.51-21.07-.45-7.67,1.06-15.62,3.7-22.78,7.88-7.16,4.11-13.43,9.73-18.23,15.79-.58.79-1.16,1.54-1.71,2.3-.58.75-1.16,1.51-1.61,2.33-.96,1.61-1.95,3.15-2.81,4.69-.75,1.61-1.51,3.15-2.23,4.66-.69,1.51-1.16,3.08-1.71,4.52-.27.72-.55,1.44-.75,2.16-.17.72-.38,1.4-.55,2.09-.34,1.37-.69,2.67-.99,3.87-.38,2.5-.69,4.66-.96,6.44-.17,3.63-.27,5.69-.27,5.69,0,.17-.17.34-.38.34s-.34-.14-.34-.34c0,0,.1-2.09.27-5.76.24-1.82.62-4.01.96-6.51.31-1.23.65-2.54.99-3.94.17-.69.34-1.4.55-2.12.21-.72.51-1.44.79-2.16.58-1.44,1.03-3.01,1.75-4.56.72-1.51,1.51-3.08,2.26-4.73.86-1.58,1.88-3.12,2.84-4.73.45-.82,1.06-1.58,1.64-2.33s1.16-1.54,1.75-2.33c4.83-6.17,11.2-11.79,18.43-15.97,7.23-4.21,15.28-6.89,23.02-7.95,7.74-1.06,15.18-.75,21.31.45.79.1,1.51.31,2.23.48.72.17,1.44.38,2.12.55,1.37.38,2.71.62,3.87,1.13,1.2.45,2.3.86,3.36,1.23.51.21,1.03.38,1.47.55.45.21.89.41,1.3.62,1.64.79,2.95,1.4,3.84,1.85.45.21.75.41.96.55.21.14.34.21.34.21.17.1.21.31.1.48-.1.17-.31.24-.45.14h-.07v-.03Z"/>
        <path class="cls-2" d="M5.52,64.74c0,.21-.21.34-.41.31l-3.97-.41c-.21,0-.31-.21-.27-.41,0-.21.21-.34.41-.34l3.94.45c.21,0,.31.21.31.38h0v.03Z"/>
        <path class="cls-2" d="M31.38,18.94s-.38.07-.48-.07l-2.43-3.15s-.07-.38.07-.48c.17-.14.38-.1.51.07l2.4,3.19s.07.38-.07.48h0v-.03Z"/>
        <path class="cls-2" d="M64.03,5.61s-.38-.1-.38-.31l-.48-3.94c0-.21.14-.38.31-.41.21,0,.38.1.41.27l.45,3.94c0,.21-.1.38-.31.41h0v.03Z"/>
        <path class="cls-2" d="M71.13,5.16c-.21,0-.34-.14-.34-.34l-.07-3.97c0-.21.17-.34.38-.38.21,0,.38.14.38.34v3.97c0,.21-.14.34-.31.38h-.03Z"/>
        <path class="cls-2" d="M95.25,9.34s-.27-.27-.21-.45l1.37-3.73s.27-.27.48-.21c.21.07.31.27.24.45l-1.4,3.73s-.27.27-.45.21h-.03Z"/>
        <path class="cls-2" d="M12.75,41c-.07.17-.27.24-.45.17l-3.53-1.82s-.24-.31-.14-.48.31-.27.48-.17l3.53,1.85s.24.31.17.48h-.07v-.03Z"/>
        <path class="cls-2" d="M16.82,34.15s-.34.21-.48.1l-3.29-2.23s-.17-.31-.07-.48c.14-.17.34-.21.51-.1l3.25,2.26s.21.31.07.48h0v-.03Z"/>
      </g>
      <g>
        <path class="cls-2" d="M107.85,132.65s.48-.31,1.4-.86,2.3-1.34,3.87-2.57c1.58-1.23,3.63-2.54,5.62-4.49,1.03-.96,2.12-1.92,3.25-3.01,1.06-1.16,2.16-2.36,3.29-3.63,4.45-5.17,8.94-11.92,12.13-19.91,3.22-7.95,5.07-17.06,5.07-26.21s-1.85-18.26-5.07-26.21c-3.19-7.98-7.67-14.7-12.13-19.91-1.16-1.27-2.26-2.47-3.29-3.63-1.13-1.06-2.23-2.06-3.25-2.98-1.99-1.95-4.04-3.29-5.62-4.52s-2.95-2.02-3.87-2.57c-.93-.55-1.4-.86-1.4-.86-.34-.21-.48-.65-.27-.99s.62-.41.99-.21c0,0,.51.31,1.44.86.93.58,2.33,1.37,3.94,2.64,1.61,1.23,3.7,2.6,5.72,4.59,1.06.96,2.19,1.95,3.32,3.05,1.06,1.16,2.19,2.43,3.36,3.7,4.52,5.28,9.11,12.16,12.37,20.28,3.29,8.09,5.17,17.4,5.17,26.72s-1.88,18.64-5.17,26.72c-3.25,8.12-7.85,14.97-12.37,20.28-1.16,1.3-2.3,2.54-3.36,3.7-1.13,1.1-2.3,2.09-3.32,3.05-2.02,1.99-4.11,3.36-5.72,4.59-1.61,1.27-2.98,2.06-3.94,2.64-.93.55-1.44.86-1.44.86-.34.21-.79.1-.99-.21-.21-.34-.07-.75.27-.99v.07Z"/>
        <path class="cls-2" d="M104.43,126.86s.45-.27,1.27-.75c.82-.51,2.09-1.2,3.49-2.33,1.44-1.13,3.29-2.3,5.07-4.08.93-.86,1.95-1.75,2.95-2.71.96-1.06,1.95-2.16,2.98-3.29,4.01-4.69,8.09-10.79,10.96-17.99,2.91-7.16,4.59-15.42,4.59-23.67s-1.68-16.51-4.59-23.67c-2.88-7.19-6.96-13.29-10.96-17.99-1.03-1.16-2.06-2.26-2.98-3.29-1.03-.96-2.02-1.85-2.95-2.71-1.78-1.78-3.67-2.95-5.07-4.08-1.4-1.13-2.67-1.82-3.49-2.33-.82-.51-1.27-.75-1.27-.75-.17-.1-.21-.31-.1-.48.1-.17.31-.21.45-.14,0,0,.45.27,1.27.79.82.51,2.09,1.2,3.53,2.36,1.44,1.13,3.32,2.33,5.14,4.11.93.86,1.95,1.75,2.98,2.74.96,1.06,1.95,2.16,3.01,3.32,4.08,4.76,8.19,10.9,11.1,18.19,2.95,7.26,4.63,15.59,4.66,23.95,0,8.36-1.71,16.69-4.66,23.95-2.91,7.26-7.02,13.43-11.1,18.19-1.06,1.16-2.06,2.26-3.01,3.32-1.03.99-2.06,1.88-2.98,2.74-1.82,1.78-3.7,2.98-5.14,4.11-1.44,1.13-2.67,1.85-3.53,2.36-.82.51-1.27.79-1.27.79-.17.1-.38,0-.45-.14-.1-.17-.03-.38.1-.48,0,0,0-.07,0-.07Z"/>
        <path class="cls-2" d="M111.49,18.11s-.21-.34-.07-.48l2.33-3.22s.34-.17.51-.07c.17.14.21.34.1.51l-2.36,3.19s-.34.17-.48.07h-.03Z"/>
        <path class="cls-2" d="M138.28,63.37s.1-.38.31-.38l3.94-.55s.38.1.41.31c0,.21-.1.38-.27.41l-3.94.48c-.21,0-.38-.1-.41-.31h0l-.03.03Z"/>
        <path class="cls-2" d="M133.52,98.32s.31-.24.48-.17l3.67,1.54s.24.27.17.48c-.1.17-.31.27-.48.21l-3.67-1.58s-.24-.27-.17-.45h0v-.03Z"/>
        <path class="cls-2" d="M130.33,104.69s.31-.21.48-.14l3.49,1.92s.21.31.1.48c-.1.17-.31.24-.48.14l-3.46-1.95s-.21-.31-.14-.48h0v.03Z"/>
        <path class="cls-2" d="M114.67,123.5s.34-.1.48,0l2.57,3.05s.1.38-.07.51c-.14.14-.38.1-.51,0l-2.54-3.08s-.1-.34,0-.48h.07Z"/>
        <path class="cls-2" d="M128.45,36.2s0-.38.1-.48l3.36-2.16s.38-.03.48.14.07.41-.1.51l-3.36,2.12s-.38.03-.48-.1h0v-.03Z"/>
        <path class="cls-2" d="M132.28,43.19c-.07-.17,0-.38.17-.45l3.6-1.75s.38,0,.48.17,0,.41-.14.48l-3.6,1.71s-.38,0-.48-.17h-.03Z"/>
      </g>
      <g>
        <path class="cls-2" d="M1.47,72.73s.1,2.3.31,6.27c.24,1.99.65,4.39,1.06,7.13.34,1.34.72,2.78,1.1,4.32.21.75.41,1.54.62,2.33.24.79.55,1.58.86,2.36.62,1.61,1.13,3.32,1.92,5,.79,1.68,1.64,3.39,2.47,5.14.96,1.71,2.06,3.43,3.12,5.17.51.89,1.16,1.71,1.78,2.57.62.86,1.27,1.68,1.92,2.54,5.28,6.72,12.23,12.92,20.15,17.47,7.91,4.59,16.72,7.54,25.22,8.7,8.5,1.16,16.58.82,23.3-.48.86-.1,1.64-.34,2.47-.55.79-.21,1.58-.41,2.33-.58,1.51-.41,2.98-.69,4.25-1.23,1.3-.48,2.54-.93,3.67-1.34.55-.21,1.13-.41,1.61-.62.51-.24.96-.48,1.4-.69,1.82-.86,3.22-1.54,4.18-2.02.48-.21.82-.45,1.06-.58.24-.14.34-.21.34-.21.34-.21.79-.1.96.21.21.34.07.79-.31.99,0,0-.14.07-.38.21s-.58.38-1.1.62c-.99.48-2.43,1.16-4.25,2.06-.45.21-.96.45-1.44.69-.51.21-1.06.41-1.64.62-1.16.41-2.4.89-3.73,1.37-1.3.55-2.81.86-4.35,1.27-.79.21-1.58.41-2.36.62-.82.21-1.64.45-2.5.55-6.85,1.37-15.11,1.68-23.74.51-8.63-1.2-17.64-4.18-25.7-8.87-8.09-4.66-15.14-10.96-20.56-17.82-.65-.89-1.3-1.75-1.95-2.6-.65-.86-1.3-1.68-1.82-2.6-1.1-1.82-2.19-3.53-3.15-5.28-.86-1.82-1.71-3.56-2.54-5.24-.79-1.71-1.3-3.46-1.95-5.1-.31-.82-.62-1.61-.86-2.43-.21-.82-.41-1.61-.62-2.36-.38-1.54-.75-3.01-1.13-4.39-.41-2.81-.82-5.24-1.1-7.26-.17-4.11-.27-6.41-.27-6.41,0-.41.27-.75.65-.75s.72.34.72.72Z"/>
        <path class="cls-2" d="M8.26,72.66s.1,2.06.27,5.69c.27,1.78.58,3.97.96,6.44.31,1.23.65,2.5.99,3.87.17.69.34,1.4.55,2.09.21.72.51,1.4.75,2.16.55,1.44,1.03,3.01,1.71,4.52.72,1.51,1.47,3.05,2.23,4.66.86,1.54,1.85,3.08,2.81,4.69.45.82,1.03,1.54,1.61,2.33.58.75,1.13,1.54,1.71,2.3,4.8,6.1,11.07,11.68,18.23,15.79,7.16,4.15,15.11,6.82,22.78,7.88,7.67,1.06,15.01.75,21.07-.45.79-.07,1.51-.31,2.23-.48s1.4-.38,2.09-.55c1.37-.38,2.67-.62,3.84-1.13,1.16-.45,2.3-.86,3.32-1.2.51-.21,1.03-.34,1.47-.55.45-.21.89-.45,1.27-.62,1.64-.79,2.91-1.4,3.77-1.82.45-.21.75-.41.96-.55.21-.14.31-.21.31-.21.17-.1.34,0,.45.14.1.17.03.38-.1.48,0,0-.1.07-.34.21-.21.14-.51.34-.96.55-.89.41-2.16,1.06-3.84,1.85-.41.21-.86.41-1.3.62-.48.21-.96.38-1.47.55-1.03.38-2.16.79-3.36,1.23-1.16.51-2.5.75-3.87,1.13-.69.17-1.4.38-2.12.55-.72.21-1.47.41-2.23.48-6.13,1.23-13.57,1.51-21.31.45-7.74-1.06-15.79-3.73-23.02-7.95-7.23-4.18-13.6-9.8-18.43-15.97-.58-.79-1.16-1.58-1.75-2.33-.58-.79-1.16-1.51-1.64-2.33-.96-1.61-1.95-3.19-2.84-4.73-.79-1.61-1.54-3.19-2.26-4.69-.69-1.54-1.16-3.12-1.75-4.56-.27-.75-.55-1.44-.79-2.16-.17-.72-.38-1.44-.55-2.12-.34-1.37-.69-2.71-.99-3.94-.38-2.54-.72-4.69-.96-6.51-.17-3.67-.27-5.76-.27-5.76,0-.17.14-.34.34-.34s.34.14.38.34c0,0,.07-.07.07-.07Z"/>
        <path class="cls-2" d="M98.95,133.23s.38,0,.45.17l1.61,3.63s0,.38-.21.48c-.17.1-.41,0-.48-.17l-1.58-3.67s0-.38.17-.48h.03v.03Z"/>
        <path class="cls-2" d="M46.32,133.78c.17.07.27.27.21.45l-1.51,3.7s-.27.27-.48.21-.27-.27-.21-.45l1.54-3.67s.27-.27.45-.21h0v-.03Z"/>
        <path class="cls-2" d="M18.5,112.06s.07.38-.07.48l-3.19,2.4s-.38.07-.51-.07c-.14-.17-.1-.38.07-.51l3.19-2.36s.38-.07.48.07h.03Z"/>
        <path class="cls-2" d="M14.56,106.17s.03.38-.1.48l-3.43,2.06s-.38.03-.48-.14-.07-.41.1-.48l3.43-2.02s.38-.03.48.14h0v-.03Z"/>
        <path class="cls-2" d="M6.1,83.21s-.1.38-.27.41l-3.91.69c-.17,0-.38-.1-.41-.31,0-.21.1-.38.27-.41l3.94-.65c.21,0,.38.1.38.27Z"/>
        <path class="cls-2" d="M74.76,138.78c.21,0,.34.14.38.34l.17,3.97c0,.21-.14.34-.34.38-.21,0-.38-.14-.38-.34l-.14-3.97c0-.21.14-.34.34-.38h-.03Z"/>
        <path class="cls-2" d="M66.81,138.65c.21,0,.34.17.31.38l-.27,3.97c0,.21-.21.34-.38.31-.21,0-.34-.17-.34-.38l.34-3.97c0-.21.17-.34.38-.34h-.03v.03Z"/>
      </g>
    </g>
  </g>
</svg>