<?xml version="1.0" encoding="UTF-8"?>
<svg id="Layer_1" data-name="Layer 1" xmlns="http://www.w3.org/2000/svg" viewBox="0 0 144 144">
  <defs>
    <style>
      .cls-1 {
        fill: #00c93d;
      }

      .cls-2 {
        fill: #606060;
      }
    </style>
  </defs>
  <g>
    <g>
      <path class="cls-1" d="M104.32,38.37c3.94,4.51,7.96,8.96,11.87,13.51,3.4,3.82,5.48,6.37,5.46,11.78-.11,5.38-2.46,10.51-5.33,14.98-4.13,6.35-9.26,12.15-14.96,17.15-1.44,1.03-2.8-.29-3.99-1.1-4.6-3.29-9.11-6.78-13.49-10.31-1.61-1.31-3.27-2.51-4.91-3.8-1.22-.98-2.37-1.95-.95-3.44,1.12-1.12,2.41-2.08,3.56-3.16,5.52-5.2,10.67-10.72,15.28-16.76,2.43-3.24,4.6-6.72,5.86-10.58.68-2.08,1.09-4.26.78-6.44-.09-.63-.3-1.29-.4-1.9-.26-1.36.59-.63,1.22.06v.02s.02,0,.02,0Z"/>
      <path class="cls-1" d="M98.89,44.3c-.52,1.72-1.94,1.94-3.43,2.47-8.04,2.92-16.02,8.78-21.01,15.82-1,1.12-1.76.32-2.45-.67-.47-.67-.95-1.29-1.49-1.93-2.46-2.92-5.24-5.52-8.35-7.66-3.82-2.68-7.99-4.39-12.31-5.98-.54-.25-1.01-.62-1.33-1.11-.72-1.16-.89-2.69-.79-4.02.36-3.54,2.82-5.24,6.23-5.41,6.99-.28,13.52,3.87,18.13,8.98,1.17,1.32,1.88,1.13,2.97-.15,3.22-3.65,7.44-6.57,12.09-8.03,3.86-1.17,10.13-1.92,11.76,2.84.48,1.5.44,3.28,0,4.83v.02s0,0,0,0Z"/>
    </g>
    <path class="cls-1" d="M42.95,38.03c.38-.39,1.01-.96.83.13-.1.63-.29,1.26-.37,1.9-.14.99-.13,2.01-.02,2.99.85,6.67,5.77,13.11,9.92,18.23,10.81,12.75,23.95,23.29,37.15,33.45,1.65,1.3,3.35,2.49,5.1,3.68,1.46,1.05,1.19,1.83-.12,2.97-1.33,1.19-2.75,2.34-4.19,3.43-3.79,2.85-7.68,5.53-11.55,8.27-1.08.75-2.18,1.5-3.29,2.21-1.12.67-2.29,1.69-3.63,1.65-.61-.02-1.21-.3-1.8-.69-15.34-10.34-41.17-30.41-45.2-49.08-.86-4.49-.23-9.35,2.87-12.89,4.66-5.46,9.58-10.83,14.28-16.24h.01s0,0,0,0ZM41.41,49.93c.49-.78.67-1.81.32-2.66-.62-1.24-1.59.03-2.25.83-.54.64-.96,1.4-.94,2.26,0,.55.18,1.34.73,1.55.71.17,1.72-1.37,2.12-1.96v-.02s0,0,0,0ZM43.43,60.23c.7-.47,1.32-1.21,1.7-1.98.48-.91.15-1.96-.35-2.8-1.07-1.98-2.09-.75-3.17.4-.65.68-.84,1.36-.51,2.18.14.38.33.75.54,1.11.38.65.96,1.59,1.78,1.09h.02s0,0,0,0ZM29.34,63.8c.73-.62,1.35-1.45,1.65-2.36.16-.49.2-1.06.08-1.56-.1-.51-.45-1.06-1.01-.76-.36.18-.64.48-.9.79-.58.7-1.01,1.52-1.07,2.42-.09.75.17,2.38,1.24,1.48h.02s0-.01,0-.01ZM50.59,66.41c.4-.54.55-1.16.28-1.76-.32-.71-.97-1.47-1.58-1.99-.8-.67-1.57-.29-2.28.43-.6.61-1.33,1.38-1.1,2.31.16.69.79,1.53,1.33,2.13.62.69,1.28.75,2.01.17.46-.35.98-.81,1.32-1.27v-.02h.01ZM32.02,72.52c.33-.12.66-.4.94-.66.35-.34.68-.71.92-1.13.51-.83.22-1.85-.24-2.66-.35-.64-.91-1.35-1.67-.92-.53.29-1.02.84-1.39,1.34-.56.72-.62,1.57-.27,2.44.26.69.83,1.89,1.69,1.59h.02s0,0,0,0ZM55.71,70.43c-1.05-.36-2.18.94-2.84,1.67-1.12,1.32.23,2.51,1.22,3.51.48.44,1.11.85,1.78.69.78-.13,2.62-1.72,2.61-2.63,0-.85-.86-1.53-1.4-2.15-.45-.47-.89-.92-1.36-1.08h-.02s0,0,0,0ZM37.29,74.98c-.99-.39-2.36,1.22-2.68,2.07-.37.99.46,2.13,1.05,2.97.46.65.99.97,1.73.43.68-.52,1.48-1.22,1.86-2.02.28-.67,0-1.23-.46-1.9-.41-.56-.84-1.25-1.48-1.55h-.02ZM64.26,78.55c-.62-.18-1.34.25-1.86.7-.44.37-.89.77-1.26,1.2-1.01,1.19-.06,1.98.91,2.91.33.31.65.65,1,.93.6.52,1.2.52,1.91.02.71-.51,1.53-1.17,2.1-1.83.83-.98-.04-1.84-.92-2.61-.58-.48-1.13-1.11-1.87-1.31h-.02,0ZM44.87,84.47c-1.05-.99-2.18-2.69-3.69-1.41-.86.67-1.81,1.75-1.15,2.85.26.45.66.85,1.02,1.24.91.97,1.83,1.71,2.91.96.63-.44,1.44-1.08,1.69-1.8.23-.61-.27-1.32-.77-1.81l-.02-.02h0ZM76.07,88.52c-.78-.59-1.5-1.09-2.38-.91-.53.11-1.04.48-1.55.88-2.02,1.54-2.34,2.22-.1,3.85.66.49,1.35,1.16,2.21,1.17.7,0,1.33-.44,1.85-.88.6-.5,1.25-1.01,1.48-1.57.48-1.12-.75-1.91-1.5-2.53l-.02-.02h0ZM51.52,90.56c-.98-.63-1.96-.18-2.78.53-.71.59-1.75,1.49-1.11,2.46.31.49,1.02,1.07,1.59,1.54.94.81,1.89,1.36,3.04.57.68-.46,1.42-.98,1.79-1.69.39-.75-.19-1.47-.74-1.97-.55-.49-1.16-1.06-1.77-1.44h-.02s0,0,0,0ZM86.8,96.59c-1.03-.37-2,.28-2.82.89-.65.47-1.47,1.07-1.78,1.59-.46.71.31,1.32.85,1.73.83.55,1.85,1.44,2.83,1.48.39,0,.74-.15,1.07-.36.44-.27.86-.6,1.29-.9.74-.56,1.53-1.01,1.69-1.68.1-.68-.56-1.11-1.05-1.49-.64-.44-1.37-1.01-2.07-1.25h-.02ZM62.79,99.41c-1.23-.98-2.29-1.39-3.64-.38-2.27,1.55-2.17,2.43.07,4.02,1.63,1.31,2.64,1.35,4.29.05,2.42-1.76,1.16-2.28-.69-3.68l-.02-.02h0ZM74.42,107.11c-1.38-.78-2.54-.51-3.8.34-.48.3-.99.6-1.41.97-1.24,1.01.15,1.68,1.1,2.3,1.05.68,2.21,1.66,3.54,1.21.61-.18,1.17-.55,1.71-.88.65-.4,1.36-.8,1.63-1.23.44-.65-.26-1.22-.79-1.55-.63-.4-1.31-.79-1.96-1.15h-.02s0,0,0,0Z"/>
  </g>
  <g>
    <g>
      <path class="cls-2" d="M106.65,10.44s-.12-.07-.36-.22c-.24-.14-.58-.38-1.07-.59-.97-.46-2.38-1.15-4.19-2.02-.45-.22-.92-.44-1.42-.69-.51-.21-1.06-.4-1.62-.61-1.13-.42-2.36-.87-3.67-1.34-1.29-.54-2.75-.84-4.26-1.24-.76-.19-1.53-.39-2.33-.6-.8-.2-1.61-.44-2.46-.53-6.74-1.33-14.83-1.66-23.33-.5-8.49,1.18-17.33,4.11-25.25,8.72-7.93,4.57-14.89,10.75-20.18,17.49-.64.86-1.28,1.71-1.91,2.55-.63.85-1.27,1.66-1.78,2.57-1.06,1.77-2.15,3.48-3.11,5.19-.85,1.77-1.68,3.5-2.49,5.16-.77,1.68-1.29,3.4-1.91,5-.29.81-.6,1.59-.85,2.37-.21.8-.41,1.57-.6,2.33-.39,1.52-.75,2.96-1.09,4.3-.42,2.76-.81,5.16-1.07,7.14-.2,4-.32,6.28-.32,6.28-.02.4-.34.73-.73.73s-.68-.33-.66-.75c0,0,.12-2.33.33-6.4.26-2.02.66-4.47,1.09-7.28.35-1.38.72-2.85,1.12-4.39.2-.77.4-1.56.62-2.38.25-.8.57-1.59.86-2.42.63-1.63,1.16-3.38,1.95-5.1.82-1.7,1.67-3.46,2.54-5.26.97-1.75,2.08-3.49,3.17-5.29.51-.92,1.17-1.76,1.82-2.62.64-.86,1.29-1.73,1.95-2.6,5.4-6.87,12.49-13.17,20.58-17.83C44.07,4.92,53.09,1.92,61.74.73c8.66-1.19,16.91-.85,23.78.51.87.1,1.7.33,2.51.54.81.21,1.6.41,2.38.61,1.54.41,3.03.72,4.34,1.27,1.34.49,2.59.95,3.74,1.37.57.21,1.14.4,1.66.62.51.25.99.48,1.45.69,1.84.89,3.29,1.59,4.27,2.06.5.22.85.47,1.09.61.24.15.37.22.37.22.36.21.48.65.29.99-.19.33-.63.43-.97.22h0Z"/>
      <path class="cls-2" d="M103.33,16.32s-.11-.07-.33-.2c-.22-.12-.52-.34-.97-.54-.87-.42-2.15-1.04-3.79-1.82-.4-.2-.83-.4-1.29-.62-.46-.19-.96-.36-1.47-.55-1.02-.38-2.13-.78-3.31-1.21-1.17-.5-2.49-.75-3.85-1.12-.68-.18-1.38-.36-2.1-.54-.72-.19-1.45-.4-2.22-.48-6.08-1.21-13.43-1.49-21.1-.44-7.68,1.06-15.66,3.71-22.82,7.87-7.17,4.13-13.46,9.73-18.26,15.82-.58.78-1.16,1.55-1.73,2.31-.57.76-1.17,1.5-1.61,2.32-.95,1.61-1.95,3.14-2.81,4.69-.77,1.6-1.52,3.16-2.25,4.67-.7,1.52-1.16,3.08-1.72,4.52-.26.73-.55,1.43-.77,2.15-.18.72-.36,1.42-.54,2.1-.35,1.37-.68,2.67-1,3.89-.37,2.49-.7,4.67-.97,6.46-.18,3.62-.28,5.69-.28,5.69,0,.18-.17.33-.36.33s-.34-.15-.33-.34c0,0,.11-2.09.29-5.75.24-1.81.61-4.01.98-6.53.31-1.23.65-2.55,1.01-3.93.18-.69.36-1.4.54-2.13.22-.72.51-1.43.77-2.17.57-1.46,1.04-3.03,1.74-4.57.74-1.52,1.49-3.1,2.27-4.72.87-1.57,1.88-3.12,2.84-4.74.45-.83,1.05-1.58,1.63-2.35s1.16-1.55,1.75-2.34c4.84-6.16,11.2-11.82,18.46-15.99,7.23-4.21,15.3-6.89,23.06-7.96,7.76-1.06,15.18-.77,21.33.45.78.09,1.52.3,2.25.49s1.44.37,2.13.55c1.38.37,2.72.63,3.89,1.13,1.2.44,2.31.84,3.35,1.22.51.2,1.02.36,1.49.56.45.22.89.43,1.3.63,1.65.79,2.94,1.41,3.83,1.84.45.2.76.42.98.55s.33.2.33.2c.16.09.21.31.11.47-.1.17-.3.22-.45.13h0s0,0,0,0Z"/>
      <path class="cls-2" d="M5.41,64.65c-.03.19-.21.33-.4.31l-3.96-.41c-.19-.02-.32-.2-.29-.4.03-.2.21-.35.4-.33l3.96.45c.19.02.32.19.29.38h0Z"/>
      <path class="cls-2" d="M31.32,18.78c-.15.11-.37.08-.49-.07l-2.44-3.15c-.12-.15-.08-.37.08-.5.16-.12.39-.1.51.05l2.41,3.18c.11.15.08.37-.07.48h0s0,.01,0,.01Z"/>
      <path class="cls-2" d="M64.02,5.46c-.19.03-.36-.11-.39-.3l-.49-3.95c-.02-.19.12-.37.33-.4.2-.03.38.1.41.29l.45,3.96c.02.19-.11.37-.3.4h-.01Z"/>
      <path class="cls-2" d="M71.12,4.99c-.19,0-.35-.14-.35-.33l-.07-3.99c0-.19.16-.35.37-.37.21,0,.37.14.37.33l.03,3.99c0,.19-.15.35-.34.37h-.01Z"/>
      <path class="cls-2" d="M95.26,9.18c-.18-.07-.27-.27-.21-.45l1.37-3.74c.07-.18.27-.27.47-.2.19.07.29.28.23.45l-1.41,3.73c-.07.18-.27.27-.45.21Z"/>
      <path class="cls-2" d="M12.66,40.88c-.08.17-.29.24-.46.16l-3.54-1.83c-.17-.09-.24-.31-.15-.5.09-.18.3-.26.47-.17l3.52,1.87c.17.09.24.31.16.47Z"/>
      <path class="cls-2" d="M16.77,34.04c-.11.16-.34.19-.5.09l-3.3-2.24c-.16-.11-.19-.33-.07-.49.12-.17.35-.21.51-.1l3.28,2.27c.16.11.19.32.08.47h0Z"/>
    </g>
    <g>
      <path class="cls-2" d="M107.91,132.67s.49-.3,1.4-.85c.92-.56,2.29-1.33,3.86-2.58,1.58-1.23,3.63-2.55,5.63-4.51,1.03-.95,2.14-1.92,3.27-3.01,1.05-1.15,2.16-2.37,3.31-3.64,4.46-5.2,8.96-11.94,12.15-19.92,3.23-7.95,5.08-17.08,5.09-26.24,0-9.15-1.86-18.29-5.09-26.23-3.2-7.98-7.7-14.72-12.15-19.92-1.15-1.27-2.26-2.49-3.31-3.64-1.13-1.08-2.25-2.06-3.27-3-2-1.96-4.05-3.28-5.63-4.51-1.57-1.25-2.94-2.02-3.86-2.58-.92-.56-1.4-.86-1.4-.86-.35-.21-.47-.65-.28-.98.19-.33.63-.43.98-.22,0,0,.5.3,1.43.87s2.33,1.36,3.93,2.63c1.61,1.25,3.7,2.61,5.74,4.6,1.05.96,2.19,1.96,3.34,3.06,1.07,1.18,2.2,2.42,3.38,3.72,4.54,5.3,9.13,12.18,12.39,20.31,3.29,8.11,5.18,17.42,5.19,26.75,0,9.33-1.9,18.65-5.19,26.75-3.26,8.14-7.85,15.01-12.39,20.31-1.18,1.29-2.31,2.53-3.38,3.71-1.15,1.1-2.29,2.1-3.34,3.06-2.04,1.99-4.13,3.35-5.74,4.6-1.6,1.27-3,2.06-3.93,2.63-.94.56-1.43.87-1.43.87-.35.21-.79.12-.98-.21s-.07-.77.28-.98h0s0,0,0,0h0Z"/>
      <path class="cls-2" d="M104.46,126.85s.44-.27,1.27-.77c.83-.5,2.08-1.19,3.49-2.33,1.43-1.12,3.29-2.3,5.09-4.08.93-.85,1.94-1.74,2.97-2.71.95-1.05,1.95-2.15,2.99-3.3,4.03-4.71,8.1-10.81,10.99-18.01,2.92-7.18,4.6-15.43,4.6-23.72s-1.69-16.54-4.6-23.72c-2.89-7.21-6.96-13.3-10.99-18.01-1.04-1.15-2.04-2.25-2.99-3.3-1.03-.97-2.04-1.85-2.97-2.71-1.8-1.78-3.67-2.96-5.09-4.08-1.41-1.14-2.66-1.83-3.49-2.33-.83-.5-1.27-.77-1.27-.77-.16-.09-.2-.31-.11-.47.1-.17.3-.22.46-.12,0,0,.45.27,1.29.78s2.1,1.21,3.53,2.36c1.44,1.13,3.33,2.33,5.15,4.13.94.86,1.96,1.76,3,2.74.96,1.06,1.97,2.17,3.03,3.33,4.07,4.76,8.19,10.92,11.11,18.21,2.95,7.26,4.65,15.59,4.65,23.98s-1.7,16.72-4.65,23.98c-2.92,7.29-7.04,13.45-11.11,18.2-1.06,1.16-2.07,2.28-3.03,3.34-1.03.99-2.06,1.88-3,2.74-1.82,1.8-3.71,3-5.15,4.13-1.43,1.15-2.69,1.85-3.53,2.36s-1.29.78-1.29.78c-.16.09-.36.04-.46-.12-.1-.17-.05-.38.11-.47v-.04h0Z"/>
      <path class="cls-2" d="M111.55,17.95c-.15-.11-.19-.33-.07-.49l2.34-3.23c.11-.15.34-.18.5-.06s.21.34.09.5l-2.37,3.2c-.12.15-.33.19-.48.07h0Z"/>
      <path class="cls-2" d="M138.35,63.28c-.03-.19.1-.36.29-.39l3.95-.53c.19-.02.37.12.4.32s-.1.38-.29.41l-3.96.49c-.19.03-.37-.11-.4-.3h0Z"/>
      <path class="cls-2" d="M133.58,98.28c.08-.17.3-.25.47-.18l3.67,1.55c.18.08.25.29.16.47s-.3.27-.48.2l-3.66-1.59c-.18-.08-.25-.28-.17-.45h0Z"/>
      <path class="cls-2" d="M130.4,104.65c.1-.16.31-.22.48-.13l3.49,1.93c.17.09.22.31.11.48-.1.18-.33.24-.49.15l-3.47-1.97c-.17-.1-.22-.3-.12-.47h0s0,0,0,0Z"/>
      <path class="cls-2" d="M114.73,123.5c.14-.13.36-.11.48.03l2.56,3.06c.12.15.1.37-.05.51s-.39.12-.51-.03l-2.53-3.08c-.12-.15-.09-.36.05-.49Z"/>
      <path class="cls-2" d="M128.51,36.09c-.1-.16-.05-.38.11-.48l3.35-2.15c.16-.11.38-.05.49.13s.06.4-.1.5l-3.38,2.12c-.16.1-.37.05-.47-.11h0s0,0,0,0Z"/>
      <path class="cls-2" d="M132.37,43.07c-.08-.17,0-.38.16-.46l3.59-1.74c.17-.08.38,0,.47.18s.02.4-.15.48l-3.6,1.7c-.18.08-.38,0-.47-.16h0Z"/>
    </g>
    <g>
      <path class="cls-2" d="M1.4,72.66s.11,2.28.32,6.28c.26,1.98.65,4.38,1.07,7.14.34,1.35.71,2.79,1.09,4.31.2.76.4,1.53.6,2.33.24.79.56,1.56.85,2.38.62,1.6,1.14,3.32,1.91,5,.8,1.67,1.63,3.39,2.49,5.16.95,1.72,2.05,3.42,3.11,5.19.51.91,1.15,1.72,1.78,2.57.63.84,1.27,1.69,1.91,2.55,5.3,6.74,12.25,12.92,20.18,17.49,7.91,4.61,16.75,7.54,25.25,8.72,8.49,1.16,16.59.84,23.33-.5.85-.1,1.66-.33,2.46-.53.79-.2,1.57-.41,2.33-.6,1.51-.4,2.97-.7,4.26-1.24,1.31-.48,2.54-.93,3.67-1.34.56-.21,1.12-.4,1.62-.62.5-.24.97-.47,1.42-.68,1.81-.87,3.22-1.55,4.19-2.02.49-.22.83-.46,1.07-.59.24-.14.36-.21.36-.21.34-.21.78-.11.97.22s.06.77-.29.99c0,0-.12.08-.37.22-.24.14-.59.38-1.09.61-.99.47-2.43,1.17-4.27,2.06-.46.22-.94.46-1.45.7-.52.22-1.08.4-1.66.63-1.16.43-2.4.88-3.74,1.37-1.32.55-2.8.86-4.34,1.27-.77.2-1.56.4-2.38.61-.81.21-1.64.44-2.51.54-6.87,1.36-15.12,1.7-23.78.51-8.66-1.19-17.68-4.19-25.74-8.89-8.09-4.66-15.18-10.96-20.58-17.83-.66-.88-1.31-1.75-1.95-2.6-.64-.86-1.3-1.7-1.82-2.62-1.08-1.8-2.2-3.54-3.17-5.29-.87-1.81-1.72-3.56-2.54-5.27-.78-1.71-1.32-3.46-1.95-5.1-.29-.82-.61-1.62-.86-2.42-.21-.81-.42-1.6-.62-2.37-.39-1.55-.77-3.01-1.12-4.39-.43-2.81-.83-5.26-1.09-7.28-.19-4.12-.31-6.44-.31-6.44-.02-.41.27-.75.66-.75s.71.33.73.73h0Z"/>
      <path class="cls-2" d="M8.16,72.59s.1,2.07.28,5.68c.27,1.79.59,3.96.97,6.46.31,1.22.65,2.52,1,3.89.17.68.35,1.39.54,2.11.22.71.51,1.41.77,2.14.56,1.44,1.02,3,1.72,4.52.73,1.51,1.47,3.07,2.25,4.67.86,1.55,1.86,3.08,2.81,4.69.45.83,1.04,1.56,1.61,2.32.57.76,1.15,1.53,1.73,2.31,4.79,6.1,11.08,11.69,18.26,15.82,7.16,4.16,15.14,6.82,22.82,7.88,7.68,1.05,15.02.76,21.1-.44.77-.08,1.5-.3,2.22-.48s1.42-.37,2.1-.54c1.37-.37,2.69-.63,3.85-1.12,1.18-.44,2.29-.84,3.31-1.21.51-.19,1.01-.35,1.47-.55.45-.22.88-.43,1.29-.63,1.63-.79,2.91-1.4,3.79-1.82.45-.19.75-.41.97-.54s.33-.2.33-.2c.16-.1.36-.04.45.13.1.17.04.38-.11.48,0,0-.11.07-.33.2-.22.12-.53.35-.98.54-.88.43-2.18,1.05-3.83,1.84-.41.2-.85.41-1.3.63-.47.2-.97.36-1.49.55-1.04.38-2.16.79-3.35,1.23-1.18.5-2.51.76-3.89,1.13-.69.18-1.4.36-2.13.55s-1.46.41-2.25.49c-6.15,1.22-13.57,1.51-21.33.45-7.76-1.07-15.83-3.75-23.06-7.96-7.25-4.17-13.61-9.83-18.46-15.99-.59-.79-1.17-1.57-1.75-2.34s-1.18-1.52-1.63-2.35c-.96-1.62-1.97-3.18-2.84-4.75-.78-1.62-1.54-3.19-2.27-4.72-.7-1.53-1.17-3.11-1.74-4.57-.26-.74-.56-1.45-.77-2.17-.19-.72-.37-1.44-.54-2.13-.36-1.38-.69-2.7-1.01-3.93-.37-2.52-.74-4.71-.98-6.53-.18-3.66-.29-5.75-.29-5.75,0-.18.14-.33.33-.34.19,0,.35.15.36.33v.02h0s0,0,0,0Z"/>
      <path class="cls-2" d="M98.97,133.22c.17-.08.37,0,.45.16l1.63,3.64c.08.18,0,.39-.19.47-.18.09-.4.02-.47-.15l-1.59-3.66c-.07-.18,0-.39.18-.47h0s0,0,0,0Z"/>
      <path class="cls-2" d="M46.27,133.78c.18.07.27.26.2.44l-1.51,3.69c-.07.18-.29.26-.48.19-.19-.07-.29-.27-.21-.45l1.55-3.67c.07-.18.28-.27.46-.2h-.01Z"/>
      <path class="cls-2" d="M18.43,112.04c.11.15.08.37-.07.49l-3.18,2.41c-.15.11-.37.08-.5-.08-.12-.17-.1-.39.05-.51l3.2-2.38c.15-.11.37-.08.48.07h.02,0Z"/>
      <path class="cls-2" d="M14.47,106.14c.1.17.05.38-.12.48l-3.41,2.06c-.16.1-.38.04-.49-.14s-.06-.4.11-.5l3.44-2.02c.16-.1.38-.04.48.12h0,0Z"/>
      <path class="cls-2" d="M6.02,83.16c.03.19-.1.37-.29.4l-3.93.69c-.19.03-.37-.11-.4-.31s.1-.39.28-.43l3.93-.64c.19-.03.37.1.39.29h.02Z"/>
      <path class="cls-2" d="M74.76,138.77c.19,0,.35.14.36.33l.19,3.98c0,.19-.15.36-.36.37-.21,0-.38-.13-.38-.33l-.14-3.98c0-.19.14-.35.33-.37h0Z"/>
      <path class="cls-2" d="M66.78,138.65c.19,0,.34.17.32.37l-.29,3.98c0,.19-.19.34-.39.33-.21,0-.36-.17-.34-.37l.33-3.97c.02-.19.18-.34.37-.33h0Z"/>
    </g>
  </g>
</svg>