<?xml version="1.0" encoding="UTF-8"?>
<svg id="Layer_1" data-name="Layer 1" xmlns="http://www.w3.org/2000/svg" viewBox="0 0 144 144">
  <defs>
    <style>
      .cls-1 {
        fill: #00c93d;
      }

      .cls-2 {
        fill: #606060;
      }
    </style>
  </defs>
  <g>
    <g>
      <path class="cls-2" d="M106.48,10.42s-.12-.08-.36-.22c-.24-.13-.58-.37-1.07-.59-.96-.47-2.38-1.14-4.18-2.02-.45-.22-.92-.45-1.42-.69-.5-.21-1.06-.39-1.62-.61-1.13-.42-2.35-.87-3.67-1.34-1.29-.54-2.74-.84-4.26-1.24-.75-.19-1.53-.39-2.32-.6-.79-.2-1.6-.44-2.46-.53-6.72-1.32-14.81-1.66-23.29-.5-8.48,1.17-17.3,4.1-25.21,8.7-7.92,4.56-14.87,10.73-20.15,17.46-.64.86-1.28,1.7-1.9,2.55s-1.28,1.67-1.78,2.56c-1.06,1.77-2.15,3.47-3.1,5.18-.85,1.77-1.68,3.49-2.49,5.15-.77,1.68-1.29,3.4-1.9,4.99-.29.81-.6,1.58-.85,2.37-.21.79-.4,1.57-.6,2.32-.38,1.51-.75,2.95-1.1,4.29-.42,2.75-.81,5.15-1.07,7.13-.2,3.99-.31,6.27-.31,6.27-.02.4-.34.72-.72.72s-.68-.33-.66-.74c0,0,.11-2.32.32-6.39.27-2.02.66-4.47,1.09-7.27.35-1.38.72-2.84,1.11-4.38.2-.77.4-1.56.62-2.37.25-.8.56-1.59.86-2.42.63-1.63,1.16-3.38,1.94-5.09.82-1.7,1.67-3.45,2.53-5.26.97-1.74,2.09-3.49,3.16-5.29.51-.92,1.17-1.75,1.81-2.62.64-.86,1.29-1.72,1.94-2.6,5.39-6.86,12.47-13.15,20.54-17.8C44,4.91,53,1.92,61.64.72c8.65-1.18,16.88-.85,23.74.5.87.1,1.7.33,2.5.54.81.21,1.6.41,2.37.61,1.53.41,3.02.72,4.33,1.27,1.33.5,2.58.95,3.73,1.37.57.21,1.13.4,1.66.62.5.25.99.48,1.45.7,1.84.89,3.28,1.58,4.27,2.06.5.22.85.47,1.09.61.25.14.36.22.36.22.35.22.49.66.3.98-.19.32-.63.43-.97.22h0Z"/>
      <path class="cls-2" d="M103.16,16.29s-.1-.07-.32-.2c-.22-.12-.51-.34-.96-.54-.88-.42-2.15-1.04-3.78-1.82-.4-.2-.83-.4-1.29-.62-.46-.19-.95-.35-1.47-.54-1.02-.38-2.12-.78-3.3-1.21-1.16-.5-2.49-.75-3.85-1.11-.69-.17-1.38-.35-2.1-.54-.71-.19-1.45-.4-2.22-.49-6.08-1.21-13.4-1.5-21.07-.45-7.67,1.06-15.64,3.7-22.78,7.86-7.16,4.12-13.44,9.71-18.23,15.8-.58.78-1.15,1.54-1.72,2.31-.57.76-1.16,1.5-1.61,2.31-.95,1.61-1.94,3.13-2.81,4.69-.77,1.6-1.51,3.15-2.24,4.66-.7,1.51-1.16,3.07-1.71,4.51-.26.73-.55,1.43-.77,2.14-.18.71-.36,1.42-.53,2.1-.35,1.37-.69,2.67-1,3.89-.37,2.49-.7,4.66-.96,6.45-.18,3.61-.29,5.68-.29,5.68,0,.18-.17.32-.36.32s-.34-.15-.33-.33c0,0,.1-2.09.29-5.74.24-1.81.61-4,.97-6.51.31-1.23.65-2.54,1.01-3.92.18-.7.36-1.4.54-2.12.22-.71.51-1.43.77-2.16.57-1.46,1.04-3.03,1.73-4.56.73-1.52,1.5-3.1,2.27-4.71.87-1.56,1.88-3.11,2.84-4.73.46-.83,1.05-1.57,1.63-2.34.58-.77,1.15-1.55,1.74-2.33,4.84-6.15,11.18-11.8,18.43-15.96,7.22-4.2,15.28-6.88,23.03-7.95,7.75-1.06,15.16-.77,21.3.45.78.09,1.51.3,2.24.49.72.19,1.44.37,2.12.55,1.38.36,2.71.63,3.89,1.13,1.19.44,2.31.84,3.34,1.22.51.2,1.02.36,1.49.56.46.22.89.43,1.3.63,1.65.79,2.94,1.41,3.82,1.84.45.2.75.42.97.54.22.13.32.2.32.2.15.1.21.3.11.47-.1.17-.3.23-.46.12h.02Z"/>
      <path class="cls-2" d="M5.4,64.56c-.03.19-.21.33-.4.3l-3.96-.41c-.19-.02-.32-.2-.29-.4.03-.2.21-.35.4-.32l3.95.45c.19.02.32.19.3.38Z"/>
      <path class="cls-2" d="M31.26,18.76c-.15.11-.37.09-.5-.07l-2.44-3.14c-.11-.15-.08-.37.09-.5s.39-.1.5.05l2.41,3.17c.11.15.09.37-.07.49Z"/>
      <path class="cls-2" d="M63.92,5.46c-.19.03-.36-.1-.38-.3l-.49-3.94c-.03-.19.12-.37.32-.4s.38.1.4.29l.45,3.95c.02.19-.11.37-.3.4Z"/>
      <path class="cls-2" d="M71,4.98c-.19,0-.35-.13-.35-.33l-.08-3.98c0-.19.16-.35.36-.36.21,0,.37.13.37.32l.03,3.98c0,.19-.15.35-.34.36h0Z"/>
      <path class="cls-2" d="M95.1,9.17c-.18-.07-.28-.27-.21-.45l1.36-3.73c.07-.18.28-.28.47-.2.19.07.3.28.23.45l-1.41,3.72c-.07.18-.27.27-.45.21h0Z"/>
      <path class="cls-2" d="M12.63,40.83c-.09.17-.29.24-.46.15l-3.53-1.83c-.17-.09-.24-.31-.14-.5.09-.18.3-.26.47-.17l3.51,1.87c.17.09.24.3.15.48Z"/>
      <path class="cls-2" d="M16.73,33.99c-.11.16-.33.19-.5.09l-3.3-2.24c-.16-.1-.19-.32-.07-.49s.35-.21.5-.1l3.27,2.27c.15.1.19.32.08.48h0Z"/>
    </g>
    <g>
      <path class="cls-2" d="M107.73,132.47s.49-.3,1.4-.85c.91-.56,2.29-1.33,3.86-2.58,1.57-1.23,3.63-2.55,5.62-4.5,1.03-.94,2.14-1.92,3.27-3,1.05-1.15,2.15-2.37,3.3-3.64,4.45-5.19,8.94-11.92,12.13-19.88,3.22-7.93,5.08-17.06,5.08-26.2s-1.86-18.26-5.08-26.19c-3.19-7.97-7.69-14.69-12.13-19.88-1.15-1.27-2.26-2.49-3.3-3.64-1.12-1.08-2.24-2.06-3.27-3-1.99-1.95-4.05-3.28-5.62-4.5-1.57-1.25-2.94-2.02-3.86-2.57-.91-.56-1.4-.86-1.4-.86-.34-.21-.47-.65-.28-.98.19-.33.63-.43.98-.22,0,0,.5.3,1.43.88s2.33,1.35,3.92,2.63c1.61,1.25,3.7,2.6,5.72,4.59,1.05.96,2.18,1.95,3.33,3.06,1.07,1.18,2.2,2.42,3.37,3.71,4.53,5.29,9.11,12.15,12.37,20.27,3.29,8.09,5.17,17.39,5.18,26.7,0,9.31-1.9,18.62-5.18,26.71-3.26,8.12-7.84,14.98-12.37,20.27-1.17,1.3-2.3,2.52-3.37,3.7-1.14,1.1-2.29,2.1-3.33,3.06-2.03,1.99-4.12,3.34-5.72,4.59-1.6,1.28-3,2.06-3.92,2.63-.93.56-1.43.87-1.43.87-.35.21-.79.11-.98-.21-.19-.33-.07-.77.28-.98h0Z"/>
      <path class="cls-2" d="M104.29,126.66s.44-.27,1.27-.77,2.08-1.19,3.49-2.33c1.42-1.11,3.29-2.3,5.09-4.08.92-.85,1.93-1.73,2.96-2.7.95-1.05,1.95-2.14,2.99-3.3,4.02-4.7,8.09-10.79,10.97-17.98,2.91-7.17,4.59-15.4,4.6-23.68,0-8.28-1.69-16.51-4.6-23.68-2.89-7.2-6.95-13.28-10.97-17.98-1.04-1.15-2.04-2.25-2.99-3.3-1.03-.97-2.04-1.85-2.96-2.7-1.79-1.77-3.66-2.95-5.09-4.08-1.41-1.13-2.66-1.82-3.49-2.33-.83-.5-1.27-.77-1.27-.77-.15-.1-.2-.3-.1-.47s.3-.22.46-.12c0,0,.45.27,1.29.77.84.51,2.1,1.21,3.52,2.36,1.44,1.12,3.32,2.32,5.13,4.12.93.86,1.96,1.75,2.99,2.73.96,1.06,1.97,2.17,3.03,3.32,4.07,4.75,8.17,10.9,11.09,18.18,2.94,7.25,4.64,15.57,4.65,23.94,0,8.37-1.7,16.69-4.65,23.94-2.91,7.28-7.03,13.43-11.09,18.17-1.06,1.16-2.07,2.28-3.03,3.33-1.03.98-2.06,1.88-2.99,2.73-1.81,1.79-3.7,2.99-5.13,4.11-1.43,1.14-2.69,1.85-3.52,2.35-.84.51-1.29.78-1.29.78-.15.1-.36.04-.46-.12-.1-.17-.05-.38.1-.48v.02Z"/>
      <path class="cls-2" d="M111.36,17.93c-.15-.11-.19-.33-.08-.49l2.34-3.22c.11-.15.33-.18.5-.06.16.12.2.34.09.5l-2.37,3.19c-.11.15-.33.19-.49.08h0Z"/>
      <path class="cls-2" d="M138.13,63.19c-.03-.19.1-.36.3-.39l3.94-.53c.19-.02.37.11.4.32.03.2-.1.38-.29.41l-3.95.49c-.19.03-.36-.1-.4-.3h0Z"/>
      <path class="cls-2" d="M133.36,98.14c.09-.17.3-.26.47-.18l3.67,1.55c.18.08.25.29.16.48-.09.18-.3.27-.48.2l-3.65-1.59c-.17-.08-.25-.28-.17-.45h0Z"/>
      <path class="cls-2" d="M130.2,104.5c.1-.16.31-.22.49-.12l3.48,1.93c.16.09.22.3.1.49-.1.17-.32.24-.5.15l-3.46-1.97c-.16-.1-.22-.3-.12-.47h0Z"/>
      <path class="cls-2" d="M114.54,123.32c.14-.13.35-.11.48.03l2.56,3.05c.12.14.1.37-.06.51-.14.14-.38.11-.5-.03l-2.52-3.08c-.12-.15-.09-.35.05-.49Z"/>
      <path class="cls-2" d="M128.31,36.04c-.1-.16-.05-.38.11-.49l3.34-2.15c.16-.1.38-.05.49.13.1.17.06.4-.1.5l-3.37,2.11c-.16.1-.37.05-.48-.11h0Z"/>
      <path class="cls-2" d="M132.15,43.01c-.09-.17,0-.38.16-.46l3.58-1.74c.17-.09.38,0,.48.18.09.18.02.4-.15.48l-3.6,1.7c-.17.09-.38,0-.47-.16h0Z"/>
    </g>
    <g>
      <path class="cls-2" d="M1.39,72.55s.11,2.28.31,6.27c.26,1.98.65,4.38,1.07,7.13.34,1.35.7,2.79,1.1,4.29.2.76.4,1.53.6,2.32.24.78.56,1.56.85,2.37.62,1.6,1.13,3.31,1.9,4.99.8,1.67,1.63,3.39,2.49,5.15.95,1.71,2.05,3.42,3.1,5.18.5.9,1.15,1.72,1.78,2.56.63.84,1.27,1.7,1.9,2.55,5.29,6.73,12.23,12.9,20.15,17.47,7.89,4.6,16.72,7.52,25.21,8.7,8.48,1.16,16.56.84,23.29-.5.85-.1,1.66-.32,2.46-.53.79-.2,1.57-.41,2.32-.6,1.51-.4,2.96-.7,4.26-1.24,1.3-.48,2.53-.93,3.67-1.34.56-.21,1.11-.4,1.62-.62.5-.24.97-.47,1.42-.69,1.8-.87,3.22-1.55,4.18-2.02.5-.22.83-.46,1.07-.59.24-.14.36-.22.36-.22.34-.21.78-.11.97.22.19.33.07.77-.3.98,0,0-.12.08-.36.22-.25.14-.59.38-1.09.61-.98.48-2.43,1.17-4.27,2.06-.46.22-.94.46-1.45.7-.52.22-1.08.4-1.66.63-1.15.43-2.4.88-3.73,1.36-1.31.55-2.8.86-4.33,1.27-.77.2-1.56.4-2.37.61s-1.64.44-2.5.54c-6.86,1.35-15.09,1.7-23.74.5-8.64-1.19-17.65-4.19-25.7-8.88-8.08-4.66-15.15-10.94-20.54-17.8-.66-.88-1.3-1.74-1.94-2.6-.64-.87-1.3-1.7-1.81-2.62-1.09-1.8-2.19-3.53-3.16-5.29-.87-1.8-1.71-3.56-2.53-5.26-.78-1.71-1.31-3.46-1.94-5.09-.3-.82-.61-1.62-.86-2.42-.21-.81-.42-1.6-.62-2.37-.39-1.54-.76-3.01-1.11-4.38-.43-2.8-.83-5.25-1.09-7.27C.11,74.89,0,72.57,0,72.57c-.02-.41.28-.74.66-.74s.7.33.72.73h0Z"/>
      <path class="cls-2" d="M8.13,72.48s.1,2.07.29,5.68c.27,1.79.59,3.96.96,6.45.31,1.22.65,2.51,1,3.89.17.69.35,1.39.53,2.1.22.7.5,1.41.77,2.14.56,1.44,1.02,3,1.71,4.51.72,1.5,1.48,3.06,2.24,4.67.87,1.54,1.86,3.08,2.81,4.68.45.82,1.04,1.56,1.61,2.32s1.14,1.52,1.72,2.3c4.79,6.09,11.07,11.68,18.23,15.8,7.14,4.16,15.11,6.81,22.78,7.87,7.67,1.05,15,.76,21.07-.44.77-.09,1.5-.3,2.22-.49.71-.18,1.42-.36,2.1-.54,1.36-.36,2.69-.63,3.85-1.11,1.18-.44,2.29-.84,3.3-1.21.51-.19,1.01-.35,1.47-.54.45-.22.88-.43,1.29-.63,1.63-.78,2.9-1.4,3.78-1.82.45-.19.75-.41.96-.53.22-.13.32-.2.32-.2.15-.1.36-.04.46.12.1.16.05.38-.11.48,0,0-.11.07-.32.2-.22.12-.52.35-.97.54-.89.43-2.17,1.05-3.82,1.84-.41.2-.85.41-1.3.63-.47.2-.97.36-1.49.55-1.04.38-2.15.79-3.34,1.23-1.17.5-2.51.76-3.89,1.13-.7.18-1.4.36-2.12.54-.72.19-1.46.41-2.24.49-6.14,1.22-13.55,1.5-21.3.45-7.74-1.08-15.81-3.75-23.03-7.95-7.24-4.17-13.59-9.81-18.43-15.96-.59-.78-1.16-1.56-1.74-2.33s-1.17-1.51-1.63-2.34c-.96-1.62-1.96-3.17-2.84-4.73-.78-1.62-1.53-3.19-2.27-4.7-.7-1.53-1.17-3.1-1.73-4.56-.26-.74-.55-1.45-.77-2.16-.19-.72-.36-1.44-.54-2.12-.35-1.38-.7-2.7-1.01-3.92-.37-2.51-.73-4.7-.97-6.51-.18-3.65-.29-5.74-.29-5.74,0-.18.14-.33.33-.33s.35.15.36.33l-.02-.04Z"/>
      <path class="cls-2" d="M98.8,133.01c.17-.09.37,0,.46.16l1.63,3.64c.08.17,0,.38-.19.48-.18.09-.4.02-.48-.15l-1.59-3.66c-.08-.17,0-.38.17-.47Z"/>
      <path class="cls-2" d="M46.19,133.58c.18.07.27.27.2.44l-1.51,3.69c-.08.17-.29.27-.48.19-.19-.07-.29-.27-.21-.45l1.55-3.67c.08-.18.29-.27.46-.2h0Z"/>
      <path class="cls-2" d="M18.39,111.87c.11.15.09.37-.07.49l-3.17,2.41c-.15.11-.37.08-.5-.09s-.1-.39.06-.5l3.2-2.37c.15-.11.37-.08.49.08h0Z"/>
      <path class="cls-2" d="M14.44,105.97c.1.16.05.38-.11.48l-3.41,2.06c-.16.1-.38.04-.49-.13s-.06-.4.1-.5l3.43-2.02c.16-.1.38-.04.48.12h0Z"/>
      <path class="cls-2" d="M6,83.03c.03.19-.1.37-.29.4l-3.92.69c-.19.03-.36-.1-.4-.3-.03-.2.1-.39.29-.43l3.92-.64c.19-.03.36.1.39.29h0Z"/>
      <path class="cls-2" d="M74.64,138.56c.19,0,.35.13.36.33l.19,3.97c0,.19-.15.35-.35.36-.21,0-.38-.13-.38-.32l-.14-3.98c0-.19.14-.35.33-.36h0Z"/>
      <path class="cls-2" d="M66.67,138.44c.19,0,.33.17.32.36l-.29,3.97c0,.19-.19.33-.39.32-.21,0-.36-.17-.34-.36l.32-3.96c.02-.19.18-.34.37-.33h0Z"/>
    </g>
  </g>
  <path class="cls-1" d="M113.79,80.29l-7.21-14.41c-.37-23.74-22.02-42.01-46.38-37.28-15.26,2.96-27.41,15.24-30.24,30.53-2,10.77.4,21.48,6.74,30.16,5.26,7.19,8.04,15.69,8.04,23.94,0,1.42,1.15,2.57,2.57,2.57h36.07c1.43,0,2.58-1.15,2.58-2.57v-6.74c0-.73.6-1.33,1.33-1.33h11.55c4.26,0,7.73-3.47,7.73-7.73v-7.73h1.39c2.27,0,4.33-1.14,5.52-3.08,1.19-1.92,1.3-4.29.29-6.32ZM77.75,64.82c-3.74,6.48-7.48,12.96-11.24,19.45-.02.02-.04.04-.04.08-.26.48-.55.93-1.19.7-.66-.24-.5-.82-.42-1.31.3-1.63.6-3.26.91-4.89.53-2.87,1.1-5.73,1.63-8.59.04-.24.06-.5.1-.84-.36-.02-.66-.04-.96-.04-2.1,0-4.23.02-6.34.02-1.25,0-1.52-.51-.91-1.61,3.74-6.49,7.48-12.96,11.24-19.45.02-.02.04-.04.04-.08.26-.48.56-.93,1.19-.7.66.24.5.82.42,1.31-.3,1.63-.59,3.26-.91,4.89-.53,2.87-1.1,5.72-1.63,8.59-.04.24-.06.5-.1.84.35.02.65.04.95.04,2.1,0,4.23-.02,6.34-.02,1.25,0,1.54.51.91,1.61h0Z"/>
</svg>