<?xml version="1.0" encoding="UTF-8"?>
<svg id="Layer_1" data-name="Layer 1" xmlns="http://www.w3.org/2000/svg" viewBox="0 0 144 144">
  <defs>
    <style>
      .cls-1 {
        fill: #00c93d;
      }

      .cls-2 {
        fill: #606060;
      }
    </style>
  </defs>
  <g>
    <g>
      <path class="cls-2" d="M106.46,10.42s-.12-.08-.36-.22c-.24-.13-.58-.38-1.07-.59-.97-.46-2.38-1.15-4.18-2.02-.45-.22-.92-.45-1.42-.68-.51-.21-1.06-.4-1.62-.61-1.13-.42-2.35-.86-3.66-1.35-1.29-.54-2.74-.83-4.26-1.24-.76-.19-1.54-.39-2.32-.6-.8-.2-1.6-.44-2.46-.53-6.72-1.33-14.81-1.66-23.29-.49-8.48,1.18-17.31,4.11-25.2,8.7-7.92,4.56-14.86,10.73-20.15,17.46-.64.85-1.28,1.71-1.91,2.55s-1.27,1.66-1.77,2.56c-1.05,1.77-2.15,3.47-3.1,5.19-.85,1.77-1.68,3.49-2.48,5.15-.77,1.68-1.29,3.39-1.91,5-.28.81-.61,1.58-.84,2.37-.21.8-.41,1.57-.6,2.32-.39,1.52-.75,2.95-1.09,4.3-.42,2.75-.82,5.15-1.07,7.13-.2,3.99-.31,6.27-.31,6.27-.02.4-.34.73-.73.73s-.67-.33-.65-.74c0,0,.11-2.32.32-6.39.27-2.02.66-4.47,1.09-7.26.35-1.37.72-2.84,1.11-4.38.2-.77.41-1.56.62-2.37.25-.8.57-1.59.85-2.42.63-1.63,1.16-3.38,1.94-5.09.82-1.7,1.66-3.45,2.53-5.25.97-1.74,2.08-3.48,3.17-5.28.51-.92,1.18-1.75,1.81-2.62.64-.86,1.29-1.73,1.94-2.6,5.39-6.86,12.46-13.15,20.54-17.8C43.99,4.91,52.99,1.92,61.64.72c8.65-1.19,16.88-.84,23.73.5.87.1,1.7.33,2.5.54.82.21,1.6.41,2.37.61,1.54.41,3.02.72,4.33,1.26,1.34.49,2.58.95,3.74,1.37.57.21,1.13.4,1.65.62.51.25,1,.47,1.45.69,1.84.89,3.28,1.58,4.27,2.06.5.22.84.46,1.09.61.25.14.37.22.37.22.35.22.48.65.29.99-.19.33-.63.43-.98.22v.02Z"/>
      <path class="cls-2" d="M103.14,16.29s-.11-.07-.32-.2c-.22-.12-.51-.34-.97-.54-.87-.42-2.15-1.03-3.78-1.82-.41-.2-.83-.4-1.28-.63-.46-.19-.96-.35-1.47-.54-1.02-.38-2.12-.78-3.31-1.21-1.17-.49-2.48-.75-3.84-1.12-.68-.17-1.38-.36-2.1-.54-.72-.19-1.45-.4-2.22-.48-6.08-1.2-13.4-1.49-21.07-.45-7.66,1.06-15.64,3.71-22.78,7.86-7.16,4.12-13.44,9.71-18.23,15.79-.58.78-1.16,1.55-1.73,2.31-.57.77-1.17,1.5-1.61,2.31-.95,1.6-1.94,3.14-2.81,4.68-.77,1.59-1.52,3.16-2.24,4.66-.69,1.52-1.16,3.07-1.72,4.51-.26.73-.55,1.43-.77,2.14-.18.72-.36,1.41-.53,2.1-.35,1.37-.68,2.66-1,3.88-.37,2.48-.69,4.66-.97,6.45-.18,3.61-.28,5.68-.28,5.68,0,.18-.17.32-.36.32s-.34-.15-.33-.33c0,0,.1-2.09.29-5.74.24-1.81.61-4,.98-6.51.31-1.23.65-2.54,1.01-3.93.18-.69.36-1.4.54-2.12.22-.72.51-1.42.78-2.16.57-1.45,1.03-3.02,1.74-4.56.73-1.52,1.49-3.09,2.27-4.71.87-1.56,1.88-3.11,2.84-4.73.46-.83,1.05-1.57,1.63-2.34.58-.77,1.16-1.55,1.74-2.33,4.84-6.15,11.18-11.8,18.42-15.96,7.22-4.2,15.28-6.87,23.02-7.95,7.75-1.06,15.15-.77,21.3.45.78.09,1.52.3,2.24.49.73.19,1.43.37,2.12.55,1.37.37,2.71.63,3.89,1.13,1.19.44,2.31.84,3.35,1.22.51.2,1.01.36,1.48.56.46.22.89.43,1.3.63,1.65.79,2.94,1.41,3.82,1.84.46.2.75.42.98.55.22.13.33.2.33.2.15.09.21.3.11.47s-.29.23-.46.13h-.02Z"/>
      <path class="cls-2" d="M5.4,64.55c-.03.19-.21.33-.4.31l-3.95-.41c-.19-.02-.32-.2-.29-.41.03-.2.21-.35.4-.32l3.95.45c.19.02.32.19.29.38Z"/>
      <path class="cls-2" d="M31.25,18.76c-.15.11-.37.09-.49-.07l-2.44-3.15c-.11-.15-.08-.37.09-.49.16-.12.39-.09.5.05l2.41,3.18c.11.15.09.37-.07.48Z"/>
      <path class="cls-2" d="M63.9,5.45c-.19.03-.36-.1-.39-.29l-.49-3.94c-.03-.19.12-.37.32-.4s.38.09.41.28l.45,3.95c.02.19-.11.37-.3.4h0Z"/>
      <path class="cls-2" d="M71,4.98c-.19,0-.35-.14-.35-.33l-.08-3.98c0-.19.16-.35.37-.36s.37.13.37.33l.03,3.98c0,.19-.15.35-.34.36Z"/>
      <path class="cls-2" d="M95.09,9.17c-.18-.07-.27-.27-.21-.45l1.37-3.74c.07-.18.27-.27.46-.2.19.07.29.27.23.46l-1.4,3.73c-.07.18-.27.27-.45.21h0Z"/>
      <path class="cls-2" d="M12.63,40.81c-.09.17-.28.24-.46.15l-3.54-1.83c-.17-.09-.24-.31-.15-.49s.3-.26.46-.17l3.52,1.87c.17.09.24.3.15.47h0Z"/>
      <path class="cls-2" d="M16.73,33.99c-.11.16-.33.19-.49.09l-3.29-2.24c-.16-.1-.19-.32-.07-.49.12-.16.35-.21.5-.09l3.27,2.27c.15.11.19.32.08.47Z"/>
    </g>
    <g>
      <path class="cls-2" d="M107.71,132.44s.48-.29,1.4-.85c.91-.56,2.29-1.33,3.85-2.58,1.57-1.22,3.62-2.55,5.61-4.5,1.02-.95,2.13-1.92,3.26-3,1.05-1.16,2.15-2.37,3.3-3.63,4.45-5.19,8.94-11.92,12.13-19.88,3.22-7.94,5.07-17.05,5.08-26.19,0-9.14-1.86-18.25-5.08-26.19-3.19-7.97-7.68-14.7-12.13-19.88-1.15-1.26-2.26-2.48-3.3-3.63-1.13-1.08-2.24-2.06-3.26-3-1.99-1.95-4.05-3.28-5.61-4.5-1.56-1.24-2.94-2.02-3.85-2.57-.91-.56-1.4-.85-1.4-.85-.35-.21-.47-.64-.27-.98.19-.33.64-.43.99-.22,0,0,.49.3,1.43.87.93.57,2.33,1.36,3.93,2.63,1.6,1.25,3.7,2.61,5.73,4.59,1.04.96,2.18,1.95,3.33,3.05,1.07,1.18,2.2,2.42,3.38,3.71,4.53,5.29,9.11,12.16,12.37,20.27,3.28,8.09,5.18,17.39,5.18,26.7s-1.9,18.61-5.18,26.7c-3.25,8.13-7.83,14.98-12.37,20.27-1.18,1.29-2.3,2.53-3.38,3.71-1.15,1.1-2.29,2.1-3.33,3.05-2.03,1.99-4.12,3.34-5.73,4.59-1.59,1.27-3,2.06-3.93,2.63-.93.56-1.43.87-1.43.87-.35.21-.8.12-.99-.21-.19-.33-.07-.77.27-.98h0Z"/>
      <path class="cls-2" d="M104.27,126.64s.45-.27,1.27-.77c.82-.5,2.08-1.19,3.48-2.33,1.42-1.12,3.29-2.29,5.08-4.08.93-.85,1.93-1.74,2.96-2.7.95-1.04,1.94-2.14,2.99-3.29,4.02-4.7,8.08-10.78,10.97-17.98,2.91-7.17,4.59-15.4,4.6-23.68,0-8.28-1.68-16.51-4.6-23.68-2.88-7.2-6.95-13.28-10.97-17.98-1.04-1.15-2.04-2.25-2.99-3.29-1.02-.98-2.04-1.85-2.96-2.71-1.79-1.77-3.66-2.96-5.08-4.08-1.41-1.14-2.66-1.82-3.48-2.33-.82-.5-1.27-.77-1.27-.77-.15-.09-.2-.3-.1-.47.09-.16.3-.22.46-.12,0,0,.45.27,1.28.78.83.51,2.1,1.2,3.52,2.36,1.43,1.13,3.32,2.32,5.14,4.12.94.86,1.95,1.75,2.99,2.73.96,1.06,1.97,2.17,3.02,3.33,4.07,4.75,8.17,10.9,11.09,18.18,2.94,7.24,4.64,15.57,4.65,23.93,0,8.37-1.7,16.69-4.65,23.94-2.92,7.27-7.03,13.42-11.09,18.17-1.05,1.16-2.06,2.28-3.02,3.33-1.03.99-2.06,1.87-2.99,2.74-1.81,1.79-3.7,2.99-5.14,4.12-1.42,1.15-2.68,1.85-3.52,2.35-.83.51-1.28.78-1.28.78-.15.09-.36.04-.46-.12-.09-.17-.05-.38.1-.47h0Z"/>
      <path class="cls-2" d="M111.34,17.93c-.15-.11-.19-.33-.08-.49l2.34-3.22c.11-.15.33-.18.5-.06.16.12.21.34.09.5l-2.37,3.2c-.11.15-.33.19-.48.08Z"/>
      <path class="cls-2" d="M138.1,63.17c-.03-.19.1-.36.29-.39l3.94-.53c.19-.02.37.11.4.32.03.2-.09.38-.29.41l-3.94.49c-.19.03-.37-.1-.4-.3Z"/>
      <path class="cls-2" d="M133.34,98.13c.09-.17.29-.26.46-.18l3.67,1.55c.18.08.25.28.16.47-.09.18-.3.27-.47.2l-3.65-1.58c-.17-.08-.25-.27-.17-.45h0Z"/>
      <path class="cls-2" d="M130.18,104.48c.09-.16.31-.22.48-.13l3.48,1.93c.17.09.22.31.11.48s-.32.24-.49.15l-3.46-1.96c-.17-.09-.22-.3-.12-.46h0Z"/>
      <path class="cls-2" d="M114.53,123.29c.14-.13.35-.11.47.03l2.56,3.05c.12.14.09.37-.06.51-.15.14-.39.11-.5-.03l-2.52-3.08c-.12-.15-.09-.35.05-.48Z"/>
      <path class="cls-2" d="M128.29,36.03c-.1-.16-.05-.38.11-.48l3.35-2.15c.16-.1.38-.05.48.13.1.17.06.4-.1.5l-3.37,2.11c-.16.09-.37.05-.47-.11h0Z"/>
      <path class="cls-2" d="M132.14,43c-.09-.17,0-.38.16-.46l3.58-1.74c.17-.09.38,0,.47.18.09.18.02.4-.15.48l-3.59,1.7c-.17.09-.38,0-.46-.16h0Z"/>
    </g>
    <g>
      <path class="cls-2" d="M1.38,72.54s.11,2.28.31,6.27c.26,1.98.65,4.38,1.07,7.13.34,1.35.71,2.79,1.09,4.3.2.76.4,1.54.6,2.32.24.79.56,1.56.84,2.37.62,1.59,1.14,3.31,1.91,4.99.81,1.67,1.63,3.39,2.48,5.15.96,1.72,2.05,3.41,3.1,5.18.5.9,1.16,1.72,1.77,2.56.64.84,1.27,1.69,1.91,2.55,5.29,6.73,12.22,12.9,20.15,17.46,7.9,4.6,16.73,7.53,25.2,8.7,8.48,1.16,16.56.83,23.29-.49.85-.09,1.66-.33,2.46-.53.8-.2,1.56-.41,2.32-.6,1.51-.4,2.97-.7,4.26-1.23,1.31-.48,2.53-.93,3.66-1.34.56-.21,1.11-.4,1.62-.62.49-.24.98-.46,1.42-.68,1.8-.87,3.21-1.55,4.18-2.02.49-.22.82-.46,1.07-.59.24-.14.36-.22.36-.22.34-.21.78-.11.98.22.19.33.07.77-.29.99,0,0-.12.08-.37.22s-.59.38-1.09.61c-.99.47-2.43,1.17-4.27,2.06-.46.22-.94.46-1.45.69-.52.22-1.08.41-1.65.63-1.16.43-2.4.88-3.74,1.37-1.32.55-2.8.85-4.33,1.27-.78.2-1.56.4-2.37.61s-1.63.45-2.5.54c-6.86,1.36-15.09,1.7-23.73.5-8.64-1.19-17.65-4.18-25.7-8.87-8.08-4.66-15.15-10.94-20.54-17.8-.65-.87-1.3-1.74-1.94-2.6-.64-.86-1.3-1.7-1.81-2.62-1.08-1.8-2.19-3.54-3.17-5.28-.87-1.8-1.72-3.56-2.53-5.25-.78-1.71-1.32-3.46-1.94-5.09-.29-.82-.62-1.61-.85-2.42-.21-.81-.42-1.6-.62-2.37-.39-1.55-.77-3.01-1.11-4.38-.43-2.81-.82-5.25-1.09-7.26C.11,74.87,0,72.55,0,72.55c-.02-.41.27-.74.65-.74s.71.33.73.73Z"/>
      <path class="cls-2" d="M8.14,72.47s.1,2.07.28,5.67c.27,1.79.6,3.95.97,6.45.31,1.22.64,2.51,1,3.89.17.68.35,1.38.53,2.11.22.71.51,1.41.77,2.14.56,1.44,1.02,3,1.72,4.51.72,1.51,1.47,3.06,2.24,4.67.86,1.55,1.86,3.08,2.81,4.67.45.82,1.04,1.56,1.61,2.32.57.76,1.15,1.53,1.73,2.3,4.79,6.09,11.07,11.67,18.23,15.8,7.14,4.15,15.12,6.81,22.78,7.86,7.66,1.04,14.99.76,21.07-.45.77-.09,1.5-.29,2.22-.48.72-.18,1.41-.36,2.1-.54,1.37-.37,2.68-.63,3.84-1.12,1.18-.44,2.29-.84,3.31-1.21.51-.19,1.01-.35,1.47-.55.46-.22.88-.43,1.28-.63,1.63-.79,2.91-1.39,3.78-1.82.45-.19.75-.41.97-.53.22-.13.32-.2.32-.2.15-.09.36-.04.46.13.09.16.05.38-.11.47,0,0-.11.07-.33.2-.22.12-.52.35-.98.54-.88.43-2.17,1.04-3.82,1.84-.41.2-.84.41-1.3.63-.46.2-.97.36-1.48.55-1.03.38-2.15.79-3.35,1.22-1.18.49-2.51.76-3.89,1.13-.69.18-1.39.36-2.12.55-.72.19-1.46.41-2.24.48-6.14,1.22-13.54,1.51-21.3.46-7.75-1.07-15.81-3.75-23.02-7.95-7.24-4.16-13.59-9.8-18.42-15.96-.59-.79-1.17-1.56-1.74-2.33s-1.18-1.52-1.63-2.34c-.96-1.62-1.96-3.17-2.84-4.74-.78-1.61-1.54-3.19-2.27-4.7-.7-1.53-1.17-3.1-1.74-4.56-.26-.74-.55-1.45-.78-2.16-.19-.72-.37-1.43-.54-2.12-.35-1.38-.69-2.69-1.01-3.93-.37-2.52-.73-4.7-.98-6.51-.18-3.65-.29-5.74-.29-5.74,0-.18.14-.33.33-.33s.35.15.36.33l.02-.02Z"/>
      <path class="cls-2" d="M98.79,132.99c.17-.09.37,0,.46.16l1.62,3.63c.08.17,0,.39-.19.47-.18.09-.4.02-.47-.15l-1.58-3.65c-.08-.17,0-.39.17-.46h0Z"/>
      <path class="cls-2" d="M46.18,133.56c.18.07.27.27.2.44l-1.51,3.69c-.08.17-.28.27-.48.19-.19-.07-.28-.27-.21-.45l1.55-3.67c.08-.18.28-.27.46-.2Z"/>
      <path class="cls-2" d="M18.39,111.86c.11.15.09.37-.07.48l-3.17,2.41c-.15.11-.37.08-.49-.09s-.09-.39.06-.51l3.2-2.37c.15-.11.37-.08.48.08h0Z"/>
      <path class="cls-2" d="M14.43,105.96c.09.16.05.38-.11.47l-3.4,2.06c-.16.1-.38.04-.49-.13s-.06-.4.1-.49l3.43-2.02c.16-.09.38-.04.47.12h0Z"/>
      <path class="cls-2" d="M5.99,83.02c.03.19-.09.37-.29.4l-3.92.68c-.19.03-.37-.1-.4-.31-.03-.2.09-.39.28-.43l3.93-.64c.19-.03.37.09.39.28v.02Z"/>
      <path class="cls-2" d="M74.63,138.54c.19,0,.35.13.36.33l.19,3.97c0,.19-.15.36-.35.36-.21,0-.38-.13-.38-.32l-.14-3.97c0-.19.14-.35.33-.36h0Z"/>
      <path class="cls-2" d="M66.66,138.42c.19,0,.33.17.32.36l-.28,3.97c0,.19-.19.33-.39.32-.21,0-.36-.17-.34-.36l.33-3.96c.02-.19.18-.34.37-.33h0Z"/>
    </g>
  </g>
  <path class="cls-1" d="M107.22,68.67H43.02l58.71-26.49c1.97-.89,2.84-3.21,1.96-5.18l-3.28-7.26c-.89-1.97-3.21-2.84-5.18-1.96l-60.11,27.14c-1.97.88-2.84,3.21-1.96,5.18l3.28,7.25c.43.96,1.19,1.65,2.09,2.02-.94.66-1.56,1.76-1.56,3.01v35.1c0,3.77,3.06,6.83,6.84,6.83h60.28c3.77,0,6.84-3.05,6.84-6.83v-35.1c0-2.04-1.66-3.7-3.71-3.7ZM84.81,36.08l11.14-5.04-4.35,12.11-11.42,5.15,4.63-12.22ZM65.15,44.95l11.47-5.18-4.86,12.33-11.23,5.06,4.62-12.21ZM45.51,53.81l11.23-5.06-4.62,12.21-11.23,5.06s4.62-12.21,4.62-12.21Z"/>
</svg>