<?xml version="1.0" encoding="UTF-8"?>
<svg id="Layer_1" xmlns="http://www.w3.org/2000/svg" version="1.1" viewBox="0 0 190 40.7">
  <!-- Generator: Adobe Illustrator 30.0.0, SVG Export Plug-In . SVG Version: 2.1.1 Build 123)  -->
  <g>
    <path d="M182.2,8.4v-2.5h-.9v-.3h2.3v.3h-.9v2.5h-.4Z"/>
    <path d="M183.9,8.4v-2.9h.6l.7,2c0,.2.1.3.1.4,0-.1,0-.3.2-.5l.7-2h.5v2.9h-.4v-2.4l-.8,2.4h-.3l-.8-2.4v2.4h-.4Z"/>
  </g>
  <g>
    <path d="M24,40.1h-6.1v-17.5c0-2.2-.4-3.8-1.2-4.9-.8-1.1-2.1-1.6-3.9-1.6s-4,.8-5.1,2.3c-1.1,1.5-1.6,4-1.6,7.6v14.1H.1V11.7h4.7l.8,3.7h.3c.8-1.4,1.9-2.4,3.4-3.1,1.5-.7,3.1-1.1,4.9-1.1,4.4,0,7.3,1.5,8.7,4.5h.4c.8-1.4,2-2.5,3.5-3.3,1.5-.8,3.3-1.2,5.2-1.2,3.4,0,5.9.9,7.4,2.6,1.5,1.7,2.3,4.3,2.3,7.8v18.5h-6v-17.5c0-2.2-.4-3.8-1.2-4.9-.8-1.1-2.1-1.6-3.9-1.6s-4.1.7-5.1,2.2c-1.1,1.5-1.6,3.7-1.6,6.7v15Z"/>
    <path d="M65.5,40.1l-1.2-4h-.2c-1.4,1.7-2.7,2.9-4.1,3.5-1.4.6-3.2.9-5.3.9s-5-.8-6.5-2.3c-1.6-1.5-2.3-3.6-2.3-6.4s1.1-5.1,3.3-6.6c2.2-1.5,5.5-2.3,9.9-2.4l4.9-.2v-1.5c0-1.8-.4-3.2-1.3-4.1-.8-.9-2.2-1.3-3.9-1.3s-2.8.2-4.2.6c-1.3.4-2.6.9-3.9,1.5l-2-4.3c1.5-.8,3.2-1.4,5.1-1.8,1.8-.4,3.6-.6,5.2-.6,3.6,0,6.3.8,8.2,2.4,1.8,1.6,2.8,4,2.8,7.4v19.1h-4.3ZM56.5,35.9c2.2,0,3.9-.6,5.3-1.8,1.3-1.2,2-2.9,2-5.1v-2.5l-3.6.2c-2.8.1-4.9.6-6.2,1.4-1.3.8-1.9,2.1-1.9,3.9s.4,2.2,1.1,2.9c.8.7,1.9,1,3.4,1Z"/>
    <path d="M81.5,25.1l3.4-4.3,8.6-9.1h7l-11.4,12.2,12.1,16.2h-7.1l-9.1-12.5-3.3,2.7v9.7h-6V.1h6v19.5l-.3,5.5h.2Z"/>
    <path d="M115.5,40.6c-4.4,0-7.9-1.3-10.4-3.9-2.5-2.6-3.7-6.1-3.7-10.6s1.2-8.3,3.5-10.9c2.3-2.7,5.5-4,9.5-4s6.7,1.1,8.9,3.4c2.2,2.3,3.3,5.4,3.3,9.4v3.3h-18.9c0,2.8.8,4.9,2.2,6.4,1.4,1.5,3.4,2.2,5.9,2.2s3.2-.2,4.7-.5c1.4-.3,3-.8,4.7-1.6v4.9c-1.5.7-3,1.2-4.5,1.5-1.5.3-3.2.4-5.2.4ZM114.4,15.7c-1.9,0-3.5.6-4.6,1.8-1.2,1.2-1.8,3-2.1,5.3h12.9c0-2.3-.6-4.1-1.7-5.3-1.1-1.2-2.6-1.8-4.5-1.8Z"/>
    <path d="M145.1,11.1c1.2,0,2.2,0,3,.3l-.6,5.6c-.9-.2-1.7-.3-2.7-.3-2.4,0-4.4.8-5.9,2.4-1.5,1.6-2.2,3.6-2.2,6.1v14.8h-6V11.7h4.7l.8,5h.3c.9-1.7,2.2-3,3.7-4,1.5-1,3.1-1.5,4.9-1.5Z"/>
    <path d="M165.2,11.1c1.2,0,2.2,0,3,.3l-.6,5.6c-.9-.2-1.7-.3-2.7-.3-2.4,0-4.4.8-5.9,2.4-1.5,1.6-2.2,3.6-2.2,6.1v14.8h-6V11.7h4.7l.8,5h.3c.9-1.7,2.2-3,3.7-4,1.5-1,3.1-1.5,4.9-1.5Z"/>
    <path d="M189.9,32c0,2.8-1,4.9-3,6.4-2,1.5-4.9,2.2-8.7,2.2s-6.8-.6-9.1-1.7v-5.2c3.3,1.5,6.4,2.3,9.3,2.3s5.6-1.1,5.6-3.4-.2-1.3-.6-1.8c-.4-.5-1.1-1-2-1.5-.9-.5-2.3-1.1-3.9-1.7-3.3-1.3-5.5-2.5-6.6-3.8-1.2-1.3-1.7-2.9-1.7-4.9s1-4.3,2.9-5.7c2-1.3,4.6-2,8-2s6.5.7,9.5,2l-2,4.5c-3.1-1.3-5.6-1.9-7.7-1.9-3.2,0-4.8.9-4.8,2.7s.4,1.6,1.2,2.3c.8.6,2.6,1.5,5.4,2.5,2.3.9,4,1.7,5.1,2.5,1.1.8,1.8,1.6,2.4,2.6.5,1,.8,2.2.8,3.5Z"/>
  </g>
</svg>