<?xml version="1.0" encoding="UTF-8"?>
<svg id="Layer_1" data-name="Layer 1" xmlns="http://www.w3.org/2000/svg" viewBox="0 0 144 144">
  <defs>
    <style>
      .cls-1 {
        fill: #606060;
      }

      .cls-2 {
        fill: #00c93d;
        fill-rule: evenodd;
      }
    </style>
  </defs>
  <g id="Layer_1-2" data-name="Layer 1-2">
    <g>
      <g>
        <path class="cls-1" d="M106.74,10.45s-.14-.07-.34-.21c-.24-.14-.58-.38-1.06-.58-.96-.48-2.37-1.13-4.19-2.03-.45-.21-.93-.45-1.41-.69-.51-.21-1.06-.41-1.61-.62-1.13-.41-2.37-.86-3.67-1.34-1.3-.55-2.75-.82-4.26-1.24-.76-.21-1.54-.38-2.33-.58s-1.61-.45-2.47-.55c-6.73-1.34-14.83-1.65-23.35-.48-8.48,1.17-17.34,4.12-25.27,8.72-7.93,4.57-14.9,10.75-20.19,17.51-.65.86-1.27,1.72-1.92,2.54-.62.86-1.27,1.68-1.79,2.57-1.06,1.79-2.16,3.47-3.12,5.18-.86,1.79-1.68,3.5-2.47,5.15-.76,1.68-1.3,3.4-1.92,5.01-.27.82-.62,1.58-.86,2.37-.21.79-.41,1.58-.62,2.33-.38,1.51-.76,2.95-1.1,4.29-.41,2.75-.82,5.15-1.06,7.14-.21,3.98-.31,6.28-.31,6.28,0,.41-.34.72-.72.72S0,71.63.03,71.22c0,0,.1-2.33.31-6.42.27-2.03.65-4.46,1.1-7.28.34-1.37.72-2.85,1.13-4.39.21-.79.41-1.58.62-2.37.24-.79.58-1.58.86-2.44.62-1.65,1.17-3.4,1.96-5.12.82-1.72,1.68-3.47,2.54-5.25.96-1.75,2.09-3.5,3.16-5.29.51-.93,1.17-1.75,1.82-2.61s1.3-1.72,1.96-2.61c5.39-6.87,12.5-13.18,20.6-17.85C44.08,4.92,53.11,1.93,61.8.73c8.65-1.2,16.93-.86,23.79.51.86.1,1.72.34,2.51.55.82.21,1.61.41,2.37.62,1.54.41,3.02.72,4.36,1.27,1.34.48,2.57.96,3.74,1.37.58.21,1.13.41,1.65.62.51.24,1,.48,1.44.69,1.85.89,3.3,1.58,4.26,2.06.51.21.86.48,1.1.62s.38.21.38.21c.34.21.48.65.31,1-.21.34-.62.41-.96.21Z"/>
        <path class="cls-1" d="M103.41,16.35s-.1-.07-.31-.21-.51-.34-.96-.55c-.86-.41-2.16-1.03-3.78-1.82-.41-.21-.82-.41-1.27-.62-.45-.21-.96-.34-1.48-.55-1.03-.38-2.13-.79-3.33-1.2-1.17-.48-2.47-.76-3.85-1.13-.69-.17-1.37-.34-2.09-.55-.72-.17-1.44-.41-2.23-.48-6.08-1.2-13.42-1.51-21.11-.45-7.69,1.06-15.66,3.71-22.83,7.9-7.18,4.12-13.46,9.75-18.26,15.83-.58.79-1.17,1.54-1.72,2.3-.58.76-1.17,1.51-1.61,2.33-.96,1.61-1.96,3.16-2.82,4.7-.76,1.61-1.51,3.16-2.23,4.67-.69,1.51-1.17,3.09-1.72,4.53-.27.72-.55,1.44-.76,2.16-.17.72-.38,1.41-.55,2.09-.34,1.37-.69,2.68-1,3.88-.38,2.51-.69,4.67-.96,6.45-.17,3.64-.27,5.7-.27,5.7,0,.17-.17.34-.38.34s-.34-.14-.34-.34c0,0,.1-2.09.27-5.77.24-1.82.62-4.02.96-6.52.31-1.24.65-2.54,1-3.95.17-.69.34-1.41.55-2.13.21-.72.51-1.44.79-2.16.58-1.44,1.03-3.02,1.75-4.57.72-1.51,1.51-3.09,2.27-4.74.86-1.58,1.89-3.12,2.85-4.74.45-.82,1.06-1.58,1.65-2.33s1.17-1.54,1.75-2.33c4.84-6.18,11.23-11.81,18.47-16,7.24-4.22,15.31-6.9,23.07-7.97,7.76-1.06,15.21-.76,21.35.45.79.1,1.51.31,2.23.48.72.17,1.44.38,2.13.55,1.37.38,2.71.62,3.88,1.13,1.2.45,2.3.86,3.36,1.24.51.21,1.03.38,1.48.55.45.21.89.41,1.3.62,1.65.79,2.95,1.41,3.85,1.85.45.21.76.41.96.55.21.14.34.21.34.21.17.1.21.31.1.48-.1.17-.31.24-.45.14h-.07v-.03Z"/>
        <path class="cls-1" d="M5.42,64.73c0,.21-.21.34-.41.31l-3.98-.41c-.21,0-.31-.21-.27-.41,0-.21.21-.34.41-.34l3.95.45c.21,0,.31.21.31.38h0v.03Z"/>
        <path class="cls-1" d="M31.35,18.82s-.38.07-.48-.07l-2.44-3.16s-.07-.38.07-.48c.17-.14.38-.1.51.07l2.4,3.19s.07.38-.07.48h0v-.03Z"/>
        <path class="cls-1" d="M64.06,5.47s-.38-.1-.38-.31l-.48-3.95c0-.21.14-.38.31-.41.21,0,.38.1.41.27l.45,3.95c0,.21-.1.38-.31.41h0v.03Z"/>
        <path class="cls-1" d="M71.17,5.02c-.21,0-.34-.14-.34-.34l-.07-3.98c0-.21.17-.34.38-.38.21,0,.38.14.38.34v3.98c0,.21-.14.34-.31.38h-.03Z"/>
        <path class="cls-1" d="M95.34,9.21s-.27-.27-.21-.45l1.37-3.74s.27-.27.48-.21c.21.07.31.27.24.45l-1.41,3.74s-.27.27-.45.21c0,0-.03,0-.03,0Z"/>
        <path class="cls-1" d="M12.67,40.93c-.07.17-.27.24-.45.17l-3.54-1.82s-.24-.31-.14-.48.31-.27.48-.17l3.54,1.85s.24.31.17.48h-.07v-.03Z"/>
        <path class="cls-1" d="M16.75,34.07s-.34.21-.48.1l-3.3-2.23s-.17-.31-.07-.48c.14-.17.34-.21.51-.1l3.26,2.27s.21.31.07.48h0v-.03Z"/>
      </g>
      <g>
        <path class="cls-1" d="M107.98,132.77s.48-.31,1.41-.86,2.3-1.34,3.88-2.57c1.58-1.24,3.64-2.54,5.63-4.5,1.03-.96,2.13-1.92,3.26-3.02,1.06-1.17,2.16-2.37,3.3-3.64,4.46-5.18,8.96-11.95,12.15-19.95,3.23-7.97,5.08-17.1,5.08-26.26s-1.85-18.3-5.08-26.26c-3.19-8-7.69-14.73-12.15-19.95-1.17-1.27-2.27-2.47-3.3-3.64-1.13-1.06-2.23-2.06-3.26-2.99-1.99-1.96-4.05-3.3-5.63-4.53s-2.95-2.03-3.88-2.57c-.93-.55-1.41-.86-1.41-.86-.34-.21-.48-.65-.27-1s.62-.41,1-.21c0,0,.51.31,1.44.86.93.58,2.33,1.37,3.95,2.64,1.61,1.24,3.71,2.61,5.73,4.6,1.06.96,2.2,1.96,3.33,3.06,1.06,1.17,2.2,2.44,3.36,3.71,4.53,5.29,9.13,12.19,12.39,20.32,3.3,8.1,5.18,17.44,5.18,26.78s-1.89,18.68-5.18,26.78c-3.26,8.14-7.86,15-12.39,20.32-1.17,1.3-2.3,2.54-3.36,3.71-1.13,1.1-2.3,2.09-3.33,3.06-2.03,1.99-4.12,3.36-5.73,4.6-1.61,1.27-2.99,2.06-3.95,2.64-.93.55-1.44.86-1.44.86-.34.21-.79.1-1-.21-.21-.34-.07-.76.27-1v.07Z"/>
        <path class="cls-1" d="M104.54,126.97s.45-.27,1.27-.76c.82-.51,2.09-1.2,3.5-2.33,1.44-1.13,3.3-2.3,5.08-4.09.93-.86,1.96-1.75,2.95-2.71.96-1.06,1.96-2.16,2.99-3.3,4.02-4.7,8.1-10.81,10.99-18.02,2.92-7.18,4.6-15.45,4.6-23.72s-1.68-16.55-4.6-23.72c-2.88-7.21-6.97-13.32-10.99-18.02-1.03-1.17-2.06-2.27-2.99-3.3-1.03-.96-2.03-1.85-2.95-2.71-1.79-1.79-3.67-2.95-5.08-4.09s-2.68-1.82-3.5-2.33c-.82-.51-1.27-.76-1.27-.76-.17-.1-.21-.31-.1-.48.1-.17.31-.21.45-.14,0,0,.45.27,1.27.79.82.51,2.09,1.2,3.54,2.37,1.44,1.13,3.33,2.33,5.15,4.12.93.86,1.96,1.75,2.99,2.75.96,1.06,1.96,2.16,3.02,3.33,4.09,4.77,8.21,10.92,11.12,18.23,2.95,7.28,4.63,15.62,4.67,24,0,8.38-1.72,16.72-4.67,24-2.92,7.28-7.04,13.46-11.12,18.23-1.06,1.17-2.06,2.27-3.02,3.33-1.03,1-2.06,1.89-2.99,2.75-1.82,1.79-3.71,2.99-5.15,4.12-1.44,1.13-2.68,1.85-3.54,2.37-.82.51-1.27.79-1.27.79-.17.1-.38,0-.45-.14-.1-.17-.03-.38.1-.48,0,0,0-.07,0-.07Z"/>
        <path class="cls-1" d="M111.62,18s-.21-.34-.07-.48l2.33-3.23s.34-.17.51-.07c.17.14.21.34.1.51l-2.37,3.19s-.34.17-.48.07h-.03Z"/>
        <path class="cls-1" d="M138.46,63.35s.1-.38.31-.38l3.95-.55s.38.1.41.31c0,.21-.1.38-.27.41l-3.95.48c-.21,0-.38-.1-.41-.31h0l-.03.03Z"/>
        <path class="cls-1" d="M133.69,98.37s.31-.24.48-.17l3.67,1.54s.24.27.17.48c-.1.17-.31.27-.48.21l-3.67-1.58s-.24-.27-.17-.45h0v-.03Z"/>
        <path class="cls-1" d="M130.5,104.76s.31-.21.48-.14l3.5,1.92s.21.31.1.48c-.1.17-.31.24-.48.14l-3.47-1.96s-.21-.31-.14-.48h0v.03Z"/>
        <path class="cls-1" d="M114.81,123.61s.34-.1.48,0l2.57,3.06s.1.38-.07.51c-.14.14-.38.1-.51,0l-2.54-3.09s-.1-.34,0-.48h.07Z"/>
        <path class="cls-1" d="M128.61,36.13s0-.38.1-.48l3.36-2.16s.38-.03.48.14.07.41-.1.51l-3.36,2.13s-.38.03-.48-.1h0v-.03Z"/>
        <path class="cls-1" d="M132.46,43.13c-.07-.17,0-.38.17-.45l3.6-1.75s.38,0,.48.17,0,.41-.14.48l-3.6,1.72s-.38,0-.48-.17h-.03Z"/>
      </g>
      <g>
        <path class="cls-1" d="M1.37,72.73s.1,2.3.31,6.28c.24,1.99.65,4.39,1.06,7.14.34,1.34.72,2.78,1.1,4.33.21.76.41,1.54.62,2.33.24.79.55,1.58.86,2.37.62,1.61,1.13,3.33,1.92,5.01.79,1.68,1.65,3.4,2.47,5.15.96,1.72,2.06,3.43,3.12,5.18.51.89,1.17,1.72,1.79,2.57.62.86,1.27,1.68,1.92,2.54,5.29,6.73,12.26,12.94,20.19,17.51,7.93,4.6,16.75,7.55,25.27,8.72,8.51,1.17,16.62.82,23.35-.48.86-.1,1.65-.34,2.47-.55.79-.21,1.58-.41,2.33-.58,1.51-.41,2.99-.69,4.26-1.24,1.3-.48,2.54-.93,3.67-1.34.55-.21,1.13-.41,1.61-.62.51-.24.96-.48,1.41-.69,1.82-.86,3.23-1.54,4.19-2.03.48-.21.82-.45,1.06-.58.24-.14.34-.21.34-.21.34-.21.79-.1.96.21.21.34.07.79-.31,1,0,0-.14.07-.38.21s-.58.38-1.1.62c-1,.48-2.44,1.17-4.26,2.06-.45.21-.96.45-1.44.69-.51.21-1.06.41-1.65.62-1.17.41-2.4.89-3.74,1.37-1.3.55-2.82.86-4.36,1.27-.79.21-1.58.41-2.37.62-.82.21-1.65.45-2.51.55-6.87,1.37-15.14,1.68-23.79.51-8.65-1.2-17.68-4.19-25.75-8.89-8.1-4.67-15.18-10.99-20.6-17.85-.65-.89-1.3-1.75-1.96-2.61-.65-.86-1.3-1.68-1.82-2.61-1.1-1.82-2.2-3.54-3.16-5.29-.86-1.82-1.72-3.57-2.54-5.25-.79-1.72-1.3-3.47-1.96-5.12-.31-.82-.62-1.61-.86-2.44-.21-.82-.41-1.61-.62-2.37-.38-1.54-.76-3.02-1.13-4.39-.41-2.82-.82-5.25-1.1-7.28C.1,75.06,0,72.76,0,72.76c0-.41.27-.76.65-.76s.72.34.72.72Z"/>
        <path class="cls-1" d="M8.17,72.66s.1,2.06.27,5.7c.27,1.79.58,3.98.96,6.45.31,1.24.65,2.51,1,3.88.17.69.34,1.41.55,2.09.21.72.51,1.41.76,2.16.55,1.44,1.03,3.02,1.72,4.53.72,1.51,1.48,3.06,2.23,4.67.86,1.54,1.85,3.09,2.82,4.7.45.82,1.03,1.54,1.61,2.33.58.76,1.13,1.54,1.72,2.3,4.81,6.11,11.09,11.71,18.26,15.83,7.18,4.15,15.14,6.83,22.83,7.9,7.69,1.06,15.04.76,21.11-.45.79-.07,1.51-.31,2.23-.48s1.41-.38,2.09-.55c1.37-.38,2.68-.62,3.85-1.13,1.17-.45,2.3-.86,3.33-1.2.51-.21,1.03-.34,1.48-.55.45-.21.89-.45,1.27-.62,1.65-.79,2.92-1.41,3.78-1.82.45-.21.76-.41.96-.55.21-.14.31-.21.31-.21.17-.1.34,0,.45.14.1.17.03.38-.1.48,0,0-.1.07-.34.21-.21.14-.51.34-.96.55-.89.41-2.16,1.06-3.85,1.85-.41.21-.86.41-1.3.62-.48.21-.96.38-1.48.55-1.03.38-2.16.79-3.36,1.24-1.17.51-2.51.76-3.88,1.13-.69.17-1.41.38-2.13.55-.72.21-1.48.41-2.23.48-6.15,1.24-13.6,1.51-21.35.45-7.76-1.06-15.83-3.74-23.07-7.97-7.24-4.19-13.63-9.82-18.47-16-.58-.79-1.17-1.58-1.75-2.33-.58-.79-1.17-1.51-1.65-2.33-.96-1.61-1.96-3.19-2.85-4.74-.79-1.61-1.54-3.19-2.27-4.7-.69-1.54-1.17-3.12-1.75-4.57-.27-.76-.55-1.44-.79-2.16-.17-.72-.38-1.44-.55-2.13-.34-1.37-.69-2.71-1-3.95-.38-2.54-.72-4.7-.96-6.52-.17-3.67-.27-5.77-.27-5.77,0-.17.14-.34.34-.34s.34.14.38.34c0,0,.07-.07.07-.07Z"/>
        <path class="cls-1" d="M99.05,133.36s.38,0,.45.17l1.61,3.64s0,.38-.21.48c-.17.1-.41,0-.48-.17l-1.58-3.67s0-.38.17-.48h.03v.03Z"/>
        <path class="cls-1" d="M46.31,133.91c.17.07.27.27.21.45l-1.51,3.71s-.27.27-.48.21-.27-.27-.21-.45l1.54-3.67s.27-.27.45-.21h0v-.03Z"/>
        <path class="cls-1" d="M18.44,112.14s.07.38-.07.48l-3.19,2.4s-.38.07-.51-.07c-.14-.17-.1-.38.07-.51l3.19-2.37s.38-.07.48.07h.03Z"/>
        <path class="cls-1" d="M14.49,106.23s.03.38-.1.48l-3.43,2.06s-.38.03-.48-.14-.07-.41.1-.48l3.43-2.03s.38-.03.48.14h0v-.03Z"/>
        <path class="cls-1" d="M6.01,83.23s-.1.38-.27.41l-3.91.69c-.17,0-.38-.1-.41-.31,0-.21.1-.38.27-.41l3.95-.65c.21,0,.38.1.38.27Z"/>
        <path class="cls-1" d="M74.81,138.92c.21,0,.34.14.38.34l.17,3.98c0,.21-.14.34-.34.38-.21,0-.38-.14-.38-.34l-.14-3.98c0-.21.14-.34.34-.38h-.03Z"/>
        <path class="cls-1" d="M66.85,138.78c.21,0,.34.17.31.38l-.27,3.98c0,.21-.21.34-.38.31-.21,0-.34-.17-.34-.38l.34-3.98c0-.21.17-.34.38-.34h-.03v.03Z"/>
      </g>
    </g>
  </g>
  <g id="Layer_1-2-2" data-name="Layer 1-2-2">
    <g>
      <path class="cls-2" d="M22.14,71.83c0,9.75,8,17.75,17.75,17.75,1.48,0,2.95-.21,4.33-.48-4.91-4.05-8.07-10.16-8.07-16.96s3.36-13.39,8.58-17.44c-1.48-.38-3.16-.58-4.84-.58-9.75,0-17.75,7.9-17.75,17.75v-.03Z"/>
      <path class="cls-2" d="M43.22,72.11c0,12.02,9.75,21.77,21.77,21.77,1.79,0,3.54-.21,5.22-.58-6.21-5.12-10.16-12.7-10.16-21.29s3.85-16.07,9.96-21.08c-1.68-.38-3.36-.58-5.05-.58-12.02,0-21.77,9.75-21.77,21.77h.03Z"/>
      <path class="cls-2" d="M67.19,72.01c0,15.07,12.33,27.4,27.4,27.4s27.4-12.33,27.4-27.4-12.33-27.4-27.4-27.4-27.4,12.22-27.4,27.4Z"/>
    </g>
  </g>
</svg>