<?xml version="1.0" encoding="UTF-8"?>
<svg id="Layer_2" data-name="Layer 2" xmlns="http://www.w3.org/2000/svg" viewBox="0 0 36.79 36.35">
  <defs>
    <style>
      .cls-1 {
        stroke: #000;
        stroke-miterlimit: 10;
        stroke-width: .5px;
      }
    </style>
  </defs>
  <g id="Layer_1-2" data-name="Layer 1">
    <g>
      <path class="cls-1" d="M24.22.25c-6.81,0-12.32,5.52-12.32,12.32s5.52,12.32,12.32,12.32,12.32-5.52,12.32-12.32c0-6.8-5.52-12.31-12.32-12.32ZM24.22,23.55c-6.06,0-10.98-4.91-10.98-10.98S18.16,1.59,24.22,1.59s10.98,4.91,10.98,10.98c0,6.06-4.92,10.97-10.98,10.98Z"/>
      <path class="cls-1" d="M6.86,17.25c.35.12.73-.06.86-.41,0,0,0,0,0,0,.48-1.35,1.27-2.57,2.29-3.56.26-.27.25-.69-.01-.95-.25-.25-.66-.26-.92-.02-1.18,1.14-2.08,2.54-2.63,4.08-.13.35.05.73.39.86,0,0,0,0,.01,0Z"/>
      <path class="cls-1" d="M8.06,25.89c.37,0,.67-.3.67-.67,0-.13-.04-.25-.1-.36-.9-1.42-1.4-3.06-1.43-4.74,0-.37-.31-.67-.69-.66-.37,0-.67.31-.66.69.04,1.93.6,3.8,1.64,5.43.12.2.34.32.57.31Z"/>
      <path class="cls-1" d="M23.07,26.33c-1.17,1.21-2.64,2.08-4.27,2.51-.36.1-.57.46-.48.82.1.36.46.57.82.48,1.86-.5,3.55-1.49,4.89-2.88.27-.26.27-.69.01-.95-.26-.27-.69-.27-.95-.01,0,0-.02.02-.03.03h0Z"/>
      <path class="cls-1" d="M15.48,29.11c-1.67-.17-3.26-.79-4.61-1.79-.3-.22-.72-.16-.94.13-.22.3-.16.72.13.94,1.54,1.16,3.37,1.87,5.28,2.07h.07c.37.02.69-.27.71-.64.02-.37-.27-.69-.64-.71h0Z"/>
      <path class="cls-1" d="M1.8,29.65c-.13-.54-.2-1.1-.2-1.65,0-.26.02-.52.04-.78.04-.37-.22-.71-.6-.75s-.71.22-.75.6c-.03.31-.05.62-.04.93,0,.67.08,1.33.24,1.98.08.3.35.51.65.51.37,0,.67-.3.67-.67,0-.06,0-.11-.02-.17h0Z"/>
      <path class="cls-1" d="M1.44,25.18c.33.16.73.04.9-.29.38-.73.89-1.38,1.5-1.92.26-.26.26-.69,0-.95-.24-.24-.63-.26-.9-.05-.73.65-1.34,1.44-1.79,2.31-.17.33-.03.73.3.9Z"/>
      <path class="cls-1" d="M13.41,32.47c-.54.61-1.19,1.12-1.91,1.51-.34.16-.48.56-.32.89.16.34.56.48.89.32.02,0,.04-.02.05-.03.87-.45,1.64-1.06,2.29-1.79.25-.28.22-.7-.06-.95s-.7-.22-.95.06h0Z"/>
      <path class="cls-1" d="M4.53,33.57c-.68-.46-1.26-1.04-1.73-1.71-.21-.3-.63-.38-.94-.17-.3.21-.38.63-.17.94.56.8,1.26,1.5,2.07,2.05.3.22.72.16.94-.14.22-.3.16-.72-.14-.94-.01,0-.02-.02-.04-.02h0Z"/>
      <path class="cls-1" d="M9.18,34.7c-.81.1-1.63.05-2.43-.14-.36-.09-.73.13-.81.5-.09.36.13.73.5.81h0c.95.23,1.94.28,2.91.17.37-.05.63-.38.59-.75-.05-.37-.38-.63-.75-.59h0Z"/>
    </g>
  </g>
</svg>