<?xml version="1.0" encoding="UTF-8"?>
<svg id="Layer_2" data-name="Layer 2" xmlns="http://www.w3.org/2000/svg" viewBox="0 0 307.67 307.67">
  <g id="Layer_1-2" data-name="Layer 1">
    <g>
      <path d="M303.39,48.61c-.37-1.28-1.41-2.25-2.71-2.54l-31.97-7.1-7.1-31.97c-.29-1.3-1.26-2.34-2.54-2.71-1.28-.37-2.66-.02-3.61.92l-41.85,41.85c-.88.88-1.25,2.16-.98,3.37l7.17,32.29-6.23,6.23c-23.14-21.84-53.27-33.87-85.19-33.87C59.87,55.08,4.13,110.8,4.13,179.3s55.72,124.23,124.23,124.23,124.23-55.72,124.23-124.23c0-28.56-9.93-56.45-27.97-78.53-1.28-1.56-3.57-1.8-5.14-.52-1.56,1.28-1.8,3.57-.52,5.14,16.97,20.78,26.32,47.03,26.32,73.91,0,64.47-52.45,116.92-116.92,116.92S11.45,243.77,11.45,179.3,63.9,62.37,128.37,62.37c29.98,0,58.27,11.27,80.03,31.73l-27.54,27.54c-14.4-13.12-32.92-20.33-52.49-20.33-43,0-77.98,34.98-77.98,77.98s34.98,77.98,77.98,77.98,77.98-34.98,77.98-77.98c0-16.4-5.03-32.09-14.55-45.37-1.17-1.64-3.46-2.02-5.1-.84s-2.02,3.45-.84,5.1c8.63,12.04,13.19,26.26,13.19,41.12,0,38.97-31.71,70.68-70.68,70.68s-70.68-31.71-70.68-70.68,31.71-70.68,70.68-70.68c17.62,0,34.27,6.5,47.27,18.25l-27.57,27.57c-5.6-4.44-12.49-6.87-19.71-6.87-17.5,0-31.74,14.24-31.74,31.74s14.24,31.74,31.74,31.74,31.74-14.24,31.74-31.74c0-3.61-.6-7.14-1.78-10.51-.67-1.9-2.75-2.91-4.66-2.24-1.9.67-2.9,2.75-2.24,4.66.91,2.59,1.37,5.32,1.37,8.1,0,13.48-10.96,24.44-24.44,24.44s-24.44-10.96-24.44-24.44,10.96-24.44,24.44-24.44c5.27,0,10.31,1.69,14.49,4.78l-17.07,17.07c-1.42,1.42-1.42,3.74,0,5.16.71.71,1.65,1.07,2.58,1.07s1.87-.35,2.58-1.07l94.01-94.01,32.29,7.17c.26.06.53.09.79.09.96,0,1.89-.38,2.58-1.07l41.85-41.85c.95-.94,1.3-2.32.93-3.61ZM220.19,50.8l35.73-35.73,5.73,25.79-35.73,35.73-5.73-25.79ZM256.87,87.48l-25.79-5.73,35.73-35.73,25.79,5.73-35.73,35.73Z"/>
      <path d="M128.36,307.67C57.59,307.67,0,250.08,0,179.3S57.59,50.94,128.36,50.94c31.52,0,61.57,11.43,85.07,32.28l1.83-1.83-6.67-30.07c-.57-2.62.21-5.31,2.1-7.19L252.53,2.28c2.03-2.02,4.96-2.77,7.7-1.96,2.71.79,4.79,3,5.41,5.78l6.53,29.41,29.4,6.53c2.77.61,4.99,2.69,5.79,5.42h0c.79,2.74.03,5.69-1.99,7.69l-41.84,41.84c-1.46,1.47-3.42,2.28-5.5,2.28l-1.71-.19-30.06-6.68-3.03,3.03c1.74.33,3.38,1.25,4.6,2.72,18.63,22.81,28.89,51.62,28.89,81.14,0,70.78-57.59,128.36-128.36,128.36ZM128.37,66.51c-62.19,0-112.79,50.6-112.79,112.79s50.59,112.79,112.78,112.79,112.79-50.6,112.79-112.79c0-25.93-9.01-51.25-25.39-71.29-.86-1.05-1.39-2.25-1.62-3.48l-23.86,23.87c1.9.36,3.68,1.42,4.89,3.11,10.03,14,15.33,30.52,15.33,47.78,0,45.28-36.84,82.12-82.13,82.12s-82.12-36.84-82.12-82.12,36.83-82.12,82.12-82.12c19.17,0,37.59,6.66,52.29,18.82l21.75-21.75c-20.54-17.92-46.67-27.74-74.04-27.74ZM128.37,112.75c-36.7,0-66.55,29.85-66.55,66.55s29.85,66.55,66.55,66.55,66.54-29.85,66.54-66.55c0-14-4.29-27.39-12.41-38.71-.67-.94-1.12-1.99-1.33-3.09l-24.84,24.84c.65.13,1.3.34,1.91.63,1.88.9,3.3,2.49,3.98,4.45,1.33,3.79,2.01,7.79,2.01,11.87,0,19.78-16.09,35.88-35.87,35.88s-35.88-16.09-35.88-35.88,16.1-35.88,35.88-35.88c6.8,0,13.51,1.97,19.25,5.62l21.92-21.92c-11.74-9.29-26.2-14.36-41.17-14.36ZM128.36,159c-11.2,0-20.31,9.11-20.31,20.3s9.11,20.31,20.31,20.31,20.31-9.11,20.31-20.31c0-2.32-.38-4.58-1.14-6.72-.13-.38-.23-.76-.3-1.13l-13.36,13.36c-2.96,2.94-8.1,2.93-11.02,0-1.46-1.46-2.28-3.42-2.28-5.5s.82-4.04,2.29-5.51l13.25-13.25c-2.43-1.01-5.05-1.54-7.75-1.54ZM239.33,79.35l16.22,3.6,28.79-28.8-16.22-3.6-28.79,28.79ZM224.72,52.12l3.6,16.22,28.79-28.8-3.6-16.22-28.79,28.8Z"/>
    </g>
  </g>
</svg>