<?xml version="1.0" encoding="UTF-8"?>
<svg id="Layer_2" data-name="Layer 2" xmlns="http://www.w3.org/2000/svg" viewBox="0 0 171.81 293.07">
  <g id="Layer_1-2" data-name="Layer 1">
    <g>
      <g>
        <path d="M85.9,178.1c-27.92,0-50.63-22.71-50.63-50.63V52.15C35.27,24.23,57.98,1.52,85.9,1.52s50.63,22.71,50.63,50.63v75.31c0,27.92-22.71,50.63-50.63,50.63ZM85.9,9.62c-23.45,0-42.53,19.08-42.53,42.53v75.31c0,23.45,19.08,42.53,42.53,42.53s42.53-19.08,42.53-42.53V52.15c0-23.45-19.08-42.53-42.53-42.53Z"/>
        <path d="M85.9,179.61c-28.76,0-52.15-23.39-52.15-52.15V52.15C33.75,23.39,57.15,0,85.9,0s52.15,23.39,52.15,52.15v75.31c0,28.76-23.39,52.15-52.15,52.15ZM85.9,3.04c-27.08,0-49.11,22.03-49.11,49.11v75.31c0,27.08,22.03,49.11,49.11,49.11s49.11-22.03,49.11-49.11V52.15c0-27.08-22.03-49.11-49.11-49.11ZM85.9,171.51c-24.29,0-44.05-19.76-44.05-44.05V52.15c0-24.29,19.76-44.05,44.05-44.05s44.05,19.76,44.05,44.05v75.31c0,24.29-19.76,44.05-44.05,44.05ZM85.9,11.14c-22.61,0-41.01,18.4-41.01,41.01v75.31c0,22.61,18.4,41.01,41.01,41.01s41.01-18.4,41.01-41.01V52.15c0-22.61-18.4-41.01-41.01-41.01Z"/>
      </g>
      <g>
        <path d="M85.9,214.04C39.37,214.04,1.52,176.19,1.52,129.66c0-2.24,1.81-4.05,4.05-4.05s4.05,1.81,4.05,4.05c0,42.06,34.22,76.29,76.28,76.29s76.29-34.22,76.29-76.29c0-2.24,1.81-4.05,4.05-4.05s4.05,1.81,4.05,4.05c0,46.53-37.85,84.39-84.39,84.39Z"/>
        <path d="M85.9,215.56C38.54,215.56,0,177.02,0,129.66c0-3.07,2.5-5.57,5.57-5.57s5.57,2.5,5.57,5.57c0,41.23,33.54,74.77,74.76,74.77s74.77-33.54,74.77-74.77c0-3.07,2.5-5.57,5.57-5.57s5.57,2.5,5.57,5.57c0,47.37-38.54,85.91-85.91,85.91ZM5.57,127.12c-1.4,0-2.53,1.13-2.53,2.53,0,45.69,37.18,82.87,82.87,82.87s82.87-37.18,82.87-82.87c0-1.4-1.13-2.53-2.53-2.53s-2.53,1.13-2.53,2.53c0,42.9-34.9,77.81-77.81,77.81S8.1,172.56,8.1,129.66c0-1.4-1.13-2.53-2.53-2.53Z"/>
      </g>
      <g>
        <path d="M85.9,291.55c-2.24,0-4.05-1.81-4.05-4.05v-77.51c0-2.24,1.81-4.05,4.05-4.05s4.05,1.81,4.05,4.05v77.51c0,2.24-1.81,4.05-4.05,4.05Z"/>
        <path d="M85.9,293.07c-3.07,0-5.57-2.5-5.57-5.57v-77.5c0-3.07,2.5-5.57,5.57-5.57s5.57,2.5,5.57,5.57v77.5c0,3.07-2.5,5.57-5.57,5.57ZM85.9,207.46c-1.4,0-2.53,1.13-2.53,2.53v77.5c0,1.4,1.13,2.53,2.53,2.53s2.53-1.13,2.53-2.53v-77.5c0-1.4-1.14-2.53-2.53-2.53Z"/>
      </g>
      <g>
        <path d="M140.58,291.55H31.22c-2.24,0-4.05-1.81-4.05-4.05s1.81-4.05,4.05-4.05h109.36c2.24,0,4.05,1.81,4.05,4.05s-1.81,4.05-4.05,4.05Z"/>
        <path d="M140.59,293.07H31.22c-3.07,0-5.57-2.5-5.57-5.57s2.5-5.57,5.57-5.57h109.36c3.07,0,5.57,2.5,5.57,5.57s-2.5,5.57-5.57,5.57ZM31.22,284.97c-1.4,0-2.53,1.14-2.53,2.53s1.13,2.53,2.53,2.53h109.36c1.4,0,2.53-1.13,2.53-2.53s-1.14-2.53-2.53-2.53H31.22Z"/>
      </g>
      <g>
        <path d="M129.83,75.35H39.32c-2.24,0-4.05-1.81-4.05-4.05s1.81-4.05,4.05-4.05h90.51c2.24,0,4.05,1.81,4.05,4.05s-1.81,4.05-4.05,4.05Z"/>
        <path d="M129.83,76.86H39.32c-3.07,0-5.57-2.5-5.57-5.57s2.5-5.57,5.57-5.57h90.51c3.07,0,5.57,2.5,5.57,5.57s-2.5,5.57-5.57,5.57ZM39.32,68.76c-1.4,0-2.53,1.13-2.53,2.53s1.13,2.53,2.53,2.53h90.51c1.4,0,2.53-1.14,2.53-2.53s-1.14-2.53-2.53-2.53H39.32Z"/>
      </g>
    </g>
  </g>
</svg>