<?xml version="1.0" encoding="UTF-8"?>
<svg id="Layer_2" data-name="Layer 2" xmlns="http://www.w3.org/2000/svg" viewBox="0 0 34.47 35.87">
  <defs>
    <style>
      .cls-1 {
        fill-rule: evenodd;
      }
    </style>
  </defs>
  <g id="Layer_1-2" data-name="Layer 1">
    <g>
      <path class="cls-1" d="M6.57.78c.9-1,2.4-1.04,3.35-.1l6.32,6.21c.96.94,1,2.51.11,3.5l-5.93,6.59c-.9,1-2.4,1.04-3.35.1L.75,10.87c-.96-.94-1-2.51-.11-3.5L6.57.78ZM9.02,1.68l6.32,6.21c.42.42.45,1.11.05,1.56l-5.93,6.59c-.4.44-1.07.46-1.49.05L1.65,9.87c-.42-.42-.45-1.11-.05-1.56L7.53,1.72c.4-.44,1.07-.46,1.49-.05Z"/>
      <path class="cls-1" d="M24.36,18.82c.93-.96,2.43-.95,3.35.03l6.08,6.45c.92.97.91,2.54-.03,3.5l-6.18,6.35c-.93.96-2.43.95-3.35-.03l-6.08-6.45c-.92-.97-.91-2.54.03-3.5l6.18-6.35ZM26.77,19.81l6.08,6.45c.41.43.4,1.13-.01,1.56l-6.18,6.35c-.41.43-1.08.42-1.49-.01l-6.08-6.45c-.41-.43-.4-1.13.01-1.56l6.18-6.35c.41-.43,1.08-.42,1.49.01h0Z"/>
      <path class="cls-1" d="M33.21,4.15c-.01-1.34-1.11-2.41-2.44-2.4l-10.12.09c-1.34.01-2.42,1.11-2.4,2.45l.09,10.79c.01,1.34,1.11,2.41,2.44,2.4l10.12-.09c1.34-.01,2.42-1.11,2.4-2.45l-.09-10.79ZM31.95,14.95l-.09-10.79c0-.6-.49-1.07-1.09-1.07l-10.12.09c-.6,0-1.07.49-1.07,1.09l.09,10.79c0,.6.49,1.07,1.09,1.07l10.12-.09c.6,0,1.07-.49,1.07-1.09Z"/>
      <path class="cls-1" d="M13.46,19.05c1.34-.01,2.43,1.06,2.44,2.4l.09,10.79c.01,1.34-1.07,2.43-2.4,2.45l-10.12.09c-1.34.01-2.43-1.06-2.44-2.4l-.09-10.79c-.01-1.34,1.07-2.43,2.4-2.45l10.12-.09ZM14.56,21.47l.09,10.79c0,.6-.47,1.08-1.07,1.09l-10.12.09c-.6,0-1.08-.47-1.09-1.07l-.09-10.79c0-.6.47-1.08,1.07-1.09l10.12-.09c.6,0,1.08.47,1.09,1.07Z"/>
    </g>
  </g>
</svg>