<?xml version="1.0" encoding="UTF-8"?>
<svg id="Layer_2" data-name="Layer 2" xmlns="http://www.w3.org/2000/svg" viewBox="0 0 301.43 301.43">
  <g id="Layer_1-2" data-name="Layer 1">
    <g>
      <g>
        <path d="M150.72,81.83c-2.23,0-4.03-1.81-4.03-4.03V5.54c0-2.23,1.8-4.03,4.03-4.03s4.03,1.81,4.03,4.03v72.26c0,2.23-1.81,4.03-4.03,4.03Z"/>
        <path d="M150.72,83.35c-3.06,0-5.55-2.49-5.55-5.54V5.55c0-3.06,2.49-5.55,5.55-5.55s5.55,2.49,5.55,5.55v72.26c0,3.06-2.49,5.54-5.55,5.54ZM150.72,3.03c-1.39,0-2.52,1.13-2.52,2.52v72.26c0,1.39,1.13,2.52,2.52,2.52s2.52-1.13,2.52-2.52V5.55c0-1.39-1.13-2.52-2.52-2.52Z"/>
      </g>
      <g>
        <path d="M150.72,299.92c-2.23,0-4.03-1.81-4.03-4.03v-72.26c0-2.23,1.8-4.03,4.03-4.03s4.03,1.81,4.03,4.03v72.26c0,2.23-1.81,4.03-4.03,4.03Z"/>
        <path d="M150.72,301.43c-3.06,0-5.55-2.49-5.55-5.55v-72.25c0-3.06,2.49-5.55,5.55-5.55s5.55,2.49,5.55,5.55v72.25c0,3.06-2.49,5.55-5.55,5.55ZM150.72,221.11c-1.39,0-2.52,1.13-2.52,2.52v72.25c0,1.39,1.13,2.52,2.52,2.52s2.52-1.13,2.52-2.52v-72.25c0-1.39-1.13-2.52-2.52-2.52Z"/>
      </g>
      <g>
        <path d="M295.89,154.75h-72.25c-2.23,0-4.03-1.81-4.03-4.03s1.81-4.03,4.03-4.03h72.25c2.23,0,4.03,1.81,4.03,4.03s-1.8,4.03-4.03,4.03Z"/>
        <path d="M295.88,156.26h-72.25c-3.06,0-5.55-2.49-5.55-5.55s2.49-5.54,5.55-5.54h72.25c3.06,0,5.55,2.49,5.55,5.54s-2.49,5.55-5.55,5.55ZM223.63,148.2c-1.39,0-2.52,1.13-2.52,2.52s1.13,2.52,2.52,2.52h72.25c1.39,0,2.52-1.13,2.52-2.52s-1.13-2.52-2.52-2.52h-72.25Z"/>
      </g>
      <g>
        <path d="M77.8,154.75H5.55c-2.23,0-4.03-1.81-4.03-4.03s1.8-4.03,4.03-4.03h72.26c2.23,0,4.03,1.81,4.03,4.03s-1.8,4.03-4.03,4.03Z"/>
        <path d="M77.8,156.26H5.55c-3.06,0-5.55-2.49-5.55-5.55s2.49-5.54,5.55-5.54h72.26c3.06,0,5.54,2.49,5.54,5.54s-2.49,5.55-5.54,5.55ZM5.55,148.2c-1.39,0-2.52,1.13-2.52,2.52s1.13,2.52,2.52,2.52h72.26c1.39,0,2.52-1.13,2.52-2.52s-1.13-2.52-2.52-2.52H5.55Z"/>
      </g>
      <g>
        <path d="M202.27,103.19c-1.03,0-2.06-.39-2.85-1.18-1.58-1.58-1.58-4.13,0-5.7l51.09-51.09c1.58-1.58,4.13-1.58,5.7,0,1.58,1.58,1.58,4.13,0,5.7l-51.09,51.09c-.79.79-1.82,1.18-2.85,1.18Z"/>
        <path d="M202.27,104.7c-1.48,0-2.87-.57-3.92-1.62-2.16-2.16-2.16-5.68,0-7.85l51.09-51.09c2.17-2.16,5.68-2.16,7.85,0,2.16,2.16,2.16,5.68,0,7.85l-51.09,51.09c-1.05,1.05-2.44,1.62-3.92,1.62ZM253.37,45.54c-.65,0-1.29.25-1.78.74l-51.09,51.09c-.98.98-.98,2.58,0,3.56.95.95,2.62.95,3.56,0l51.09-51.09c.98-.98.98-2.58,0-3.56-.49-.49-1.13-.74-1.78-.74Z"/>
      </g>
      <g>
        <path d="M48.06,257.4c-1.03,0-2.06-.39-2.85-1.18-1.58-1.57-1.58-4.13,0-5.7l51.09-51.09c1.58-1.57,4.13-1.57,5.7,0,1.58,1.58,1.58,4.13,0,5.7l-51.09,51.09c-.79.79-1.82,1.18-2.85,1.18Z"/>
        <path d="M48.06,258.91c-1.48,0-2.87-.57-3.92-1.62-2.16-2.16-2.16-5.68,0-7.84l51.09-51.09c2.17-2.16,5.68-2.16,7.84,0,2.16,2.16,2.16,5.68,0,7.85l-51.09,51.09c-1.05,1.05-2.44,1.62-3.92,1.62ZM99.16,199.75c-.64,0-1.29.25-1.78.74l-51.09,51.09c-.98.98-.98,2.58,0,3.56.95.95,2.62.95,3.56,0l51.09-51.09c.98-.98.98-2.58,0-3.56-.49-.49-1.13-.74-1.78-.74Z"/>
      </g>
      <g>
        <path d="M253.37,257.4c-1.03,0-2.06-.39-2.85-1.18l-51.09-51.09c-1.58-1.58-1.58-4.13,0-5.7,1.58-1.57,4.13-1.57,5.7,0l51.09,51.09c1.58,1.58,1.58,4.13,0,5.7-.79.79-1.82,1.18-2.85,1.18Z"/>
        <path d="M253.37,258.91c-1.48,0-2.88-.57-3.92-1.62l-51.09-51.09c-2.16-2.16-2.16-5.68,0-7.85,2.17-2.16,5.68-2.16,7.84,0l51.09,51.09c2.16,2.16,2.16,5.68,0,7.84-1.05,1.05-2.44,1.62-3.92,1.62ZM202.27,199.75c-.64,0-1.29.25-1.78.74-.98.98-.98,2.58,0,3.56l51.09,51.09c.94.95,2.61.95,3.56,0,.98-.98.98-2.58,0-3.56l-51.09-51.09c-.49-.49-1.13-.74-1.78-.74Z"/>
      </g>
      <g>
        <path d="M99.16,103.19c-1.03,0-2.06-.39-2.85-1.18l-51.09-51.09c-1.58-1.58-1.58-4.13,0-5.7,1.57-1.58,4.13-1.58,5.7,0l51.09,51.09c1.58,1.58,1.58,4.13,0,5.7-.79.79-1.82,1.18-2.85,1.18Z"/>
        <path d="M99.16,104.7c-1.48,0-2.87-.57-3.92-1.62l-51.09-51.09c-2.16-2.16-2.16-5.68,0-7.85,2.17-2.16,5.68-2.16,7.84,0l51.09,51.09c2.16,2.16,2.16,5.68,0,7.85-1.05,1.05-2.44,1.62-3.92,1.62ZM48.06,45.54c-.65,0-1.29.25-1.78.74-.98.98-.98,2.58,0,3.56l51.09,51.09c.94.95,2.61.95,3.56,0,.98-.98.98-2.58,0-3.56l-51.09-51.09c-.49-.49-1.13-.74-1.78-.74Z"/>
      </g>
    </g>
  </g>
</svg>