<?xml version="1.0" encoding="UTF-8"?>
<svg id="Layer_2" data-name="Layer 2" xmlns="http://www.w3.org/2000/svg" viewBox="0 0 261.16 299.41">
  <g id="Layer_1-2" data-name="Layer 1">
    <g>
      <g>
        <path d="M113.99,226.47C51.97,226.47,1.51,176.01,1.51,113.99S51.97,1.51,113.99,1.51s112.48,50.46,112.48,112.48-50.46,112.48-112.48,112.48ZM113.99,9.56C56.4,9.56,9.56,56.41,9.56,113.99s46.85,104.43,104.43,104.43,104.43-46.85,104.43-104.43S171.57,9.56,113.99,9.56Z"/>
        <path d="M113.99,227.98C51.13,227.98,0,176.84,0,113.99S51.13,0,113.99,0s113.99,51.13,113.99,113.99-51.13,113.99-113.99,113.99ZM113.99,3.02C52.8,3.02,3.02,52.8,3.02,113.99s49.78,110.97,110.97,110.97,110.97-49.78,110.97-110.97S175.17,3.02,113.99,3.02ZM113.99,219.93c-58.41,0-105.94-47.53-105.94-105.94S55.57,8.05,113.99,8.05s105.94,47.53,105.94,105.94-47.53,105.94-105.94,105.94ZM113.99,11.06C57.24,11.06,11.06,57.24,11.06,113.99s46.17,102.92,102.92,102.92,102.93-46.17,102.93-102.92S170.74,11.06,113.99,11.06Z"/>
      </g>
      <g>
        <path d="M255.64,297.91c-1.14,0-2.27-.48-3.07-1.42l-78.22-91.95c-1.44-1.69-1.23-4.23.46-5.67,1.69-1.44,4.23-1.24,5.67.46l78.22,91.95c1.44,1.69,1.23,4.23-.46,5.67-.76.64-1.69.96-2.61.96Z"/>
        <path d="M255.64,299.41c-1.62,0-3.16-.71-4.21-1.94l-78.22-91.95c-1.98-2.32-1.69-5.82.62-7.8,2.33-1.96,5.82-1.68,7.8.63l78.22,91.95c1.98,2.33,1.69,5.82-.62,7.8-1,.85-2.28,1.32-3.59,1.32ZM177.41,199.43c-.58,0-1.15.2-1.63.6-1.05.9-1.18,2.49-.28,3.54l78.21,91.95c.87,1.02,2.53,1.16,3.55.28,1.05-.9,1.18-2.48.28-3.54l-78.21-91.95c-.5-.59-1.21-.88-1.92-.88Z"/>
      </g>
    </g>
  </g>
</svg>