<?xml version="1.0" encoding="UTF-8"?>
<svg xmlns="http://www.w3.org/2000/svg" xmlns:xlink="http://www.w3.org/1999/xlink" version="1.1" viewBox="0 0 1080 337.3">
  <defs>
    <style>
      .cls-1 {
        fill: none;
      }

      .cls-2 {
        fill: url(#linear-gradient);
      }

      .cls-3 {
        fill: #26231f;
      }

      .cls-4 {
        display: none;
      }
    </style>
    <linearGradient id="linear-gradient" x1="107.5" y1="334.7" x2="107.5" y2="77.1" gradientUnits="userSpaceOnUse">
      <stop offset="0" stop-color="#ed3324"/>
      <stop offset="1" stop-color="#f16622"/>
    </linearGradient>
  </defs>
  <!-- Generator: Adobe Illustrator 28.6.0, SVG Export Plug-In . SVG Version: 1.2.0 Build 709)  -->
  <g>
    <g id="Layer_1">
      <g>
        <g>
          <g>
            <g>
              <path class="cls-3" d="M557.7,216c-.8,0-1.5.7-1.5,1.6,3.2,40.1,17.6,60.2,43.4,60.2s28.5-7.1,36.5-21.3c1.7-3.2,3.2-5.9,4.1-7.5s1.9-1.5,3-1.1c3.2,1.2,9.3,3.5,9.4,3.5l25.8,13.2c3.8,1.7,6.7,2.9,8.4,3.8,1.2.5,1.7,1.9,1.2,3.1-1,2.7-2.9,7.2-4,8.9-18.5,34.9-46.8,52.3-85.1,52.3s-58.8-12.1-76.9-36.2c-18.1-24.2-27.1-56.4-27.1-96.7s8.9-70.9,26.8-95.5c17.9-24.6,42.9-36.9,75.3-36.9s55.2,11.3,72.5,34c17.2,22.7,25.8,51.5,25.8,86.3.2,7.2-.8,20.1-1.3,25.7-.1,1.5-1.4,2.7-3,2.7h-133.4ZM597.1,120.8c-21,0-34.2,15.2-39.4,45.6-.2.9.5,1.7,1.4,1.7h73.5c.9,0,1.6-.8,1.4-1.7-4.8-30.4-17.1-45.6-36.9-45.6Z"/>
              <path class="cls-3" d="M1079.9,315c.3,1.1-.2,2.2-1.1,2.8-17.1,10-36.6,14.1-54.9,14.1s-37.4-5.7-49.1-17c-11.8-11.3-17.6-28.4-17.6-51V2.5c0-1.4,1.1-2.5,2.5-2.5h55.6c1.4,0,2.5,1.1,2.5,2.5v71h46.7c1.4,0,2.5,1.1,2.5,2.5v46.1c0,1.4-1.1,2.5-2.5,2.5h-46.7v130.4c0,14.7,6.5,22.1,19.5,22.1s12-1.3,18.3-3.8c3.8-1.7,7-3.3,9.1-4.5,1.4-.7,3.1,0,3.5,1.5l11.9,44.6Z"/>
              <path class="cls-3" d="M772.8,325c-.4.8-1.3,1.3-2.1,1.3h-58.6c-1.9,0-3.1-2-2.1-3.6l72.4-126.8-69.3-117.9c-1-1.6.2-3.7,2.1-3.7h59.3c.9,0,1.7.5,2.2,1.2l41,74.2c0,0,.1.1.2.1h.9c0,0,.2,0,.2-.1l40.9-74.2c.4-.8,1.3-1.3,2.2-1.3h59.3c1.9,0,3.1,2.1,2.1,3.7l-68.6,117.9,71.6,126.8c.9,1.6-.3,3.7-2.1,3.7h-58.5c-.9,0-1.7-.5-2.2-1.3l-44.8-80.6h-1.3l-44.8,80.7Z"/>
            </g>
            <path class="cls-3" d="M357,67.3c27.8,0,50.4,8.9,68,26.8,17.6,17.9,26.3,42,26.3,72.6v157.3c0,1.4-1.1,2.5-2.5,2.5h-54.6c-1.4,0-2.5-1.1-2.5-2.5v-158.6c0-12.5-3.3-22.3-9.8-29.3-6.6-7-14.9-10.5-25-10.5-10.7,0-19.3,3.5-25.9,10.5-6.6,7-9.8,16.8-9.8,29.3v158.6c0,1.4-1.1,2.5-2.5,2.5h-54.6c-1.4,0-2.5-1.1-2.5-2.5v-157.3c0-30.5,8.8-54.7,26.3-72.6,17.6-17.9,40.5-26.8,68.9-26.8Z"/>
          </g>
          <path class="cls-2" d="M214.7,76.8v152c0,59.1-47.3,108.1-106.4,108.5C48.8,337.8.3,289.8.3,230.3V76.8c0-1.4,1.1-2.5,2.5-2.5h49.3c1.4,0,2.5,1.1,2.5,2.5v152.4c0,29.6,24.2,54.4,53.8,54,27-.3,49.1-20.8,52.1-47v-105.2c0-1.4-1.1-2.5-2.5-2.5h-20.7c-1.4,0-2.5,1.1-2.5,2.5v99.2c0,15-12.2,27.2-27.2,27.2h0c-15,0-27.2-12.2-27.2-27.2V76.8c0-1.4,1.1-2.5,2.5-2.5h129.4c1.4,0,2.5,1.1,2.5,2.5Z"/>
        </g>
        <g class="cls-4">
          <rect class="cls-1" x="101.7" y="-10.8" width="869.4" height="395.9"/>
        </g>
      </g>
    </g>
  </g>
</svg>