<?xml version="1.0" encoding="UTF-8"?>
<svg id="Layer_2" data-name="Layer 2" xmlns="http://www.w3.org/2000/svg" viewBox="0 0 152.28 152.14">
  <defs>
    <style>
      .cls-1 {
        fill: #606060;
      }

      .cls-2 {
        fill: #eb2426;
      }
    </style>
  </defs>
  <g id="Layer_1-2" data-name="Layer 1">
    <g>
      <g>
        <g>
          <path class="cls-1" d="M112.78,11.04s-.13-.08-.38-.23c-.25-.14-.61-.4-1.13-.63-1.02-.49-2.52-1.22-4.43-2.14-.47-.23-.98-.47-1.5-.72-.54-.23-1.12-.42-1.72-.64-1.2-.44-2.49-.92-3.88-1.42-1.37-.57-2.91-.89-4.51-1.31-.8-.2-1.62-.42-2.46-.63-.84-.22-1.7-.46-2.6-.56-7.13-1.4-15.69-1.76-24.67-.52-8.98,1.24-18.33,4.35-26.7,9.22-8.39,4.83-15.74,11.37-21.34,18.49-.68.91-1.35,1.81-2.02,2.7-.66.9-1.35,1.76-1.88,2.71-1.12,1.88-2.28,3.68-3.29,5.49-.9,1.88-1.78,3.7-2.63,5.46-.81,1.78-1.37,3.6-2.02,5.29-.3.85-.64,1.68-.89,2.51-.22.84-.43,1.66-.64,2.46-.41,1.6-.79,3.13-1.16,4.55-.44,2.92-.86,5.46-1.13,7.56-.21,4.23-.34,6.64-.34,6.64-.02.43-.36.77-.77.77s-.72-.35-.7-.79c0,0,.12-2.46.34-6.77.28-2.14.7-4.73,1.15-7.7.37-1.46.77-3.01,1.18-4.64.21-.82.43-1.65.65-2.51.26-.84.6-1.69.91-2.56.66-1.72,1.23-3.58,2.06-5.39.87-1.8,1.76-3.65,2.68-5.56,1.03-1.85,2.2-3.69,3.35-5.6.54-.97,1.24-1.86,1.92-2.77.68-.91,1.37-1.83,2.06-2.75,5.71-7.27,13.2-13.93,21.76-18.86C46.6,5.2,56.14,2.03,65.29.77c9.16-1.25,17.88-.9,25.15.54.92.11,1.8.35,2.65.57.86.22,1.7.44,2.51.64,1.63.44,3.2.76,4.59,1.34,1.41.52,2.73,1,3.96,1.45.61.23,1.2.42,1.75.66.54.26,1.05.51,1.54.73,1.94.94,3.47,1.68,4.52,2.18.53.23.89.49,1.15.64.26.15.39.23.39.23.38.23.51.69.31,1.04-.21.35-.67.45-1.03.23Z"/>
          <path class="cls-1" d="M109.26,17.26s-.12-.07-.34-.21c-.23-.13-.55-.36-1.02-.57-.92-.44-2.28-1.1-4-1.92-.43-.21-.88-.43-1.36-.66-.48-.21-1.01-.38-1.55-.58-1.08-.4-2.25-.83-3.5-1.28-1.23-.52-2.63-.8-4.07-1.18-.72-.19-1.46-.38-2.22-.57-.76-.2-1.53-.43-2.35-.51-6.43-1.28-14.2-1.58-22.32-.47-8.12,1.12-16.56,3.93-24.13,8.33-7.59,4.37-14.24,10.29-19.3,16.73-.61.82-1.22,1.64-1.83,2.45-.6.81-1.23,1.59-1.71,2.45-1.01,1.7-2.06,3.32-2.97,4.96-.82,1.69-1.61,3.34-2.37,4.93-.74,1.61-1.23,3.25-1.82,4.78-.27.77-.58,1.52-.81,2.27-.19.76-.38,1.5-.57,2.22-.37,1.45-.72,2.82-1.06,4.11-.39,2.64-.74,4.94-1.02,6.83-.19,3.83-.3,6.02-.3,6.02-.01.19-.18.35-.38.35s-.36-.16-.35-.36c0,0,.11-2.21.31-6.08.25-1.92.64-4.24,1.03-6.9.33-1.3.69-2.69,1.06-4.16.19-.73.38-1.48.58-2.25.23-.76.54-1.51.82-2.29.6-1.54,1.1-3.2,1.84-4.83.78-1.61,1.58-3.27,2.4-4.99.92-1.66,1.99-3.3,3.01-5.01.48-.88,1.11-1.67,1.72-2.48.61-.82,1.22-1.64,1.85-2.47,5.12-6.51,11.85-12.49,19.52-16.91,7.65-4.45,16.18-7.29,24.39-8.42,8.21-1.12,16.05-.81,22.56.47.83.09,1.61.32,2.38.52.77.2,1.52.39,2.25.58,1.46.39,2.87.67,4.12,1.2,1.26.46,2.45.89,3.54,1.29.54.21,1.08.38,1.57.59.48.23.94.45,1.37.66,1.74.84,3.11,1.5,4.05,1.95.48.21.8.44,1.03.58.23.14.35.21.35.21.16.1.22.32.12.5-.1.18-.32.24-.48.14Z"/>
          <path class="cls-1" d="M5.71,68.37c-.03.2-.22.35-.42.33l-4.19-.43c-.2-.02-.34-.21-.31-.43.03-.21.22-.37.42-.35l4.19.48c.2.02.34.2.31.4Z"/>
          <path class="cls-1" d="M33.11,19.87c-.16.12-.4.09-.52-.07l-2.58-3.33c-.12-.16-.08-.39.09-.52.17-.13.41-.11.54.06l2.55,3.36c.12.16.09.39-.07.51Z"/>
          <path class="cls-1" d="M67.7,5.78c-.2.03-.38-.11-.41-.31l-.52-4.18c-.03-.21.13-.39.34-.42.21-.03.41.1.43.3l.47,4.19c.02.2-.12.39-.32.42Z"/>
          <path class="cls-1" d="M75.2,5.28c-.2,0-.37-.15-.37-.35l-.08-4.22c0-.2.17-.37.39-.39.22-.01.39.14.39.35l.03,4.22c0,.2-.16.37-.36.39Z"/>
          <path class="cls-1" d="M100.73,9.71c-.19-.07-.29-.28-.22-.47l1.45-3.96c.07-.19.29-.29.49-.21.2.07.31.29.24.48l-1.49,3.94c-.07.19-.28.29-.47.22Z"/>
          <path class="cls-1" d="M13.38,43.24c-.09.18-.3.26-.48.17l-3.74-1.94c-.18-.09-.25-.33-.16-.52.1-.19.32-.27.49-.18l3.72,1.98c.18.1.25.32.17.5Z"/>
          <path class="cls-1" d="M17.72,36c-.12.17-.36.2-.52.09l-3.49-2.37c-.17-.11-.2-.34-.07-.52.13-.18.37-.22.54-.1l3.46,2.4c.16.12.2.34.08.5Z"/>
        </g>
        <g>
          <path class="cls-1" d="M114.1,140.3s.51-.31,1.48-.9c.97-.59,2.42-1.41,4.08-2.73,1.67-1.3,3.84-2.7,5.95-4.77,1.08-1,2.27-2.03,3.46-3.18,1.11-1.22,2.28-2.51,3.5-3.85,4.71-5.49,9.47-12.63,12.85-21.06,3.41-8.41,5.38-18.06,5.38-27.74,0-9.68-1.97-19.34-5.38-27.74-3.38-8.44-8.14-15.57-12.85-21.06-1.22-1.34-2.39-2.63-3.5-3.85-1.2-1.14-2.38-2.18-3.46-3.17-2.11-2.07-4.28-3.47-5.95-4.77-1.66-1.32-3.11-2.14-4.08-2.72-.97-.59-1.48-.91-1.48-.91-.37-.22-.5-.69-.3-1.04.2-.35.67-.45,1.04-.23,0,0,.53.32,1.52.92.99.6,2.47,1.43,4.16,2.78,1.7,1.32,3.91,2.76,6.07,4.86,1.11,1.01,2.31,2.07,3.53,3.24,1.13,1.25,2.33,2.56,3.57,3.93,4.8,5.6,9.65,12.88,13.1,21.48,3.48,8.57,5.48,18.42,5.48,28.29,0,9.87-2,19.72-5.48,28.29-3.45,8.61-8.3,15.87-13.1,21.48-1.24,1.37-2.44,2.68-3.57,3.92-1.21,1.16-2.42,2.22-3.53,3.24-2.15,2.11-4.37,3.54-6.07,4.86-1.69,1.35-3.17,2.18-4.16,2.78-.99.6-1.52.92-1.52.92-.37.22-.84.13-1.04-.23-.2-.35-.07-.82.3-1.04Z"/>
          <path class="cls-1" d="M110.46,134.15s.47-.28,1.35-.82c.87-.53,2.2-1.26,3.69-2.47,1.51-1.18,3.48-2.43,5.38-4.32.98-.9,2.05-1.84,3.14-2.86,1-1.11,2.06-2.27,3.17-3.49,4.26-4.98,8.56-11.43,11.62-19.05,3.09-7.6,4.86-16.31,4.87-25.09,0-8.77-1.78-17.49-4.87-25.08-3.06-7.62-7.36-14.07-11.62-19.04-1.1-1.22-2.16-2.38-3.17-3.49-1.08-1.03-2.16-1.96-3.14-2.87-1.9-1.88-3.88-3.13-5.38-4.32-1.49-1.2-2.81-1.93-3.69-2.47-.88-.53-1.35-.81-1.35-.81-.16-.1-.21-.32-.11-.5.1-.18.32-.23.49-.13,0,0,.47.29,1.36.82.89.54,2.22,1.28,3.73,2.5,1.52,1.19,3.52,2.46,5.44,4.36.99.91,2.07,1.86,3.17,2.9,1.02,1.12,2.09,2.3,3.2,3.52,4.3,5.03,8.66,11.55,11.75,19.25,3.12,7.68,4.91,16.49,4.92,25.35,0,8.87-1.8,17.68-4.92,25.36-3.09,7.7-7.44,14.22-11.75,19.25-1.12,1.23-2.18,2.41-3.2,3.53-1.09,1.04-2.18,1.98-3.17,2.9-1.92,1.9-3.92,3.17-5.44,4.36-1.51,1.22-2.84,1.96-3.73,2.49-.89.54-1.36.83-1.36.83-.17.1-.38.04-.49-.13-.1-.18-.05-.4.11-.5Z"/>
          <path class="cls-1" d="M117.95,18.99c-.16-.12-.2-.35-.08-.52l2.48-3.41c.12-.16.36-.19.53-.06.17.13.22.36.1.53l-2.51,3.38c-.12.16-.35.2-.51.08Z"/>
          <path class="cls-1" d="M146.3,66.92c-.03-.2.11-.38.31-.41l4.18-.56c.2-.02.39.12.42.34.03.21-.1.41-.31.43l-4.18.52c-.2.03-.39-.11-.42-.32Z"/>
          <path class="cls-1" d="M141.25,103.94c.09-.18.31-.27.49-.19l3.88,1.64c.19.08.26.3.17.5-.09.19-.32.29-.51.21l-3.87-1.68c-.19-.08-.26-.3-.18-.48Z"/>
          <path class="cls-1" d="M137.9,110.68c.1-.17.33-.23.51-.14l3.69,2.05c.18.1.23.33.12.51-.11.19-.34.25-.52.16l-3.67-2.08c-.18-.1-.23-.32-.13-.49Z"/>
          <path class="cls-1" d="M121.32,130.61c.15-.14.38-.12.51.03l2.71,3.23c.13.15.1.4-.06.54-.16.15-.41.12-.54-.03l-2.68-3.26c-.13-.16-.09-.38.05-.51Z"/>
          <path class="cls-1" d="M135.9,38.17c-.11-.17-.05-.4.12-.51l3.54-2.28c.17-.11.4-.05.52.14.11.19.06.42-.11.53l-3.57,2.24c-.17.1-.4.05-.5-.12Z"/>
          <path class="cls-1" d="M139.98,45.55c-.09-.18-.01-.4.17-.49l3.79-1.84c.18-.09.4,0,.5.19.1.19.02.42-.16.51l-3.81,1.8c-.19.09-.4,0-.49-.17Z"/>
        </g>
        <g>
          <path class="cls-1" d="M1.47,76.84s.12,2.42.34,6.64c.27,2.1.69,4.64,1.13,7.55.36,1.43.75,2.95,1.16,4.55.21.8.42,1.62.64,2.46.25.83.59,1.65.89,2.51.65,1.69,1.2,3.51,2.02,5.28.85,1.77,1.73,3.59,2.63,5.46,1.01,1.82,2.17,3.62,3.29,5.49.54.96,1.22,1.82,1.88,2.72.67.89,1.34,1.79,2.02,2.7,5.6,7.13,12.95,13.67,21.34,18.49,8.37,4.87,17.72,7.97,26.7,9.22,8.98,1.23,17.54.88,24.67-.52.9-.1,1.76-.35,2.6-.56.84-.21,1.66-.43,2.46-.63,1.6-.42,3.14-.74,4.51-1.31,1.39-.51,2.68-.98,3.88-1.42.6-.23,1.18-.42,1.72-.65.53-.25,1.03-.49,1.5-.72,1.91-.92,3.41-1.64,4.43-2.14.52-.23.88-.48,1.13-.63.25-.15.38-.23.38-.23.36-.22.82-.12,1.03.23.2.35.07.82-.31,1.04,0,0-.13.08-.39.23-.26.15-.62.4-1.15.64-1.04.5-2.57,1.24-4.52,2.18-.49.23-1,.48-1.54.74-.55.23-1.14.43-1.75.66-1.22.45-2.54.93-3.96,1.44-1.39.58-2.97.91-4.59,1.34-.82.21-1.65.43-2.51.64-.86.22-1.73.47-2.65.57-7.26,1.44-15.99,1.79-25.15.54-9.15-1.26-18.69-4.43-27.22-9.4-8.55-4.93-16.05-11.59-21.76-18.86-.69-.93-1.38-1.85-2.06-2.75-.68-.91-1.38-1.79-1.92-2.77-1.15-1.91-2.32-3.74-3.35-5.6-.92-1.91-1.82-3.77-2.68-5.57-.83-1.81-1.39-3.66-2.06-5.39-.31-.87-.65-1.71-.91-2.56-.22-.85-.44-1.69-.65-2.51-.41-1.64-.81-3.19-1.18-4.64-.45-2.97-.87-5.56-1.15-7.7C.13,79.32,0,76.86,0,76.86c-.02-.44.29-.79.7-.79s.75.35.77.77Z"/>
          <path class="cls-1" d="M8.62,76.77s.11,2.19.3,6.01c.28,1.9.63,4.19,1.02,6.83.33,1.29.68,2.66,1.06,4.11.18.72.37,1.47.57,2.23.23.75.54,1.5.81,2.27.59,1.53,1.08,3.18,1.82,4.78.77,1.59,1.56,3.24,2.37,4.94.91,1.64,1.97,3.26,2.97,4.96.47.87,1.1,1.65,1.71,2.46.6.81,1.21,1.62,1.83,2.44,5.07,6.45,11.72,12.36,19.3,16.73,7.57,4.4,16.01,7.21,24.13,8.33,8.12,1.11,15.88.81,22.32-.47.82-.09,1.59-.31,2.35-.51.76-.19,1.5-.39,2.22-.57,1.44-.39,2.84-.66,4.07-1.18,1.25-.46,2.42-.89,3.5-1.28.54-.2,1.07-.37,1.55-.58.48-.23.93-.45,1.36-.66,1.73-.83,3.08-1.48,4-1.93.47-.2.79-.44,1.02-.57.23-.14.34-.21.34-.21.17-.1.38-.04.48.14.1.17.05.4-.12.5,0,0-.12.07-.35.21-.23.13-.56.37-1.03.57-.93.45-2.3,1.11-4.05,1.95-.43.21-.89.43-1.37.67-.49.21-1.03.38-1.57.59-1.1.4-2.28.83-3.54,1.3-1.24.53-2.66.8-4.12,1.2-.73.19-1.48.38-2.25.58-.77.2-1.55.43-2.38.51-6.51,1.29-14.35,1.6-22.56.48-8.2-1.14-16.74-3.97-24.39-8.42-7.67-4.41-14.4-10.39-19.52-16.91-.62-.83-1.24-1.66-1.85-2.47-.61-.82-1.24-1.6-1.72-2.48-1.02-1.72-2.08-3.36-3.01-5.02-.82-1.71-1.63-3.37-2.4-4.99-.74-1.62-1.24-3.29-1.84-4.83-.27-.78-.59-1.53-.82-2.29-.2-.77-.39-1.52-.58-2.25-.38-1.46-.73-2.85-1.06-4.16-.39-2.67-.78-4.98-1.03-6.9-.19-3.87-.31-6.08-.31-6.08,0-.19.15-.35.35-.36.2,0,.37.16.38.35Z"/>
          <path class="cls-1" d="M104.65,140.88c.18-.09.4-.01.48.17l1.72,3.85c.08.19,0,.41-.21.5-.19.1-.42.02-.5-.16l-1.68-3.87c-.08-.19,0-.41.19-.49Z"/>
          <path class="cls-1" d="M48.92,141.49c.19.07.28.28.21.46l-1.6,3.9c-.08.19-.3.28-.51.2-.2-.08-.3-.29-.23-.47l1.64-3.88c.08-.19.3-.28.49-.21Z"/>
          <path class="cls-1" d="M19.48,118.49c.12.16.09.39-.07.51l-3.36,2.55c-.16.12-.4.08-.53-.09-.13-.18-.1-.42.06-.54l3.39-2.51c.16-.12.39-.08.51.08Z"/>
          <path class="cls-1" d="M15.29,112.24c.1.17.05.4-.12.5l-3.61,2.18c-.17.11-.4.04-.52-.14s-.06-.42.11-.52l3.63-2.14c.17-.1.4-.04.51.13Z"/>
          <path class="cls-1" d="M6.35,87.94c.03.2-.1.39-.31.42l-4.15.73c-.2.03-.39-.11-.42-.33-.03-.22.1-.42.3-.45l4.16-.68c.2-.03.39.1.42.3Z"/>
          <path class="cls-1" d="M79.05,146.76c.2,0,.37.14.38.35l.2,4.21c0,.2-.16.38-.38.39-.22.01-.4-.14-.4-.35l-.15-4.21c0-.2.15-.37.35-.39Z"/>
          <path class="cls-1" d="M70.62,146.63c.2.01.36.18.34.39l-.3,4.21c-.01.2-.2.36-.42.34-.22-.01-.38-.18-.36-.39l.35-4.2c.02-.2.19-.36.4-.35Z"/>
        </g>
      </g>
      <g>
        <circle class="cls-2" cx="111.03" cy="41.26" r="11.33"/>
        <circle class="cls-2" cx="47.44" cy="51.62" r="11.33"/>
        <circle class="cls-2" cx="44.23" cy="107.9" r="14.31"/>
        <circle class="cls-2" cx="92.2" cy="113.82" r="8.4"/>
        <circle class="cls-2" cx="113.97" cy="90.51" r="8.4"/>
        <circle class="cls-2" cx="76.26" cy="76.12" r="17.17"/>
        <line class="cls-2" x1="75.78" y1="76.12" x2="92.72" y2="114.88"/>
        <line class="cls-2" x1="75.78" y1="76.12" x2="115.18" y2="91.52"/>
        <line class="cls-2" x1="105.6" y1="46.11" x2="75.78" y2="76.12"/>
        <line class="cls-2" x1="75.78" y1="76.12" x2="44.23" y2="47.93"/>
        <line class="cls-2" x1="75.78" y1="76.12" x2="46.25" y2="106.42"/>
      </g>
    </g>
  </g>
</svg>