<?xml version="1.0" encoding="UTF-8"?>
<svg id="Layer_1" data-name="Layer 1" xmlns="http://www.w3.org/2000/svg" viewBox="0 0 144 144">
  <defs>
    <style>
      .cls-1 {
        fill: #08bc44;
      }

      .cls-2 {
        fill: #606060;
      }
    </style>
  </defs>
  <g>
    <g>
      <path class="cls-2" d="M106.67,10.44s-.14-.07-.34-.21c-.24-.14-.58-.38-1.06-.58-.96-.48-2.37-1.13-4.19-2.02-.45-.21-.93-.45-1.41-.69-.51-.21-1.06-.41-1.61-.62-1.13-.41-2.37-.86-3.67-1.34-1.3-.55-2.74-.82-4.25-1.24-.75-.21-1.54-.38-2.33-.58s-1.61-.45-2.47-.55c-6.72-1.34-14.82-1.65-23.33-.48-8.47,1.17-17.33,4.12-25.25,8.71-7.93,4.56-14.89,10.74-20.17,17.5-.65.86-1.27,1.72-1.92,2.54-.62.86-1.27,1.68-1.78,2.57-1.06,1.78-2.16,3.47-3.12,5.18-.86,1.78-1.68,3.5-2.47,5.15-.75,1.68-1.3,3.4-1.92,5.01-.27.82-.62,1.58-.86,2.37-.21.79-.41,1.58-.62,2.33-.38,1.51-.75,2.95-1.1,4.29-.41,2.74-.82,5.15-1.06,7.14-.21,3.98-.31,6.28-.31,6.28,0,.41-.34.72-.72.72S0,71.58.03,71.17c0,0,.1-2.33.31-6.42.27-2.02.65-4.46,1.1-7.27.34-1.37.72-2.85,1.13-4.39.21-.79.41-1.58.62-2.37.24-.79.58-1.58.86-2.44.62-1.65,1.17-3.4,1.96-5.11.82-1.72,1.68-3.47,2.54-5.25.96-1.75,2.09-3.5,3.16-5.28.51-.93,1.17-1.75,1.82-2.61s1.3-1.72,1.96-2.61c5.39-6.86,12.49-13.18,20.59-17.84C44.05,4.92,53.08,1.94,61.76.73c8.65-1.2,16.91-.86,23.78.51.86.1,1.72.34,2.5.55.82.21,1.61.41,2.37.62,1.54.41,3.02.72,4.36,1.27,1.34.48,2.57.96,3.74,1.37.58.21,1.13.41,1.65.62.51.24.99.48,1.44.69,1.85.89,3.29,1.58,4.25,2.06.51.21.86.48,1.1.62s.38.21.38.21c.34.21.48.65.31.99-.21.34-.62.41-.96.21Z"/>
      <path class="cls-2" d="M103.34,16.35s-.1-.07-.31-.21-.51-.34-.96-.55c-.86-.41-2.16-1.03-3.77-1.82-.41-.21-.82-.41-1.27-.62-.45-.21-.96-.34-1.48-.55-1.03-.38-2.13-.79-3.33-1.2-1.17-.48-2.47-.75-3.84-1.13-.69-.17-1.37-.34-2.09-.55-.72-.17-1.44-.41-2.23-.48-6.07-1.2-13.42-1.51-21.1-.45s-15.65,3.71-22.82,7.89c-7.17,4.12-13.45,9.74-18.25,15.82-.58.79-1.17,1.54-1.72,2.3-.58.75-1.17,1.51-1.61,2.33-.96,1.61-1.96,3.16-2.81,4.7-.75,1.61-1.51,3.16-2.23,4.67-.69,1.51-1.17,3.09-1.72,4.53-.27.72-.55,1.44-.75,2.16-.17.72-.38,1.41-.55,2.09-.34,1.37-.69,2.68-.99,3.88-.38,2.5-.69,4.67-.96,6.45-.17,3.64-.27,5.7-.27,5.7,0,.17-.17.34-.38.34s-.34-.14-.34-.34c0,0,.1-2.09.27-5.76.24-1.82.62-4.01.96-6.52.31-1.24.65-2.54.99-3.95.17-.69.34-1.41.55-2.13.21-.72.51-1.44.79-2.16.58-1.44,1.03-3.02,1.75-4.56.72-1.51,1.51-3.09,2.26-4.73.86-1.58,1.89-3.12,2.85-4.73.45-.82,1.06-1.58,1.65-2.33s1.17-1.54,1.75-2.33c4.84-6.18,11.22-11.8,18.46-15.99,7.24-4.22,15.3-6.9,23.06-7.96,7.75-1.06,15.2-.75,21.34.45.79.1,1.51.31,2.23.48.72.17,1.44.38,2.13.55,1.37.38,2.71.62,3.88,1.13,1.2.45,2.3.86,3.36,1.24.51.21,1.03.38,1.48.55.45.21.89.41,1.3.62,1.65.79,2.95,1.41,3.84,1.85.45.21.75.41.96.55.21.14.34.21.34.21.17.1.21.31.1.48-.1.17-.31.24-.45.14h-.07v-.03Z"/>
      <path class="cls-2" d="M5.42,64.69c0,.21-.21.34-.41.31l-3.98-.41c-.21,0-.31-.21-.27-.41,0-.21.21-.34.41-.34l3.95.45c.21,0,.31.21.31.38h0v.03Z"/>
      <path class="cls-2" d="M31.33,18.82s-.38.07-.48-.07l-2.44-3.16s-.07-.38.07-.48c.17-.14.38-.1.51.07l2.4,3.19s.07.38-.07.48h0v-.03Z"/>
      <path class="cls-2" d="M64.02,5.47s-.38-.1-.38-.31l-.48-3.95c0-.21.14-.38.31-.41.21,0,.38.1.41.27l.45,3.95c0,.21-.1.38-.31.41h0v.03Z"/>
      <path class="cls-2" d="M71.13,5.02c-.21,0-.34-.14-.34-.34l-.07-3.98c0-.21.17-.34.38-.38.21,0,.38.14.38.34v3.98c0,.21-.14.34-.31.38h-.03Z"/>
      <path class="cls-2" d="M95.28,9.21s-.27-.27-.21-.45l1.37-3.74s.27-.27.48-.21c.21.07.31.27.24.45l-1.41,3.74s-.27.27-.45.21h-.03Z"/>
      <path class="cls-2" d="M12.66,40.91c-.07.17-.27.24-.45.17l-3.53-1.82s-.24-.31-.14-.48.31-.27.48-.17l3.53,1.85s.24.31.17.48h-.07v-.03Z"/>
      <path class="cls-2" d="M16.74,34.05s-.34.21-.48.1l-3.29-2.23s-.17-.31-.07-.48c.14-.17.34-.21.51-.1l3.26,2.26s.21.31.07.48h0v-.03Z"/>
    </g>
    <g>
      <path class="cls-2" d="M107.91,132.69s.48-.31,1.41-.86,2.3-1.34,3.88-2.57c1.58-1.24,3.64-2.54,5.63-4.49,1.03-.96,2.13-1.92,3.26-3.02,1.06-1.17,2.16-2.37,3.29-3.64,4.46-5.18,8.95-11.94,12.15-19.93,3.23-7.96,5.08-17.09,5.08-26.25s-1.85-18.29-5.08-26.25c-3.19-7.99-7.69-14.72-12.15-19.93-1.17-1.27-2.26-2.47-3.29-3.64-1.13-1.06-2.23-2.06-3.26-2.98-1.99-1.96-4.05-3.29-5.63-4.53s-2.95-2.02-3.88-2.57c-.93-.55-1.41-.86-1.41-.86-.34-.21-.48-.65-.27-.99s.62-.41.99-.21c0,0,.51.31,1.44.86.93.58,2.33,1.37,3.95,2.64,1.61,1.24,3.71,2.61,5.73,4.6,1.06.96,2.2,1.96,3.33,3.05,1.06,1.17,2.2,2.44,3.36,3.71,4.53,5.28,9.13,12.18,12.39,20.31,3.29,8.1,5.18,17.43,5.18,26.76s-1.89,18.66-5.18,26.76c-3.26,8.13-7.86,14.99-12.39,20.31-1.17,1.3-2.3,2.54-3.36,3.71-1.13,1.1-2.3,2.09-3.33,3.05-2.02,1.99-4.12,3.36-5.73,4.6-1.61,1.27-2.98,2.06-3.95,2.64-.93.55-1.44.86-1.44.86-.34.21-.79.1-.99-.21-.21-.34-.07-.75.27-.99v.07Z"/>
      <path class="cls-2" d="M104.47,126.89s.45-.27,1.27-.75c.82-.51,2.09-1.2,3.5-2.33,1.44-1.13,3.29-2.3,5.08-4.08.93-.86,1.96-1.75,2.95-2.71.96-1.06,1.96-2.16,2.98-3.29,4.01-4.7,8.1-10.81,10.98-18.01,2.92-7.17,4.6-15.44,4.6-23.71s-1.68-16.54-4.6-23.71c-2.88-7.21-6.96-13.31-10.98-18.01-1.03-1.17-2.06-2.26-2.98-3.29-1.03-.96-2.02-1.85-2.95-2.71-1.78-1.78-3.67-2.95-5.08-4.08s-2.68-1.82-3.5-2.33c-.82-.51-1.27-.75-1.27-.75-.17-.1-.21-.31-.1-.48.1-.17.31-.21.45-.14,0,0,.45.27,1.27.79.82.51,2.09,1.2,3.53,2.37,1.44,1.13,3.33,2.33,5.15,4.12.93.86,1.96,1.75,2.98,2.74.96,1.06,1.96,2.16,3.02,3.33,4.08,4.77,8.2,10.91,11.12,18.22,2.95,7.27,4.63,15.61,4.67,23.98,0,8.37-1.72,16.71-4.67,23.98-2.92,7.27-7.03,13.45-11.12,18.22-1.06,1.17-2.06,2.26-3.02,3.33-1.03.99-2.06,1.89-2.98,2.74-1.82,1.78-3.71,2.98-5.15,4.12-1.44,1.13-2.68,1.85-3.53,2.37-.82.51-1.27.79-1.27.79-.17.1-.38,0-.45-.14-.1-.17-.03-.38.1-.48,0,0,0-.07,0-.07Z"/>
      <path class="cls-2" d="M111.54,17.99s-.21-.34-.07-.48l2.33-3.23s.34-.17.51-.07c.17.14.21.34.1.51l-2.37,3.19s-.34.17-.48.07h-.03Z"/>
      <path class="cls-2" d="M138.37,63.32s.1-.38.31-.38l3.95-.55s.38.1.41.31c0,.21-.1.38-.27.41l-3.95.48c-.21,0-.38-.1-.41-.31h0l-.03.03Z"/>
      <path class="cls-2" d="M133.6,98.31s.31-.24.48-.17l3.67,1.54s.24.27.17.48c-.1.17-.31.27-.48.21l-3.67-1.58s-.24-.27-.17-.45h0v-.03Z"/>
      <path class="cls-2" d="M130.41,104.69s.31-.21.48-.14l3.5,1.92s.21.31.1.48c-.1.17-.31.24-.48.14l-3.47-1.96s-.21-.31-.14-.48h0v.03Z"/>
      <path class="cls-2" d="M114.73,123.53s.34-.1.48,0l2.57,3.05s.1.38-.07.51c-.14.14-.38.1-.51,0l-2.54-3.09s-.1-.34,0-.48h.07Z"/>
      <path class="cls-2" d="M128.53,36.11s0-.38.1-.48l3.36-2.16s.38-.03.48.14.07.41-.1.51l-3.36,2.13s-.38.03-.48-.1h0v-.03Z"/>
      <path class="cls-2" d="M132.37,43.11c-.07-.17,0-.38.17-.45l3.6-1.75s.38,0,.48.17,0,.41-.14.48l-3.6,1.72s-.38,0-.48-.17h-.03Z"/>
    </g>
    <g>
      <path class="cls-2" d="M1.37,72.68s.1,2.3.31,6.28c.24,1.99.65,4.39,1.06,7.14.34,1.34.72,2.78,1.1,4.32.21.75.41,1.54.62,2.33.24.79.55,1.58.86,2.37.62,1.61,1.13,3.33,1.92,5.01.79,1.68,1.65,3.4,2.47,5.15.96,1.72,2.06,3.43,3.12,5.18.51.89,1.17,1.72,1.78,2.57.62.86,1.27,1.68,1.92,2.54,5.28,6.72,12.25,12.93,20.17,17.5,7.93,4.6,16.74,7.55,25.25,8.71,8.51,1.17,16.61.82,23.33-.48.86-.1,1.65-.34,2.47-.55.79-.21,1.58-.41,2.33-.58,1.51-.41,2.98-.69,4.25-1.24,1.3-.48,2.54-.93,3.67-1.34.55-.21,1.13-.41,1.61-.62.51-.24.96-.48,1.41-.69,1.82-.86,3.23-1.54,4.19-2.02.48-.21.82-.45,1.06-.58.24-.14.34-.21.34-.21.34-.21.79-.1.96.21.21.34.07.79-.31.99,0,0-.14.07-.38.21s-.58.38-1.1.62c-.99.48-2.44,1.17-4.25,2.06-.45.21-.96.45-1.44.69-.51.21-1.06.41-1.65.62-1.17.41-2.4.89-3.74,1.37-1.3.55-2.81.86-4.36,1.27-.79.21-1.58.41-2.37.62-.82.21-1.65.45-2.5.55-6.86,1.37-15.13,1.68-23.78.51-8.65-1.2-17.67-4.19-25.73-8.89-8.1-4.67-15.17-10.98-20.59-17.84-.65-.89-1.3-1.75-1.96-2.61-.65-.86-1.3-1.68-1.82-2.61-1.1-1.82-2.2-3.53-3.16-5.28-.86-1.82-1.72-3.57-2.54-5.25-.79-1.72-1.3-3.47-1.96-5.11-.31-.82-.62-1.61-.86-2.44-.21-.82-.41-1.61-.62-2.37-.38-1.54-.75-3.02-1.13-4.39-.41-2.81-.82-5.25-1.1-7.27-.17-4.12-.27-6.42-.27-6.42,0-.41.27-.75.65-.75s.72.34.72.72Z"/>
      <path class="cls-2" d="M8.17,72.61s.1,2.06.27,5.7c.27,1.78.58,3.98.96,6.45.31,1.24.65,2.5.99,3.88.17.69.34,1.41.55,2.09.21.72.51,1.41.75,2.16.55,1.44,1.03,3.02,1.72,4.53.72,1.51,1.48,3.05,2.23,4.67.86,1.54,1.85,3.09,2.81,4.7.45.82,1.03,1.54,1.61,2.33.58.75,1.13,1.54,1.72,2.3,4.8,6.11,11.08,11.7,18.25,15.82,7.17,4.15,15.13,6.83,22.82,7.89,7.69,1.06,15.03.75,21.1-.45.79-.07,1.51-.31,2.23-.48s1.41-.38,2.09-.55c1.37-.38,2.68-.62,3.84-1.13,1.17-.45,2.3-.86,3.33-1.2.51-.21,1.03-.34,1.48-.55.45-.21.89-.45,1.27-.62,1.65-.79,2.92-1.41,3.77-1.82.45-.21.75-.41.96-.55.21-.14.31-.21.31-.21.17-.1.34,0,.45.14.1.17.03.38-.1.48,0,0-.1.07-.34.21-.21.14-.51.34-.96.55-.89.41-2.16,1.06-3.84,1.85-.41.21-.86.41-1.3.62-.48.21-.96.38-1.48.55-1.03.38-2.16.79-3.36,1.24-1.17.51-2.5.75-3.88,1.13-.69.17-1.41.38-2.13.55-.72.21-1.48.41-2.23.48-6.14,1.24-13.59,1.51-21.34.45-7.75-1.06-15.82-3.74-23.06-7.96-7.24-4.19-13.62-9.81-18.46-15.99-.58-.79-1.17-1.58-1.75-2.33-.58-.79-1.17-1.51-1.65-2.33-.96-1.61-1.96-3.19-2.85-4.73-.79-1.61-1.54-3.19-2.26-4.7-.69-1.54-1.17-3.12-1.75-4.56-.27-.75-.55-1.44-.79-2.16-.17-.72-.38-1.44-.55-2.13-.34-1.37-.69-2.71-.99-3.95-.38-2.54-.72-4.7-.96-6.52-.17-3.67-.27-5.76-.27-5.76,0-.17.14-.34.34-.34s.34.14.38.34c0,0,.07-.07.07-.07Z"/>
      <path class="cls-2" d="M98.98,133.27s.38,0,.45.17l1.61,3.64s0,.38-.21.48c-.17.1-.41,0-.48-.17l-1.58-3.67s0-.38.17-.48h.03v.03Z"/>
      <path class="cls-2" d="M46.28,133.82c.17.07.27.27.21.45l-1.51,3.71s-.27.27-.48.21-.27-.27-.21-.45l1.54-3.67s.27-.27.45-.21h0v-.03Z"/>
      <path class="cls-2" d="M18.42,112.07s.07.38-.07.48l-3.19,2.4s-.38.07-.51-.07c-.14-.17-.1-.38.07-.51l3.19-2.37s.38-.07.48.07h.03Z"/>
      <path class="cls-2" d="M14.48,106.17s.03.38-.1.48l-3.43,2.06s-.38.03-.48-.14-.07-.41.1-.48l3.43-2.02s.38-.03.48.14h0v-.03Z"/>
      <path class="cls-2" d="M6,83.18s-.1.38-.27.41l-3.91.69c-.17,0-.38-.1-.41-.31,0-.21.1-.38.27-.41l3.95-.65c.21,0,.38.1.38.27Z"/>
      <path class="cls-2" d="M74.76,138.83c.21,0,.34.14.38.34l.17,3.98c0,.21-.14.34-.34.38-.21,0-.38-.14-.38-.34l-.14-3.98c0-.21.14-.34.34-.38h-.03Z"/>
      <path class="cls-2" d="M66.8,138.7c.21,0,.34.17.31.38l-.27,3.98c0,.21-.21.34-.38.31-.21,0-.34-.17-.34-.38l.34-3.98c0-.21.17-.34.38-.34h-.03v.03Z"/>
    </g>
  </g>
  <path class="cls-1" d="M108.1,63.5c-.47-1.47-1.79-2.51-3.31-2.65l-20.96-1.91-8.28-19.39c-.62-1.42-2-2.34-3.55-2.34s-2.95.92-3.55,2.34l-8.28,19.39-20.97,1.91c-1.54.14-2.84,1.18-3.31,2.65-.47,1.47-.04,3.09,1.12,4.11l15.84,13.89-4.67,20.58c-.34,1.51.25,3.08,1.5,3.99.67.49,1.47.73,2.26.73.69,0,1.37-.18,1.98-.54l18.08-10.8,18.07,10.8c1.33.79,2.99.72,4.25-.19,1.25-.91,1.85-2.47,1.5-3.99l-4.67-20.58,15.84-13.89c1.16-1.02,1.61-2.63,1.12-4.11h-.01Z"/>
</svg>