<?xml version="1.0" encoding="UTF-8"?>
<svg id="Layer_1" data-name="Layer 1" xmlns="http://www.w3.org/2000/svg" viewBox="0 0 144 144">
  <defs>
    <style>
      .cls-1 {
        fill: #00c93d;
      }

      .cls-2 {
        fill: #606060;
      }
    </style>
  </defs>
  <g>
    <g>
      <path class="cls-2" d="M106.59,10.43s-.12-.08-.36-.22c-.24-.13-.58-.38-1.07-.6-.96-.46-2.38-1.15-4.19-2.02-.44-.22-.93-.44-1.42-.68-.51-.22-1.06-.4-1.63-.6-1.13-.42-2.35-.87-3.67-1.34-1.29-.54-2.75-.84-4.26-1.24-.76-.19-1.53-.4-2.33-.6-.79-.21-1.61-.43-2.46-.53-6.74-1.32-14.83-1.66-23.32-.49-8.49,1.17-17.32,4.11-25.24,8.71-7.93,4.57-14.88,10.75-20.17,17.48-.64.86-1.28,1.71-1.91,2.55-.62.85-1.28,1.66-1.78,2.56-1.06,1.78-2.15,3.48-3.11,5.19-.85,1.78-1.68,3.5-2.49,5.16-.77,1.68-1.29,3.4-1.91,5-.28.8-.6,1.59-.84,2.37-.21.79-.41,1.57-.6,2.33-.39,1.51-.75,2.96-1.1,4.3-.42,2.76-.81,5.16-1.07,7.15-.2,4-.32,6.28-.32,6.28-.02.41-.34.73-.73.73s-.68-.33-.66-.75c0,0,.11-2.33.32-6.4.26-2.02.66-4.47,1.09-7.28.35-1.38.73-2.84,1.12-4.39.2-.78.41-1.56.61-2.37.25-.79.57-1.6.86-2.42.62-1.63,1.16-3.38,1.95-5.09.82-1.7,1.66-3.45,2.53-5.26.97-1.75,2.08-3.49,3.17-5.29.51-.92,1.17-1.76,1.81-2.62s1.29-1.73,1.95-2.6c5.4-6.87,12.48-13.17,20.57-17.83C44.04,4.91,53.06,1.92,61.71.73c8.66-1.18,16.9-.85,23.77.51.87.1,1.7.33,2.5.54.81.21,1.61.42,2.37.6,1.54.42,3.02.72,4.34,1.27,1.33.49,2.58.95,3.74,1.37.58.22,1.13.4,1.65.62.51.25.99.48,1.46.69,1.83.89,3.28,1.59,4.27,2.06.5.22.84.46,1.09.6.25.14.37.22.37.22.36.22.48.65.29.98-.2.33-.63.43-.97.22v.02Z"/>
      <path class="cls-2" d="M103.27,16.31s-.11-.07-.32-.2c-.22-.12-.52-.34-.96-.54-.87-.42-2.15-1.04-3.78-1.81-.41-.2-.83-.41-1.29-.62-.45-.2-.95-.36-1.46-.55-1.02-.38-2.13-.78-3.31-1.21-1.16-.49-2.49-.76-3.85-1.12-.68-.18-1.38-.36-2.1-.54-.72-.19-1.45-.41-2.22-.48-6.08-1.21-13.42-1.49-21.1-.44-7.67,1.06-15.65,3.71-22.81,7.87-7.17,4.13-13.46,9.73-18.24,15.81-.58.78-1.15,1.55-1.73,2.32-.57.77-1.16,1.5-1.62,2.32-.95,1.61-1.95,3.14-2.81,4.69-.78,1.6-1.52,3.16-2.24,4.66-.7,1.52-1.16,3.07-1.72,4.52-.26.73-.55,1.44-.77,2.15-.18.72-.36,1.42-.54,2.1-.35,1.37-.68,2.67-1,3.88-.37,2.5-.7,4.67-.96,6.46-.18,3.62-.28,5.69-.28,5.69,0,.18-.17.33-.36.33s-.34-.15-.33-.34c0,0,.1-2.09.29-5.75.24-1.81.6-4.01.97-6.52.31-1.23.65-2.54,1-3.93.18-.69.36-1.4.55-2.13.22-.72.51-1.43.78-2.16.57-1.46,1.04-3.02,1.74-4.57.74-1.52,1.49-3.09,2.27-4.72.87-1.57,1.88-3.12,2.84-4.74.45-.83,1.05-1.58,1.63-2.34.58-.78,1.15-1.55,1.75-2.33,4.84-6.15,11.2-11.8,18.45-15.98,7.23-4.21,15.29-6.89,23.05-7.96,7.76-1.06,15.17-.77,21.32.44.78.09,1.52.3,2.25.49s1.44.37,2.13.55c1.38.37,2.71.63,3.89,1.13,1.19.43,2.32.84,3.35,1.22.51.2,1.02.36,1.48.56.45.22.89.43,1.29.62,1.64.79,2.94,1.42,3.83,1.84.45.2.76.42.97.55.22.13.33.2.33.2.15.09.21.3.11.47s-.3.23-.45.13l-.04-.02Z"/>
      <path class="cls-2" d="M5.4,64.62c-.03.19-.21.33-.4.31l-3.96-.41c-.19-.02-.32-.2-.29-.41.03-.2.21-.35.4-.33l3.96.45c.19.02.32.19.29.38Z"/>
      <path class="cls-2" d="M31.29,18.78c-.15.11-.38.09-.49-.07l-2.44-3.15c-.11-.15-.08-.37.09-.49.16-.12.39-.1.51.06l2.41,3.18c.11.15.09.37-.07.48h0Z"/>
      <path class="cls-2" d="M63.99,5.46c-.19.03-.36-.1-.39-.29l-.49-3.95c-.03-.2.12-.37.32-.4s.39.09.41.28l.44,3.96c.02.19-.11.37-.3.4h0Z"/>
      <path class="cls-2" d="M71.07,4.99c-.19,0-.35-.14-.35-.33l-.08-3.99c0-.19.16-.35.37-.37.21,0,.37.13.37.33l.03,3.99c0,.19-.15.35-.34.37Z"/>
      <path class="cls-2" d="M95.2,9.18c-.18-.07-.27-.26-.21-.44l1.37-3.74c.07-.18.27-.27.46-.2.19.07.29.27.23.45l-1.41,3.72c-.07.18-.26.27-.44.21Z"/>
      <path class="cls-2" d="M12.65,40.87c-.09.17-.28.25-.45.16l-3.53-1.83c-.17-.09-.24-.31-.15-.49.09-.18.3-.26.46-.17l3.52,1.87c.17.09.24.3.16.47h0Z"/>
      <path class="cls-2" d="M16.75,34.03c-.11.16-.34.19-.49.09l-3.3-2.24c-.16-.1-.19-.32-.07-.49s.35-.21.51-.09l3.27,2.27c.15.11.19.32.08.47Z"/>
    </g>
    <g>
      <path class="cls-2" d="M107.84,132.6s.48-.29,1.4-.85,2.29-1.33,3.86-2.58c1.58-1.23,3.63-2.55,5.62-4.51,1.02-.95,2.15-1.92,3.27-3.01,1.05-1.15,2.15-2.37,3.31-3.64,4.45-5.19,8.95-11.94,12.15-19.9,3.22-7.95,5.08-17.07,5.08-26.22s-1.86-18.28-5.08-26.22c-3.19-7.98-7.69-14.72-12.15-19.9-1.15-1.27-2.26-2.49-3.31-3.64-1.13-1.08-2.25-2.06-3.27-3-1.99-1.96-4.05-3.28-5.62-4.51-1.57-1.25-2.94-2.02-3.86-2.57-.92-.56-1.4-.86-1.4-.86-.35-.21-.47-.65-.28-.98s.63-.43.98-.22c0,0,.5.3,1.44.87s2.33,1.35,3.93,2.63c1.61,1.25,3.7,2.61,5.74,4.59,1.05.95,2.18,1.96,3.34,3.06,1.07,1.18,2.2,2.42,3.37,3.71,4.54,5.29,9.12,12.17,12.38,20.3,3.29,8.1,5.18,17.41,5.18,26.74s-1.89,18.64-5.18,26.74c-3.26,8.14-7.84,15-12.38,20.3-1.17,1.29-2.31,2.53-3.37,3.7-1.14,1.1-2.29,2.1-3.34,3.06-2.03,1.99-4.13,3.35-5.74,4.59-1.6,1.28-3,2.06-3.93,2.63s-1.44.87-1.44.87c-.35.21-.79.12-.98-.22-.19-.33-.07-.78.28-.98h0Z"/>
      <path class="cls-2" d="M104.4,126.79s.44-.26,1.28-.78c.82-.5,2.08-1.19,3.49-2.33,1.43-1.12,3.29-2.3,5.08-4.08.93-.85,1.94-1.74,2.97-2.7.95-1.05,1.95-2.15,3-3.3,4.03-4.71,8.09-10.8,10.98-18.01,2.92-7.18,4.59-15.42,4.6-23.71,0-8.29-1.68-16.53-4.6-23.7-2.89-7.2-6.96-13.3-10.98-18-1.04-1.15-2.04-2.25-3-3.3-1.02-.97-2.04-1.85-2.97-2.71-1.8-1.78-3.67-2.96-5.08-4.08-1.41-1.13-2.66-1.82-3.49-2.33-.83-.5-1.28-.77-1.28-.77-.15-.09-.2-.3-.1-.47s.3-.22.46-.12c0,0,.44.27,1.29.78.84.51,2.1,1.21,3.53,2.36,1.44,1.12,3.33,2.33,5.14,4.12.94.86,1.96,1.76,3,2.74.96,1.06,1.98,2.17,3.02,3.33,4.06,4.75,8.18,10.92,11.11,18.19,2.95,7.26,4.64,15.59,4.65,23.96,0,8.38-1.7,16.71-4.65,23.97-2.92,7.28-7.03,13.44-11.11,18.19-1.06,1.16-2.06,2.28-3.02,3.34-1.03.98-2.06,1.87-3,2.74-1.81,1.8-3.7,3-5.14,4.12-1.43,1.15-2.68,1.85-3.53,2.35-.84.51-1.29.78-1.29.78-.16.09-.36.04-.46-.12-.09-.17-.05-.38.1-.47v.02Z"/>
      <path class="cls-2" d="M111.48,17.95c-.15-.11-.19-.33-.08-.49l2.34-3.22c.11-.15.34-.18.5-.06.16.12.21.34.09.5l-2.37,3.19c-.11.15-.33.19-.48.08h0Z"/>
      <path class="cls-2" d="M138.27,63.25c-.03-.19.1-.36.29-.39l3.95-.53c.19-.02.37.11.4.32.03.2-.09.39-.29.41l-3.95.49c-.19.03-.37-.1-.4-.3Z"/>
      <path class="cls-2" d="M133.5,98.24c.09-.17.29-.26.46-.18l3.67,1.55c.18.08.25.28.16.47-.09.18-.3.27-.48.2l-3.66-1.59c-.18-.08-.25-.28-.17-.45h.02Z"/>
      <path class="cls-2" d="M130.34,104.61c.09-.16.31-.22.48-.13l3.49,1.94c.17.09.22.31.11.48-.1.18-.32.24-.49.15l-3.47-1.97c-.17-.09-.22-.3-.12-.46h0Z"/>
      <path class="cls-2" d="M114.67,123.45c.14-.13.36-.11.48.03l2.56,3.05c.12.14.09.38-.06.51-.15.14-.39.11-.51-.03l-2.53-3.08c-.12-.15-.09-.36.05-.48h0Z"/>
      <path class="cls-2" d="M128.45,36.08c-.1-.16-.05-.38.11-.48l3.35-2.15c.16-.1.38-.05.49.13.1.18.06.4-.1.5l-3.37,2.12c-.16.09-.38.05-.47-.11h0Z"/>
      <path class="cls-2" d="M132.3,43.05c-.09-.17,0-.38.16-.46l3.58-1.74c.17-.09.38,0,.47.18s.02.4-.15.48l-3.6,1.7c-.18.09-.38,0-.46-.16h0Z"/>
    </g>
    <g>
      <path class="cls-2" d="M1.39,72.63s.11,2.29.32,6.28c.26,1.98.65,4.39,1.07,7.14.34,1.35.71,2.79,1.1,4.3.2.76.4,1.53.6,2.33.24.78.56,1.56.84,2.37.61,1.6,1.13,3.32,1.91,4.99.8,1.67,1.64,3.39,2.49,5.16.95,1.72,2.05,3.42,3.11,5.19.51.91,1.15,1.72,1.78,2.57.63.84,1.27,1.69,1.91,2.55,5.29,6.74,12.24,12.92,20.17,17.48,7.91,4.6,16.75,7.53,25.24,8.71,8.49,1.16,16.58.83,23.32-.49.85-.09,1.66-.33,2.46-.53.79-.2,1.57-.41,2.33-.6,1.51-.4,2.97-.7,4.26-1.24,1.31-.48,2.53-.93,3.67-1.34.57-.22,1.12-.4,1.63-.61.5-.24.97-.46,1.42-.68,1.81-.87,3.22-1.55,4.19-2.02.49-.22.83-.45,1.07-.6.24-.14.36-.22.36-.22.34-.21.78-.11.97.22.19.33.07.78-.29.98,0,0-.12.08-.37.22s-.59.38-1.09.6c-.98.47-2.43,1.17-4.27,2.06-.46.22-.95.45-1.46.7-.52.22-1.08.41-1.65.62-1.15.43-2.4.88-3.74,1.36-1.31.55-2.81.86-4.34,1.27-.78.2-1.56.41-2.37.6-.81.21-1.64.44-2.5.54-6.86,1.36-15.11,1.69-23.77.51-8.65-1.19-17.66-4.19-25.73-8.88-8.08-4.66-15.17-10.95-20.57-17.83-.65-.88-1.3-1.75-1.95-2.6-.64-.86-1.3-1.69-1.81-2.62-1.09-1.81-2.19-3.53-3.17-5.29-.87-1.81-1.72-3.56-2.53-5.26-.78-1.71-1.31-3.46-1.95-5.09-.29-.82-.61-1.62-.86-2.42-.21-.8-.42-1.6-.61-2.37-.39-1.55-.77-3.02-1.12-4.39-.43-2.81-.82-5.26-1.09-7.28C.12,74.97,0,72.64,0,72.64c-.02-.42.27-.75.66-.75s.71.33.73.73Z"/>
      <path class="cls-2" d="M8.15,72.56s.1,2.07.28,5.68c.26,1.8.6,3.96.96,6.46.31,1.22.64,2.51,1,3.88.17.68.35,1.39.54,2.11.22.71.51,1.42.77,2.15.56,1.45,1.02,3.01,1.72,4.52.73,1.5,1.47,3.06,2.24,4.67.86,1.55,1.86,3.08,2.81,4.69.44.82,1.04,1.56,1.62,2.33.57.77,1.14,1.53,1.73,2.31,4.79,6.1,11.08,11.68,18.24,15.81,7.15,4.16,15.13,6.81,22.81,7.87,7.67,1.05,15.01.77,21.1-.44.78-.09,1.5-.29,2.22-.48.72-.18,1.42-.37,2.1-.54,1.36-.37,2.68-.62,3.85-1.12,1.18-.43,2.29-.84,3.31-1.21.51-.19,1.01-.35,1.46-.55.45-.22.88-.43,1.29-.62,1.64-.78,2.91-1.4,3.78-1.82.44-.19.75-.42.96-.54.22-.13.32-.2.32-.2.16-.09.36-.04.45.13.09.16.05.38-.11.47,0,0-.11.07-.33.2-.22.12-.53.35-.97.54-.88.43-2.17,1.05-3.83,1.84-.41.2-.84.41-1.29.63-.46.2-.97.36-1.48.56-1.04.38-2.15.78-3.35,1.23-1.17.5-2.51.76-3.89,1.13-.69.18-1.4.36-2.13.55s-1.46.41-2.25.48c-6.15,1.22-13.56,1.51-21.32.45-7.75-1.08-15.82-3.75-23.05-7.96-7.25-4.17-13.61-9.82-18.45-15.98-.59-.78-1.17-1.57-1.75-2.33-.58-.78-1.17-1.51-1.63-2.34-.96-1.63-1.97-3.18-2.84-4.74-.78-1.62-1.54-3.19-2.27-4.72-.7-1.53-1.17-3.11-1.74-4.57-.26-.74-.56-1.45-.78-2.16-.19-.73-.37-1.44-.55-2.13-.36-1.38-.69-2.69-1-3.93-.37-2.52-.74-4.71-.97-6.52-.18-3.66-.29-5.75-.29-5.75,0-.18.14-.33.33-.34.19,0,.35.15.36.33l.04-.02Z"/>
      <path class="cls-2" d="M98.91,133.15c.17-.09.38,0,.45.16l1.63,3.64c.08.18,0,.39-.2.47-.18.09-.4.02-.47-.15l-1.59-3.66c-.08-.18,0-.39.18-.46Z"/>
      <path class="cls-2" d="M46.24,133.73c.18.07.26.26.2.43l-1.51,3.69c-.08.18-.28.26-.48.19-.19-.08-.28-.27-.22-.44l1.55-3.67c.08-.18.28-.26.46-.2h0Z"/>
      <path class="cls-2" d="M18.41,111.99c.11.15.09.37-.07.48l-3.18,2.41c-.15.11-.38.08-.5-.09-.12-.17-.09-.4.06-.51l3.2-2.37c.15-.11.37-.08.48.08Z"/>
      <path class="cls-2" d="M14.45,106.08c.09.16.05.38-.11.47l-3.41,2.06c-.16.1-.38.04-.49-.13s-.06-.4.1-.49l3.43-2.02c.16-.09.38-.04.48.12h0Z"/>
      <path class="cls-2" d="M6,83.12c.03.19-.09.37-.29.4l-3.92.69c-.19.03-.37-.1-.4-.31s.09-.4.28-.43l3.93-.64c.19-.03.37.09.4.28h0Z"/>
      <path class="cls-2" d="M74.71,138.71c.19,0,.35.13.36.33l.19,3.98c0,.19-.15.36-.36.37-.21,0-.38-.13-.38-.33l-.14-3.98c0-.19.14-.35.33-.37Z"/>
      <path class="cls-2" d="M66.75,138.59c.19,0,.34.17.32.37l-.28,3.98c0,.19-.19.34-.4.32-.21,0-.36-.17-.34-.37l.33-3.97c.02-.19.18-.34.38-.33h0Z"/>
    </g>
  </g>
  <g>
    <circle class="cls-1" cx="104.94" cy="39" r="10.71"/>
    <circle class="cls-1" cx="44.84" cy="48.79" r="10.71"/>
    <circle class="cls-1" cx="41.8" cy="101.98" r="13.53"/>
    <circle class="cls-1" cx="87.14" cy="107.58" r="7.94"/>
    <circle class="cls-1" cx="107.72" cy="85.55" r="7.94"/>
    <circle class="cls-1" cx="72.08" cy="71.95" r="16.23"/>
    <line class="cls-1" x1="71.62" y1="71.95" x2="87.63" y2="108.58"/>
    <line class="cls-1" x1="71.62" y1="71.95" x2="108.86" y2="86.5"/>
    <line class="cls-1" x1="99.81" y1="43.58" x2="71.62" y2="71.95"/>
    <line class="cls-1" x1="71.62" y1="71.95" x2="41.8" y2="45.3"/>
    <line class="cls-1" x1="71.62" y1="71.95" x2="43.71" y2="100.58"/>
  </g>
</svg>