<?xml version="1.0" encoding="UTF-8"?>
<svg id="Layer_1" data-name="Layer 1" xmlns="http://www.w3.org/2000/svg" viewBox="0 0 144 144">
  <defs>
    <style>
      .cls-1 {
        fill: #00c93d;
      }

      .cls-2 {
        fill: #606060;
      }
    </style>
  </defs>
  <g>
    <g>
      <path class="cls-2" d="M106.49,10.42s-.12-.07-.36-.22c-.24-.14-.58-.38-1.07-.59-.97-.46-2.38-1.15-4.18-2.02-.45-.22-.92-.44-1.42-.69-.51-.21-1.06-.4-1.62-.61-1.13-.42-2.35-.87-3.66-1.34-1.29-.54-2.75-.84-4.25-1.24-.76-.19-1.53-.39-2.33-.6-.8-.2-1.61-.44-2.46-.53-6.73-1.33-14.81-1.66-23.29-.5-8.48,1.18-17.3,4.1-25.21,8.71-7.92,4.56-14.86,10.73-20.15,17.46-.64.86-1.28,1.71-1.91,2.54-.63.85-1.27,1.66-1.78,2.57-1.06,1.77-2.15,3.48-3.11,5.18-.85,1.77-1.68,3.49-2.49,5.15-.77,1.68-1.29,3.39-1.91,4.99-.29.81-.6,1.59-.85,2.37-.21.8-.41,1.57-.6,2.33-.39,1.52-.75,2.96-1.09,4.29-.42,2.76-.81,5.15-1.07,7.13-.2,3.99-.32,6.27-.32,6.27-.02.4-.34.73-.73.73s-.68-.33-.66-.75c0,0,.12-2.33.33-6.39.26-2.02.66-4.46,1.09-7.27.35-1.38.72-2.84,1.12-4.38.2-.77.4-1.56.62-2.38.25-.8.57-1.59.86-2.42.63-1.63,1.16-3.37,1.95-5.09.82-1.7,1.67-3.45,2.54-5.25.97-1.75,2.08-3.48,3.16-5.28.51-.92,1.17-1.76,1.82-2.62.64-.86,1.29-1.73,1.95-2.6,5.39-6.86,12.47-13.15,20.55-17.8C44,4.91,53.01,1.91,61.64.72c8.65-1.19,16.88-.85,23.74.51.87.1,1.7.33,2.51.54.81.21,1.6.41,2.38.61,1.54.41,3.03.72,4.33,1.27,1.34.49,2.58.95,3.73,1.37.57.21,1.14.4,1.66.62.51.25.99.48,1.45.69,1.84.89,3.29,1.59,4.26,2.06.5.22.85.47,1.09.61.24.15.37.22.37.22.36.21.48.65.29.99-.19.33-.63.43-.97.22h0Z"/>
      <path class="cls-2" d="M103.17,16.29s-.11-.07-.33-.2c-.22-.12-.52-.34-.97-.54-.87-.42-2.15-1.04-3.79-1.82-.4-.2-.83-.4-1.29-.62-.46-.19-.96-.36-1.47-.55-1.02-.38-2.13-.78-3.3-1.21-1.17-.5-2.49-.75-3.84-1.12-.68-.18-1.38-.36-2.1-.54-.72-.19-1.45-.4-2.22-.48-6.07-1.21-13.41-1.49-21.07-.44-7.67,1.06-15.63,3.71-22.78,7.86-7.16,4.12-13.44,9.71-18.23,15.8-.58.78-1.16,1.55-1.73,2.31-.57.76-1.17,1.5-1.61,2.32-.95,1.61-1.95,3.14-2.81,4.68-.77,1.6-1.52,3.15-2.25,4.66-.7,1.52-1.16,3.07-1.72,4.51-.26.73-.55,1.43-.77,2.15-.18.72-.36,1.42-.54,2.1-.35,1.37-.68,2.66-1,3.88-.37,2.49-.7,4.66-.97,6.45-.18,3.61-.28,5.68-.28,5.68,0,.18-.17.33-.36.33s-.34-.15-.33-.34c0,0,.11-2.09.29-5.74.24-1.81.61-4,.98-6.52.31-1.23.65-2.54,1.01-3.92.18-.69.36-1.4.54-2.13.22-.72.51-1.43.77-2.17.57-1.46,1.04-3.03,1.74-4.56.74-1.52,1.49-3.1,2.27-4.71.87-1.57,1.88-3.11,2.84-4.73.45-.83,1.05-1.58,1.63-2.35s1.16-1.55,1.75-2.34c4.83-6.15,11.18-11.8,18.43-15.96,7.22-4.2,15.28-6.88,23.02-7.95,7.75-1.06,15.16-.77,21.3.45.78.09,1.52.3,2.25.49s1.44.37,2.13.55c1.38.37,2.72.63,3.88,1.13,1.2.44,2.31.84,3.34,1.22.51.2,1.02.36,1.49.56.45.22.89.43,1.3.63,1.65.79,2.93,1.41,3.82,1.84.45.2.76.42.98.55s.33.2.33.2c.16.09.21.31.11.47-.1.17-.3.22-.45.13h0Z"/>
      <path class="cls-2" d="M5.4,64.55c-.03.19-.21.33-.4.31l-3.95-.41c-.19-.02-.32-.2-.29-.4.03-.2.21-.35.4-.33l3.95.45c.19.02.32.19.29.38h0Z"/>
      <path class="cls-2" d="M31.28,18.76c-.15.11-.37.08-.49-.07l-2.43-3.15c-.12-.15-.08-.37.08-.5.16-.12.39-.1.51.05l2.41,3.18c.11.15.08.37-.07.48h0s0,.01,0,.01Z"/>
      <path class="cls-2" d="M63.92,5.46c-.19.03-.36-.11-.39-.3l-.49-3.94c-.02-.19.12-.37.33-.4.2-.03.38.1.41.29l.45,3.95c.02.19-.11.37-.3.4h-.01Z"/>
      <path class="cls-2" d="M71.01,4.98c-.19,0-.35-.14-.35-.33l-.07-3.98c0-.19.16-.35.37-.37.21,0,.37.14.37.33l.03,3.98c0,.19-.15.35-.34.37h-.01Z"/>
      <path class="cls-2" d="M95.11,9.17c-.18-.07-.27-.27-.21-.45l1.37-3.73c.07-.18.27-.27.47-.2.19.07.29.28.23.45l-1.41,3.72c-.07.18-.27.27-.45.21Z"/>
      <path class="cls-2" d="M12.64,40.82c-.08.17-.29.24-.46.16l-3.53-1.83c-.17-.09-.24-.31-.15-.5.09-.18.3-.26.47-.17l3.52,1.87c.17.09.24.31.16.47Z"/>
      <path class="cls-2" d="M16.74,33.99c-.11.16-.34.19-.5.09l-3.3-2.24c-.16-.11-.19-.33-.07-.49.12-.17.35-.21.51-.1l3.27,2.27c.16.11.19.32.08.47h0Z"/>
    </g>
    <g>
      <path class="cls-2" d="M107.74,132.47s.49-.3,1.4-.85c.92-.56,2.29-1.33,3.85-2.58,1.58-1.23,3.62-2.54,5.62-4.5,1.03-.95,2.14-1.92,3.26-3,1.05-1.15,2.16-2.37,3.3-3.64,4.45-5.19,8.95-11.92,12.13-19.89,3.22-7.94,5.07-17.05,5.08-26.2,0-9.13-1.86-18.26-5.08-26.19-3.19-7.97-7.69-14.7-12.13-19.89-1.15-1.27-2.26-2.49-3.3-3.64-1.13-1.08-2.25-2.06-3.26-2.99-2-1.96-4.04-3.27-5.62-4.5-1.57-1.25-2.93-2.02-3.85-2.58-.92-.56-1.4-.86-1.4-.86-.35-.21-.47-.65-.28-.98.19-.33.63-.43.98-.22,0,0,.5.3,1.43.87s2.33,1.36,3.92,2.62c1.61,1.25,3.69,2.61,5.73,4.59,1.05.96,2.19,1.96,3.33,3.06,1.07,1.18,2.2,2.42,3.37,3.71,4.53,5.29,9.12,12.16,12.37,20.28,3.29,8.1,5.17,17.39,5.18,26.71,0,9.32-1.9,18.62-5.18,26.71-3.26,8.13-7.84,14.98-12.37,20.28-1.18,1.29-2.31,2.53-3.37,3.71-1.15,1.1-2.29,2.1-3.33,3.06-2.04,1.99-4.12,3.34-5.73,4.59-1.6,1.27-2.99,2.06-3.92,2.62-.94.56-1.43.87-1.43.87-.35.21-.79.12-.98-.21s-.07-.77.28-.98h0s0,0,0,0Z"/>
      <path class="cls-2" d="M104.3,126.66s.44-.27,1.27-.77c.83-.5,2.08-1.19,3.48-2.33,1.43-1.12,3.29-2.3,5.08-4.07.93-.85,1.94-1.74,2.96-2.7.95-1.05,1.95-2.15,2.99-3.3,4.02-4.7,8.09-10.79,10.97-17.98,2.92-7.17,4.59-15.4,4.59-23.68s-1.69-16.51-4.59-23.68c-2.88-7.2-6.95-13.28-10.97-17.98-1.04-1.15-2.04-2.25-2.99-3.3-1.03-.97-2.04-1.85-2.96-2.71-1.8-1.78-3.66-2.96-5.08-4.07-1.41-1.14-2.66-1.83-3.48-2.33-.83-.5-1.27-.77-1.27-.77-.16-.09-.2-.31-.11-.47.1-.17.3-.22.46-.12,0,0,.45.27,1.29.78s2.1,1.21,3.52,2.35c1.44,1.13,3.33,2.33,5.14,4.12.94.86,1.96,1.76,2.99,2.73.96,1.06,1.97,2.17,3.03,3.33,4.06,4.75,8.18,10.9,11.09,18.18,2.95,7.25,4.64,15.57,4.64,23.94s-1.7,16.69-4.64,23.94c-2.92,7.28-7.03,13.43-11.09,18.17-1.06,1.16-2.07,2.28-3.03,3.33-1.03.99-2.06,1.88-2.99,2.73-1.82,1.8-3.71,2.99-5.14,4.12-1.43,1.15-2.69,1.85-3.52,2.35s-1.29.78-1.29.78c-.16.09-.36.04-.46-.12-.1-.17-.05-.38.11-.47v-.04h0Z"/>
      <path class="cls-2" d="M111.38,17.93c-.15-.11-.19-.33-.07-.49l2.34-3.22c.11-.15.34-.18.5-.06s.21.34.09.5l-2.37,3.19c-.12.15-.33.19-.48.07h0Z"/>
      <path class="cls-2" d="M138.14,63.18c-.03-.19.1-.36.29-.39l3.94-.53c.19-.02.37.12.4.32s-.1.38-.29.41l-3.95.49c-.19.03-.37-.11-.4-.3h0Z"/>
      <path class="cls-2" d="M133.37,98.13c.08-.17.3-.25.47-.18l3.66,1.55c.18.08.25.29.16.47s-.3.27-.48.2l-3.65-1.59c-.18-.08-.25-.28-.17-.45h0Z"/>
      <path class="cls-2" d="M130.21,104.5c.1-.16.31-.22.48-.13l3.48,1.93c.17.09.22.31.11.48-.1.18-.33.24-.49.15l-3.46-1.97c-.17-.1-.22-.3-.12-.47h0s0,0,0,0Z"/>
      <path class="cls-2" d="M114.55,123.32c.14-.13.36-.11.48.03l2.56,3.06c.12.15.1.37-.05.51s-.39.12-.51-.03l-2.53-3.07c-.12-.15-.09-.36.05-.49Z"/>
      <path class="cls-2" d="M128.32,36.04c-.1-.16-.05-.38.11-.48l3.34-2.15c.16-.11.38-.05.49.13s.06.4-.1.5l-3.37,2.12c-.16.1-.37.05-.47-.11h0s0,0,0,0Z"/>
      <path class="cls-2" d="M132.17,43.01c-.08-.17,0-.38.16-.46l3.58-1.74c.17-.08.38,0,.47.18s.02.4-.15.48l-3.6,1.7c-.18.08-.38,0-.47-.16h0Z"/>
    </g>
    <g>
      <path class="cls-2" d="M1.4,72.55s.11,2.28.32,6.27c.26,1.98.65,4.37,1.07,7.13.34,1.35.71,2.79,1.09,4.3.2.76.4,1.53.6,2.33.24.79.56,1.56.85,2.38.62,1.6,1.14,3.31,1.91,4.99.8,1.67,1.63,3.38,2.49,5.15.95,1.72,2.05,3.41,3.11,5.18.51.91,1.15,1.72,1.78,2.57.63.84,1.27,1.69,1.91,2.54,5.29,6.73,12.23,12.9,20.15,17.46,7.9,4.6,16.72,7.53,25.21,8.71,8.48,1.16,16.56.84,23.29-.5.85-.1,1.66-.33,2.46-.53.79-.2,1.57-.41,2.33-.6,1.51-.4,2.96-.7,4.25-1.24,1.31-.48,2.54-.93,3.66-1.34.56-.21,1.12-.4,1.62-.62.5-.24.97-.47,1.42-.68,1.81-.87,3.22-1.55,4.18-2.02.49-.22.83-.46,1.07-.59.24-.14.36-.21.36-.21.34-.21.78-.11.97.22s.06.77-.29.99c0,0-.12.08-.37.22-.24.14-.59.38-1.09.61-.99.47-2.43,1.17-4.26,2.06-.46.22-.94.46-1.45.7-.52.22-1.08.4-1.66.63-1.16.43-2.39.88-3.73,1.37-1.32.55-2.8.86-4.33,1.27-.77.2-1.56.4-2.38.61-.81.21-1.64.44-2.51.54-6.86,1.36-15.09,1.7-23.74.51-8.65-1.19-17.65-4.18-25.7-8.87-8.08-4.65-15.16-10.94-20.55-17.8-.66-.88-1.31-1.75-1.95-2.6-.64-.86-1.3-1.7-1.82-2.62-1.08-1.8-2.2-3.53-3.16-5.28-.87-1.81-1.72-3.56-2.54-5.26-.78-1.71-1.32-3.45-1.95-5.09-.29-.82-.61-1.62-.86-2.42-.21-.81-.42-1.6-.62-2.37-.39-1.55-.77-3-1.12-4.38-.43-2.81-.83-5.25-1.09-7.27-.19-4.11-.31-6.43-.31-6.43-.02-.41.27-.75.66-.75s.71.33.73.73h0Z"/>
      <path class="cls-2" d="M8.15,72.48s.1,2.07.28,5.67c.27,1.79.59,3.95.97,6.45.31,1.22.65,2.52,1,3.88.17.68.35,1.39.54,2.11.22.71.51,1.41.77,2.14.56,1.44,1.02,2.99,1.72,4.51.73,1.51,1.47,3.07,2.25,4.66.86,1.55,1.86,3.07,2.81,4.68.45.83,1.04,1.56,1.61,2.32.57.76,1.15,1.53,1.73,2.31,4.78,6.09,11.06,11.67,18.23,15.8,7.15,4.15,15.12,6.81,22.78,7.87,7.67,1.05,15,.76,21.07-.44.77-.08,1.5-.3,2.22-.48s1.42-.37,2.1-.54c1.37-.37,2.69-.63,3.84-1.12,1.18-.44,2.29-.84,3.3-1.21.51-.19,1.01-.35,1.47-.55.45-.22.88-.43,1.29-.63,1.63-.79,2.91-1.4,3.79-1.82.45-.19.75-.41.97-.54s.33-.2.33-.2c.16-.1.36-.04.45.13.1.17.04.38-.11.48,0,0-.11.07-.33.2-.22.12-.53.35-.98.54-.88.43-2.18,1.05-3.82,1.84-.41.2-.85.41-1.3.63-.47.2-.97.36-1.49.55-1.04.38-2.16.79-3.34,1.23-1.18.5-2.51.76-3.88,1.13-.69.18-1.4.36-2.13.55s-1.46.41-2.25.49c-6.14,1.22-13.55,1.51-21.3.45-7.75-1.07-15.8-3.75-23.02-7.95-7.24-4.16-13.59-9.81-18.43-15.96-.59-.79-1.17-1.57-1.75-2.34s-1.18-1.52-1.63-2.35c-.96-1.62-1.97-3.18-2.84-4.74-.78-1.62-1.54-3.18-2.27-4.71-.7-1.53-1.17-3.11-1.74-4.56-.26-.74-.56-1.45-.77-2.17-.19-.72-.37-1.44-.54-2.13-.36-1.38-.69-2.69-1.01-3.92-.37-2.52-.74-4.7-.98-6.52-.18-3.65-.29-5.74-.29-5.74,0-.18.14-.33.33-.34.19,0,.35.15.36.33v.02h0Z"/>
      <path class="cls-2" d="M98.82,133.02c.17-.08.37,0,.45.16l1.63,3.64c.08.18,0,.39-.19.47-.18.09-.4.02-.47-.15l-1.59-3.65c-.07-.18,0-.39.18-.47h0s0,0,0,0Z"/>
      <path class="cls-2" d="M46.2,133.58c.18.07.27.26.2.44l-1.51,3.68c-.07.18-.29.26-.48.19-.19-.07-.29-.27-.21-.45l1.55-3.66c.07-.18.28-.27.46-.2h-.01Z"/>
      <path class="cls-2" d="M18.4,111.87c.11.15.08.37-.07.49l-3.18,2.41c-.15.11-.37.08-.5-.08-.12-.17-.1-.39.05-.51l3.19-2.38c.15-.11.37-.08.48.07h.02Z"/>
      <path class="cls-2" d="M14.45,105.97c.1.17.05.38-.12.48l-3.41,2.06c-.16.1-.38.04-.49-.14s-.06-.4.11-.5l3.43-2.02c.16-.1.38-.04.48.12h0,0Z"/>
      <path class="cls-2" d="M6.01,83.03c.03.19-.1.37-.29.4l-3.92.69c-.19.03-.37-.11-.4-.31s.1-.39.28-.43l3.92-.64c.19-.03.37.1.39.29h.02Z"/>
      <path class="cls-2" d="M74.65,138.56c.19,0,.35.14.36.33l.19,3.97c0,.19-.15.36-.36.37-.21,0-.38-.13-.38-.33l-.14-3.97c0-.19.14-.35.33-.37h0Z"/>
      <path class="cls-2" d="M66.68,138.44c.19,0,.34.17.32.37l-.29,3.97c0,.19-.19.34-.39.33-.21,0-.36-.17-.34-.37l.33-3.96c.02-.19.18-.34.37-.33h0Z"/>
    </g>
  </g>
  <g>
    <path class="cls-1" d="M31.31,106.86h50.33c-.93-1.59-1.49-3.41-1.49-5.39v-5.39H28.63c-1.49,0-2.69,1.21-2.69,2.69v2.69c0,2.97,2.41,5.39,5.39,5.39h-.01Z"/>
    <path class="cls-1" d="M31.31,44.91v45.78h48.84v-32.32c0-5.94,4.84-10.78,10.78-10.78h21.54v-2.69c0-4.46-3.63-8.08-8.08-8.08H39.39c-4.46,0-8.08,3.63-8.08,8.08h0s0,0,0,0Z"/>
    <path class="cls-1" d="M112.47,53h-21.54c-2.97,0-5.39,2.42-5.39,5.39v43.09c0,2.97,2.42,5.39,5.39,5.39h21.54c2.97,0,5.39-2.42,5.39-5.39v-43.09c0-2.97-2.42-5.39-5.39-5.39h0ZM101.7,61.08c1.49,0,2.69,1.21,2.69,2.69s-1.21,2.69-2.69,2.69-2.69-1.21-2.69-2.69,1.21-2.69,2.69-2.69ZM104.4,98.77h-5.39c-1.49,0-2.69-1.21-2.69-2.69s1.21-2.69,2.69-2.69h5.39c1.49,0,2.69,1.21,2.69,2.69s-1.21,2.69-2.69,2.69Z"/>
  </g>
</svg>