<?xml version="1.0" encoding="UTF-8"?>
<svg id="Layer_1" data-name="Layer 1" xmlns="http://www.w3.org/2000/svg" viewBox="0 0 144 144">
  <defs>
    <style>
      .cls-1 {
        fill: #00c93d;
      }

      .cls-2 {
        fill: #606060;
      }
    </style>
  </defs>
  <g id="Layer_2-2" data-name="Layer 2-2">
    <g>
      <g>
        <path class="cls-1" d="M106.01,59.08v-1.96c2.49-.58,4.38-2.82,4.38-5.49,0-3.09-2.54-5.63-5.65-5.63s-5.63,2.54-5.63,5.63c0,2.57,1.72,4.71,4.07,5.39v2.06c0,1.4-1.15,2.55-2.55,2.55h-15.77v2.83h15.77c2.96,0,5.39-2.42,5.39-5.39h0,0Z"/>
        <path class="cls-1" d="M95.25,45.87v-1.96c2.49-.58,4.38-2.82,4.38-5.49,0-3.09-2.54-5.62-5.65-5.62s-5.63,2.53-5.63,5.62c0,2.57,1.72,4.71,4.07,5.39v2.06c0,1.4-1.15,2.55-2.55,2.55h-5.01v2.83h5.01c2.96,0,5.39-2.42,5.39-5.39h0Z"/>
        <path class="cls-1" d="M106.01,94.55v-1.96c0-2.96-2.42-5.37-5.37-5.37h-15.77v2.83h15.77c1.4,0,2.55,1.15,2.55,2.55v2.06c-2.35.69-4.07,2.83-4.07,5.39,0,3.09,2.54,5.63,5.63,5.63s5.65-2.54,5.65-5.63c-.03-2.69-1.91-4.92-4.4-5.5h0Z"/>
        <path class="cls-1" d="M92.87,103.99v-1.96c0-2.98-2.41-5.37-5.37-5.37h-2.63v2.83h2.63c1.4,0,2.55,1.14,2.55,2.55v2.04c-2.34.7-4.06,2.83-4.06,5.4,0,3.09,2.53,5.62,5.62,5.62s5.65-2.53,5.65-5.62c-.03-2.69-1.9-4.92-4.4-5.5h0Z"/>
        <path class="cls-1" d="M104.58,81.47c3.11,0,5.65-2.54,5.65-5.65s-2.54-5.62-5.65-5.62c-2.6,0-4.8,1.8-5.42,4.22h-14.29v2.83h14.29c.63,2.42,2.8,4.22,5.42,4.22h0Z"/>
        <path class="cls-1" d="M69.69,28.9c-6.74,0-12.22,5.47-12.22,12.34,0,.7.12,1.4.23,2.09-1.28-.47-2.67-.7-4.19-.7-6.74,0-12.22,5.47-12.22,12.34,0,.73.07,1.43.21,2.13.02.02.05.03.06.05,2.07,2.19,4.89,3.39,7.93,3.39.79,0,1.42.63,1.42,1.42s-.63,1.42-1.42,1.42c-3.15,0-6.12-1.05-8.54-2.96-4.26,1.9-7.21,6.16-7.21,11.11,0,5.71,3.96,10.59,9.31,11.87-1.17,1.87-1.75,3.96-1.75,6.28,0,6.63,5.47,12.22,12.22,12.22.61,0,1.23-.06,1.84-.15,1.42-4.29,4.84-7.59,9.21-8.8-1.74-1.67-3.02-3.8-3.68-6.19-1.27,1.05-2.82,1.81-4.57,2.14-.08.02-.18.03-.26.03-.67,0-1.26-.47-1.39-1.15-.15-.77.35-1.5,1.13-1.67,2-.38,3.63-1.55,4.69-3.11.06-.22.16-.41.32-.57.77-1.4,1.11-3.06.82-4.8-.13-.77.39-1.5,1.17-1.64s1.5.39,1.64,1.17c.41,2.42-.05,4.76-1.14,6.73.39,5.65,5.07,10,10.85,10,.79,0,1.42.63,1.42,1.42s-.63,1.42-1.42,1.42c-2.25,0-4.37-.52-6.23-1.46-5.14.18-9.27,3.87-10.21,8.77,1.02,5.73,6,10.08,12.01,10.08,6.74,0,12.34-5.47,12.34-12.22v-31.18c-.35.03-.7.07-1.04.07-1.87,0-3.71-.5-5.37-1.44-1.96-1.14-3.47-2.83-4.4-4.88-1.64.95-3.47,1.44-5.4,1.44-.19,0-.38,0-.57-.02-.79-.05-1.39-.7-1.34-1.49s.72-1.37,1.49-1.34c2.12.1,4.16-.61,5.74-2.01,1.59-1.42,2.53-3.39,2.63-5.53.05-.79.73-1.39,1.49-1.34.77.05,1.39.7,1.34,1.49-.13,2.66-1.21,5.1-3.02,6.96.63,1.8,1.83,3.3,3.47,4.25,1.52.87,3.26,1.2,4.99.96v-26.57c-.03-6.88-5.62-12.34-12.36-12.34h0Z"/>
      </g>
      <g id="Layer_1-2" data-name="Layer 1-2">
        <g>
          <g>
            <path class="cls-2" d="M106.74,10.44s-.12-.07-.35-.22c-.24-.14-.58-.38-1.07-.59-.97-.46-2.39-1.15-4.2-2.02-.45-.22-.93-.45-1.42-.68-.51-.22-1.07-.39-1.63-.61-1.14-.41-2.36-.87-3.67-1.34-1.29-.54-2.76-.84-4.27-1.24-.76-.2-1.54-.39-2.33-.59-.8-.21-1.61-.43-2.46-.53-6.74-1.33-14.85-1.66-23.35-.49-8.5,1.17-17.35,4.12-25.26,8.73-7.94,4.57-14.9,10.76-20.2,17.5-.64.86-1.28,1.71-1.92,2.56s-1.27,1.67-1.79,2.57c-1.06,1.78-2.15,3.48-3.11,5.19-.86,1.78-1.69,3.49-2.49,5.16-.77,1.69-1.29,3.41-1.9,5-.29.81-.6,1.59-.85,2.37-.21.8-.41,1.57-.6,2.33-.38,1.52-.75,2.96-1.1,4.31-.41,2.76-.81,5.16-1.07,7.15-.21,4-.31,6.29-.31,6.29-.02.41-.35.73-.73.73s-.68-.34-.66-.75c0,0,.12-2.33.33-6.41.27-2.02.66-4.47,1.09-7.28.35-1.38.72-2.85,1.11-4.39.2-.77.41-1.57.61-2.38.25-.8.56-1.6.86-2.42.63-1.63,1.17-3.38,1.94-5.1.82-1.7,1.67-3.45,2.54-5.26.97-1.75,2.08-3.49,3.17-5.29.51-.92,1.17-1.76,1.82-2.62.64-.86,1.29-1.73,1.94-2.61,5.4-6.88,12.5-13.19,20.59-17.85C44.1,4.92,53.14,1.92,61.8.72c8.67-1.18,16.92-.85,23.8.5.87.1,1.7.34,2.51.54s1.61.41,2.38.61c1.54.41,3.03.72,4.34,1.26,1.34.49,2.59.95,3.74,1.37.57.22,1.14.39,1.66.62.51.25,1,.48,1.45.69,1.83.89,3.29,1.59,4.28,2.06.5.22.85.46,1.09.61.25.15.37.22.37.22.35.22.48.65.3.99-.2.33-.63.42-.98.22h.02s0,.02,0,.02h0Z"/>
            <path class="cls-2" d="M103.41,16.33s-.11-.07-.33-.2c-.22-.12-.51-.35-.97-.54-.87-.41-2.15-1.04-3.79-1.82-.41-.2-.84-.41-1.28-.62-.45-.2-.96-.35-1.47-.54-1.03-.38-2.13-.78-3.32-1.21-1.17-.49-2.49-.75-3.86-1.13-.68-.18-1.38-.35-2.1-.54-.72-.19-1.45-.41-2.22-.48-6.09-1.21-13.44-1.49-21.11-.45-7.68,1.07-15.68,3.72-22.83,7.88-7.18,4.14-13.48,9.73-18.27,15.83-.58.78-1.15,1.55-1.73,2.32s-1.17,1.5-1.62,2.32c-.96,1.61-1.94,3.15-2.81,4.7-.77,1.6-1.52,3.16-2.25,4.67-.7,1.52-1.17,3.08-1.72,4.52-.26.73-.55,1.43-.77,2.14-.19.72-.37,1.42-.53,2.1-.35,1.37-.68,2.68-1,3.89-.38,2.5-.7,4.67-.97,6.47-.18,3.62-.29,5.7-.29,5.7,0,.19-.17.33-.37.33s-.34-.15-.34-.34c0,0,.11-2.09.29-5.76.24-1.82.61-4.01.98-6.52.31-1.24.65-2.55,1.01-3.94.18-.69.35-1.4.54-2.13.22-.72.51-1.43.78-2.17.57-1.46,1.04-3.03,1.74-4.57.74-1.52,1.49-3.1,2.28-4.72.87-1.57,1.89-3.12,2.84-4.74.45-.83,1.06-1.58,1.63-2.35.58-.77,1.15-1.55,1.75-2.34,4.85-6.17,11.21-11.83,18.47-16,7.24-4.21,15.32-6.9,23.08-7.97,7.77-1.07,15.19-.77,21.35.45.78.09,1.52.31,2.25.49s1.44.37,2.13.55c1.38.37,2.72.63,3.9,1.14,1.2.43,2.32.85,3.36,1.22.51.2,1.02.37,1.49.56.45.22.89.42,1.3.63,1.65.79,2.94,1.41,3.83,1.85.45.2.76.41.98.54s.33.2.33.2c.16.09.21.31.11.48s-.3.23-.45.13v-.02s0,0,0,0h0Z"/>
            <path class="cls-2" d="M5.41,64.71c-.03.19-.21.33-.39.31l-3.97-.41c-.19-.02-.31-.2-.29-.41.03-.21.21-.35.39-.33l3.97.45c.19.02.31.19.3.38h0s0,0,0,0Z"/>
            <path class="cls-2" d="M31.35,18.81c-.16.12-.38.09-.49-.07l-2.44-3.16c-.12-.15-.08-.38.09-.49s.39-.1.5.05l2.41,3.18c.12.15.09.37-.07.48h0Z"/>
            <path class="cls-2" d="M64.07,5.47c-.19.03-.37-.11-.38-.3l-.49-3.96c-.02-.2.12-.38.33-.41s.38.1.41.29l.45,3.96c.02.2-.12.37-.31.41h0s0,0,0,0Z"/>
            <path class="cls-2" d="M71.18,4.99c-.19,0-.35-.14-.35-.33l-.07-3.99c0-.19.16-.35.37-.37.21,0,.38.14.38.33l.03,3.99c0,.19-.15.35-.35.37h0Z"/>
            <path class="cls-2" d="M95.34,9.19c-.18-.07-.28-.27-.21-.45l1.37-3.74c.07-.18.28-.28.46-.2.19.07.3.28.23.45l-1.41,3.73c-.07.18-.27.27-.45.21h0Z"/>
            <path class="cls-2" d="M12.67,40.92c-.08.18-.29.25-.45.16l-3.55-1.83c-.17-.09-.24-.31-.15-.49s.31-.26.46-.17l3.52,1.87c.17.09.24.31.16.48h0Z"/>
            <path class="cls-2" d="M16.77,34.08c-.12.16-.34.19-.49.09l-3.3-2.24c-.16-.11-.19-.33-.07-.49.12-.17.35-.21.5-.1l3.28,2.27c.16.11.19.33.08.48Z"/>
          </g>
          <g>
            <path class="cls-2" d="M107.99,132.79s.48-.3,1.4-.85c.92-.56,2.29-1.33,3.86-2.59,1.58-1.24,3.63-2.56,5.64-4.51,1.03-.95,2.14-1.93,3.28-3.01,1.06-1.15,2.16-2.37,3.32-3.64,4.46-5.2,8.96-11.96,12.16-19.93,3.23-7.96,5.08-17.1,5.09-26.26,0-9.16-1.87-18.3-5.09-26.26-3.2-7.99-7.7-14.73-12.16-19.93-1.15-1.26-2.26-2.49-3.32-3.64-1.14-1.07-2.25-2.06-3.28-3-2-1.96-4.06-3.29-5.64-4.51-1.57-1.25-2.94-2.02-3.86-2.58-.92-.56-1.4-.86-1.4-.86-.35-.21-.48-.65-.28-.98.19-.34.63-.42.99-.22,0,0,.49.31,1.43.88s2.34,1.36,3.94,2.64c1.61,1.25,3.7,2.61,5.75,4.6,1.05.96,2.19,1.96,3.34,3.06,1.07,1.18,2.2,2.42,3.38,3.72,4.54,5.3,9.14,12.18,12.4,20.33,3.3,8.11,5.19,17.43,5.19,26.77s-1.9,18.66-5.19,26.77c-3.27,8.14-7.86,15.03-12.4,20.33-1.17,1.29-2.31,2.54-3.38,3.71-1.14,1.11-2.29,2.1-3.34,3.06-2.03,2-4.14,3.35-5.75,4.6-1.6,1.27-3,2.06-3.94,2.64-.94.56-1.43.87-1.43.87-.35.21-.79.12-.99-.22-.19-.34-.07-.77.28-.99h0s0,0,0,0Z"/>
            <path class="cls-2" d="M104.54,126.96s.45-.27,1.27-.77,2.08-1.2,3.49-2.33c1.43-1.11,3.3-2.3,5.09-4.09.93-.85,1.94-1.74,2.97-2.72.95-1.05,1.96-2.15,2.99-3.3,4.03-4.71,8.11-10.81,11-18.03,2.92-7.19,4.6-15.44,4.61-23.74,0-8.3-1.69-16.55-4.61-23.74-2.89-7.21-6.97-13.32-11-18.03-1.05-1.15-2.04-2.25-2.99-3.31-1.03-.98-2.04-1.86-2.97-2.72-1.8-1.78-3.67-2.96-5.09-4.09-1.41-1.14-2.66-1.83-3.49-2.34-.83-.5-1.27-.77-1.27-.77-.16-.09-.21-.31-.11-.48s.31-.22.46-.13c0,0,.45.27,1.28.78.84.51,2.1,1.21,3.53,2.37,1.44,1.13,3.34,2.33,5.15,4.13.94.87,1.96,1.76,3,2.74.97,1.07,1.97,2.17,3.03,3.34,4.08,4.77,8.19,10.93,11.11,18.22,2.95,7.27,4.65,15.61,4.66,24,0,8.39-1.71,16.73-4.66,24-2.92,7.3-7.04,13.45-11.11,18.21-1.06,1.17-2.06,2.28-3.03,3.34-1.04.99-2.06,1.88-3,2.74-1.82,1.8-3.71,3-5.15,4.13-1.43,1.15-2.69,1.86-3.53,2.36-.84.51-1.28.78-1.28.78-.16.1-.37.04-.46-.13s-.05-.38.11-.48v.02h0Z"/>
            <path class="cls-2" d="M111.63,17.98c-.16-.12-.19-.34-.07-.49l2.34-3.23c.11-.16.34-.18.5-.06.17.12.21.35.09.5l-2.38,3.2c-.12.16-.34.19-.48.07h0s0,.01,0,.01Z"/>
            <path class="cls-2" d="M138.46,63.34c-.03-.19.1-.37.3-.38l3.96-.53c.19-.02.37.12.39.33.03.21-.1.38-.29.41l-3.96.49c-.19.03-.37-.11-.39-.31h0Z"/>
            <path class="cls-2" d="M133.69,98.37c.08-.17.3-.26.46-.18l3.67,1.55c.18.08.25.29.16.48s-.31.27-.48.2l-3.66-1.59c-.18-.08-.25-.28-.17-.45h.02Z"/>
            <path class="cls-2" d="M130.52,104.75c.1-.17.31-.22.48-.13l3.48,1.93c.17.09.22.31.11.48s-.33.24-.49.15l-3.46-1.97c-.17-.1-.22-.31-.12-.46h0Z"/>
            <path class="cls-2" d="M114.82,123.61c.14-.13.35-.12.48.03l2.57,3.06c.12.15.1.38-.06.51-.15.15-.38.12-.5-.03l-2.54-3.09c-.12-.15-.09-.35.05-.48h0Z"/>
            <path class="cls-2" d="M128.62,36.13c-.1-.17-.05-.38.11-.48l3.36-2.15c.16-.11.38-.05.48.13.11.18.06.39-.1.5l-3.38,2.12c-.16.1-.38.05-.48-.12h0Z"/>
            <path class="cls-2" d="M132.48,43.11c-.08-.17,0-.38.16-.46l3.59-1.75c.17-.08.38,0,.48.19.09.18.02.39-.16.48l-3.6,1.71c-.18.08-.38,0-.46-.17h0Z"/>
          </g>
          <g>
            <path class="cls-2" d="M1.39,72.73s.12,2.29.31,6.29c.26,1.98.65,4.38,1.07,7.15.35,1.35.71,2.79,1.1,4.31.2.76.39,1.54.6,2.33.24.79.56,1.57.85,2.38.61,1.6,1.14,3.32,1.9,5,.81,1.67,1.64,3.4,2.49,5.16.96,1.72,2.05,3.42,3.11,5.19.5.91,1.15,1.73,1.79,2.57.63.84,1.27,1.7,1.92,2.56,5.3,6.74,12.26,12.93,20.2,17.5,7.92,4.61,16.77,7.54,25.26,8.73,8.5,1.17,16.6.84,23.35-.49.86-.1,1.67-.33,2.46-.53.79-.21,1.57-.41,2.33-.6,1.51-.41,2.97-.7,4.27-1.24,1.31-.48,2.54-.93,3.67-1.34.56-.22,1.11-.39,1.63-.61.49-.24.98-.46,1.42-.68,1.81-.87,3.23-1.55,4.2-2.02.49-.22.83-.45,1.07-.59s.35-.22.35-.22c.35-.21.78-.11.98.22.19.33.06.77-.3.99,0,0-.12.08-.37.22s-.59.38-1.09.61c-.99.48-2.44,1.17-4.28,2.06-.46.22-.95.45-1.45.7-.52.22-1.09.41-1.66.62-1.15.42-2.41.88-3.74,1.36-1.31.55-2.8.86-4.34,1.27-.78.2-1.57.41-2.38.61-.81.21-1.64.45-2.51.54-6.87,1.36-15.13,1.7-23.8.5-8.67-1.2-17.69-4.2-25.77-8.9-8.1-4.66-15.18-10.97-20.59-17.85-.66-.88-1.3-1.75-1.94-2.61-.64-.87-1.3-1.7-1.82-2.62-1.09-1.81-2.2-3.55-3.17-5.29-.87-1.81-1.72-3.56-2.54-5.27-.78-1.72-1.32-3.46-1.94-5.1-.3-.82-.61-1.62-.86-2.42-.21-.81-.41-1.6-.61-2.38-.39-1.55-.77-3.01-1.11-4.39-.42-2.81-.83-5.26-1.09-7.28C.12,75.07,0,72.73,0,72.73c-.02-.41.28-.75.66-.75s.71.34.73.73h0s0,.01,0,.01Z"/>
            <path class="cls-2" d="M8.16,72.66s.11,2.07.29,5.69c.27,1.8.59,3.97.97,6.47.31,1.22.64,2.52,1,3.89.17.68.35,1.39.53,2.1.22.71.51,1.41.77,2.14.56,1.44,1.03,3,1.72,4.52.73,1.51,1.48,3.07,2.25,4.67.87,1.55,1.87,3.09,2.81,4.69.45.83,1.05,1.56,1.62,2.33.57.76,1.14,1.53,1.73,2.31,4.8,6.1,11.1,11.7,18.27,15.83,7.17,4.17,15.15,6.82,22.83,7.88,7.69,1.05,15.04.76,21.11-.45.77-.08,1.51-.3,2.22-.48.72-.19,1.42-.37,2.1-.54,1.36-.37,2.69-.63,3.86-1.11,1.18-.43,2.29-.84,3.32-1.21.51-.2,1.02-.35,1.47-.54.45-.22.88-.43,1.28-.62,1.64-.79,2.91-1.4,3.79-1.83.45-.19.75-.41.97-.53.22-.13.33-.2.33-.2.16-.1.35-.04.45.13s.04.38-.11.48c0,0-.11.07-.33.2-.22.13-.52.35-.98.54-.89.42-2.18,1.05-3.83,1.85-.41.2-.85.41-1.3.63-.46.2-.97.37-1.49.55-1.04.38-2.16.79-3.36,1.24-1.17.49-2.52.76-3.9,1.14-.69.18-1.4.37-2.13.54-.73.19-1.46.41-2.25.48-6.16,1.22-13.59,1.51-21.35.45-7.77-1.07-15.84-3.76-23.08-7.97-7.26-4.18-13.62-9.83-18.47-16-.59-.79-1.17-1.57-1.75-2.34-.58-.77-1.17-1.52-1.63-2.35-.97-1.63-1.97-3.18-2.84-4.75-.78-1.62-1.54-3.2-2.28-4.72-.7-1.53-1.17-3.11-1.74-4.57-.26-.74-.55-1.45-.78-2.17-.19-.72-.37-1.44-.54-2.13-.35-1.38-.69-2.7-1.01-3.94-.37-2.53-.74-4.72-.98-6.54-.19-3.66-.29-5.76-.29-5.76,0-.19.14-.34.34-.34s.35.15.37.34h0s0,0,0,0h0Z"/>
            <path class="cls-2" d="M99.05,133.34c.17-.08.38,0,.45.17l1.63,3.64c.08.18,0,.38-.2.48-.19.09-.39.02-.48-.16l-1.59-3.66c-.07-.18,0-.38.18-.46h0Z"/>
            <path class="cls-2" d="M46.3,133.9c.18.07.27.27.2.43l-1.51,3.69c-.07.18-.29.27-.48.19-.19-.07-.29-.27-.22-.45l1.55-3.67c.07-.18.29-.27.46-.2h0Z"/>
            <path class="cls-2" d="M18.44,112.15c.12.16.09.38-.07.48l-3.18,2.41c-.16.12-.38.08-.49-.09s-.1-.39.06-.51l3.21-2.38c.16-.11.38-.08.48.07v.02h-.01Z"/>
            <path class="cls-2" d="M14.47,106.23c.1.17.05.38-.12.48l-3.42,2.06c-.16.1-.38.04-.49-.14s-.06-.39.11-.49l3.44-2.02c.17-.1.38-.04.48.12h0Z"/>
            <path class="cls-2" d="M6.01,83.23c.03.19-.1.37-.29.41l-3.93.69c-.19.03-.37-.11-.39-.31-.03-.21.1-.39.29-.42l3.94-.64c.19-.03.37.1.39.29h0s0-.01,0-.01Z"/>
            <path class="cls-2" d="M74.82,138.9c.19,0,.35.14.37.33l.19,3.99c0,.19-.15.35-.35.37-.21,0-.38-.14-.38-.33l-.14-3.99c0-.2.14-.35.34-.37h-.01Z"/>
            <path class="cls-2" d="M66.84,138.78c.19,0,.34.17.33.37l-.29,3.98c0,.19-.19.34-.39.33s-.35-.17-.35-.37l.33-3.98c.02-.19.19-.35.38-.34h0s0,0,0,0h0Z"/>
          </g>
        </g>
      </g>
    </g>
  </g>
</svg>