<?xml version="1.0" encoding="UTF-8"?>
<svg id="Layer_2" data-name="Layer 2" xmlns="http://www.w3.org/2000/svg" viewBox="0 0 330.6 255.47">
  <g id="Layer_1-2" data-name="Layer 1">
    <g>
      <g>
        <g>
          <path d="M324.49,53.73H116.16c-2.46,0-4.44-1.99-4.44-4.44s1.99-4.44,4.44-4.44h208.33c2.45,0,4.44,1.99,4.44,4.44s-1.99,4.44-4.44,4.44Z"/>
          <path d="M324.49,55.4H116.16c-3.37,0-6.11-2.74-6.11-6.11s2.74-6.11,6.11-6.11h208.33c3.37,0,6.11,2.74,6.11,6.11s-2.74,6.11-6.11,6.11ZM116.16,46.51c-1.53,0-2.78,1.25-2.78,2.78s1.24,2.78,2.78,2.78h208.33c1.53,0,2.78-1.24,2.78-2.78s-1.25-2.78-2.78-2.78H116.16Z"/>
        </g>
        <g>
          <path d="M83.95,53.73H6.11c-2.46,0-4.44-1.99-4.44-4.44s1.99-4.44,4.44-4.44h77.84c2.46,0,4.44,1.99,4.44,4.44s-1.99,4.44-4.44,4.44Z"/>
          <path d="M83.95,55.4H6.11c-3.37,0-6.11-2.74-6.11-6.11s2.74-6.11,6.11-6.11h77.84c3.37,0,6.11,2.74,6.11,6.11s-2.74,6.11-6.11,6.11ZM6.11,46.51c-1.53,0-2.78,1.25-2.78,2.78s1.25,2.78,2.78,2.78h77.84c1.53,0,2.78-1.24,2.78-2.78s-1.25-2.78-2.78-2.78H6.11Z"/>
        </g>
        <g>
          <path d="M324.49,134.05h-81.72c-2.45,0-4.44-1.99-4.44-4.44s1.99-4.44,4.44-4.44h81.72c2.45,0,4.44,1.99,4.44,4.44s-1.99,4.44-4.44,4.44Z"/>
          <path d="M324.49,135.72h-81.72c-3.37,0-6.11-2.74-6.11-6.11s2.74-6.11,6.11-6.11h81.72c3.37,0,6.11,2.74,6.11,6.11s-2.74,6.11-6.11,6.11ZM242.77,126.83c-1.53,0-2.78,1.24-2.78,2.78s1.25,2.78,2.78,2.78h81.72c1.53,0,2.78-1.25,2.78-2.78s-1.25-2.78-2.78-2.78h-81.72Z"/>
        </g>
        <g>
          <path d="M220.33,134.05H6.11c-2.46,0-4.44-1.99-4.44-4.44s1.99-4.44,4.44-4.44h214.22c2.45,0,4.44,1.99,4.44,4.44s-1.99,4.44-4.44,4.44Z"/>
          <path d="M220.33,135.72H6.11c-3.37,0-6.11-2.74-6.11-6.11s2.74-6.11,6.11-6.11h214.22c3.37,0,6.11,2.74,6.11,6.11s-2.74,6.11-6.11,6.11ZM6.11,126.83c-1.53,0-2.78,1.24-2.78,2.78s1.25,2.78,2.78,2.78h214.22c1.53,0,2.77-1.25,2.77-2.78s-1.24-2.78-2.77-2.78H6.11Z"/>
        </g>
        <g>
          <path d="M324.49,214.37H106.16c-2.46,0-4.44-1.99-4.44-4.44s1.99-4.44,4.44-4.44h218.33c2.45,0,4.44,1.99,4.44,4.44s-1.99,4.44-4.44,4.44Z"/>
          <path d="M324.49,216.04H106.16c-3.37,0-6.11-2.74-6.11-6.11s2.74-6.11,6.11-6.11h218.33c3.37,0,6.11,2.74,6.11,6.11s-2.74,6.11-6.11,6.11ZM106.16,207.16c-1.53,0-2.78,1.25-2.78,2.78s1.24,2.78,2.78,2.78h218.33c1.53,0,2.78-1.24,2.78-2.78s-1.25-2.78-2.78-2.78H106.16Z"/>
        </g>
        <g>
          <path d="M83.95,214.37H6.11c-2.46,0-4.44-1.99-4.44-4.44s1.99-4.44,4.44-4.44h77.84c2.46,0,4.44,1.99,4.44,4.44s-1.99,4.44-4.44,4.44Z"/>
          <path d="M83.95,216.04H6.11c-3.37,0-6.11-2.74-6.11-6.11s2.74-6.11,6.11-6.11h77.84c3.37,0,6.11,2.74,6.11,6.11s-2.74,6.11-6.11,6.11ZM6.11,207.16c-1.53,0-2.78,1.25-2.78,2.78s1.25,2.78,2.78,2.78h77.84c1.53,0,2.78-1.24,2.78-2.78s-1.25-2.78-2.78-2.78H6.11Z"/>
        </g>
      </g>
      <g>
        <path d="M83.95,89.41c-2.45,0-4.44-1.99-4.44-4.44V6.11c0-2.45,1.99-4.44,4.44-4.44s4.44,1.99,4.44,4.44v78.86c0,2.45-1.99,4.44-4.44,4.44Z"/>
        <path d="M83.95,91.07c-3.37,0-6.11-2.74-6.11-6.11V6.11c0-3.37,2.74-6.11,6.11-6.11s6.11,2.74,6.11,6.11v78.86c0,3.37-2.74,6.11-6.11,6.11ZM83.95,3.33c-1.53,0-2.78,1.25-2.78,2.78v78.86c0,1.53,1.25,2.78,2.78,2.78s2.78-1.25,2.78-2.78V6.11c0-1.53-1.25-2.78-2.78-2.78Z"/>
      </g>
      <g>
        <path d="M83.95,253.8c-2.45,0-4.44-1.99-4.44-4.44v-78.86c0-2.46,1.99-4.44,4.44-4.44s4.44,1.99,4.44,4.44v78.86c0,2.45-1.99,4.44-4.44,4.44Z"/>
        <path d="M83.95,255.47c-3.37,0-6.11-2.74-6.11-6.11v-78.85c0-3.37,2.74-6.11,6.11-6.11s6.11,2.74,6.11,6.11v78.85c0,3.37-2.74,6.11-6.11,6.11ZM83.95,167.73c-1.53,0-2.78,1.25-2.78,2.78v78.85c0,1.53,1.25,2.78,2.78,2.78s2.78-1.24,2.78-2.78v-78.85c0-1.53-1.25-2.78-2.78-2.78Z"/>
      </g>
      <g>
        <path d="M242.77,169.37c-2.45,0-4.44-1.99-4.44-4.44v-79.97c0-2.46,1.99-4.44,4.44-4.44s4.44,1.99,4.44,4.44v79.97c0,2.46-1.99,4.44-4.44,4.44Z"/>
        <path d="M242.77,171.04c-3.37,0-6.11-2.74-6.11-6.11v-79.97c0-3.37,2.74-6.11,6.11-6.11s6.11,2.74,6.11,6.11v79.97c0,3.37-2.74,6.11-6.11,6.11ZM242.77,82.19c-1.53,0-2.78,1.24-2.78,2.78v79.97c0,1.53,1.25,2.78,2.78,2.78s2.78-1.24,2.78-2.78v-79.97c0-1.53-1.25-2.78-2.78-2.78Z"/>
      </g>
    </g>
  </g>
</svg>