<?xml version="1.0" encoding="UTF-8"?>
<svg id="Layer_2" data-name="Layer 2" xmlns="http://www.w3.org/2000/svg" viewBox="0 0 299.39 299.39">
  <g id="Layer_1-2" data-name="Layer 1">
    <g>
      <path d="M168.41,299.39h-37.42c-8.73,0-18.71-7.48-18.71-22.45v-26.2c0-12.47-6.24-23.7-16.22-32.43-22.45-17.46-33.68-42.41-33.68-69.86,1.25-47.4,39.92-84.83,86.07-86.07,23.7,0,46.16,8.73,62.37,24.95,16.22,16.22,26.2,38.67,26.2,62.37,0,26.2-11.23,51.15-32.43,67.36-11.23,8.73-17.46,22.45-17.46,34.93v28.69c0,9.98-8.73,18.71-18.71,18.71h0ZM149.69,74.85c-39.92,0-73.6,33.68-74.85,73.6,0,23.7,9.98,46.16,28.69,59.88,13.72,11.23,21.21,26.2,21.21,42.41v26.2c0,2.49,0,9.98,6.24,9.98h37.42c3.74,0,6.24-2.49,6.24-6.24v-28.69c0-16.22,8.73-33.68,22.45-44.91,17.46-13.72,27.44-34.93,27.44-57.38,0-19.96-7.48-38.67-22.45-53.64-13.72-13.72-32.43-21.21-52.39-21.21h0Z"/>
      <path d="M180.88,261.97h-62.37c-3.74,0-6.24-2.49-6.24-6.24s2.49-6.24,6.24-6.24h62.37c3.74,0,6.24,2.49,6.24,6.24s-2.49,6.24-6.24,6.24Z"/>
      <path d="M149.69,37.42c-3.74,0-6.24-2.49-6.24-6.24V6.24c0-3.74,2.49-6.24,6.24-6.24s6.24,2.49,6.24,6.24v24.95c0,3.74-2.49,6.24-6.24,6.24Z"/>
      <path d="M233.27,72.35c-1.25,0-3.74,0-4.99-1.25-2.49-2.49-2.49-6.24,0-8.73l17.46-17.46c2.49-2.49,6.24-2.49,8.73,0,2.49,2.49,2.49,6.24,0,8.73l-17.46,17.46s-2.49,1.25-3.74,1.25h0Z"/>
      <path d="M293.15,155.93h-24.95c-3.74,0-6.24-2.49-6.24-6.24s2.49-6.24,6.24-6.24h24.95c3.74,0,6.24,2.49,6.24,6.24s-2.49,6.24-6.24,6.24Z"/>
      <path d="M250.74,256.98c-1.25,0-3.74,0-4.99-1.25l-17.46-17.46c-2.49-2.49-2.49-6.24,0-8.73,2.49-2.49,6.24-2.49,8.73,0l17.46,17.46c2.49,2.49,2.49,6.24,0,8.73,0,1.25-1.25,1.25-3.74,1.25h0Z"/>
      <path d="M48.65,256.98c-1.25,0-3.74,0-4.99-1.25-2.49-2.49-2.49-6.24,0-8.73l17.46-17.46c2.49-2.49,6.24-2.49,8.73,0,2.49,2.49,2.49,6.24,0,8.73l-17.46,17.46c-1.25,1.25-2.49,1.25-3.74,1.25Z"/>
      <path d="M31.19,155.93H6.24c-3.74,0-6.24-2.49-6.24-6.24s2.49-6.24,6.24-6.24h24.95c3.74,0,6.24,2.49,6.24,6.24s-2.49,6.24-6.24,6.24Z"/>
      <path d="M66.12,72.35c-1.25,0-3.74,0-4.99-1.25l-17.46-18.71c-2.49-2.49-2.49-6.24,0-8.73,2.49-2.49,6.24-2.49,8.73,0l17.46,17.46c2.49,2.49,2.49,6.24,0,8.73-1.25,1.25-2.49,2.49-3.74,2.49h0Z"/>
    </g>
  </g>
</svg>