<?xml version="1.0" encoding="UTF-8"?>
<svg id="Layer_2" data-name="Layer 2" xmlns="http://www.w3.org/2000/svg" viewBox="0 0 274.63 278.08">
  <g id="Layer_1-2" data-name="Layer 1">
    <g>
      <g>
        <path d="M169.84,276.65h-65.05c-2.1,0-3.8-1.7-3.8-3.8s1.7-3.8,3.8-3.8h65.05c2.1,0,3.8,1.7,3.8,3.8s-1.7,3.8-3.8,3.8Z"/>
        <path d="M169.84,278.08h-65.05c-2.88,0-5.23-2.35-5.23-5.23s2.35-5.23,5.23-5.23h65.05c2.88,0,5.23,2.35,5.23,5.23s-2.35,5.23-5.23,5.23ZM104.79,270.48c-1.31,0-2.38,1.06-2.38,2.38s1.07,2.38,2.38,2.38h65.05c1.31,0,2.38-1.07,2.38-2.38s-1.07-2.38-2.38-2.38h-65.05Z"/>
      </g>
      <g>
        <path d="M169.84,243.2h-65.05c-2.1,0-3.8-1.7-3.8-3.8s1.7-3.8,3.8-3.8h65.05c2.1,0,3.8,1.7,3.8,3.8s-1.7,3.8-3.8,3.8Z"/>
        <path d="M169.84,244.62h-65.05c-2.88,0-5.23-2.35-5.23-5.23s2.35-5.23,5.23-5.23h65.05c2.88,0,5.23,2.35,5.23,5.23s-2.35,5.23-5.23,5.23ZM104.79,237.02c-1.31,0-2.38,1.07-2.38,2.38s1.07,2.38,2.38,2.38h65.05c1.31,0,2.38-1.07,2.38-2.38s-1.07-2.38-2.38-2.38h-65.05Z"/>
      </g>
      <g>
        <path d="M169.84,209.74h-65.05c-2.1,0-3.8-1.7-3.8-3.8s1.7-3.8,3.8-3.8h65.05c2.1,0,3.8,1.7,3.8,3.8s-1.7,3.8-3.8,3.8Z"/>
        <path d="M169.84,211.17h-65.05c-2.88,0-5.23-2.35-5.23-5.23s2.35-5.23,5.23-5.23h65.05c2.88,0,5.23,2.35,5.23,5.23s-2.35,5.23-5.23,5.23ZM104.79,203.57c-1.31,0-2.38,1.06-2.38,2.38s1.07,2.37,2.38,2.37h65.05c1.31,0,2.38-1.06,2.38-2.37s-1.07-2.38-2.38-2.38h-65.05Z"/>
      </g>
      <g>
        <path d="M169.84,176.29h-65.05c-2.1,0-3.8-1.7-3.8-3.8s1.7-3.8,3.8-3.8h65.05c2.1,0,3.8,1.7,3.8,3.8s-1.7,3.8-3.8,3.8Z"/>
        <path d="M169.84,177.71h-65.05c-2.88,0-5.23-2.35-5.23-5.23s2.35-5.23,5.23-5.23h65.05c2.88,0,5.23,2.35,5.23,5.23s-2.35,5.23-5.23,5.23ZM104.79,170.11c-1.31,0-2.38,1.06-2.38,2.38s1.07,2.38,2.38,2.38h65.05c1.31,0,2.38-1.07,2.38-2.38s-1.07-2.38-2.38-2.38h-65.05Z"/>
      </g>
      <g>
        <path d="M169.84,142.84h-65.05c-2.1,0-3.8-1.7-3.8-3.8s1.7-3.8,3.8-3.8h65.05c2.1,0,3.8,1.7,3.8,3.8s-1.7,3.8-3.8,3.8Z"/>
        <path d="M169.84,144.26h-65.05c-2.88,0-5.23-2.35-5.23-5.23s2.35-5.23,5.23-5.23h65.05c2.88,0,5.23,2.35,5.23,5.23s-2.35,5.23-5.23,5.23ZM104.79,136.66c-1.31,0-2.38,1.07-2.38,2.38s1.07,2.38,2.38,2.38h65.05c1.31,0,2.38-1.06,2.38-2.38s-1.07-2.38-2.38-2.38h-65.05Z"/>
      </g>
      <g>
        <path d="M70.28,276.65H5.23c-2.1,0-3.8-1.7-3.8-3.8s1.7-3.8,3.8-3.8h65.05c2.1,0,3.8,1.7,3.8,3.8s-1.7,3.8-3.8,3.8Z"/>
        <path d="M70.28,278.08H5.23c-2.88,0-5.23-2.35-5.23-5.23s2.35-5.23,5.23-5.23h65.05c2.88,0,5.23,2.35,5.23,5.23s-2.35,5.23-5.23,5.23ZM5.23,270.48c-1.31,0-2.38,1.06-2.38,2.38s1.07,2.38,2.38,2.38h65.05c1.31,0,2.38-1.07,2.38-2.38s-1.06-2.38-2.38-2.38H5.23Z"/>
      </g>
      <g>
        <path d="M70.28,243.2H5.23c-2.1,0-3.8-1.7-3.8-3.8s1.7-3.8,3.8-3.8h65.05c2.1,0,3.8,1.7,3.8,3.8s-1.7,3.8-3.8,3.8Z"/>
        <path d="M70.28,244.62H5.23c-2.88,0-5.23-2.35-5.23-5.23s2.35-5.23,5.23-5.23h65.05c2.88,0,5.23,2.35,5.23,5.23s-2.35,5.23-5.23,5.23ZM5.23,237.02c-1.31,0-2.38,1.07-2.38,2.38s1.07,2.38,2.38,2.38h65.05c1.31,0,2.38-1.07,2.38-2.38s-1.06-2.38-2.38-2.38H5.23Z"/>
      </g>
      <g>
        <path d="M70.28,209.74H5.23c-2.1,0-3.8-1.7-3.8-3.8s1.7-3.8,3.8-3.8h65.05c2.1,0,3.8,1.7,3.8,3.8s-1.7,3.8-3.8,3.8Z"/>
        <path d="M70.28,211.17H5.23c-2.88,0-5.23-2.35-5.23-5.23s2.35-5.23,5.23-5.23h65.05c2.88,0,5.23,2.35,5.23,5.23s-2.35,5.23-5.23,5.23ZM5.23,203.57c-1.31,0-2.38,1.06-2.38,2.38s1.07,2.37,2.38,2.37h65.05c1.31,0,2.38-1.06,2.38-2.37s-1.06-2.38-2.38-2.38H5.23Z"/>
      </g>
      <g>
        <path d="M70.28,176.29H5.23c-2.1,0-3.8-1.7-3.8-3.8s1.7-3.8,3.8-3.8h65.05c2.1,0,3.8,1.7,3.8,3.8s-1.7,3.8-3.8,3.8Z"/>
        <path d="M70.28,177.71H5.23c-2.88,0-5.23-2.35-5.23-5.23s2.35-5.23,5.23-5.23h65.05c2.88,0,5.23,2.35,5.23,5.23s-2.35,5.23-5.23,5.23ZM5.23,170.11c-1.31,0-2.38,1.06-2.38,2.38s1.07,2.38,2.38,2.38h65.05c1.31,0,2.38-1.07,2.38-2.38s-1.06-2.38-2.38-2.38H5.23Z"/>
      </g>
      <g>
        <path d="M70.28,142.84H5.23c-2.1,0-3.8-1.7-3.8-3.8s1.7-3.8,3.8-3.8h65.05c2.1,0,3.8,1.7,3.8,3.8s-1.7,3.8-3.8,3.8Z"/>
        <path d="M70.28,144.26H5.23c-2.88,0-5.23-2.35-5.23-5.23s2.35-5.23,5.23-5.23h65.05c2.88,0,5.23,2.35,5.23,5.23s-2.35,5.23-5.23,5.23ZM5.23,136.66c-1.31,0-2.38,1.07-2.38,2.38s1.07,2.38,2.38,2.38h65.05c1.31,0,2.38-1.06,2.38-2.38s-1.06-2.38-2.38-2.38H5.23Z"/>
      </g>
      <g>
        <path d="M169.84,109.38h-65.05c-2.1,0-3.8-1.7-3.8-3.8s1.7-3.8,3.8-3.8h65.05c2.1,0,3.8,1.7,3.8,3.8s-1.7,3.8-3.8,3.8Z"/>
        <path d="M169.84,110.81h-65.05c-2.88,0-5.23-2.35-5.23-5.23s2.35-5.23,5.23-5.23h65.05c2.88,0,5.23,2.35,5.23,5.23s-2.35,5.23-5.23,5.23ZM104.79,103.21c-1.31,0-2.38,1.06-2.38,2.38s1.07,2.38,2.38,2.38h65.05c1.31,0,2.38-1.07,2.38-2.38s-1.07-2.38-2.38-2.38h-65.05Z"/>
      </g>
      <g>
        <path d="M169.84,75.93h-65.05c-2.1,0-3.8-1.7-3.8-3.8s1.7-3.8,3.8-3.8h65.05c2.1,0,3.8,1.7,3.8,3.8s-1.7,3.8-3.8,3.8Z"/>
        <path d="M169.84,77.36h-65.05c-2.88,0-5.23-2.35-5.23-5.23s2.35-5.23,5.23-5.23h65.05c2.88,0,5.23,2.35,5.23,5.23s-2.35,5.23-5.23,5.23ZM104.79,69.76c-1.31,0-2.38,1.06-2.38,2.38s1.07,2.38,2.38,2.38h65.05c1.31,0,2.38-1.07,2.38-2.38s-1.07-2.38-2.38-2.38h-65.05Z"/>
      </g>
      <g>
        <path d="M269.4,276.65h-65.05c-2.1,0-3.8-1.7-3.8-3.8s1.7-3.8,3.8-3.8h65.05c2.1,0,3.8,1.7,3.8,3.8s-1.7,3.8-3.8,3.8Z"/>
        <path d="M269.4,278.08h-65.05c-2.88,0-5.23-2.35-5.23-5.23s2.35-5.23,5.23-5.23h65.05c2.88,0,5.23,2.35,5.23,5.23s-2.35,5.23-5.23,5.23ZM204.35,270.48c-1.31,0-2.38,1.06-2.38,2.38s1.07,2.38,2.38,2.38h65.05c1.31,0,2.38-1.07,2.38-2.38s-1.07-2.38-2.38-2.38h-65.05Z"/>
      </g>
      <g>
        <path d="M269.4,243.2h-65.05c-2.1,0-3.8-1.7-3.8-3.8s1.7-3.8,3.8-3.8h65.05c2.1,0,3.8,1.7,3.8,3.8s-1.7,3.8-3.8,3.8Z"/>
        <path d="M269.4,244.62h-65.05c-2.88,0-5.23-2.35-5.23-5.23s2.35-5.23,5.23-5.23h65.05c2.88,0,5.23,2.35,5.23,5.23s-2.35,5.23-5.23,5.23ZM204.35,237.02c-1.31,0-2.38,1.07-2.38,2.38s1.07,2.38,2.38,2.38h65.05c1.31,0,2.38-1.07,2.38-2.38s-1.07-2.38-2.38-2.38h-65.05Z"/>
      </g>
      <g>
        <path d="M269.4,209.74h-65.05c-2.1,0-3.8-1.7-3.8-3.8s1.7-3.8,3.8-3.8h65.05c2.1,0,3.8,1.7,3.8,3.8s-1.7,3.8-3.8,3.8Z"/>
        <path d="M269.4,211.17h-65.05c-2.88,0-5.23-2.35-5.23-5.23s2.35-5.23,5.23-5.23h65.05c2.88,0,5.23,2.35,5.23,5.23s-2.35,5.23-5.23,5.23ZM204.35,203.57c-1.31,0-2.38,1.06-2.38,2.38s1.07,2.37,2.38,2.37h65.05c1.31,0,2.38-1.06,2.38-2.37s-1.07-2.38-2.38-2.38h-65.05Z"/>
      </g>
      <g>
        <path d="M269.4,176.29h-65.05c-2.1,0-3.8-1.7-3.8-3.8s1.7-3.8,3.8-3.8h65.05c2.1,0,3.8,1.7,3.8,3.8s-1.7,3.8-3.8,3.8Z"/>
        <path d="M269.4,177.71h-65.05c-2.88,0-5.23-2.35-5.23-5.23s2.35-5.23,5.23-5.23h65.05c2.88,0,5.23,2.35,5.23,5.23s-2.35,5.23-5.23,5.23ZM204.35,170.11c-1.31,0-2.38,1.06-2.38,2.38s1.07,2.38,2.38,2.38h65.05c1.31,0,2.38-1.07,2.38-2.38s-1.07-2.38-2.38-2.38h-65.05Z"/>
      </g>
      <g>
        <path d="M269.4,142.84h-65.05c-2.1,0-3.8-1.7-3.8-3.8s1.7-3.8,3.8-3.8h65.05c2.1,0,3.8,1.7,3.8,3.8s-1.7,3.8-3.8,3.8Z"/>
        <path d="M269.4,144.26h-65.05c-2.88,0-5.23-2.35-5.23-5.23s2.35-5.23,5.23-5.23h65.05c2.88,0,5.23,2.35,5.23,5.23s-2.35,5.23-5.23,5.23ZM204.35,136.66c-1.31,0-2.38,1.07-2.38,2.38s1.07,2.38,2.38,2.38h65.05c1.31,0,2.38-1.06,2.38-2.38s-1.07-2.38-2.38-2.38h-65.05Z"/>
      </g>
      <g>
        <path d="M269.4,109.38h-65.05c-2.1,0-3.8-1.7-3.8-3.8s1.7-3.8,3.8-3.8h65.05c2.1,0,3.8,1.7,3.8,3.8s-1.7,3.8-3.8,3.8Z"/>
        <path d="M269.4,110.81h-65.05c-2.88,0-5.23-2.35-5.23-5.23s2.35-5.23,5.23-5.23h65.05c2.88,0,5.23,2.35,5.23,5.23s-2.35,5.23-5.23,5.23ZM204.35,103.21c-1.31,0-2.38,1.06-2.38,2.38s1.07,2.38,2.38,2.38h65.05c1.31,0,2.38-1.07,2.38-2.38s-1.07-2.38-2.38-2.38h-65.05Z"/>
      </g>
      <g>
        <path d="M269.4,75.93h-65.05c-2.1,0-3.8-1.7-3.8-3.8s1.7-3.8,3.8-3.8h65.05c2.1,0,3.8,1.7,3.8,3.8s-1.7,3.8-3.8,3.8Z"/>
        <path d="M269.4,77.36h-65.05c-2.88,0-5.23-2.35-5.23-5.23s2.35-5.23,5.23-5.23h65.05c2.88,0,5.23,2.35,5.23,5.23s-2.35,5.23-5.23,5.23ZM204.35,69.76c-1.31,0-2.38,1.06-2.38,2.38s1.07,2.38,2.38,2.38h65.05c1.31,0,2.38-1.07,2.38-2.38s-1.07-2.38-2.38-2.38h-65.05Z"/>
      </g>
      <g>
        <path d="M169.84,42.48h-65.05c-2.1,0-3.8-1.7-3.8-3.8s1.7-3.8,3.8-3.8h65.05c2.1,0,3.8,1.7,3.8,3.8s-1.7,3.8-3.8,3.8Z"/>
        <path d="M169.84,43.91h-65.05c-2.88,0-5.23-2.35-5.23-5.23s2.35-5.23,5.23-5.23h65.05c2.88,0,5.23,2.35,5.23,5.23s-2.35,5.23-5.23,5.23ZM104.79,36.3c-1.31,0-2.38,1.07-2.38,2.38s1.07,2.38,2.38,2.38h65.05c1.31,0,2.38-1.06,2.38-2.38s-1.07-2.38-2.38-2.38h-65.05Z"/>
      </g>
      <g>
        <path d="M169.84,9.03h-65.05c-2.1,0-3.8-1.7-3.8-3.8s1.7-3.8,3.8-3.8h65.05c2.1,0,3.8,1.7,3.8,3.8s-1.7,3.8-3.8,3.8Z"/>
        <path d="M169.84,10.45h-65.05c-2.88,0-5.23-2.35-5.23-5.23s2.35-5.23,5.23-5.23h65.05c2.88,0,5.23,2.35,5.23,5.23s-2.35,5.23-5.23,5.23ZM104.79,2.85c-1.31,0-2.38,1.07-2.38,2.38s1.07,2.38,2.38,2.38h65.05c1.31,0,2.38-1.06,2.38-2.38s-1.07-2.38-2.38-2.38h-65.05Z"/>
      </g>
    </g>
  </g>
</svg>