<?xml version="1.0" encoding="UTF-8"?>
<svg id="Layer_2" data-name="Layer 2" xmlns="http://www.w3.org/2000/svg" viewBox="0 0 87.68 87.68">
  <defs>
    <style>
      .cls-1 {
        stroke: #000;
        stroke-miterlimit: 10;
      }
    </style>
  </defs>
  <g id="Layer_1-2" data-name="Layer 1">
    <path class="cls-1" d="M75.04,72.65c.35.34.36.9.02,1.25-4,4.16-8.7,7.42-13.97,9.71-5.45,2.37-11.26,3.57-17.25,3.57-11.58,0-22.46-4.51-30.65-12.69C5.01,66.3.5,55.42.5,43.84c0-8.19,2.27-16.09,6.58-22.98l-4.98,1.18c-.48.11-.95-.18-1.06-.66-.11-.48.18-.95.66-1.06l7.11-1.69c.23-.05.47-.02.67.11s.34.32.4.55l1.69,7.11c.11.48-.18.95-.66,1.06s-.95-.18-1.06-.66l-1.21-5.09c-4.17,6.62-6.36,14.22-6.36,22.11,0,22.92,18.65,41.57,41.57,41.57,11.4,0,22.04-4.53,29.95-12.74.34-.35.9-.36,1.25-.02h0ZM85.58,65.63l-4.98,1.18c4.31-6.88,6.58-14.78,6.58-22.98,0-11.58-4.51-22.46-12.69-30.65C66.3,5.01,55.42.5,43.84.5c-6,0-11.8,1.2-17.25,3.57-5.27,2.29-9.97,5.56-13.97,9.71-.34.35-.33.91.02,1.25.35.34.91.33,1.25-.02C21.8,6.79,32.44,2.27,43.84,2.27c22.92,0,41.57,18.65,41.57,41.57,0,7.89-2.19,15.49-6.36,22.11l-1.21-5.09c-.11-.48-.59-.77-1.06-.66s-.77.59-.66,1.06l1.69,7.11c.05.23.2.43.4.55.14.09.3.13.46.13.07,0,.14,0,.2-.02l7.11-1.69c.48-.11.77-.59.66-1.06-.11-.47-.59-.77-1.06-.65h0ZM60.12,43.84c0,8.98-7.3,16.28-16.28,16.28s-16.28-7.3-16.28-16.28,7.3-16.28,16.28-16.28,16.28,7.3,16.28,16.28h0ZM58.35,43.84c0-8-6.51-14.51-14.51-14.51s-14.51,6.51-14.51,14.51,6.51,14.51,14.51,14.51,14.51-6.51,14.51-14.51h0ZM43.84,42.96c-1.41,0-2.55-1.14-2.55-2.55s1.14-2.55,2.55-2.55c.86,0,1.66.43,2.14,1.16.27.41.82.52,1.22.25.41-.27.52-.82.25-1.22-.64-.97-1.62-1.63-2.73-1.86v-.97c0-.49-.4-.88-.88-.88s-.88.4-.88.88v.97c-1.96.41-3.44,2.15-3.44,4.23,0,2.38,1.94,4.32,4.32,4.32,1.41,0,2.55,1.14,2.55,2.55s-1.14,2.55-2.55,2.55c-.86,0-1.66-.43-2.14-1.16-.27-.41-.82-.52-1.22-.25s-.52.82-.25,1.22c.64.97,1.62,1.63,2.73,1.86v.97c0,.49.4.88.88.88s.88-.4.88-.88v-.97c1.96-.41,3.44-2.15,3.44-4.23,0-2.38-1.94-4.32-4.32-4.32h0ZM77.13,47.32c-.22,2.13-1.86,3.75-3.99,3.95l-4.71.44c-.87.08-1.59.61-1.92,1.42-.33.81-.19,1.69.38,2.36l3.05,3.61c1.38,1.63,1.41,3.94.08,5.61-1.5,1.88-3.22,3.61-5.09,5.13-1.66,1.35-3.97,1.34-5.61-.03l-3.64-3.02c-.67-.56-1.56-.69-2.36-.36s-1.33,1.06-1.4,1.93l-.4,4.71c-.18,2.13-1.79,3.79-3.92,4.02-1.24.14-2.49.21-3.74.21s-2.5-.07-3.74-.21c-2.13-.24-3.74-1.89-3.92-4.02l-.4-4.71c-.07-.87-.6-1.6-1.4-1.93s-1.69-.2-2.36.36l-3.64,3.02c-1.65,1.37-3.95,1.38-5.61.03-1.87-1.52-3.58-3.25-5.09-5.13-1.33-1.67-1.3-3.98.08-5.61l3.05-3.61c.56-.67.7-1.55.38-2.36-.33-.81-1.05-1.34-1.92-1.42l-4.71-.44c-2.13-.2-3.77-1.82-3.99-3.95-.24-2.31-.24-4.65,0-6.96.22-2.13,1.86-3.75,3.99-3.95l4.71-.44c.87-.08,1.59-.61,1.92-1.42s.19-1.69-.38-2.36l-3.05-3.61c-1.38-1.63-1.41-3.94-.08-5.61,1.5-1.88,3.22-3.61,5.09-5.13,1.66-1.35,3.97-1.34,5.61.03l3.64,3.02c.67.56,1.56.69,2.36.36s1.33-1.06,1.4-1.93l.4-4.71c.18-2.13,1.79-3.79,3.92-4.02,2.48-.28,5-.28,7.49,0,2.13.24,3.74,1.89,3.92,4.02l.4,4.71c.07.87.6,1.59,1.4,1.93.8.34,1.69.2,2.36-.36l3.64-3.02c1.65-1.37,3.95-1.38,5.61-.03,1.87,1.52,3.59,3.25,5.09,5.13,1.33,1.67,1.3,3.98-.08,5.61l-3.05,3.61c-.56.67-.7,1.55-.38,2.36.33.81,1.05,1.34,1.92,1.42l4.71.44c2.13.2,3.77,1.82,3.99,3.95.24,2.31.24,4.65,0,6.96h0ZM75.37,40.54c-.13-1.28-1.12-2.25-2.4-2.37l-4.71-.44c-1.52-.14-2.82-1.1-3.39-2.51-.58-1.41-.32-3,.66-4.17l3.05-3.61c.83-.98.85-2.37.05-3.37-1.42-1.78-3.05-3.42-4.82-4.86-1-.81-2.38-.8-3.37.02l-3.64,3.02c-1.17.97-2.77,1.21-4.17.63s-2.35-1.89-2.48-3.41l-.4-4.71c-.11-1.28-1.08-2.27-2.35-2.41-2.35-.26-4.74-.26-7.1,0-1.28.14-2.24,1.14-2.35,2.41l-.4,4.71c-.13,1.52-1.08,2.83-2.48,3.41s-3,.35-4.17-.63l-3.64-3.02c-.99-.82-2.37-.83-3.37-.02-1.77,1.44-3.4,3.08-4.82,4.86-.8,1-.78,2.39.05,3.37l3.05,3.61c.98,1.16,1.23,2.76.66,4.17-.58,1.41-1.88,2.37-3.39,2.51l-4.71.44c-1.28.12-2.26,1.09-2.4,2.37-.23,2.19-.23,4.41,0,6.59.13,1.28,1.12,2.25,2.4,2.37l4.71.44c1.52.14,2.82,1.1,3.39,2.51.58,1.41.32,3-.66,4.17l-3.05,3.61c-.83.98-.85,2.37-.05,3.37,1.43,1.78,3.05,3.42,4.82,4.86,1,.81,2.38.8,3.37-.02l3.64-3.02c.75-.62,1.67-.94,2.6-.94.53,0,1.06.1,1.57.32,1.4.59,2.35,1.89,2.48,3.41l.4,4.71c.11,1.28,1.08,2.27,2.35,2.41,2.35.26,4.74.26,7.1,0,1.28-.14,2.24-1.14,2.35-2.41l.4-4.71c.13-1.52,1.08-2.83,2.48-3.41s3-.35,4.17.63l3.64,3.02c.99.82,2.37.83,3.37.02,1.77-1.44,3.4-3.08,4.82-4.86.8-1,.78-2.39-.05-3.37l-3.05-3.61c-.98-1.16-1.23-2.76-.66-4.17.58-1.41,1.88-2.37,3.39-2.51l4.71-.44c1.28-.12,2.26-1.09,2.4-2.37.22-2.19.22-4.41,0-6.59Z"/>
  </g>
</svg>