<?xml version="1.0" encoding="UTF-8"?>
<svg id="Layer_2" data-name="Layer 2" xmlns="http://www.w3.org/2000/svg" viewBox="0 0 291.55 291.55">
  <g id="Layer_1-2" data-name="Layer 1">
    <g>
      <path d="M5.36,1.46c-2.15,0-3.9,1.75-3.9,3.9v280.82c0,2.15,1.75,3.9,3.9,3.9h280.82c2.15,0,3.9-1.75,3.9-3.9V5.36c0-2.15-1.75-3.9-3.9-3.9H5.36ZM145.77,282.28H9.26V113.26s.02,0,.03,0h136.49v169.01ZM282.28,282.28h-128.71V113.27h128.71v169.01ZM282.28,105.47H9.29s-.02,0-.03,0V9.26h273.02v96.21Z"/>
      <path d="M286.18,291.55H5.36c-2.96,0-5.36-2.41-5.36-5.36V5.36C0,2.41,2.41,0,5.36,0h280.82c2.96,0,5.36,2.41,5.36,5.36v280.82c0,2.96-2.41,5.36-5.36,5.36ZM5.36,2.93c-1.35,0-2.44,1.09-2.44,2.44v280.82c0,1.34,1.09,2.44,2.44,2.44h280.82c1.35,0,2.44-1.09,2.44-2.44V5.36c0-1.35-1.09-2.44-2.44-2.44H5.36ZM282.28,283.75h-128.71c-.81,0-1.46-.65-1.46-1.46V113.27c0-.81.65-1.46,1.46-1.46h128.71c.81,0,1.46.65,1.46,1.46v169.02c0,.81-.65,1.46-1.46,1.46ZM155.04,280.82h125.79V114.73h-125.79v166.09ZM145.77,283.75H9.26c-.81,0-1.46-.65-1.46-1.46V113.27c0-.93.93-1.66,1.83-1.42l136.15-.04c.81,0,1.46.65,1.46,1.46v169.02c0,.81-.66,1.46-1.46,1.46ZM10.73,280.82h133.59V114.73H10.73v166.09ZM282.28,106.93H9.29c-.81,0-1.49-.65-1.49-1.46V9.26c0-.81.65-1.46,1.46-1.46h273.02c.81,0,1.46.65,1.46,1.46v96.21c0,.81-.65,1.46-1.46,1.46ZM10.73,10.73v93.28h270.1V10.73H10.73Z"/>
    </g>
  </g>
</svg>