<?xml version="1.0" encoding="UTF-8"?>
<svg id="Layer_2" data-name="Layer 2" xmlns="http://www.w3.org/2000/svg" viewBox="0 0 309.7 309.04">
  <g id="Layer_1-2" data-name="Layer 1">
    <g>
      <path d="M301.64,147.98h-65.99v-60.55c0-3.59.59-9.23-6.49-9.23h-72.2v-9.12h-.03V9.09c0-4.16-3.37-7.54-7.54-7.54H8.17c-3.65,0-6.61,2.96-6.61,6.62v141.66c0,3.92,3.18,7.09,7.09,7.09h67.48v71.22c0,3.78,3.06,6.84,6.84,6.84h65.67v65.99c0,3.6,2.92,6.51,6.51,6.51h146.49c3.6,0,6.51-2.92,6.51-6.51v-146.49c0-3.6-2.92-6.51-6.51-6.51ZM9.84,9.84h138.8l-.35,138.8h-72.14s-.01,0-.02,0H9.84V9.84ZM152.78,226.7h-68.36v-69.47h64.55c4.39,0,7.96-3.56,7.96-7.96v-61.71h.03v-1.07h70.4v140.21h-74.58ZM299.87,299.2h-142.94v-64.22h72.21c3.6,0,6.51-2.92,6.51-6.51v-71.52s64.22,0,64.22,0v142.25Z"/>
      <path d="M301.64,309.04h-146.49c-4.45,0-8.07-3.62-8.07-8.07v-64.44h-64.11c-4.63,0-8.4-3.77-8.4-8.39v-69.66H8.65c-4.77,0-8.65-3.88-8.65-8.65V8.17C0,3.67,3.67,0,8.17,0h141.22c5.01,0,9.09,4.08,9.09,9.09v59.68c.02.1.03.21.03.31v7.56h70.65c2.59,0,4.59.7,5.94,2.06,2.17,2.19,2.13,5.52,2.1,7.96v.76s0,58.99,0,58.99h64.44c4.45,0,8.07,3.62,8.07,8.07v146.49c0,4.45-3.62,8.07-8.07,8.07ZM8.17,3.11c-2.79,0-5.06,2.27-5.06,5.06v141.66c0,3.05,2.49,5.54,5.54,5.54h67.48c.86,0,1.55.7,1.55,1.55v71.22c0,2.92,2.37,5.29,5.29,5.29h65.67c.86,0,1.55.7,1.55,1.55v65.99c0,2.73,2.23,4.96,4.96,4.96h146.49c2.73,0,4.96-2.23,4.96-4.96v-146.49c0-2.73-2.23-4.96-4.96-4.96h-65.99c-.86,0-1.55-.7-1.55-1.55v-61.34c.03-2.09.06-4.46-1.2-5.73-.75-.76-2.01-1.14-3.74-1.14h-72.2c-.86,0-1.55-.7-1.55-1.55v-8.8c-.02-.1-.03-.21-.03-.31V9.09c0-3.3-2.68-5.98-5.98-5.98H8.17ZM299.87,300.76h-142.94c-.86,0-1.55-.7-1.55-1.55v-64.22c0-.86.7-1.55,1.55-1.55h72.21c2.73,0,4.96-2.23,4.96-4.96v-71.51c0-.86.7-1.55,1.55-1.55h64.22c.86,0,1.55.7,1.55,1.55v142.25c0,.86-.7,1.55-1.55,1.55ZM158.48,297.65h139.83v-139.14h-61.11v69.96c0,4.45-3.62,8.07-8.07,8.07h-70.65v61.11ZM227.36,228.25H84.42c-.86,0-1.55-.7-1.55-1.55v-69.47c0-.86.7-1.55,1.55-1.55h64.55c3.53,0,6.4-2.87,6.4-6.4v-61.71c0-.11.01-.22.03-.32v-.75c0-.86.7-1.55,1.55-1.55h70.4c.86,0,1.55.7,1.55,1.55v140.21c0,.86-.7,1.55-1.55,1.55ZM85.97,225.14h139.83V88.04h-67.33v61.23c0,5.24-4.27,9.51-9.51,9.51h-63v66.36ZM148.29,150.2H9.84c-.86,0-1.55-.7-1.55-1.56V9.84c0-.86.7-1.55,1.55-1.55h138.8c.41,0,.81.16,1.1.46.29.29.45.69.45,1.1l-.34,138.8c0,.86-.7,1.55-1.55,1.55ZM11.39,147.08h135.35s.34-135.69.34-135.69H11.39v135.69Z"/>
    </g>
  </g>
</svg>