<?xml version="1.0" encoding="UTF-8"?>
<svg id="Layer_2" data-name="Layer 2" xmlns="http://www.w3.org/2000/svg" viewBox="0 0 295.31 295.31">
  <g id="Layer_1-2" data-name="Layer 1">
    <g>
      <path d="M62.79,193.67l36.25,40.43c4.62,5.15,13.05,3.53,15.43-2.96l44.42-121,36.56,74.59c2.67,5.45,10.45,5.44,13.11-.02L292.47,12.31c1.26-2.59.2-5.72-2.38-7.01h0c-2.62-1.31-5.81-.23-7.09,2.41l-80.89,166.69-36.12-73.68c-3.2-6.53-12.66-6.03-15.17.79l-45.47,123.86-34.37-38.33c-5.08-5.66-14.24-4.52-17.78,2.21l-40.7,77.47V7.24c0-2.91-2.36-5.27-5.27-5.27h0C4.33,1.98,1.98,4.33,1.98,7.24v274.22c0,6.56,5.31,11.87,11.87,11.87h274.22c2.91,0,5.27-2.36,5.27-5.27h0c0-2.91-2.36-5.26-5.27-5.26H15.96l46.83-89.13Z"/>
      <path d="M288.07,295.31H13.84c-7.63,0-13.84-6.21-13.84-13.84V7.24C0,3.25,3.25,0,7.24,0s7.24,3.25,7.24,7.24v251.48l36.98-70.38c1.96-3.73,5.63-6.27,9.82-6.79,4.22-.51,8.37,1.04,11.18,4.19l32.18,35.89,44.34-120.78c1.43-3.91,4.91-6.47,9.07-6.69,4.19-.29,7.89,1.98,9.72,5.71l34.33,70.04L281.22,6.85c.85-1.75,2.33-3.06,4.18-3.69,1.84-.64,3.82-.5,5.57.38,3.53,1.76,5,6.09,3.26,9.64l-83.91,172.4c-1.56,3.21-4.75,5.21-8.32,5.21h-.01c-3.56,0-6.75-1.99-8.32-5.19l-34.53-70.44-42.83,116.65c-1.36,3.71-4.48,6.36-8.36,7.11-3.87.71-7.76-.56-10.4-3.51l-34.34-38.31-43.99,83.72h268.84c3.99,0,7.24,3.25,7.24,7.24s-3.25,7.24-7.24,7.24ZM7.24,3.95c-1.82,0-3.29,1.47-3.29,3.29v274.22c0,5.46,4.44,9.89,9.89,9.89h274.22c1.82,0,3.29-1.47,3.29-3.29s-1.47-3.29-3.29-3.29H15.96c-.69,0-1.33-.36-1.69-.95-.36-.6-.38-1.33-.06-1.94l46.84-89.13c.3-.57.86-.96,1.51-1.04.65-.08,1.28.16,1.71.64l36.24,40.43c1.7,1.89,4.19,2.76,6.71,2.26,2.51-.48,4.52-2.19,5.4-4.58l44.42-121c.27-.75.96-1.25,1.75-1.29.78-.08,1.53.39,1.88,1.1l36.57,74.59c.91,1.86,2.7,2.98,4.77,2.98h.01c2.08,0,3.87-1.12,4.78-2.99L290.69,11.45c.79-1.62.12-3.58-1.49-4.38-.79-.4-1.68-.46-2.53-.17-.84.28-1.51.88-1.9,1.68l-80.88,166.69c-.33.68-1.01,1.11-1.77,1.11h0c-.76,0-1.44-.43-1.77-1.11l-36.12-73.68c-1.35-2.75-3.94-3.75-5.97-3.51-2,.1-4.51,1.24-5.57,4.1l-45.47,123.87c-.24.65-.8,1.13-1.48,1.26-.67.15-1.37-.1-1.84-.62l-34.37-38.33c-1.98-2.21-4.79-3.28-7.75-2.9-2.95.37-5.43,2.08-6.81,4.72l-40.7,77.47c-.42.8-1.32,1.2-2.22,1-.88-.21-1.5-1.01-1.5-1.92V7.24c0-1.82-1.48-3.29-3.29-3.29Z"/>
    </g>
  </g>
</svg>