<?xml version="1.0" encoding="UTF-8"?>
<svg id="Layer_2" data-name="Layer 2" xmlns="http://www.w3.org/2000/svg" viewBox="0 0 293.07 293.06">
  <defs>
    <style>
      .cls-1 {
        fill: #fff;
      }
    </style>
  </defs>
  <g id="Layer_1-2" data-name="Layer 1">
    <g>
      <path class="cls-1" d="M84.69,279.38l-.45-.21C11.1,244.82-20.46,157.37,13.89,84.23,48.17,11.25,135.34-20.33,208.38,13.68c.15.07.3.14.45.21,73.13,34.35,104.69,121.8,70.34,194.94h0c-34.29,72.98-121.45,104.56-194.48,70.55ZM205.93,18.96C141.52-11.03,49.01,23.2,18.78,87.56c-30.29,64.49,3.99,155.99,68.48,186.28.13.06-.13-.06,0,0,64.41,29.99,153.85-4.32,184.08-68.68,30.29-64.49-.93-155.9-65.41-186.19-.13-.06.13.06,0,0ZM271.33,205.15h0s0,0,0,0Z"/>
      <path class="cls-1" d="M82.3,247.66C22.62,219.87-3.33,148.7,24.46,89.01,52.25,29.32,123.42,3.37,183.11,31.16c59.69,27.79,85.65,98.97,57.85,158.66-27.79,59.69-98.97,85.64-158.66,57.85ZM180.67,36.39c-56.8-26.45-124.53-1.75-150.98,55.05-26.45,56.8-1.76,124.53,55.04,150.98,56.81,26.45,124.54,1.76,150.99-55.05,26.45-56.8,1.75-124.53-55.05-150.98Z"/>
      <path class="cls-1" d="M103.36,251.46c-48.8-22.72-67.08-87.23-40.74-143.79,26.34-56.56,87.47-84.09,136.27-61.37,48.8,22.72,67.08,87.23,40.75,143.79-26.34,56.56-87.47,84.09-136.27,61.36ZM196.45,51.54c-45.91-21.38-103.6,4.9-128.59,58.57-24.99,53.67-7.97,114.73,37.95,136.11,45.92,21.38,103.6-4.89,128.6-58.57,24.99-53.68,7.97-114.74-37.95-136.12Z"/>
      <path class="cls-1" d="M113.52,229.65c-48.8-22.72-69.36-82.34-45.82-132.88,23.54-50.55,82.39-73.19,131.19-50.46,48.8,22.72,69.36,82.34,45.82,132.89-23.54,50.55-82.39,73.19-131.19,50.46ZM196.45,51.54c-45.91-21.38-101.32,0-123.51,47.67-22.19,47.66-2.89,103.83,43.02,125.21,45.92,21.38,101.33,0,123.52-47.67,22.19-47.66,2.89-103.83-43.03-125.21Z"/>
      <path class="cls-1" d="M116.12,200.43c-18.37-8.55-32.76-23.56-40.71-42.54-17.21-41.08,1.5-88.2,41.69-105.03,19.48-8.16,41.04-8.08,60.72.24,19.63,8.29,35.06,23.84,43.39,43.73,17.21,41.08-1.49,88.19-41.69,105.03-19.48,8.16-41.04,8.08-60.72-.24-.9-.38-1.8-.78-2.68-1.19ZM178.06,59.52c-.82-.38-1.65-.75-2.49-1.1-18.23-7.71-38.2-7.79-56.23-.23-37.26,15.61-54.57,59.33-38.6,97.48,7.75,18.49,22.08,32.91,40.31,40.64,18.23,7.71,38.2,7.79,56.24.23,37.26-15.61,54.57-59.33,38.59-97.47h0c-7.39-17.64-20.76-31.59-37.82-39.53Z"/>
      <path class="cls-1" d="M126.64,200.65c-14.76-6.87-27.18-19.15-34.02-35.47-14.36-34.29,1.26-73.61,34.81-87.66,16.26-6.81,34.26-6.74,50.68.2,16.4,6.93,29.25,19.89,36.2,36.49h0c14.36,34.28-1.25,73.61-34.8,87.66-17.58,7.36-36.64,6.35-52.88-1.21ZM177.91,83.94c-.68-.31-1.36-.62-2.05-.91-14.98-6.33-31.38-6.4-46.2-.19-30.61,12.82-44.84,48.75-31.71,80.1,6.26,14.94,17.63,26.19,31.13,32.47,14.81,6.9,32.19,7.82,48.21,1.11,30.61-12.82,44.83-48.75,31.7-80.1h0c-6.07-14.5-17.06-25.96-31.08-32.49Z"/>
      <path class="cls-1" d="M141.51,199.8c-2.59-1.21-5.19-2.7-7.77-4.49-11.53-7.97-21.41-20.78-27.82-36.08-13.41-32.02-7.21-65.22,13.8-74.02,21.02-8.8,49.03,10.08,62.43,42.09,6.41,15.3,8.61,31.33,6.21,45.13-2.49,14.27-9.59,24.53-20,28.89-8.16,3.42-17.47,2.85-26.85-1.52ZM144.25,91.97c-7.68-3.58-15.45-4.3-22.29-1.44-18.08,7.57-22.88,37.39-10.71,66.46,5.99,14.29,15.14,26.21,25.77,33.56,10.24,7.07,20.58,9.01,29.11,5.43,8.53-3.57,14.4-12.29,16.54-24.56,2.22-12.73.14-27.61-5.84-41.9h0c-7.57-18.08-19.95-31.68-32.58-37.56Z"/>
      <path class="cls-1" d="M129.8,185.33c-9.94-4.63-18.44-13.13-23.18-24.45-9.55-22.82-.22-48.54,20.79-57.34,10.23-4.28,21.64-3.97,32.14.88l.13.06c10.36,4.82,18.58,13.51,23.17,24.47,9.55,22.81.23,48.53-20.79,57.34-10.59,4.44-22.17,3.74-32.26-.96ZM157.24,109.72l-.11-.05c-9.01-4.16-18.78-4.45-27.49-.8-18.08,7.57-26.02,29.9-17.7,49.78,8.33,19.87,29.81,29.88,47.89,22.31,18.08-7.58,26.01-29.91,17.69-49.78,0,0,0,0,0,0-4.03-9.63-11.23-17.25-20.28-21.47Z"/>
      <path class="cls-1" d="M138.05,185.58c-7.37-3.43-13.68-9.74-17.19-18.12-7.08-16.93-.13-36.03,15.49-42.58,7.61-3.19,16.11-2.96,23.92.65l.09.04c7.68,3.58,13.78,10.02,17.18,18.14,3.42,8.16,3.71,17.06.84,25.07-2.91,8.1-8.71,14.32-16.32,17.51-7.89,3.3-16.5,2.79-24.01-.71ZM157.92,130.82l-.08-.04c-6.33-2.92-13.17-3.12-19.27-.57-12.69,5.31-18.25,21.02-12.4,35.02,5.86,13.99,20.96,21.05,33.65,15.73,6.1-2.56,10.76-7.57,13.12-14.13,2.39-6.65,2.13-14.06-.73-20.88,0,0,0,0,0,0-2.84-6.79-7.92-12.17-14.29-15.13Z"/>
      <path class="cls-1" d="M130.22,165.23c-4.46-2.07-8.01-5.47-9.89-9.97-2.3-5.5-1.81-11.73,1.37-17.55,3.07-5.61,8.31-10.18,14.77-12.88,6.45-2.7,13.39-3.23,19.54-1.49,6.38,1.81,11.16,5.83,13.46,11.33h0c2.3,5.49,1.81,11.72-1.37,17.54-3.07,5.6-8.31,10.18-14.77,12.88-8.06,3.38-16.57,3.18-23.12.13ZM157.14,129.91c-.85-.4-1.76-.73-2.71-1-4.89-1.39-10.48-.94-15.73,1.26-5.25,2.2-9.49,5.86-11.94,10.33-2.32,4.25-2.72,8.7-1.11,12.54,3.42,8.16,14.84,11.18,25.45,6.74,5.25-2.2,9.49-5.87,11.93-10.33,2.32-4.25,2.72-8.7,1.11-12.54h0c-1.28-3.05-3.71-5.47-7-7Z"/>
    </g>
  </g>
</svg>