<?xml version="1.0" encoding="UTF-8"?>
<svg id="Layer_2" data-name="Layer 2" xmlns="http://www.w3.org/2000/svg" viewBox="0 0 402.01 358.9">
  <defs>
    <style>
      .cls-1 {
        fill: #fff;
      }
    </style>
  </defs>
  <g id="Layer_1-2" data-name="Layer 1">
    <g>
      <path class="cls-1" d="M76.59,358.9c-2.45-1.95-4.85-3.93-7.21-5.97l65.26-75.21c1.21,1.06,2.46,2.09,3.74,3.09l-61.79,78.09Z"/>
      <path class="cls-1" d="M55.83,340.03c-4.31-4.51-8.42-9.21-12.28-14.08l77.97-61.92c1.97,2.48,4.05,4.87,6.24,7.16l-71.93,68.85ZM32.57,310.72c-3.39-5.2-6.54-10.57-9.45-16.07l88.05-46.51c1.49,2.82,3.1,5.57,4.84,8.23l-83.43,54.34ZM15.14,277.6c-2.37-5.74-4.48-11.61-6.32-17.59l95.17-29.29c.93,3.04,2.01,6.02,3.21,8.94l-92.05,37.95ZM4.15,241.81c-1.26-6.08-2.25-12.31-2.94-18.55l98.97-10.95c.35,3.14.83,6.24,1.47,9.29L4.15,241.81ZM.03,204.53c-.08-5.15.03-10.34.34-15.57l.21-3.13,99.28,7.59-.1,1.5c-.16,2.68-.22,5.34-.18,7.98L.03,204.53ZM101.02,183.91L2.83,167.37c1.03-6.12,2.37-12.28,3.98-18.32l96.21,25.65c-.8,3.02-1.48,6.09-2,9.21ZM302.11,192.54c-.26-3.17-.67-6.29-1.21-9.38l98.05-17.35c1.09,6.12,1.89,12.38,2.4,18.58l-99.24,8.14ZM105.87,165.73L12.5,131.15c2.15-5.81,4.62-11.62,7.32-17.25l89.74,43.13c-1.36,2.82-2.59,5.73-3.69,8.69ZM298.83,174.01c-.84-3.05-1.83-6.05-2.94-8.98l93.08-35.37c2.21,5.82,4.17,11.81,5.83,17.8l-95.97,26.55ZM114.04,148.76L28.75,97.37c3.22-5.35,6.73-10.6,10.43-15.6l80.1,59.15c-1.86,2.52-3.61,5.14-5.24,7.84ZM292.13,156.37c-1.4-2.84-2.92-5.61-4.57-8.3l84.92-51.99c3.26,5.33,6.3,10.85,9.02,16.39l-89.37,43.9ZM125.27,133.54L50.95,67.26c4.14-4.64,8.55-9.15,13.11-13.39l67.81,72.91c-2.31,2.15-4.51,4.39-6.61,6.75ZM282.28,140.3c-1.92-2.55-3.95-5.02-6.08-7.38l73.87-66.77c4.17,4.61,8.12,9.41,11.85,14.38l-79.64,59.76ZM139.13,120.64l-60.8-78.85c4.95-3.82,10.13-7.44,15.36-10.74l53.17,84.18c-2.66,1.68-5.24,3.5-7.74,5.42ZM269.54,126.21c-2.32-2.13-4.74-4.16-7.26-6.07l60.22-79.3c4.96,3.77,9.8,7.81,14.38,12l-67.33,73.36ZM155.07,110.54L109.97,21.77c5.58-2.84,11.33-5.43,17.08-7.7l36.63,92.59c-2.93,1.16-5.81,2.46-8.61,3.88ZM254.49,114.78c-2.67-1.66-5.43-3.21-8.26-4.62l44.48-89.08c5.55,2.77,11.06,5.85,16.35,9.13l-52.57,84.57ZM172.61,103.59L144.79,7.98c5.97-1.74,12.09-3.21,18.2-4.39l18.83,97.78c-3.12.6-6.19,1.34-9.2,2.22ZM237.68,106.39c-2.94-1.13-5.95-2.14-9.02-3.01L255.75,7.57c6.03,1.7,11.94,3.68,17.73,5.91l-35.79,92.92ZM191.08,100.03L181.63.91c6.25-.6,12.56-.9,18.74-.91l.14,99.57c-3.17,0-6.31.17-9.42.46ZM219.51,101.26c-3.09-.57-6.24-1-9.44-1.28L218.95.8c6.26.56,12.43,1.4,18.49,2.51l-17.93,97.94Z"/>
      <path class="cls-1" d="M401.66,213.05l-99.39-5.97c.09-1.58.16-3.14.17-4.7l99.57,1.17c-.04,3.16-.16,6.33-.35,9.51Z"/>
    </g>
  </g>
</svg>