<?xml version="1.0" encoding="UTF-8"?>
<svg id="Layer_2" data-name="Layer 2" xmlns="http://www.w3.org/2000/svg" viewBox="0 0 35.63 35.63">
  <g id="Layer_1-2" data-name="Layer 1">
    <g>
      <g>
        <path d="M34.21,34.74c-.14,0-.27-.05-.38-.16L1.05,1.8c-.21-.21-.21-.54,0-.75s.54-.21.75,0l32.78,32.78c.21.21.21.54,0,.75-.1.1-.24.16-.38.16Z"/>
        <path d="M34.21,34.94c-.19,0-.38-.08-.52-.21L.91,1.95c-.28-.28-.28-.75,0-1.03.29-.28.75-.28,1.03,0l32.78,32.78c.28.28.28.75,0,1.03-.14.14-.32.21-.52.21ZM1.43,1.1c-.08,0-.17.03-.23.1-.13.13-.13.34,0,.47l32.78,32.78c.12.13.34.13.47,0,.13-.13.13-.34,0-.47L1.66,1.19c-.06-.06-.15-.1-.23-.1Z"/>
      </g>
      <g>
        <path d="M1.43,34.74c-.14,0-.27-.05-.38-.16-.21-.21-.21-.54,0-.75L33.83,1.05c.21-.21.54-.21.75,0s.21.54,0,.75L1.8,34.58c-.1.1-.24.16-.38.16Z"/>
        <path d="M1.43,34.94c-.19,0-.38-.08-.52-.21-.28-.28-.28-.75,0-1.03L33.69.91c.29-.28.75-.28,1.03,0,.28.28.28.75,0,1.03L1.95,34.72c-.14.14-.32.21-.52.21ZM34.21,1.1c-.08,0-.17.03-.23.1L1.19,33.97c-.13.13-.13.34,0,.47.12.13.34.13.47,0L34.44,1.66c.13-.13.13-.34,0-.47-.06-.06-.15-.1-.23-.1Z"/>
      </g>
      <g>
        <path d="M33.54,9.43s-.06,0-.09,0c-.29-.05-.48-.32-.44-.61l1.25-7.43-7.43,1.25c-.29.05-.56-.15-.61-.44-.05-.29.15-.56.44-.61L34.82.21c.17-.03.34.03.46.15.12.12.18.29.15.46l-1.37,8.17c-.04.26-.27.44-.52.44Z"/>
        <path d="M33.54,9.63s-.08,0-.12-.01c-.19-.03-.36-.14-.47-.3s-.16-.35-.13-.54l1.2-7.16-7.16,1.2c-.4.07-.77-.2-.84-.6-.07-.4.2-.77.6-.84L34.78.01c.23-.04.47.04.64.2.17.17.24.4.2.64l-1.37,8.17c-.06.35-.36.61-.72.61ZM34.26,1.18c.05,0,.1.02.14.06.05.05.07.11.06.17l-1.25,7.43c-.01.09,0,.18.06.25.05.07.13.12.22.13.2.03.35-.09.38-.27l1.37-8.17c.02-.11-.02-.21-.09-.29-.08-.08-.18-.11-.29-.09l-8.17,1.37c-.18.03-.3.2-.27.38.03.18.2.3.38.27l7.43-1.25s.02,0,.03,0Z"/>
      </g>
      <g>
        <path d="M.73,35.44c-.14,0-.27-.06-.38-.16-.12-.12-.18-.29-.15-.46l1.37-8.17c.05-.29.32-.48.61-.44.29.05.48.32.44.61l-1.25,7.43,7.43-1.25c.29-.05.56.15.61.44.05.29-.15.56-.44.61l-8.17,1.37s-.06,0-.09,0Z"/>
        <path d="M.73,35.63c-.19,0-.38-.08-.52-.21-.17-.17-.24-.4-.2-.64l1.37-8.17c.03-.19.14-.36.3-.47.16-.11.35-.16.54-.13.19.03.36.14.47.3.11.16.16.35.13.54l-1.2,7.16,7.16-1.2c.39-.07.77.2.84.6.07.4-.2.77-.6.84l-8.17,1.37s-.08,0-.12,0ZM2.1,26.4c-.07,0-.13.02-.19.06-.07.05-.12.13-.13.21l-1.37,8.17c-.02.11.02.21.09.29.08.08.18.11.29.09l8.17-1.37c.18-.03.3-.2.27-.38-.03-.18-.2-.3-.38-.27l-7.44,1.25c-.07,0-.13-.01-.17-.06-.04-.05-.07-.11-.06-.17l1.25-7.43c.03-.18-.09-.35-.27-.38-.02,0-.04,0-.06,0Z"/>
      </g>
      <g>
        <path d="M34.65,35.18s-.06,0-.09,0l-8.17-1.37c-.29-.05-.48-.32-.44-.61.05-.29.32-.48.61-.44l7.43,1.25-1.25-7.43c-.05-.29.15-.56.44-.61.29-.05.56.15.61.44l1.37,8.17c.03.17-.03.34-.15.46-.1.1-.24.16-.38.16Z"/>
        <path d="M34.65,35.38s-.08,0-.12-.01l-8.17-1.37c-.4-.07-.67-.44-.6-.84.07-.4.44-.66.84-.6l7.16,1.2-1.2-7.16c-.03-.19.01-.39.13-.54s.28-.26.47-.3c.39-.07.77.2.84.6l1.37,8.17c.04.23-.04.47-.2.64-.14.14-.32.21-.52.21ZM26.48,32.94c-.16,0-.3.12-.33.28-.03.18.09.35.27.38l8.17,1.37c.12.02.21-.02.29-.09.08-.08.11-.18.09-.29l-1.37-8.17c-.03-.18-.2-.31-.38-.27-.09.01-.16.06-.22.13-.05.07-.07.16-.06.25l1.25,7.43c.01.06-.01.13-.06.17-.05.05-.11.07-.17.06l-7.43-1.25s-.04,0-.05,0Z"/>
      </g>
      <g>
        <path d="M2.21,9.54c-.25,0-.48-.18-.52-.44L.32.93c-.03-.17.03-.34.15-.46.12-.12.29-.18.46-.15l8.17,1.37c.29.05.48.32.44.61-.05.29-.32.48-.61.44L1.49,1.49l1.25,7.43c.05.29-.15.56-.44.61-.03,0-.06,0-.09,0Z"/>
        <path d="M2.21,9.74c-.36,0-.66-.26-.72-.61L.12.96c-.04-.23.04-.47.2-.64.17-.17.4-.24.64-.2l8.17,1.37c.4.07.67.44.6.84-.07.4-.44.66-.84.6L1.73,1.73l1.2,7.16c.07.4-.2.77-.6.84-.04,0-.08,0-.12,0ZM.84.51c-.09,0-.17.03-.23.1-.08.08-.11.18-.09.29l1.37,8.17c.03.18.2.3.38.27.18-.03.3-.2.27-.38L1.29,1.52c-.01-.06.01-.13.06-.17.05-.04.11-.07.17-.06l7.43,1.25c.18.03.35-.09.38-.27.01-.09,0-.18-.06-.25-.05-.07-.13-.12-.22-.13L.9.52s-.04,0-.05,0Z"/>
      </g>
    </g>
  </g>
</svg>