<?xml version="1.0" encoding="UTF-8"?>
<svg id="Layer_2" data-name="Layer 2" xmlns="http://www.w3.org/2000/svg" viewBox="0 0 35.02 34.6">
  <g id="Layer_1-2" data-name="Layer 1">
    <g>
      <g>
        <path d="M34.37,34.42H.65c-.26,0-.47-.21-.47-.47V4.25c0-.26.21-.47.47-.47h33.72c.26,0,.47.21.47.47v29.7c0,.26-.21.47-.47.47ZM1.12,33.48h32.78V4.72H1.12v28.75Z"/>
        <path d="M34.37,34.6H.65c-.36,0-.65-.29-.65-.65V4.25c0-.36.29-.65.65-.65h33.72c.36,0,.65.29.65.65v29.7c0,.36-.29.65-.65.65ZM.65,3.96c-.16,0-.3.13-.3.3v29.7c0,.16.13.3.3.3h33.72c.16,0,.3-.13.3-.3V4.25c0-.16-.13-.3-.3-.3H.65ZM33.9,33.65H1.12c-.1,0-.18-.08-.18-.18V4.72c0-.1.08-.18.18-.18h32.78c.1,0,.18.08.18.18v28.75c0,.1-.08.18-.18.18ZM1.3,33.3h32.42V4.9H1.3v28.4Z"/>
      </g>
      <g>
        <path d="M26.05,7.26c-.26,0-.47-.21-.47-.47V.65c0-.26.21-.47.47-.47s.47.21.47.47v6.14c0,.26-.21.47-.47.47Z"/>
        <path d="M26.05,7.44c-.36,0-.65-.29-.65-.65V.65c0-.36.29-.65.65-.65s.65.29.65.65v6.14c0,.36-.29.65-.65.65ZM26.05.35c-.16,0-.3.13-.3.3v6.14c0,.16.13.3.3.3s.3-.13.3-.3V.65c0-.16-.13-.3-.3-.3Z"/>
      </g>
      <g>
        <path d="M8.73,7.26c-.26,0-.47-.21-.47-.47V.65c0-.26.21-.47.47-.47s.47.21.47.47v6.14c0,.26-.21.47-.47.47Z"/>
        <path d="M8.73,7.44c-.36,0-.65-.29-.65-.65V.65c0-.36.29-.65.65-.65s.65.29.65.65v6.14c0,.36-.29.65-.65.65ZM8.73.35c-.16,0-.3.13-.3.3v6.14c0,.16.13.3.3.3s.3-.13.3-.3V.65c0-.16-.13-.3-.3-.3Z"/>
      </g>
      <g>
        <g>
          <path d="M9.16,25.59v-.67c.21-.19.53-.46.96-.83.42-.36.75-.64.97-.84.22-.2.52-.46.87-.79.36-.33.64-.61.84-.83.2-.22.42-.48.67-.78.25-.3.44-.58.57-.82.3-.59.45-1.16.45-1.73s-.17-1.04-.5-1.44c-.34-.4-.87-.59-1.6-.59s-1.28.22-1.67.66c-.39.44-.6,1.01-.64,1.72h-.92c.05-1.03.36-1.82.94-2.38.58-.56,1.33-.84,2.25-.84s1.66.26,2.23.78c.57.52.85,1.25.85,2.19,0,.41-.08.84-.25,1.28-.17.44-.36.83-.57,1.16-.21.33-.52.71-.92,1.15-.4.43-.73.76-.97.99-.25.23-.61.55-1.08.97-.48.42-.78.68-.91.8h5.05v.84h-6.6Z"/>
          <path d="M15.76,25.77h-6.6c-.1,0-.18-.08-.18-.18v-.67c0-.05.02-.1.06-.13.22-.19.53-.46.96-.83.42-.36.75-.64.97-.84.22-.2.51-.46.87-.79.35-.32.63-.6.83-.81.2-.22.42-.48.66-.78.24-.29.42-.56.55-.79.28-.56.43-1.11.43-1.64s-.15-.96-.46-1.33c-.3-.35-.79-.53-1.46-.53s-1.18.2-1.54.6c-.36.41-.56.95-.59,1.61,0,.09-.08.17-.18.17h-.92s-.09-.02-.13-.05c-.03-.03-.05-.08-.05-.13.05-1.07.38-1.91.99-2.5.61-.59,1.41-.89,2.37-.89s1.75.28,2.35.82c.6.55.91,1.33.91,2.32,0,.43-.09.88-.26,1.34-.17.45-.37.85-.59,1.2-.22.34-.54.73-.94,1.17-.4.43-.73.77-.98,1-.25.23-.61.55-1.09.97-.23.2-.41.36-.56.49h4.59c.1,0,.18.08.18.18v.84c0,.1-.08.18-.18.18ZM9.33,25.42h6.25v-.48h-4.87c-.07,0-.14-.04-.16-.11-.03-.07,0-.14.04-.19.13-.12.44-.39.91-.81.47-.41.83-.73,1.08-.96.24-.23.57-.56.96-.98.39-.42.7-.8.9-1.12.21-.32.39-.7.56-1.13.16-.42.24-.83.24-1.22,0-.89-.27-1.58-.8-2.06-.53-.48-1.24-.73-2.11-.73s-1.58.27-2.12.79c-.51.49-.8,1.19-.87,2.07h.57c.06-.67.29-1.23.67-1.66.42-.48,1.03-.72,1.8-.72s1.36.22,1.73.66c.36.43.55.95.55,1.55s-.16,1.2-.47,1.81c-.14.25-.33.54-.59.85-.25.31-.48.57-.68.79-.21.23-.49.51-.85.84-.36.33-.65.6-.88.79-.22.2-.55.48-.97.84-.39.33-.68.59-.9.77v.41Z"/>
        </g>
        <g>
          <path d="M19.38,15.95c.6-.44,1.35-.66,2.25-.66s1.63.24,2.16.73c.54.49.8,1.11.8,1.87,0,.53-.16,1.01-.47,1.43-.31.42-.73.71-1.25.87v.07c.6.15,1.06.46,1.4.94.34.48.5,1.1.5,1.86s-.28,1.41-.83,1.94c-.55.53-1.31.8-2.29.8s-1.77-.24-2.39-.73c-.62-.49-.97-1.17-1.06-2.05h.91c.07.56.32,1.02.76,1.39.44.37,1.03.55,1.75.55s1.28-.19,1.66-.57c.39-.38.58-.88.58-1.5,0-.81-.26-1.39-.78-1.73-.52-.34-1.29-.51-2.33-.51h-.31v-.83h.32c1.93,0,2.9-.62,2.9-1.83,0-.57-.18-1.02-.55-1.36-.36-.34-.88-.5-1.55-.5s-1.2.14-1.59.43c-.4.28-.64.69-.72,1.22h-.94c.09-.77.44-1.38,1.04-1.83Z"/>
          <path d="M21.67,25.97c-1.01,0-1.85-.26-2.5-.77-.65-.52-1.03-1.25-1.13-2.17,0-.05.01-.1.04-.14.03-.04.08-.06.13-.06h.91c.09,0,.17.07.18.16.06.52.29.93.7,1.28.41.34.96.51,1.64.51s1.19-.18,1.54-.52c.36-.35.53-.8.53-1.37,0-.75-.23-1.27-.7-1.58-.49-.32-1.24-.48-2.23-.48h-.31c-.1,0-.18-.08-.18-.18v-.83c0-.1.08-.18.18-.18h.32c1.83,0,2.72-.55,2.72-1.66,0-.52-.16-.92-.49-1.23-.33-.3-.81-.46-1.43-.46s-1.13.13-1.49.39c-.36.26-.57.62-.65,1.11-.01.09-.09.15-.17.15h-.94c-.05,0-.1-.02-.13-.06-.03-.04-.05-.09-.04-.14.1-.82.47-1.48,1.11-1.95h0c.63-.46,1.42-.7,2.36-.7s1.71.26,2.28.78c.57.52.86,1.19.86,2,0,.57-.17,1.08-.5,1.53-.25.34-.58.6-.96.79.46.18.83.48,1.11.88.36.5.54,1.16.54,1.96s-.3,1.51-.88,2.07c-.58.56-1.39.85-2.41.85ZM18.42,23.18c.12.74.44,1.31.97,1.73.58.46,1.35.7,2.28.7s1.65-.25,2.16-.75c.52-.5.77-1.1.77-1.82s-.16-1.32-.47-1.76c-.31-.44-.74-.73-1.3-.87-.08-.02-.13-.09-.13-.17v-.07c0-.08.05-.15.13-.17.48-.15.87-.42,1.16-.8.29-.39.43-.82.43-1.32,0-.71-.24-1.28-.75-1.74-.5-.46-1.19-.69-2.04-.69s-1.58.21-2.15.63h0c-.51.38-.82.87-.93,1.51h.58c.11-.51.37-.91.76-1.19.43-.31,1-.46,1.7-.46s1.27.19,1.67.55c.4.37.6.87.6,1.49,0,1.32-1.03,2-3.07,2.01h-.15v.47h.13c1.07,0,1.88.18,2.43.54.57.37.86,1,.86,1.88,0,.66-.21,1.21-.63,1.62-.42.41-1.02.62-1.79.62s-1.39-.2-1.86-.59c-.44-.36-.7-.82-.8-1.35h-.55Z"/>
        </g>
      </g>
      <g>
        <path d="M34.37,9.39H.99c-.26,0-.47-.21-.47-.47s.21-.47.47-.47h33.38c.26,0,.47.21.47.47s-.21.47-.47.47Z"/>
        <path d="M34.37,9.57H.99c-.36,0-.65-.29-.65-.65s.29-.65.65-.65h33.38c.36,0,.65.29.65.65s-.29.65-.65.65ZM.99,8.62c-.16,0-.3.13-.3.3s.13.3.3.3h33.38c.16,0,.3-.13.3-.3s-.13-.3-.3-.3H.99Z"/>
      </g>
    </g>
  </g>
</svg>