<?xml version="1.0" encoding="UTF-8"?>
<svg id="Layer_2" data-name="Layer 2" xmlns="http://www.w3.org/2000/svg" viewBox="0 0 36.17 36.17">
  <defs>
    <style>
      .cls-1 {
        fill-rule: evenodd;
      }
    </style>
  </defs>
  <g id="Layer_1-2" data-name="Layer 1">
    <g id="Layer_1-3" data-name="Layer_1">
      <g>
        <path d="M18.09,7.17c3.01,0,5.74,1.22,7.72,3.2,1.98,1.98,3.2,4.71,3.2,7.72s-1.22,5.74-3.2,7.72c-1.98,1.98-4.71,3.2-7.72,3.2s-5.74-1.22-7.72-3.2c-1.98-1.98-3.2-4.71-3.2-7.72s1.22-5.74,3.2-7.72c1.98-1.98,4.71-3.2,7.72-3.2h0ZM25.27,10.91c-1.84-1.84-4.38-2.97-7.18-2.97s-5.34,1.14-7.18,2.97c-1.84,1.84-2.97,4.38-2.97,7.18s1.14,5.34,2.97,7.18c1.84,1.84,4.38,2.97,7.18,2.97s5.34-1.14,7.18-2.97c1.84-1.84,2.97-4.38,2.97-7.18s-1.14-5.34-2.97-7.18h0Z"/>
        <path d="M18.09,29.27c-2.99,0-5.79-1.16-7.91-3.28s-3.28-4.92-3.28-7.91,1.16-5.79,3.28-7.91,4.92-3.28,7.91-3.28,5.79,1.16,7.91,3.28c2.11,2.11,3.27,4.92,3.27,7.91s-1.16,5.79-3.27,7.91c-2.11,2.11-4.92,3.28-7.91,3.28ZM18.09,7.43c-2.85,0-5.52,1.11-7.53,3.12-2.01,2.01-3.12,4.69-3.12,7.53s1.11,5.52,3.12,7.53c2.01,2.01,4.69,3.12,7.53,3.12s5.52-1.11,7.53-3.12c2.01-2.01,3.12-4.69,3.12-7.53s-1.11-5.52-3.12-7.53c-2.01-2.01-4.69-3.12-7.53-3.12ZM18.09,28.5c-2.78,0-5.4-1.08-7.36-3.05-1.97-1.97-3.05-4.58-3.05-7.36s1.08-5.4,3.05-7.36c1.97-1.97,4.58-3.05,7.36-3.05s5.4,1.08,7.36,3.05h0c1.97,1.97,3.05,4.58,3.05,7.36s-1.08,5.4-3.05,7.36c-1.97,1.97-4.58,3.05-7.36,3.05ZM18.09,8.2c-2.64,0-5.12,1.03-6.99,2.9-1.87,1.87-2.9,4.35-2.9,6.99s1.03,5.12,2.9,6.99c1.87,1.87,4.35,2.9,6.99,2.9s5.12-1.03,6.99-2.9c1.87-1.87,2.9-4.35,2.9-6.99s-1.03-5.12-2.9-6.99c-1.87-1.87-4.35-2.9-6.99-2.9Z"/>
      </g>
      <g>
        <path d="M18.09.26c4.92,0,9.38,2,12.6,5.22,3.23,3.23,5.22,7.68,5.22,12.6s-2,9.38-5.22,12.6c-3.23,3.23-7.68,5.22-12.6,5.22s-9.38-2-12.6-5.22C2.26,27.47.26,23.01.26,18.09s2-9.38,5.22-12.6C8.71,2.26,13.17.26,18.09.26h0ZM30.15,6.03c-3.09-3.09-7.35-5-12.06-5s-8.97,1.91-12.06,5c-3.09,3.09-5,7.35-5,12.06s1.91,8.97,5,12.06c3.09,3.09,7.35,5,12.06,5s8.97-1.91,12.06-5c3.09-3.09,5-7.35,5-12.06s-1.91-8.97-5-12.06Z"/>
        <path d="M18.09,36.17c-4.83,0-9.37-1.88-12.79-5.3C1.88,27.46,0,22.92,0,18.09S1.88,8.71,5.3,5.3C8.71,1.88,13.26,0,18.09,0s9.37,1.88,12.79,5.3c3.42,3.42,5.3,7.96,5.3,12.79s-1.88,9.37-5.3,12.79c-3.42,3.42-7.96,5.3-12.79,5.3ZM18.09.53c-4.69,0-9.1,1.83-12.42,5.14C2.35,8.99.53,13.4.53,18.09s1.83,9.1,5.14,12.42c3.32,3.32,7.73,5.14,12.42,5.14s9.1-1.83,12.42-5.14c3.32-3.32,5.14-7.73,5.14-12.42s-1.83-9.1-5.14-12.42c-3.32-3.32-7.73-5.14-12.42-5.14ZM18.09,35.41c-4.63,0-8.98-1.8-12.25-5.07-3.27-3.27-5.07-7.62-5.07-12.25s1.8-8.98,5.07-12.25C9.11,2.57,13.46.77,18.09.77s8.98,1.8,12.25,5.07c3.27,3.27,5.07,7.62,5.07,12.25s-1.8,8.98-5.07,12.25c-3.27,3.27-7.62,5.07-12.25,5.07ZM18.09,1.29c-4.49,0-8.7,1.75-11.88,4.92-3.17,3.17-4.92,7.39-4.92,11.88s1.75,8.7,4.92,11.88c3.17,3.17,7.39,4.92,11.88,4.92s8.7-1.75,11.88-4.92,4.92-7.39,4.92-11.88-1.75-8.7-4.92-11.88h0c-3.17-3.17-7.39-4.92-11.88-4.92Z"/>
      </g>
      <g>
        <path class="cls-1" d="M18.09,16.94c.64,0,1.15.52,1.15,1.15s-.52,1.15-1.15,1.15-1.15-.52-1.15-1.15.52-1.15,1.15-1.15Z"/>
        <path d="M18.09,19.5c-.78,0-1.41-.63-1.41-1.41s.63-1.41,1.41-1.41,1.41.63,1.41,1.41-.63,1.41-1.41,1.41ZM18.09,17.2c-.49,0-.89.4-.89.89s.4.89.89.89.89-.4.89-.89-.4-.89-.89-.89Z"/>
      </g>
      <g>
        <g>
          <path d="M18.47.65c0-.21-.17-.38-.38-.38s-.38.17-.38.38v10c0,.21.17.38.38.38s.38-.17.38-.38V.65Z"/>
          <path d="M18.09,11.3c-.36,0-.65-.29-.65-.65V.65c0-.36.29-.65.65-.65s.65.29.65.65v10c0,.36-.29.65-.65.65ZM18.09.53c-.07,0-.12.05-.12.12v10c0,.07.05.12.12.12s.12-.05.12-.12V.65c0-.07-.05-.12-.12-.12Z"/>
        </g>
        <g>
          <path d="M35.53,18.47c.21,0,.38-.17.38-.38s-.17-.38-.38-.38h-10c-.21,0-.38.17-.38.38s.17.38.38.38h10Z"/>
          <path d="M35.53,18.73h-10c-.36,0-.65-.29-.65-.65s.29-.65.65-.65h10c.36,0,.65.29.65.65s-.29.65-.65.65ZM25.52,17.97c-.07,0-.12.05-.12.12s.05.12.12.12h10c.07,0,.12-.05.12-.12s-.05-.12-.12-.12h-10Z"/>
        </g>
        <g>
          <path d="M17.7,35.53c0,.21.17.38.38.38s.38-.17.38-.38v-10c0-.21-.17-.38-.38-.38s-.38.17-.38.38v10Z"/>
          <path d="M18.09,36.17c-.36,0-.65-.29-.65-.65v-10c0-.36.29-.65.65-.65s.65.29.65.65v10c0,.36-.29.65-.65.65ZM18.09,25.4c-.07,0-.12.05-.12.12v10c0,.07.05.12.12.12s.12-.05.12-.12v-10c0-.07-.05-.12-.12-.12Z"/>
        </g>
        <g>
          <path d="M.65,17.7c-.21,0-.38.17-.38.38s.17.38.38.38h10c.21,0,.38-.17.38-.38s-.17-.38-.38-.38H.65Z"/>
          <path d="M10.65,18.73H.65c-.36,0-.65-.29-.65-.65s.29-.65.65-.65h10c.36,0,.65.29.65.65s-.29.65-.65.65ZM.65,17.97c-.07,0-.12.05-.12.12s.05.12.12.12h10c.07,0,.12-.05.12-.12s-.05-.12-.12-.12H.65Z"/>
        </g>
      </g>
    </g>
  </g>
</svg>