<?xml version="1.0" encoding="UTF-8"?>
<svg id="Layer_2" data-name="Layer 2" xmlns="http://www.w3.org/2000/svg" viewBox="0 0 293.82 293.82">
  <g id="Layer_1-2" data-name="Layer 1">
    <g>
      <path d="M146.91,293.82C65.9,293.82,0,227.92,0,146.91S65.9,0,146.91,0s146.91,65.9,146.91,146.91-65.9,146.91-146.91,146.91ZM146.91,7.98C70.3,7.98,7.98,70.3,7.98,146.91s62.32,138.93,138.94,138.93,138.93-62.33,138.93-138.93S223.52,7.98,146.91,7.98Z"/>
      <g>
        <path d="M146.41,292.37c-1.91,0-3.6-1.37-3.93-3.31-.37-2.17,1.09-4.23,3.26-4.61,56.56-9.69,99.22-68.82,99.22-137.53S204.74,21.71,149.34,10.06c-2.16-.45-3.53-2.57-3.08-4.72.45-2.16,2.58-3.54,4.73-3.08,59.08,12.42,101.95,73.26,101.95,144.65s-45.5,135.06-105.84,145.4c-.23.04-.46.06-.68.06Z"/>
        <path d="M150.15,3.66c-.47,0-.94.14-1.35.4-.56.37-.95.93-1.08,1.58-.28,1.34.58,2.67,1.92,2.95,56.09,11.79,96.81,69.96,96.81,138.31s-43.19,129.2-100.46,139.01c-.66.11-1.23.47-1.61,1.02-.39.54-.54,1.2-.43,1.86.23,1.34,1.5,2.28,2.88,2.04,59.63-10.22,104.6-72.09,104.6-143.92S209.06,16,150.67,3.72c-.18-.04-.35-.06-.52-.06Z"/>
      </g>
      <g>
        <path d="M146.92,292.37c-.22,0-.45-.02-.68-.06-60.07-10.34-105.37-72.85-105.37-145.4S83.55,14.68,142.36,2.26c2.18-.46,4.27.92,4.73,3.08.46,2.16-.92,4.27-3.08,4.73-55.15,11.65-95.17,69.2-95.17,136.85s42.45,127.85,98.75,137.54c2.17.37,3.63,2.44,3.25,4.61-.33,1.94-2.02,3.31-3.93,3.31Z"/>
        <path d="M143.2,3.66c-.18,0-.35.02-.54.06-58.12,12.28-100.31,72.5-100.31,143.19s44.77,133.7,104.13,143.92c1.61.29,2.65-.7,2.88-2.03.11-.66-.04-1.32-.42-1.86-.39-.55-.96-.91-1.61-1.02-57-9.81-99.99-69.57-99.99-139.01S87.87,20.39,143.7,8.6c.65-.14,1.21-.52,1.57-1.08.37-.56.49-1.22.35-1.88-.25-1.18-1.26-1.98-2.42-1.98Z"/>
      </g>
      <g>
        <path d="M146.91,93.68c-39.24,0-76.13-15.28-103.88-43.03l5.64-5.64c26.24,26.24,61.13,40.69,98.24,40.69s72.84-14.79,99.18-41.65l5.69,5.59c-27.86,28.4-65.11,44.04-104.88,44.04Z"/>
        <path d="M45.15,50.65c27.34,26.8,63.42,41.54,101.76,41.54s75.3-15.09,102.76-42.53l-3.56-3.49c-26.51,26.47-61.68,41.03-99.2,41.03s-71.84-14.22-98.24-40.07l-3.52,3.52Z"/>
      </g>
      <g>
        <path d="M47.7,249.79l-5.69-5.59c27.86-28.42,65.12-44.06,104.91-44.06s76.14,15.28,103.88,43.03l-5.64,5.64c-26.24-26.24-61.13-40.69-98.24-40.69s-72.87,14.8-99.22,41.67Z"/>
        <path d="M44.12,244.19l3.56,3.49c26.51-26.49,61.69-41.06,99.23-41.06s71.84,14.22,98.24,40.07l3.52-3.52c-27.34-26.8-63.41-41.54-101.76-41.54s-75.33,15.1-102.79,42.55Z"/>
      </g>
      <g>
        <rect x="3.99" y="142.92" width="285.85" height="7.98"/>
        <path d="M5.48,149.4h282.85v-4.99H5.48v4.99Z"/>
      </g>
      <g>
        <path d="M142.92,289.83V3.99c0-2.2,1.78-3.99,3.99-3.99s3.99,1.79,3.99,3.99v285.84"/>
        <path d="M146.91,1.5c-1.37,0-2.49,1.12-2.49,2.49v285.84c0,1.38,1.12,2.49,2.49,2.49s2.49-1.12,2.49-2.49V3.99c0-1.38-1.12-2.49-2.49-2.49Z"/>
      </g>
    </g>
  </g>
</svg>