<?xml version="1.0" encoding="UTF-8"?>
<svg id="Layer_2" data-name="Layer 2" xmlns="http://www.w3.org/2000/svg" viewBox="0 0 35.52 35.52">
  <g id="Layer_1-2" data-name="Layer 1">
    <g>
      <path d="M17.76,35.52C7.97,35.52,0,27.55,0,17.76S7.97,0,17.76,0s17.76,7.97,17.76,17.76-7.97,17.76-17.76,17.76ZM17.76.96C8.5.96.96,8.5.96,17.76s7.53,16.8,16.8,16.8,16.8-7.54,16.8-16.8S27.02.96,17.76.96Z"/>
      <g>
        <path d="M17.7,35.35c-.23,0-.43-.17-.47-.4-.05-.26.13-.51.39-.56,6.84-1.17,11.99-8.32,11.99-16.63S24.75,2.62,18.05,1.22c-.26-.05-.43-.31-.37-.57.05-.26.31-.43.57-.37,7.14,1.5,12.33,8.86,12.33,17.49s-5.5,16.33-12.8,17.58c-.03,0-.06,0-.08,0Z"/>
        <path d="M18.15.44c-.06,0-.11.02-.16.05-.07.04-.11.11-.13.19-.03.16.07.32.23.36,6.78,1.43,11.7,8.46,11.7,16.72s-5.22,15.62-12.15,16.81c-.08.01-.15.06-.19.12-.05.07-.07.15-.05.22.03.16.18.28.35.25,7.21-1.24,12.65-8.72,12.65-17.4S25.27,1.93,18.22.45c-.02,0-.04,0-.06,0Z"/>
      </g>
      <g>
        <path d="M17.76,35.35s-.05,0-.08,0c-7.26-1.25-12.74-8.81-12.74-17.58S10.1,1.77,17.21.27c.26-.06.52.11.57.37.06.26-.11.52-.37.57-6.67,1.41-11.51,8.37-11.51,16.54s5.13,15.46,11.94,16.63c.26.05.44.29.39.56-.04.23-.24.4-.47.4Z"/>
        <path d="M17.31.44s-.04,0-.06,0C10.22,1.93,5.12,9.21,5.12,17.76s5.41,16.16,12.59,17.4c.2.03.32-.08.35-.25.01-.08,0-.16-.05-.23-.05-.07-.12-.11-.2-.12-6.89-1.19-12.09-8.41-12.09-16.81S10.62,2.46,17.37,1.04c.08-.02.15-.06.19-.13.04-.07.06-.15.04-.23-.03-.14-.15-.24-.29-.24Z"/>
      </g>
      <g>
        <path d="M17.76,11.33c-4.74,0-9.2-1.85-12.56-5.2l.68-.68c3.17,3.17,7.39,4.92,11.88,4.92s8.81-1.79,11.99-5.03l.69.68c-3.37,3.43-7.87,5.32-12.68,5.32Z"/>
        <path d="M5.46,6.12c3.31,3.24,7.67,5.02,12.3,5.02s9.1-1.82,12.42-5.14l-.43-.42c-3.21,3.2-7.46,4.96-11.99,4.96s-8.68-1.72-11.88-4.84l-.43.43Z"/>
      </g>
      <g>
        <path d="M5.77,30.2l-.69-.68c3.37-3.44,7.87-5.33,12.68-5.33s9.2,1.85,12.56,5.2l-.68.68c-3.17-3.17-7.39-4.92-11.88-4.92s-8.81,1.79-11.99,5.04Z"/>
        <path d="M5.33,29.52l.43.42c3.21-3.2,7.46-4.96,12-4.96s8.68,1.72,11.88,4.84l.43-.43c-3.31-3.24-7.67-5.02-12.3-5.02s-9.11,1.83-12.43,5.14Z"/>
      </g>
      <g>
        <rect x=".48" y="17.28" width="34.56" height=".96"/>
        <path d="M.66,18.06h34.2v-.6H.66v.6Z"/>
      </g>
      <g>
        <path d="M17.28,35.04V.48c0-.27.22-.48.48-.48s.48.22.48.48v34.56"/>
        <path d="M17.76.18c-.17,0-.3.14-.3.3v34.56c0,.17.14.3.3.3s.3-.14.3-.3V.48c0-.17-.14-.3-.3-.3Z"/>
      </g>
    </g>
  </g>
</svg>