<?xml version="1.0" encoding="UTF-8"?>
<svg id="Layer_2" data-name="Layer 2" xmlns="http://www.w3.org/2000/svg" viewBox="0 0 97.23 97.23">
  <g id="Layer_1-2" data-name="Layer 1">
    <g>
      <path d="M39.38,53.18c0-.79-.64-1.42-1.42-1.42H5.99c-1.73,0-3.14-1.41-3.14-3.14V5.99c0-1.73,1.41-3.14,3.14-3.14h42.62c1.73,0,3.14,1.41,3.14,3.14v31.97c0,.79.64,1.42,1.42,1.42s1.42-.64,1.42-1.42V5.99c0-3.3-2.69-5.99-5.99-5.99H5.99C2.69,0,0,2.69,0,5.99v42.62c0,3.3,2.69,5.99,5.99,5.99h31.97c.79,0,1.42-.64,1.42-1.42Z"/>
      <path d="M91.24,42.62h-12.18c-.79,0-1.42.64-1.42,1.42s.64,1.42,1.42,1.42h12.18c1.73,0,3.14,1.41,3.14,3.14v42.62c0,1.73-1.41,3.14-3.14,3.14h-42.62c-1.73,0-3.14-1.41-3.14-3.14v-42.62c0-1.73,1.41-3.14,3.14-3.14h24.36c.79,0,1.42-.64,1.42-1.42s-.64-1.42-1.42-1.42h-24.36c-3.3,0-5.99,2.69-5.99,5.99v42.62c0,3.3,2.69,5.99,5.99,5.99h42.62c3.3,0,5.99-2.69,5.99-5.99v-42.62c0-3.3-2.69-5.99-5.99-5.99Z"/>
      <path d="M41,15.22h-12.28v-1.62c0-.79-.64-1.42-1.42-1.42s-1.42.64-1.42,1.42v1.62h-12.28c-.79,0-1.42.64-1.42,1.42s.64,1.42,1.42,1.42h20.97c-.82,2.63-2.88,7.95-7.28,13.25-2.69-3.24-4.51-6.49-5.72-9.18-.32-.72-1.16-1.04-1.88-.72-.72.32-1.04,1.17-.72,1.88,1.33,2.97,3.37,6.58,6.4,10.16-2.16,2.24-4.78,4.42-7.94,6.31-.67.4-.89,1.28-.49,1.95.27.45.74.69,1.22.69.25,0,.5-.07.73-.2,3.35-2.01,6.12-4.31,8.39-6.65,2.3,2.36,5.07,4.65,8.41,6.65.23.14.48.2.73.2.48,0,.96-.25,1.22-.69.4-.67.19-1.55-.49-1.95-3.17-1.9-5.79-4.07-7.95-6.32,2.24-2.64,3.88-5.22,5.05-7.39,1.89-3.51,2.86-6.46,3.28-8h3.45c.79,0,1.42-.64,1.42-1.42s-.64-1.42-1.42-1.42h0Z"/>
      <path d="M71.86,56.07c-.32-.77-1.06-1.27-1.89-1.27h0c-.83,0-1.58.5-1.89,1.27,0,.01,0,.02-.01.03l-10.29,27.01c-.28.74.09,1.56.82,1.84.17.06.34.09.51.09.57,0,1.11-.35,1.33-.92l2.21-5.81h14.57l2.19,5.81c.28.74,1.1,1.11,1.84.83.74-.28,1.11-1.1.83-1.84l-10.2-27.02s0-.03-.02-.04h0ZM63.74,75.47l6.23-16.36,6.17,16.36h-12.41Z"/>
      <path d="M38.81,77.92l-6.09-4.57c-.63-.47-1.52-.34-1.99.28s-.34,1.52.28,1.99l2.67,2h-4.86c-5.09,0-9.23-4.14-9.23-9.23v-9.13c0-.79-.64-1.42-1.42-1.42s-1.42.64-1.42,1.42v9.13c0,6.66,5.42,12.08,12.08,12.08h4.86l-2.67,2c-.63.47-.76,1.36-.28,1.99.28.37.71.57,1.14.57.3,0,.6-.09.85-.28l6.09-4.57c.36-.27.57-.69.57-1.14s-.21-.87-.57-1.14Z"/>
      <path d="M58.42,19.31l6.09,4.57c.26.19.56.28.85.28.43,0,.86-.2,1.14-.57.47-.63.34-1.52-.28-1.99l-2.67-2h4.86c5.09,0,9.23,4.14,9.23,9.23v9.13c0,.79.64,1.42,1.42,1.42s1.42-.64,1.42-1.42v-9.13c0-6.66-5.42-12.08-12.08-12.08h-4.86l2.67-2c.63-.47.76-1.36.28-1.99-.47-.63-1.36-.76-1.99-.28l-6.09,4.57c-.36.27-.57.69-.57,1.14s.21.87.57,1.14h0Z"/>
    </g>
  </g>
</svg>