<?xml version="1.0" encoding="UTF-8"?>
<svg id="Layer_2" data-name="Layer 2" xmlns="http://www.w3.org/2000/svg" viewBox="0 0 38.08 36.3">
  <g id="Layer_1-2" data-name="Layer 1">
    <g>
      <g>
        <path d="M7.78,35.98c-.11,0-.21-.03-.3-.1-.18-.13-.25-.36-.19-.57l4.19-12.88L.53,14.47c-.18-.13-.25-.36-.19-.57.07-.21.26-.35.49-.35h13.54L18.56.67c.07-.21.26-.35.49-.35s.42.14.49.35l4.19,12.88h13.54c.22,0,.42.14.49.35.07.21,0,.44-.19.57l-10.96,7.96,4.19,12.88c.07.21,0,.44-.19.57-.18.13-.42.13-.6,0l-10.96-7.96-10.96,7.96c-.09.07-.19.1-.3.1ZM2.4,14.57l9.99,7.26c.18.13.25.36.19.57l-3.81,11.74,9.99-7.26c.18-.13.42-.13.6,0l9.99,7.26-3.81-11.74c-.07-.21,0-.44.19-.57l9.99-7.26h-12.34c-.22,0-.42-.14-.49-.35l-3.81-11.74-3.81,11.74c-.07.21-.26.35-.49.35H2.4Z"/>
        <path d="M7.79,36.11c-.13,0-.26-.04-.37-.12-.22-.16-.32-.45-.23-.71l4.16-12.79L.45,14.57c-.22-.16-.32-.45-.23-.71.09-.26.33-.44.6-.44h13.45L18.44.63c.09-.26.33-.44.6-.44s.52.18.6.44l4.16,12.79h13.45c.28,0,.52.18.6.44.08.26,0,.55-.23.71l-10.88,7.91,4.16,12.79c.08.26,0,.55-.23.71-.22.16-.52.16-.75,0l-10.88-7.91-10.88,7.91c-.11.08-.24.12-.37.12ZM.83,13.67c-.17,0-.31.11-.37.27s0,.33.14.43l11.03,8.01-.03.09-4.18,12.88c-.05.16,0,.33.14.43.13.1.32.1.45,0l11.03-8.01,11.03,8.01c.14.1.32.1.45,0,.14-.1.19-.27.14-.43l-4.21-12.97,11.03-8.01c.13-.1.19-.27.14-.43-.05-.16-.2-.27-.37-.27h-13.63l-.03-.09L19.41.71c-.05-.16-.2-.27-.37-.27s-.31.11-.37.27l-4.21,12.97H.83ZM29.57,34.46l-10.3-7.48c-.13-.1-.32-.1-.45,0l-10.3,7.48.12-.37,3.81-11.74c.05-.16,0-.33-.14-.43L2.01,14.45h12.73c.17,0,.31-.11.37-.27l3.93-12.11,3.93,12.11c.05.16.2.27.37.27h12.73l-10.3,7.48c-.14.1-.19.27-.14.43l3.93,12.11ZM2.78,14.7l9.67,7.03c.22.16.32.45.23.71l-3.7,11.37,9.68-7.03c.22-.16.52-.16.75,0l9.68,7.03-3.7-11.37c-.08-.26,0-.55.23-.71l9.67-7.03h-11.96c-.28,0-.52-.18-.6-.44l-3.7-11.37-3.7,11.37c-.09.26-.33.44-.6.44H2.78Z"/>
      </g>
      <g>
        <path d="M7.78,36.17c-.15,0-.29-.05-.41-.13-.25-.18-.35-.49-.25-.78l4.14-12.75L.41,14.63c-.25-.18-.35-.49-.25-.78.09-.29.36-.48.67-.48h13.41L18.37.61c.09-.29.36-.48.67-.48s.57.19.67.48l4.14,12.75h13.4c.3,0,.57.19.67.48.09.29,0,.61-.25.78l-10.85,7.88,4.14,12.75c.09.29,0,.61-.25.78-.25.18-.58.18-.82,0l-10.85-7.88-10.84,7.88c-.12.09-.26.13-.41.13ZM.83,13.74c-.14,0-.26.09-.3.22-.04.13,0,.28.12.36l10.96,7.96c.07.05.1.13.07.21l-4.19,12.88c-.04.13,0,.28.12.36.11.08.27.08.37,0l10.96-7.96c.07-.05.16-.05.23,0l10.96,7.96c.11.08.26.08.38,0,.11-.08.16-.22.12-.36l-4.19-12.88c-.03-.08,0-.17.07-.21l10.96-7.96c.11-.08.16-.22.12-.36-.04-.13-.16-.22-.3-.22h-13.54c-.08,0-.16-.05-.18-.13L19.35.73c-.09-.26-.52-.26-.61,0l-4.19,12.88c-.03.08-.1.13-.18.13H.83ZM29.33,34.33s-.08-.01-.11-.04l-9.99-7.26c-.11-.08-.26-.08-.38,0l-9.99,7.26c-.07.05-.16.05-.23,0-.07-.05-.1-.14-.07-.21l3.81-11.74c.04-.13,0-.28-.12-.36L2.29,14.73c-.07-.05-.1-.14-.07-.21.03-.08.1-.13.18-.13h12.34c.14,0,.26-.09.3-.22l3.81-11.74c.05-.16.31-.16.36,0l3.81,11.74c.04.13.16.22.3.22h12.34c.08,0,.16.05.18.13.03.08,0,.17-.07.21l-9.99,7.26c-.11.08-.16.22-.12.36l3.81,11.74c.03.08,0,.17-.07.21-.03.02-.07.04-.11.04ZM2.99,14.76l9.51,6.91c.25.18.35.49.25.78l-3.63,11.18,9.51-6.91c.25-.18.58-.18.82,0l9.51,6.91-3.63-11.18c-.09-.29,0-.61.25-.78l9.51-6.91h-11.75c-.3,0-.57-.19-.67-.48l-3.63-11.18-3.63,11.18c-.09.29-.36.48-.67.48H2.99Z"/>
        <path d="M7.79,36.3c-.18,0-.34-.05-.49-.16-.29-.21-.41-.58-.3-.92l4.12-12.66L.34,14.73c-.29-.21-.41-.58-.3-.92.11-.34.43-.57.79-.57h13.31L18.26.57c.11-.34.43-.57.79-.57s.68.23.79.57l4.11,12.66h13.31c.36,0,.67.23.79.57.11.34-.01.71-.3.92l-10.77,7.83,4.12,12.66c.11.34-.01.71-.3.92s-.68.21-.97,0l-10.77-7.83-10.77,7.83c-.14.1-.31.16-.49.16ZM.83,13.48c-.25,0-.47.16-.55.4-.08.24,0,.5.21.65l10.92,7.93-.03.09-4.14,12.75c-.08.24,0,.5.21.65.2.14.48.14.68,0l10.92-7.93,10.92,7.93c.2.15.48.15.68,0,.2-.15.29-.41.21-.65l-4.17-12.83,10.92-7.93c.2-.15.29-.41.21-.65-.08-.24-.3-.4-.55-.4h-13.5l-.03-.09L19.59.65c-.08-.24-.3-.4-.55-.4s-.47.16-.55.4l-4.17,12.84H.83ZM30.3,35.92c-.09,0-.18-.03-.26-.08l-10.96-7.96s-.05-.02-.08,0l-10.96,7.96c-.16.11-.37.11-.52,0-.16-.11-.22-.31-.16-.5l4.18-12.88s0-.06-.02-.07L.57,14.42c-.16-.11-.22-.31-.16-.5.06-.18.23-.31.42-.31h13.54s.05-.02.06-.05L18.62.69c.06-.17.22-.28.42-.28s.37.11.42.28l4.18,12.88s.03.05.06.05h13.54c.19,0,.36.12.42.31.06.18,0,.38-.16.5l-10.96,7.96s-.03.05-.02.08l4.19,12.88c.06.18,0,.38-.16.5-.08.06-.17.08-.26.08ZM19.04,27.61c.07,0,.13.02.19.06l10.96,7.96c.07.05.16.05.23,0,.07-.05.1-.14.07-.22l-4.19-12.88c-.04-.13,0-.27.11-.35l10.96-7.96c.07-.05.1-.14.07-.22-.03-.08-.1-.13-.18-.13h-13.54c-.14,0-.26-.09-.3-.22L19.23.77c-.03-.08-.12-.11-.18-.11s-.16.03-.18.11l-4.18,12.88c-.04.13-.16.22-.3.22H.83c-.08,0-.16.05-.18.13s0,.17.07.22l10.96,7.96c.11.08.16.22.12.35l-4.18,12.88c-.03.08,0,.17.07.22.06.05.16.05.23,0l10.96-7.96c.06-.04.12-.06.19-.06ZM29.33,34.45c-.07,0-.13-.02-.18-.06l-9.99-7.26c-.07-.05-.16-.05-.23,0l-9.99,7.26c-.11.08-.26.08-.37,0-.11-.08-.16-.22-.12-.35l3.81-11.74c.03-.08,0-.17-.07-.22L2.21,14.83c-.11-.08-.16-.22-.12-.35.04-.13.16-.22.3-.22h12.34c.08,0,.16-.05.18-.13l3.81-11.74c.04-.12.16-.2.3-.2s.26.08.3.2l3.81,11.74c.03.08.1.13.18.13h12.34c.14,0,.26.09.3.22.04.13,0,.27-.12.35l-9.99,7.26c-.07.05-.1.14-.07.22l3.82,11.74c.04.13,0,.27-.11.35-.06.04-.12.06-.19.06ZM2.4,14.5s-.05.02-.06.05c0,.03,0,.06.02.08l9.99,7.26c.16.11.22.31.16.5l-3.81,11.74s0,.06.02.08c.02.02.05.02.08,0l9.99-7.26c.16-.11.37-.11.52,0l9.99,7.25s.06.02.08,0c.02-.02.03-.05.02-.07l-3.82-11.74c-.06-.18,0-.38.16-.5l9.99-7.26s.03-.05.02-.07c0-.03-.04-.05-.06-.05h-12.34c-.19,0-.36-.12-.42-.31l-3.81-11.74s-.11-.05-.12,0l-3.81,11.74c-.06.18-.23.31-.42.31H2.4ZM8.88,33.96l.12-.37,3.63-11.18c.08-.24,0-.5-.21-.65L2.6,14.64h12.14c.25,0,.47-.16.55-.4l3.75-11.55,3.75,11.55c.08.24.3.4.55.4h12.14l-9.82,7.14c-.2.15-.29.41-.21.65l3.75,11.55-9.82-7.14c-.2-.15-.48-.15-.68,0l-9.82,7.14ZM19.04,26.47c.17,0,.34.05.49.16l9.2,6.68-3.51-10.81c-.11-.34,0-.71.3-.92l9.2-6.68h-11.37c-.36,0-.68-.23-.79-.57l-3.51-10.81-3.51,10.81c-.11.34-.43.57-.79.57H3.37l9.2,6.68c.29.21.41.58.3.92l-3.51,10.81,9.2-6.68c.15-.1.32-.16.49-.16Z"/>
      </g>
    </g>
  </g>
</svg>