<?xml version="1.0" encoding="UTF-8"?>
<svg id="Layer_2" data-name="Layer 2" xmlns="http://www.w3.org/2000/svg" viewBox="0 0 266.93 290.79">
  <g id="Layer_1-2" data-name="Layer 1">
    <g>
      <path d="M257.07,290.79H22.24c-5.44,0-9.86-4.42-9.86-9.86V123.27L1.08,89.84l-.78-.39v-2.02c-.58-2.27-.33-4.65.73-6.78,1.17-2.36,3.19-4.12,5.69-4.97L229.19.52c5.16-1.74,10.77,1.04,12.5,6.19l12.37,36.59c1.75,5.2-1.03,10.8-6.19,12.54l-165.61,55.92h174.81c5.44,0,9.86,4.42,9.86,9.86v159.31c0,5.44-4.42,9.86-9.86,9.86ZM8.53,85.45v.03s12.3,36.4,12.3,36.4v159.05c0,.77.63,1.4,1.4,1.4h234.83c.77,0,1.4-.63,1.4-1.4V121.62c0-.77-.63-1.4-1.4-1.4H30.74L245.17,47.81c.74-.25,1.13-1.04.88-1.78l-12.38-36.62c-.25-.73-1.04-1.13-1.78-.88L9.42,83.7c-.48.16-.71.51-.81.71-.1.19-.23.58-.08,1.05Z"/>
      <rect x="16.6" y="157.82" width="246.1" height="8.46"/>
    </g>
  </g>
</svg>